<svg width="80" height="80" viewBox="0 0 80 80" fill="none" xmlns="http://www.w3.org/2000/svg">
<g clip-path="url(#clip0_1382_404)">
<path d="M39.6649 2.47906C60.2021 2.47906 76.8508 19.1278 76.8508 39.6649C76.8508 60.2021 60.2021 76.8508 39.6649 76.8508C19.1278 76.8508 2.47906 60.2021 2.47906 39.6649C2.53902 19.1526 19.1526 2.53902 39.6649 2.47906ZM39.6649 0C17.7586 0 0 17.7586 0 39.6649C0 61.5713 17.7586 79.3298 39.6649 79.3298C61.5713 79.3298 79.3298 61.5713 79.3298 39.6649C79.266 17.7851 61.5448 0.0639907 39.6649 0Z" fill="#E9AF8F"/>
<path d="M39.6652 8.05694C57.1218 8.05694 71.2732 22.2083 71.2732 39.6649C71.2732 57.1215 57.1218 71.2729 39.6652 71.2729C22.2086 71.2729 8.05718 57.1217 8.05718 39.6649C8.04277 22.2227 22.1709 8.07135 39.6131 8.05694C39.6305 8.05694 39.6478 8.05694 39.6652 8.05694ZM39.6652 5.57788C20.8394 5.57788 5.57812 20.8391 5.57812 39.6649C5.57812 58.4907 20.8394 73.752 39.6652 73.752C58.491 73.752 73.7522 58.4907 73.7522 39.6649C73.7632 20.8501 58.5196 5.58888 39.7048 5.57788C39.6917 5.57788 39.6783 5.57788 39.6652 5.57788Z" fill="#E9AF8F"/>
<g clip-path="url(#clip1_1382_404)">
<path d="M40.7248 35.65C40.3623 35.65 40.3623 35.2875 39.9998 35.2875V24.05C44.3498 24.4125 47.9748 26.225 47.9748 26.225L51.2373 19.7C50.8748 19.7 45.7998 16.8 39.9998 16.8V11H36.3748V16.8C33.4748 17.525 31.2998 18.6125 29.1248 20.0625C26.9498 22.2375 25.4998 25.1375 25.4998 28.4C25.4998 30.9375 26.2248 36.7375 36.3748 41.45V55.5875C33.1123 54.8625 29.1248 53.05 27.6748 52.325L24.0498 58.4875C24.7748 58.85 30.5748 62.1125 36.3748 62.8375V69H39.9998V62.8375C48.3373 61.75 53.0498 55.225 53.0498 49.0625C53.0498 43.625 49.4248 39.275 40.7248 35.65ZM36.3748 33.475C33.4748 31.6625 32.7498 29.85 32.7498 28.7625C32.7498 27.3125 33.1123 26.225 34.1998 25.5C34.9248 25.1375 35.6498 24.775 36.3748 24.4125V33.475ZM39.9998 55.5875V43.2625C43.9873 45.075 45.7998 47.25 45.7998 49.0625C45.7998 51.2375 44.7123 54.8625 39.9998 55.5875Z" stroke="#E9AF8F" stroke-width="2"/>
</g>
</g>
<defs>
<clipPath id="clip0_1382_404">
<rect width="79.33" height="79.33" fill="white"/>
</clipPath>
<clipPath id="clip1_1382_404">
<rect width="58" height="58" fill="white" transform="translate(11 11)"/>
</clipPath>
</defs>
</svg>
