<svg width="139" height="139" fill="none" xmlns="http://www.w3.org/2000/svg"><circle cx="69.5" cy="69.5" r="69.5" fill="url(#paint0_radial_119_692)"/><path fill-rule="evenodd" clip-rule="evenodd" d="M71.417 102.071V67.739l6.965-3.126c1.068-.498 6.505-3.01 7.201-3.068v34.332c-.699.163-1.064.48-1.72.759-.672.288-1.07.49-1.72.759l-7.125 3.143c-.954.445-2.654 1.312-3.601 1.533zm-17-40.526c.689.058 2.72 1.117 3.517 1.44l10.65 4.754v34.332c-.46-.107-1.317-.508-1.769-.711l-12.398-5.483V61.545zm34 32.916V60.13c.61-.142 1.073-.46 1.618-.682.625-.255 1.039-.483 1.594-.709l9.538-4.271v34.508l-9.46 4.173c-.805.334-2.556 1.252-3.29 1.314zM38.832 54.468c.946.5 2.118 1.015 3.163 1.44l6.375 2.832c.555.225.97.453 1.594.708.545.221 1.009.54 1.618.682v34.333c-.701-.06-8.205-3.56-9.511-4.122l-3.239-1.365V54.467zm17.886 4.6c.67-.055 7.04-2.932 8.248-3.436 3.779-1.578 1.838-1.164 7.158-1.164.629 0 6.814 2.877 8.22 3.464.715.298 2.287 1.083 2.936 1.137-.378.516-.835.522-1.476.826L70 65.084c-.005 0-12.833-5.405-13.281-6.017zm21.604-5.131l3.823-.781c1.332-.267 2.478-.521 3.684-.92 1.212-.4 2.22-.835 3.294-1.309 1.103-.487 1.958-1.182 2.834-1.769.541.287 1.096.472 1.712.768l5.195 2.24c-.337.46-10.65 4.96-11.41 5.255-.85.33-2.303-.6-3.88-1.3l-5.252-2.184zm-37.187-1.77l6.906-3.009c.876.587 1.73 1.282 2.834 1.77 1.075.473 2.082.908 3.294 1.308 1.974.652 7.108 1.448 7.507 1.7l-7.845 3.323c-1.24.554-.7.332-2.5-.416-.516-.214-9.802-4.137-10.196-4.676zm30.989-.708c.114-1.365 2.882-5.427 3.948-6.673 9.798-11.44 16.594-6.076 16.594-2.175 0 .819-.56 2.086-.914 2.626-1.313 1.996-4.664 3.521-6.918 4.235-2.577.816-9.888 1.987-12.71 1.987zM47.333 42.61c0-1.362.932-2.755 1.74-3.393a7.132 7.132 0 011.566-.912c3.272-1.39 7.264.792 9.569 2.765.988.845 1.976 1.666 2.784 2.704.326.42.528.554.837.934 1.13 1.39 3.914 5.171 4.046 6.751l-6.579-.681c-4.314-.747-10.216-1.756-12.955-5.458-.482-.65-1.008-1.671-1.008-2.71zm17.709-1.061c1.14-.266 4.242-2.048 4.958-2.048.716 0 3.819 1.782 4.958 2.048-.397.593-.817 1.018-1.266 1.566-.893 1.094-3.259 4.413-3.515 5.512h-.354c-.525-2.25-3.91-5.778-4.781-7.078zm-20.542.53c0 3.833.772 2.95 1.24 4.956l-5.076 2.183C39.282 49.862 36 50.991 36 51.989v38.225c0 .732 1.034 1.11 1.643 1.367.745.314 1.453.638 2.194.993 5.71 2.74 13.173 5.718 19.243 8.553 1.87.873 10.288 4.66 10.92 4.66.828 0 11.222-4.849 13.002-5.588a84.838 84.838 0 004.293-1.904c3.858-1.852 8.809-3.825 12.869-5.72 1.267-.593 3.836-1.388 3.836-2.36V51.988c0-.764-1.396-1.336-1.973-1.568l-7.767-3.387c.468-2.006 1.24-1.123 1.24-4.956 0-3.784-4.102-7.078-7.969-7.078-3.847 0-6.865 1.45-9.331 3.594-1.122.976-.416 1.094-3.77-.412-4.996-2.243-3.745-2.389-8.74-.056-.731.342-1.433.65-2.094.933-.918.394-.765.396-1.797-.464-8.71-7.252-17.299-2.205-17.299 3.483z" fill="url(#paint1_linear_119_692)"/><defs><radialGradient id="paint0_radial_119_692" cx="0" cy="0" r="1" gradientUnits="userSpaceOnUse" gradientTransform="rotate(90 0 69.5) scale(69.5)"><stop offset=".594" stop-color="#fff"/><stop offset="1" stop-color="#fff" stop-opacity="0"/></radialGradient><linearGradient id="paint1_linear_119_692" x1="36" y1="70.922" x2="104" y2="70.922" gradientUnits="userSpaceOnUse"><stop stop-color="#E9C88F"/><stop offset="1" stop-color="#E9AF8F"/></linearGradient></defs></svg>