<svg width="1512" height="122" fill="none" xmlns="http://www.w3.org/2000/svg"><path fill-rule="evenodd" clip-rule="evenodd" d="M211.347 213.845h-78.49V128.61H46.712v85.235H0V1.517h46.712v84.02h86.145V1.518h46.712V176.61L254.723 0h43.072l90.998 213.845h-48.836l-19.413-47.622H230.76l-19.413 47.622zm64.305-157.73l-28.209 68.855h56.418l-28.209-68.855zm123.662 157.73h46.713v-84.628l62.127-97.233v181.861h46.712v-64.912l24.569-25.479 65.822 90.391h56.115l-90.391-122.24 86.448-90.088h-56.418l-86.145 92.817V1.517h-80.327L422.974 86.75 372.318 1.517H317.72l81.594 128.61v83.718zm855.176 0h47.63l19.41-47.622h89.78l19.42 47.622h81.91V1.517h-46.72v180.279L1388.56 0h-43.07l-63.05 148.165c-2.42-24.182-17-36.773-39.38-45.338 15.17-8.493 27.91-21.839 27.91-45.802 0-15.166-4.85-26.996-14.56-36.702-12.13-12.133-31.24-18.806-55.51-18.806h-144.34V123.15c0 33.669-17.29 50.959-45.8 50.959-28.514 0-45.803-17.896-45.803-52.475V1.517h-46.712V61.17C901.112 25.298 863.736 1.517 815.652 1.517h-82.808v212.328h82.808c50.354 0 88.963-26.424 104.882-65.068 8.618 45.354 41.106 68.404 89.616 68.404 51.64 0 86.12-25.87 92.17-78.511v75.175h101.01c23.68 0 43.36-4.74 57.21-14.219l-6.05 14.219zm83.72-88.875l28.21-68.855 28.21 68.855h-56.42zm-558.654 46.712V43.679h36.096c38.219 0 64.002 26.39 64.002 64.002 0 38.219-25.783 64.001-64.002 64.001h-36.096zM1147.82 42.466v44.892h43.07c20.63 0 33.67-6.673 33.67-23.053 0-13.953-10.92-21.84-30.63-21.84h-46.11zm0 83.718v46.712h55.51c20.62 0 33.06-7.28 33.06-23.66 0-14.256-10.62-23.052-34.58-23.052h-53.99z" fill="url(#paint0_linear_119_684)" fill-opacity=".1"/><path fill-rule="evenodd" clip-rule="evenodd" d="M211.347 213.845h-78.49V128.61H46.712v85.235H0V1.517h46.712v84.02h86.145V1.518h46.712V176.61L254.723 0h43.072l90.998 213.845h-48.836l-19.413-47.622H230.76l-19.413 47.622zm64.305-157.73l-28.209 68.855h56.418l-28.209-68.855zm123.662 157.73h46.713v-84.628l62.127-97.233v181.861h46.712v-64.912l24.569-25.479 65.822 90.391h56.115l-90.391-122.24 86.448-90.088h-56.418l-86.145 92.817V1.517h-80.327L422.974 86.75 372.318 1.517H317.72l81.594 128.61v83.718zm855.176 0h47.63l19.41-47.622h89.78l19.42 47.622h81.91V1.517h-46.72v180.279L1388.56 0h-43.07l-63.05 148.165c-2.42-24.182-17-36.773-39.38-45.338 15.17-8.493 27.91-21.839 27.91-45.802 0-15.166-4.85-26.996-14.56-36.702-12.13-12.133-31.24-18.806-55.51-18.806h-144.34V123.15c0 33.669-17.29 50.959-45.8 50.959-28.514 0-45.803-17.896-45.803-52.475V1.517h-46.712V61.17C901.112 25.298 863.736 1.517 815.652 1.517h-82.808v212.328h82.808c50.354 0 88.963-26.424 104.882-65.068 8.618 45.354 41.106 68.404 89.616 68.404 51.64 0 86.12-25.87 92.17-78.511v75.175h101.01c23.68 0 43.36-4.74 57.21-14.219l-6.05 14.219zm83.72-88.875l28.21-68.855 28.21 68.855h-56.42zm-558.654 46.712V43.679h36.096c38.219 0 64.002 26.39 64.002 64.002 0 38.219-25.783 64.001-64.002 64.001h-36.096zM1147.82 42.466v44.892h43.07c20.63 0 33.67-6.673 33.67-23.053 0-13.953-10.92-21.84-30.63-21.84h-46.11zm0 83.718v46.712h55.51c20.62 0 33.06-7.28 33.06-23.66 0-14.256-10.62-23.052-34.58-23.052h-53.99z" fill="#fff"/><defs><linearGradient id="paint0_linear_119_684" x1="0" y1="110.212" x2="1512.64" y2="110.212" gradientUnits="userSpaceOnUse"><stop stop-color="#E9C88F"/><stop offset="1" stop-color="#E9AF8F"/></linearGradient></defs></svg>