<svg width="53" height="108" viewBox="0 0 53 108" fill="none" xmlns="http://www.w3.org/2000/svg">
<g filter="url(#filter0_d_1176_2073)">
<path fill-rule="evenodd" clip-rule="evenodd" d="M44.398 89.841H8.13301C8.1714 88.089 9.21194 89.0688 12.666 89.0688C17.6415 89.0688 39.9019 89.3054 43.1089 88.8984C44.6349 88.7041 44.887 88.9231 44.9648 89.6478C44.7344 89.78 44.7627 89.841 44.398 89.841ZM35.5209 74.0041H42.1315V87.9098H35.5209V74.0041ZM10.9662 65.8924H17.3884V87.9098H10.9662V65.8924ZM34.5763 73.8109V87.9098H31.7431V57.974H38.1653V72.8456H35.5209C35.0804 72.8456 34.5763 73.3605 34.5763 73.8109ZM14.7441 50.6351C14.7441 50.1904 14.8754 50.0561 15.3103 50.0561H20.7879C21.2233 50.0561 21.3547 50.1904 21.3547 50.6351V87.9098H18.5214V66.2788C18.5214 64.2836 16.606 64.7339 14.7441 64.7339V50.6351ZM30.6101 58.1672V87.9098H29.6655V42.3303H36.0872V56.8155H31.932C31.0501 56.8155 30.6101 57.2659 30.6101 58.1672ZM18.7103 33.8328H25.1325V87.9098H22.4882V51.0214C22.4882 49.959 22.2381 49.0902 21.1657 49.0902H18.7103V33.8328ZM28.532 42.7166V87.9098H26.4544V25.9144H32.8766V41.1718H29.6655C29.0533 41.1718 28.532 42.0111 28.532 42.7166ZM25.3214 24.9485V32.6738H22.4882V15.4852H28.9098V24.7554H26.2655C25.968 24.7554 25.5497 24.8576 25.3214 24.9485ZM24.1879 6.21458H26.8323C27.2672 6.21458 27.399 6.34939 27.399 6.79409V14.3262H24.1879V6.21458ZM25.3214 4.66973C25.3214 2.37751 25.1295 2.58566 25.6988 2.15903C26.2685 2.56396 26.0766 2.35065 26.0766 4.66973C26.0766 5.2136 25.9948 5.02715 25.6988 5.24924C25.3805 5.02301 25.3214 5.22135 25.3214 4.66973ZM24.3768 2.3522V5.24924C23.6479 5.26577 23.0544 5.51731 23.0544 6.21458V14.3262C21.9467 14.3262 21.3547 14.5664 21.3547 15.6784V32.6738C16.8005 32.6738 17.7657 31.8691 17.7657 41.7513C17.7657 43.5508 17.745 45.3637 17.7693 47.1621C17.8011 49.4946 18.2229 49.0902 14.3663 49.0902C14.1056 49.4879 13.7995 49.5912 13.7995 50.0561V64.7339C12.5205 64.7339 9.83327 64.3368 9.83327 65.8924V87.9098C8.44316 87.9098 7 87.556 7 89.6478C7 90.3508 7.92084 91 8.69974 91H44.0202C46.6882 91 46.4372 87.9098 44.5869 87.9098H43.0761V73.8109C43.0761 72.5124 40.5863 72.8456 39.2983 72.8456V58.3603C39.2983 56.6254 37.8667 56.8155 37.2207 56.8155V42.5234C37.2207 40.8417 35.7699 41.1718 34.0096 41.1718V26.6865C34.0096 24.3659 32.4033 24.7554 30.0433 24.7554V15.6784C30.0433 14.5664 29.4513 14.3262 28.3431 14.3262V6.21458C28.3431 5.51731 27.7501 5.26577 27.0212 5.24924C27.0212 2.2959 27.4429 1 25.5098 1C25.0946 1 24.3768 1.43025 24.3768 2.3522Z" fill="#E9AF8F"/>
<path d="M43.1278 89.0472L43.1089 88.8984L43.1279 89.0471C43.5064 88.999 43.8001 88.9772 44.0289 88.9816C44.2589 88.986 44.4124 89.0166 44.5173 89.0648C44.6165 89.1104 44.6781 89.1742 44.7218 89.2636C44.7598 89.3413 44.7856 89.4409 44.8041 89.5705C44.7832 89.5842 44.7651 89.5966 44.749 89.6076L44.7455 89.6101C44.7087 89.6353 44.6888 89.6484 44.6678 89.6583C44.6317 89.6753 44.5755 89.691 44.398 89.691H8.28951C8.31143 89.3587 8.3795 89.1841 8.477 89.0881C8.58569 88.9811 8.76886 88.935 9.11304 88.9478C9.34731 88.9565 9.62919 88.9905 9.97491 89.0321C10.1326 89.0511 10.3036 89.0717 10.4895 89.0922C11.0766 89.157 11.7952 89.2188 12.666 89.2188C13.6881 89.2188 15.4362 89.2288 17.5979 89.2411C20.7037 89.2588 24.6633 89.2813 28.5504 89.2862C31.8446 89.2903 35.0842 89.2818 37.7009 89.2467C40.3131 89.2117 42.3157 89.1502 43.1278 89.0472ZM25.2659 24.8092L25.1714 24.8468V24.9485V32.5238H22.6382V15.6352H28.7598V24.6054H26.2655C25.9444 24.6054 25.5071 24.7132 25.2659 24.8092ZM21.2047 15.6784V32.5235C20.9157 32.5225 20.6517 32.5185 20.4079 32.5149C20.2261 32.5121 20.0554 32.5096 19.8939 32.5085C19.4843 32.5058 19.1384 32.5128 18.8513 32.554C18.5634 32.5953 18.321 32.6728 18.1267 32.8211C17.9302 32.9711 17.798 33.1819 17.7094 33.4614C17.5365 34.0065 17.5169 34.8597 17.5361 36.1661C17.5417 36.5489 17.5508 36.9722 17.5609 37.4407C17.5854 38.5851 17.6157 39.9993 17.6157 41.7513C17.6157 42.317 17.6137 42.8846 17.6116 43.453C17.6072 44.6901 17.6027 45.931 17.6193 47.1641C17.6226 47.4027 17.6299 47.6132 17.6363 47.797C17.6377 47.8393 17.6392 47.8801 17.6405 47.9196C17.6475 48.1326 17.6513 48.3017 17.6436 48.439C17.6358 48.5773 17.617 48.6697 17.5872 48.7345C17.56 48.7935 17.5215 48.8347 17.4577 48.8673C17.3885 48.9027 17.2861 48.9295 17.1304 48.946C16.9758 48.9624 16.78 48.9677 16.5299 48.967C16.3308 48.9664 16.101 48.962 15.8343 48.957C15.7665 48.9557 15.6964 48.9544 15.6238 48.9531C15.2659 48.9465 14.8497 48.9402 14.3663 48.9402H14.2852L14.2408 49.008C14.1815 49.0985 14.119 49.1732 14.0561 49.2434C14.0376 49.264 14.0182 49.2851 13.9985 49.3066C13.9543 49.3548 13.9086 49.4045 13.8689 49.4531C13.7438 49.6064 13.6495 49.7809 13.6495 50.0561V64.5824C13.4904 64.5793 13.3151 64.572 13.1275 64.5643C12.974 64.558 12.8124 64.5513 12.6447 64.5463C12.2112 64.5333 11.7466 64.5319 11.3197 64.5808C10.8956 64.6293 10.4914 64.7291 10.1898 64.9304C9.87856 65.1382 9.68327 65.4507 9.68327 65.8924V87.7585C9.56172 87.7566 9.43963 87.7527 9.31727 87.7487L9.30421 87.7483C9.13659 87.7429 8.96823 87.7374 8.80434 87.7372C8.46977 87.7367 8.13965 87.7576 7.84915 87.8516C7.55369 87.9473 7.29749 88.1192 7.11868 88.4164C6.9425 88.7093 6.85 89.1096 6.85 89.6478C6.85 90.0649 7.12009 90.442 7.46674 90.7067C7.81602 90.9735 8.27221 91.15 8.69974 91.15H44.0202C44.7167 91.15 45.2393 90.9478 45.5947 90.6288C45.9496 90.3102 46.1261 89.8854 46.1477 89.4625C46.1906 88.6233 45.6159 87.7598 44.5869 87.7598H43.2261V73.8109C43.2261 73.426 43.0359 73.1578 42.7438 72.9835C42.4617 72.815 42.0838 72.7323 41.6853 72.6921C41.1398 72.637 40.5087 72.6595 39.9654 72.6788C39.7805 72.6853 39.6059 72.6915 39.4483 72.6942V58.3603C39.4483 57.9064 39.3546 57.5628 39.1909 57.3064C39.0264 57.0485 38.7992 56.8914 38.5558 56.7974C38.1594 56.6444 37.7007 56.6553 37.3852 56.6627C37.3803 56.6629 37.3755 56.663 37.3707 56.6631V42.5234C37.3707 42.0828 37.2757 41.7505 37.0839 41.5094C36.8915 41.2676 36.6187 41.1387 36.3074 41.0704C35.9981 41.0027 35.6371 40.9918 35.2521 40.9965C35.0877 40.9985 34.9214 41.0032 34.7514 41.008C34.5599 41.0135 34.3636 41.0191 34.1596 41.021V26.6865C34.1596 26.0916 34.0571 25.648 33.8477 25.3243C33.6354 24.9961 33.3253 24.8096 32.9514 24.7061C32.5823 24.604 32.1429 24.5805 31.6586 24.5808C31.4291 24.5809 31.1863 24.5864 30.9335 24.5922L30.8879 24.5932C30.6644 24.5983 30.4328 24.6033 30.1933 24.6048V15.6784C30.1933 15.0967 30.0373 14.7003 29.6944 14.4621C29.3963 14.2551 28.983 14.1882 28.4931 14.1777V6.21458C28.4931 5.81459 28.3186 5.52965 28.0359 5.35003C27.799 5.19948 27.4944 5.12766 27.1715 5.10583C27.1734 4.67108 27.1839 4.27518 27.1934 3.91322C27.1987 3.71266 27.2037 3.52252 27.2068 3.34196C27.2162 2.8059 27.2091 2.35228 27.1376 1.9882C27.0654 1.62058 26.9237 1.32499 26.6493 1.12699C26.3796 0.932366 26.0059 0.85 25.5098 0.85C25.0171 0.85 24.2268 1.34214 24.2268 2.3522V5.10581C23.9038 5.12761 23.599 5.19942 23.3619 5.35001C23.0791 5.5296 22.9044 5.81454 22.9044 6.21458V14.1777C22.4147 14.1882 22.0015 14.2551 21.7036 14.4621C21.3607 14.7003 21.2047 15.0967 21.2047 15.6784ZM35.6709 74.1541H41.9815V87.7598H35.6709V74.1541ZM11.1162 66.0424H17.2384V87.7598H11.1162V66.0424ZM34.4263 73.8109V87.7598H31.8931V58.124H38.0153V72.6956H35.5209C35.2463 72.6956 34.9739 72.8524 34.7762 73.0544C34.5782 73.2568 34.4263 73.5337 34.4263 73.8109ZM14.8941 50.6351C14.8941 50.4171 14.9288 50.3272 14.9714 50.2837C15.0129 50.2412 15.0984 50.2061 15.3103 50.2061H20.7879C21.0001 50.2061 21.0858 50.2413 21.1274 50.2837C21.1699 50.3272 21.2047 50.4171 21.2047 50.6351V87.7598H18.6714V66.2788C18.6714 65.7564 18.5458 65.3709 18.3059 65.0969C18.067 64.824 17.7331 64.6827 17.3593 64.6109C16.9865 64.5392 16.5587 64.5337 16.116 64.5448C15.951 64.5489 15.7848 64.5553 15.6176 64.5617C15.3784 64.5709 15.1371 64.5801 14.8941 64.583V50.6351ZM30.4601 58.1672V87.7598H29.8155V42.4803H35.9372V56.6655H31.932C31.4671 56.6655 31.0912 56.7844 30.8331 57.0485C30.5755 57.3119 30.4601 57.6943 30.4601 58.1672ZM18.8603 33.9828H24.9825V87.7598H22.6382V51.0214C22.6382 50.4844 22.5761 49.969 22.3599 49.5839C22.2501 49.3884 22.0998 49.2252 21.8983 49.1118C21.6974 48.9988 21.4543 48.9402 21.1657 48.9402H18.8603V33.9828ZM28.382 42.7166V87.7598H26.6044V26.0644H32.7266V41.0218H29.6655C29.289 41.0218 28.966 41.277 28.7459 41.5941C28.5234 41.9148 28.382 42.3304 28.382 42.7166ZM24.3379 6.36458H26.8323C27.0441 6.36458 27.1298 6.39984 27.1715 6.44245C27.2142 6.48611 27.249 6.5763 27.249 6.79409V14.1762H24.3379V6.36458ZM25.4714 4.66973C25.4714 4.09443 25.4594 3.67589 25.4503 3.36599L25.4502 3.36458C25.441 3.05149 25.4354 2.86016 25.4461 2.72682C25.4563 2.60057 25.4798 2.54817 25.516 2.50362C25.553 2.45811 25.6065 2.41574 25.7012 2.3446C25.7953 2.41149 25.8475 2.45034 25.8838 2.49312C25.9182 2.53363 25.9416 2.58264 25.9518 2.70867C25.9626 2.84159 25.957 3.03391 25.9478 3.34967L25.9477 3.35165C25.9386 3.66451 25.9266 4.08774 25.9266 4.66973C25.9266 4.80505 25.9212 4.8826 25.912 4.92952C25.9076 4.9517 25.9034 4.96169 25.9016 4.9652C25.9013 4.96574 25.9011 4.96613 25.9009 4.96639C25.8947 4.97163 25.8872 4.97496 25.85 4.99168C25.8419 4.99534 25.8323 4.99965 25.821 5.00476C25.786 5.02055 25.7445 5.0405 25.6969 5.06943C25.6456 5.03936 25.6018 5.01908 25.5653 5.00324C25.5547 4.99863 25.5459 4.9949 25.5384 4.99168C25.5245 4.98577 25.5146 4.98154 25.5044 4.97668C25.498 4.97357 25.494 4.97138 25.4918 4.97003C25.4899 4.96529 25.4867 4.9552 25.4835 4.9363C25.4754 4.88766 25.4714 4.80824 25.4714 4.66973ZM25.4936 4.97359C25.4936 4.97369 25.4932 4.97322 25.4926 4.97191C25.4933 4.97285 25.4936 4.97348 25.4936 4.97359Z" stroke="#E9AF8F" stroke-width="0.3"/>
</g>
<defs>
<filter id="filter0_d_1176_2073" x="0.699219" y="0.700012" width="51.6016" height="106.6" filterUnits="userSpaceOnUse" color-interpolation-filters="sRGB">
<feFlood flood-opacity="0" result="BackgroundImageFix"/>
<feColorMatrix in="SourceAlpha" type="matrix" values="0 0 0 0 0 0 0 0 0 0 0 0 0 0 0 0 0 0 127 0" result="hardAlpha"/>
<feOffset dy="10"/>
<feGaussianBlur stdDeviation="3"/>
<feComposite in2="hardAlpha" operator="out"/>
<feColorMatrix type="matrix" values="0 0 0 0 0 0 0 0 0 0 0 0 0 0 0 0 0 0 0.1 0"/>
<feBlend mode="normal" in2="BackgroundImageFix" result="effect1_dropShadow_1176_2073"/>
<feBlend mode="normal" in="SourceGraphic" in2="effect1_dropShadow_1176_2073" result="shape"/>
</filter>
</defs>
</svg>
