<svg width="11" height="12" fill="none" xmlns="http://www.w3.org/2000/svg"><path d="M1.673 2.54v7.497c1.035-.552 2.123-1.17 3.22-1.792l.021-.012a145.1 145.1 0 013.303-1.837 9.748 9.748 0 00-.218-.138 40.36 40.36 0 00-.806-.482 145.97 145.97 0 00-1.041-.602 60.918 60.918 0 01-.348-.201l-4.13-2.434zm0 0c.774.421 1.886 1.089 2.864 1.677.471.282.911.547 1.267.756l-4.13-2.434zM5.08 9.496h.001l1.678-.94c.219-.117.353-.192.565-.31h0l.179-.099c.129-.07.257-.14.385-.218h0c.111-.068.22-.127.329-.187l.225-.127.56-.309.093-.047c.106-.053.229-.116.347-.184.155-.09.315-.2.427-.328.113-.13.191-.3.13-.496-.057-.182-.225-.347-.494-.504h0L5.316 3.31c-.13-.078-1.118-.672-2.101-1.247a74.635 74.635 0 00-1.369-.785 14.486 14.486 0 00-.48-.258 2.865 2.865 0 00-.22-.099.244.244 0 00-.07-.013h0c-.33-.005-.604.271-.604.63v9.498c0 .16.05.312.157.425a.594.594 0 00.444.175.41.41 0 00.13-.029c.043-.015.095-.037.153-.063.117-.053.268-.128.44-.218.347-.179.787-.42 1.233-.67.51-.284 1.025-.577 1.418-.802.299-.17.527-.3.632-.357z" fill="#E9AF8F" stroke="#E9AF8F" stroke-width=".276"/></svg>