<svg width="28" height="22" fill="none" xmlns="http://www.w3.org/2000/svg"><path d="M8.508 19.867h0c.293.04.653.038 1.027.036l.151-.001s0 0 0 0l-1.178-.035zm0 0a3.807 3.807 0 00-.608-.018h-.015a3.315 3.315 0 01-.573-.018h0m1.196.036l-1.196-.036m0 0a3.111 3.111 0 00-.603-.03l-1.735-.159h0m2.338.19l-2.338-.19m0 0c-.973-.088-1.581-.479-1.982-1.047-.407-.576-.608-1.347-.734-2.21-.28-1.922-.302-6.139-.248-7.94l.242-2.83c.14-.942.358-1.78.806-2.388.442-.599 1.117-.99 2.212-1.016.17-.004.396-.022.64-.042l.17-.014c.31-.024.64-.047.934-.046h0m-2.04 17.534l2.04-17.534m0 0a1.895 1.895 0 00.358-.03c.064-.01.122-.019.214-.024l-.572.054zm4.731-.154h-.002c-.41 0-.822 0-1.233-.002l-2.307.103s0 0 0 0a3.723 3.723 0 01-.317 0h-.003l3.862-.1zm0 0l3.748-.053m-3.748.053l3.748-.053m11.959 7.51h0v3.886h0l-.133 1.846v.01h-.001a8.907 8.907 0 00-.067.686c-.014.183-.027.364-.048.531-.131 1.058-.441 2.19-1.102 3.003-1.075 1.321-2.364 1.436-3.92 1.522-.378.02-.825.05-1.304.081-1.253.082-2.724.178-3.74.177-.457 0-.869.013-1.282.026h-.01c-.41.013-.821.026-1.277.026-.489 0-.935-.013-1.376-.026h-.008a44.765 44.765 0 00-1.34-.026c-.77 0-2.34-.019-3.902-.084-1.554-.065-3.118-.175-3.862-.36h0c-1.428-.356-2.358-1.545-2.71-2.934h0c-.382-1.502-.484-3.479-.508-5.34V9.31c0-1.143.128-2.71.253-3.82h0c.206-1.82.981-3.481 2.773-4.157.178-.068.449-.122.756-.167.31-.046.67-.084 1.034-.116.444-.04.904-.07 1.287-.097.239-.016.448-.03.605-.044l19.882 8.502zm0 0V9.41m0 .003V9.41m0 0c-.026-1.09-.073-2.136-.147-2.842-.023-.214-.04-.416-.056-.616v-.004c-.017-.2-.033-.4-.055-.604-.195-1.813-.98-3.495-2.823-4.115C23.694 1 22.761.97 21.917.961c-.133-.002-.207-.014-.286-.026h0a1.944 1.944 0 00-.326-.03h-.001L14.058.702h0-.004c-.454 0-.868.013-1.28.025l-.029.001c-.422.013-.845.026-1.312.025v0h-.006L8.233.9h0M27.45 9.41L8.233.9m0 0h-.01m.01 0h-.01m0 0c-.098.012-.199.01-.31.007M8.224.9l-.31.007m7.58.995h.001m0 0h0m0 0c.246 0 .443.013.642.026h.001c.197.013.396.026.639.025l3.235.1c.114.01.232.007.343.004l.024-.001c.106-.003.205-.006.299 0l-5.183-.154zM7.914.907h-.021m.02 0h-.02m0 0A2.992 2.992 0 007.57.91l.323-.003zm3.028 19.047h-.002L21.812 2.14l.097.011h0a5.719 5.719 0 00.67.03c.15.002.3.004.454.012.384.02.79.078 1.24.27h0c.626.266 1.021.758 1.286 1.36.266.606.397 1.315.496 2.004l.197 2.464c.005.158 0 .332-.005.513l-.004.147a5.17 5.17 0 00.016.677h0c.108.964.026 3.326-.057 4.347-.016.197-.025.403-.034.616l-.01.221c-.014.294-.033.604-.075.937-.014.104-.025.203-.036.3a7.91 7.91 0 01-.114.769l.135.029-.135-.03c-.282 1.329-.747 2.424-2.07 2.816-.29.086-.816.132-1.378.16-.278.015-.56.024-.82.033l-.052.002c-.238.008-.455.015-.627.024l-3.08.103c-.238 0-.429.013-.617.026h0a8.1 8.1 0 01-.614.026h-1.284s0 0 0 0l-4.47-.052zM20.95 2.087c.091.012.192.023.35.021l-.4-.028.05.008z" fill="#E9AF8F" stroke="#E9AF8F" stroke-width=".276"/></svg>