<svg width="25" height="25" fill="none" xmlns="http://www.w3.org/2000/svg"><path d="M2.739 8.615h0c-.064.165-.114.298-.171.454-.382 1.056-.571 2.316-.571 3.52 0 1.159.244 2.363.538 3.243.247.74.465 1.212.643 1.535.122.22.221.367.304.49.04.06.077.113.11.166.05.08.09.157.114.245a.858.858 0 01.024.297c-.017.222-.094.531-.238 1.034 0 0 0 0 0 0l-.566 2.035v.002c-.017.066-.045.162-.076.27-.025.083-.05.173-.075.26a6.045 6.045 0 00-.083.331l.111-.038c.132-.045.301-.1.494-.16a112.868 112.868 0 013.092-.91 5.75 5.75 0 01.176-.045c.008-.001.025-.005.04-.005.099 0 .206.034.312.08.107.046.222.11.338.176l.144.084c.189.11.376.22.55.29h0c.152.062.29.124.426.185.277.124.54.243.877.338 1.061.302 1.975.51 3.137.51 1.888 0 2.897-.31 4.465-.962l.038-.016c.163-.068.257-.107.404-.195.908-.546 1.514-.928 2.063-1.4.548-.47 1.044-1.031 1.726-1.937l.08.06-.08-.06c.365-.485.912-1.535 1.132-2.104l.46-1.462c.16-.64.284-1.522.284-2.291 0-1.928-.297-2.918-.96-4.518 0 0 0 0 0 0l-19.262.498zm0 0c.21-.542.559-1.222.874-1.702h0c.519-.792.762-1.134 1.46-1.833M2.739 8.615L5.073 5.08m0 0c.146-.147.276-.265.412-.39.082-.074.166-.15.258-.237h0c.052-.05.106-.09.164-.133l.038-.028a2.91 2.91 0 00.143-.106l.76-.534c.839-.528 1.24-.718 2.175-1.07 2.307-.867 5.059-.724 7.334.16h0c.113.044.191.08.276.12.056.026.114.053.187.085h0c.324.139.567.268.853.433 1.257.722 1.84 1.31 2.838 2.371h0c.049.052.09.107.132.165l.028.038c.033.047.069.097.108.146L5.073 5.08zm15.99 1.4l-.108-.148a5.614 5.614 0 00-.176-.232l.284.38zm0 0l.504.79c.041.071.073.13.105.192l.003.005c.034.063.068.129.115.207l-.727-1.194zM11.982.9v0h.837c.993.038 1.995.208 3.05.498.185.05.327.098.516.164 1.158.404 2.209 1.031 3.174 1.759.857.645 1.82 1.643 2.41 2.53 0 0 0 0 0 0l.287.43v.002h0c.252.392.565.913.744 1.346h0c.047.114.094.222.14.328.093.21.185.418.268.664.396 1.167.607 2.272.65 3.377v.004h0v.839h0c-.039.995-.209 1.999-.497 3.055-.299 1.09-.772 1.947-1.337 2.874l-.086-.052.086.052c-.25.41-.55.783-.84 1.143l-.045.056h0c-.096.118-.16.185-.236.265a2.917 2.917 0 00-.24.267 2.95 2.95 0 01-.186.212h0c-.076.076-.14.13-.202.18l-.01.008a2.44 2.44 0 00-.172.15 11.16 11.16 0 01-2.027 1.506c-.57.327-1.28.676-1.915.892h0c-.334.114-.75.254-1.083.323-.884.185-1.623.297-2.36.328h-.005v0h-.854 0a13.557 13.557 0 01-1.65-.18 11.602 11.602 0 01-1.453-.358c-.373-.114-.632-.226-.916-.348a12.284 12.284 0 00-.38-.16 9.185 9.185 0 01-.5-.252l-.134-.07a14.04 14.04 0 00-.352-.18 2.457 2.457 0 00-.146-.066l-3.435 1.061H3.08h0c-.081.023-.198.06-.329.103l-.27.087c-.115.036-.23.07-.33.095a1.166 1.166 0 01-.254.043c-.196 0-.342-.056-.434-.167a.563.563 0 01-.113-.377c.003-.213.079-.453.127-.607l.026-.083s0 0 0 0l.807-2.92h0c.051-.178.095-.323.132-.447.032-.106.06-.196.083-.277.048-.17.069-.27.068-.35a.462.462 0 00-.07-.228 4.031 4.031 0 00-.12-.2 14.788 14.788 0 01-.125-.206c-.307-.515-.653-1.382-.83-1.94h0c-.444-1.4-.545-2.375-.548-3.818h0v-.07c0-.957.164-1.725.335-2.518h0c.264-1.228.86-2.39 1.499-3.437L11.982.9zm0 0h-.004m.004 0h-.004m0 0c-1.103.043-2.207.254-3.371.65-1.524.52-3.188 1.596-4.327 2.737h0l-.003.004-.655.737h0l-.003.003-.102.124c-.063.077-.125.15-.2.252h0M11.976.9l-8.66 4.507m0 0l-.105.135a3.656 3.656 0 00-.206.282m.31-.417l-.31.417m0 0c-.039.059-.073.107-.106.155m.106-.155l-.106.155m0 0c-.052.074-.102.145-.166.25l.166-.25z" fill="#E9AF8F" stroke="#E9AF8F" stroke-width=".2"/><path d="M10.474 14.023h0a2.09 2.09 0 01-.13-.127 3.934 3.934 0 00-.054-.056l-.05-.05c-.383-.386-.833-.84-1.192-1.342-.375-.524-.66-1.112-.66-1.745 0-.142.088-.267.168-.36a2.34 2.34 0 01.128-.133l.013-.013c.035-.035.064-.063.086-.088h0l.05-.057c.12-.135.25-.281.363-.434.13-.175.234-.349.276-.512l1.002 4.917zm0 0c.331.292 1.063.876 1.816 1.388.376.255.759.494 1.101.67.337.172.651.292.882.292.261 0 .535-.146.79-.343.26-.2.515-.464.742-.724a13.613 13.613 0 00.627-.785l.125-.164.033-.04a3.188 3.188 0 01.279.142c.172.098.387.232.608.372.202.13.41.265.589.383.207.135.376.246.458.294h0m-8.05-1.485l8.05 1.485m0 0l.211.13c.133.081.271.167.408.242a3.504 3.504 0 01-.138.514c-.074.221-.16.43-.216.537h0m-.265-1.423l.265 1.423m0 0c-.623 1.17-1.82 1.563-3.119 1.54-1.299-.022-2.675-.46-3.61-.924-.768-.382-1.412-.865-2.059-1.408-.686-.576-1.64-1.704-2.166-2.465-.166-.24-.31-.452-.457-.7-.57-.959-1.014-1.815-1.178-2.69-.163-.868-.051-1.762.508-2.798.15-.278.482-.804.687-1.03l.022-.025.028-.03a.072.072 0 01.016-.014.458.458 0 01.112-.023h0M18.789 16.93L7.573 6.364m0 0c.194-.032.386-.05.587-.053m-.587.053l.587-.053m7.775 7.18c.608-.545 1.492.071 2.233.587.1.07.198.138.293.201.086.058.245.15.434.26.532.309 1.297.752 1.297.926l-4.257-1.974zm0 0c-.027.024-.035.03-.042.038-.008.008-.014.018-.045.055l.087-.093zm3.061 4.953h0c-.693.7-1.7 1.023-2.74 1.105a8.278 8.278 0 01-3.005-.345s0 0 0 0l.03-.095 5.715-.665zm0 0c.423-.427.568-.65.852-1.212h0m-.852 1.212l.852-1.212m0 0c.229-.453.444-1.158.444-1.767a.203.203 0 00-.03-.099.446.446 0 00-.057-.078 1.393 1.393 0 00-.177-.156 6.376 6.376 0 00-.527-.351c-.187-.115-.384-.229-.555-.328l-.026-.015a9.156 9.156 0 01-.404-.242h0m1.332 3.036l-1.331-3.036m0 0a19.285 19.285 0 01-.287-.197c-.32-.223-.678-.472-1.026-.635-.457-.213-.944-.299-1.336.053h0m2.649.779l-2.649-.78m0 0l-.015.014a.43.43 0 00-.05.052l-.003.002-.029.036h0m.097-.103l-.097.103m0 0l-.004.006m.004-.006l-.004.006m0 0l-.28.39c-.13.173-.231.304-.37.48h0m.65-.87l-.65.87m0 0a8.38 8.38 0 01-.408.47 4.308 4.308 0 01-.237.239.794.794 0 01-.163.124h0m.808-.833l-.808.833m0 0c-.01.005-.047.01-.132-.014a1.767 1.767 0 01-.292-.121 7.867 7.867 0 01-.79-.476 20.444 20.444 0 01-1.3-.952c-.206-.167-.548-.47-.882-.79-.335-.32-.655-.653-.819-.883a5.8 5.8 0 01-.456-.715c-.086-.171-.105-.27-.099-.332.005-.056.032-.096.089-.152l.055-.05c.05-.046.114-.103.17-.17.432-.514.678-.901.732-1.315.055-.415-.084-.837-.363-1.414h0m4.087 7.384l-4.086-7.384m0 0a55.987 55.987 0 01-.062-.128c-.13-.271-.351-.733-.586-1.173a9.643 9.643 0 00-.417-.72 2.882 2.882 0 00-.194-.266.769.769 0 00-.183-.17l-.05.087m1.492 2.37L8.73 5.475m0 0l.05-.086c-.252-.149-.535-.186-.81-.179m.76.265l-.76-.265m.19 1.101c.053.097.128.228.216.381l.097.17c.149.26.32.563.479.866.16.302.305.601.403.853.049.126.085.237.105.33.02.095.022.159.012.195L8.16 6.311zm-.19-1.1c-.223.005-.449.04-.655.07m.654-.07l-.654.07m0 0a18.72 18.72 0 01-.141.022l.14-.021zM5.963 12.74h0l1.21-7.436c-.219.032-.409.189-.561.357-.137.15-.256.325-.35.462l-.035.05h0c-.604.878-1.201 2.023-1.201 3.183 0 .749.068 1.262.221 1.757.148.479.375.938.689 1.573l.027.054z" fill="#E9AF8F" stroke="#E9AF8F" stroke-width=".2"/></svg>