<svg width="23" height="23" fill="none" xmlns="http://www.w3.org/2000/svg"><path d="M23 10.805c-.029 2.967-.798 5.288-2.398 7.305-1.717 2.167-3.954 3.543-6.69 4.1-2.115.426-4.172.239-6.192-.487a9.594 9.594 0 01-1.307-.585.428.428 0 00-.377-.032c-1.911.613-3.827 1.221-5.743 1.825-.085.028-.198.107-.264.047-.076-.075.019-.188.047-.277.382-1.127.764-2.26 1.151-3.388.236-.688.463-1.371.708-2.054.066-.178.042-.314-.057-.478a10.797 10.797 0 01-1.1-2.625 10.91 10.91 0 01-.155-5.233 10.957 10.957 0 012.563-5.082A11.212 11.212 0 019.032.32a11.147 11.147 0 014.469-.173c1.963.318 3.732 1.09 5.275 2.335a11.27 11.27 0 013.511 4.84c.406 1.043.727 2.752.713 3.482zM2.907 20.15c1.17-.375 2.289-.73 3.398-1.09a.416.416 0 01.391.046c.425.281.883.506 1.355.702 1.533.646 3.128.88 4.775.67 2.02-.258 3.794-1.063 5.285-2.462 1.878-1.765 2.883-3.927 2.973-6.482.085-2.504-.727-4.704-2.421-6.571-1.61-1.774-3.629-2.785-6.012-3.038-2.071-.22-4.01.225-5.804 1.292a9.227 9.227 0 00-3.525 3.744c-.9 1.737-1.208 3.58-.948 5.513a8.932 8.932 0 001.571 4.011c.095.136.123.248.066.407-.174.478-.33.96-.495 1.437-.198.59-.392 1.18-.609 1.82z" fill="#E9AF8F"/><path d="M6.041 8.6c.024-1.114.42-1.942 1.17-2.602.241-.215.538-.309.873-.262.142.019.284.033.425.023a.503.503 0 01.533.342c.316.814.623 1.629.93 2.448.104.28-.076.5-.227.702-.174.238-.387.45-.594.66-.213.215-.24.337-.095.599.855 1.54 2.053 2.724 3.681 3.454.057.023.113.056.17.084.217.098.41.075.576-.112.302-.351.632-.674.91-1.044.184-.243.312-.285.59-.164.83.356 1.61.805 2.402 1.24.146.08.198.202.193.37-.042 1.38-.84 2.101-2.24 2.42-.68.154-1.308-.014-1.93-.239-1.308-.468-2.568-1.02-3.625-1.947-.84-.74-1.58-1.563-2.208-2.485-.482-.711-.982-1.409-1.26-2.237-.16-.44-.279-.89-.274-1.25z" fill="#E9AF8F"/></svg>