<svg width="80" height="80" fill="none" xmlns="http://www.w3.org/2000/svg"><g clip-path="url(#clip0_1382_404)"><path d="M39.665 2.48c20.537 0 37.186 16.648 37.186 37.185 0 20.537-16.649 37.186-37.186 37.186S2.479 60.202 2.479 39.665C2.54 19.153 19.153 2.539 39.665 2.479zm0-2.48C17.759 0 0 17.759 0 39.665S17.759 79.33 39.665 79.33 79.33 61.57 79.33 39.665C79.266 17.785 61.545.064 39.665 0z" fill="#E9AF8F"/><path d="M39.665 8.057c17.457 0 31.608 14.151 31.608 31.608 0 17.456-14.151 31.608-31.608 31.608-17.456 0-31.608-14.151-31.608-31.608C8.043 22.223 22.171 8.07 39.613 8.057h.052zm0-2.48C20.84 5.578 5.578 20.84 5.578 39.666S20.84 73.752 39.665 73.752c18.826 0 34.087-15.261 34.087-34.087C73.763 20.85 58.52 5.589 39.705 5.578h-.04z" fill="#E9AF8F"/><g clip-path="url(#clip1_1382_404)"><path d="M40.725 35.65c-.363 0-.363-.362-.725-.362V24.05c4.35.363 7.975 2.175 7.975 2.175l3.262-6.525c-.362 0-5.437-2.9-11.237-2.9V11h-3.625v5.8c-2.9.725-5.075 1.813-7.25 3.262C26.95 22.238 25.5 25.137 25.5 28.4c0 2.538.725 8.337 10.875 13.05v14.137c-3.263-.725-7.25-2.537-8.7-3.262l-3.625 6.162c.725.363 6.525 3.625 12.325 4.35V69H40v-6.163c8.337-1.087 13.05-7.612 13.05-13.775 0-5.437-3.625-9.787-12.325-13.412zm-4.35-2.175c-2.9-1.813-3.625-3.625-3.625-4.713 0-1.45.362-2.537 1.45-3.262l2.175-1.087v9.062zM40 55.587V43.263c3.987 1.813 5.8 3.988 5.8 5.8 0 2.175-1.088 5.8-5.8 6.526z" stroke="#E9AF8F" stroke-width="2"/></g></g><defs><clipPath id="clip0_1382_404"><path fill="#fff" d="M0 0h79.33v79.33H0z"/></clipPath><clipPath id="clip1_1382_404"><path fill="#fff" transform="translate(11 11)" d="M0 0h58v58H0z"/></clipPath></defs></svg>