<svg width="79" height="64" fill="none" xmlns="http://www.w3.org/2000/svg"><path fill-rule="evenodd" clip-rule="evenodd" d="M16.477 45.046h7.542v16.588h-7.542V45.046zm-1.846-.171v16.76H7.759V35.66c0-.59 2.523-2.364 2.963-2.732 1.984-1.668 8.337-7.145 9.611-7.992.42.63 9.71 8.229 11.701 9.916.388.329.703.342.703.808v25.973h-7.043c0-2.915.25-16.325-.164-18.099-1.636-.38-7.634-.164-9.723-.164-.94 0-1.176.578-1.176 1.504zm56.657-15.249c.985.263 4.46 3.697 5.702 4.525l-1.846 2.01-5.36-4.355c.525-.781 1.03-1.28 1.504-2.18zM4.073 36.16l-1.846-2.01 16.786-14.053c.263-.204.998-.82 1.15-1.024l5.584 4.636c.46.387.73.637 1.17 1.011l2.299 1.892c.742.578 1.438 1.202 2.2 1.819.434.348.591.551 1.077.932l4.56 3.829c.394.355.801.683 1.215.959-.15.223-1.668 1.891-1.846 2.01-.578-.152-3.455-2.766-4-3.205l-11.03-9.247c-.356-.302-.527-.663-1.111-.716-.565-.052-1.387.88-2.103 1.465L12.161 29.5c-.644.611-1.34 1.077-2.01 1.675-.684.61-1.334 1.07-2.01 1.681L4.072 36.16zM56.204 4.493c5.078 0 8.816 2.03 11.53 4.729 7.253 7.237 5.814 20.003-4.1 25.323-4.224 2.265-10.065 2.14-14.361 0-3.397-1.695-6.031-4.505-7.536-8.052-2.18-5.142-1.366-10.619 1.663-15.196l1.82-2.2c2.942-2.725 6.556-4.604 10.984-4.604zm-17.436 15.92c0 5.732 3.127 11.34 7.575 14.381 4.092 2.785 8.862 3.836 13.783 2.778 2.122-.46 4.382-1.438 6.103-2.613.427-.29.867-.598 1.242-.94.433-.38.69-.709 1.307-.873.348.236 2.68 2.036 2.68 2.515v25.973H34.413V36.83c2.161 1.452 1.59 2.345 3.226.545.354-.387.664-.61.992-1.018 1.235-1.556 2.542-2.088.913-3.31-2.516-1.884-7.72-6.593-10.59-8.852l-3.758-3.284c.243-.36.348-.466.736-.768.433-.328.538-.46.913-.762l5.485-4.57c.631-.493 1.176-1.032 1.8-1.55l5.48-4.578c.683.453 1.465 1.366 2.18 1.84-1.694 3.204-3.02 5.561-3.02 9.89zm-15.084-.67c-.703-.473-1.544-1.504-2.181-1.675l18.105-15.25c.342.224.329.27.631.54.309.262.361.262.657.512l1.261 1.09c.631.545 2.097 1.642 2.478 2.213-.552.834-1.137.998-1.675 2.01-1.216-.808-2.05-1.826-3.352-2.51-1.353.71-2.825 2.253-4.02 3.18-.65.505-1.229 1.063-1.919 1.608l-9.985 8.281zM.217 33.986c0 .9.177.729.795 1.379 3.758 3.953 2.01 3.513 5.072 1.464v26.144c.361.243.558.5 1.169.5h64.711c.611 0 .808-.257 1.17-.5V36.83c2.897 1.944 1.485 2.312 4.152-.367.315-.316 1.714-1.859 1.714-2.141 0-1.077-.578-1.064-1.464-1.885a26.932 26.932 0 00-1.722-1.471c-1.182-.92-2.26-2.003-3.514-2.844.683-2.955 1.675-2.804 1.675-8.38 0-8.8-8.114-16.923-16.93-16.923-7.589 0-9.395 2.784-10.9 3.185-.663-.447-.958-.742-1.602-1.248-1.281-1.005-3.634-3.264-4.934-3.947-1.17.618-4.822 3.868-6.228 4.998-.414.341-.861.71-1.275 1.077L19.808 17.207c-3.91 3.153-8.436 7.27-12.312 10.311L5.04 29.593a88.842 88.842 0 01-2.45 2.069c-.605.486-2.372 1.747-2.372 2.325z" fill="#E9AF8F"/><path fill-rule="evenodd" clip-rule="evenodd" d="M48.15 28.286c.506-.748 6.892-6.974 8.087-8.17l6.123-6.113c.73-.73 1.86-2.2 2.116-1.583.164.388-1.222 1.524-1.78 2.082L49.45 27.748c-.434.46-.598.873-1.3.538zm-1.675-.164c0 1.215 1.031 2.174 2.01 2.174 1.19 0 3.837-3.08 4.737-3.98l11.063-11.059c1.025-1.018 1.971-1.484 1.971-2.89 0-1.037-1.327-2.902-3.62-1.103-.61.473-.571.624-1.031 1.143-1.958 2.226-10.308 10.304-13.16 13.16-.59.585-1.97 1.57-1.97 2.555zM45.14 45.046h4.356v8.373H45.14v-8.373zm-1.675-.84V54.43c0 1.28 4.073.834 5.866.834.657 0 1.242-.125 1.676-.335.388-1.655.17-8.222.17-10.389 0-.782-.393-1.169-1.175-1.169h-5.703c-.387 0-.834.447-.834.834zm12.915.84h4.355v8.373h-4.356v-8.373zm-1.683-.506c0 2.167-.216 8.734.171 10.39 1.124.538 4.487.334 6.031.334.683 0 1.51-.177 1.51-.834V44.205c0-.387-.446-.834-.833-.834h-5.703c-.782 0-1.176.387-1.176 1.169zm-3.86-32.336c3.476 0 3.797 5.358-.171 5.358-.558 0-1.419-.486-1.708-.807-1.577-1.714-.38-4.551 1.88-4.551zm-4.362 2.679c0 2.285 2.069 4.354 4.027 4.354 1.498 0 2.51-.158 3.653-1.372 1.583-1.682 1.537-4.44-.086-6.049-2.798-2.778-7.594-.788-7.594 3.067zm12.747 11.223c0-4.104 5.367-3.434 5.367-.335 0 3.862-5.367 3.33-5.367.335zm-1.676-.67v.84c0 2.024 2.175 4.02 4.192 4.02 4.395 0 5.834-5.188 3.232-7.585-3.186-2.929-7.424-.204-7.424 2.725z" fill="#E9AF8F"/><path fill-rule="evenodd" clip-rule="evenodd" d="M62.065 25.436c.217.447.151.184.171.841-.466-.013-.696.066-.769-.368-.065-.407.125-.42.598-.473zm-2.345.335c0 3.054 4.355 2.686 4.355.171 0-3.054-4.355-2.686-4.355-.17zm-9.217-11.223c.959-.23.072 0 .834 0v.67c-.65.138-.184.138-.834 0v-.67zm-1.682.164c0 3.087 4.192 3.126 4.192 0 0-2.541-4.192-2.666-4.192 0z" fill="#E9AF8F"/></svg>