<svg width="15" height="11" fill="none" xmlns="http://www.w3.org/2000/svg"><path fill-rule="evenodd" clip-rule="evenodd" d="M0 6.297v3.953c0 .243.232.469.603.469.209 0 .468-.26.468-.469v-.603H13.93v.603c0 .243.232.469.602.469.21 0 .469-.26.469-.469V6.297c0-.717-.756-1.474-1.473-1.474H1.473C.756 4.823 0 5.58 0 6.297zM1.607.469v3.283h1.608V3.35c0-1.453 1.37-1.206 2.544-1.206.758 0 1.206.448 1.206 1.206v.402h1.071V3.35c0-1.453 1.37-1.206 2.545-1.206.757 0 1.205.448 1.205 1.206v.402h1.607V.469c0-.21-.26-.469-.469-.469H2.076c-.209 0-.469.26-.469.469z" fill="#D9B474"/></svg>