<svg width="15" height="15" fill="none" xmlns="http://www.w3.org/2000/svg"><path fill-rule="evenodd" clip-rule="evenodd" d="M8.316 10.02v3.28c0 .927.756 1.7 1.582 1.7h3.514c.809 0 1.581-.773 1.581-1.582V9.902c0-.828-.773-1.582-1.698-1.582h-3.28c-.938 0-1.699.76-1.699 1.7zM0 9.902v3.516C0 14.227.773 15 1.581 15h3.514c.825 0 1.582-.771 1.582-1.7v-3.28c0-.94-.76-1.7-1.699-1.7h-3.28C.772 8.32 0 9.076 0 9.902zm0-8.32v3.516C0 5.924.772 6.68 1.698 6.68h3.28a1.7 1.7 0 001.699-1.7V1.7c0-.926-.754-1.7-1.582-1.7H1.581C.773 0 0 .773 0 1.582zm8.316.118v3.28a1.7 1.7 0 001.699 1.7h3.28a1.74 1.74 0 001.18-.461c.242-.234.518-.66.518-1.121V1.582C14.993.773 14.221 0 13.412 0H9.898c-.826 0-1.582.773-1.582 1.7z" fill="#D9B474"/></svg>