<svg width="139" height="139" viewBox="0 0 139 139" fill="none" xmlns="http://www.w3.org/2000/svg">
<circle cx="69.5" cy="69.5" r="69.5" fill="url(#paint0_radial_119_692)"/>
<path fill-rule="evenodd" clip-rule="evenodd" d="M71.4166 102.071V67.7393L78.3823 64.6132C79.4502 64.1145 84.8867 61.603 85.5834 61.5451V95.8772C84.8844 96.0399 84.5186 96.3561 83.8637 96.636C83.191 96.9239 82.7938 97.1252 82.1439 97.3949L75.0179 100.538C74.0638 100.983 72.3644 101.85 71.4166 102.071ZM54.4165 61.5451C55.1057 61.6027 57.1373 62.662 57.9335 62.9858L68.5834 67.7393V102.071C68.124 101.964 67.2671 101.563 66.8155 101.36L54.4165 95.8772V61.5451ZM88.4165 94.4615V60.1294C89.0263 59.9875 89.4903 59.6683 90.0352 59.4466C90.6597 59.192 91.074 58.9644 91.629 58.7385L101.167 54.4665V88.9755L91.7065 93.1477C90.9023 93.4817 89.1505 94.4003 88.4165 94.4615ZM38.8334 54.4665C39.7787 54.9662 40.951 55.482 41.9961 55.9069L48.371 58.7385C48.926 58.9644 49.3403 59.192 49.9648 59.4466C50.5097 59.6683 50.9737 59.9875 51.5834 60.1294V94.4615C50.8817 94.4029 43.3784 90.9027 42.0716 90.3404L38.8334 88.9755V54.4665ZM56.7187 59.0675C57.3891 59.0119 63.7586 56.1348 64.9669 55.6306C68.7459 54.0535 66.8053 54.4665 72.1248 54.4665C72.7537 54.4665 78.9393 57.3443 80.3457 57.9312C81.0599 58.2293 82.632 59.0135 83.2813 59.0675C82.9029 59.5837 82.4464 59.5896 81.8054 59.8936L70 65.0845C69.9951 65.0845 57.1669 59.6789 56.7187 59.0675ZM78.323 53.9356L82.1455 53.1547C83.4784 52.8882 84.6237 52.6336 85.83 52.2354C87.0419 51.8352 88.0494 51.4004 89.1242 50.9261C90.2273 50.4393 91.0819 49.744 91.9583 49.1574C92.4994 49.4436 93.0538 49.6287 93.6698 49.9245L98.8647 52.1659C98.5275 52.6257 88.2142 57.1249 87.4555 57.4204C86.6058 57.7507 85.152 56.8206 83.5749 56.1197L78.323 53.9356ZM41.1356 52.1659L48.0417 49.1574C48.9181 49.744 49.7727 50.4393 50.8758 50.9261C51.9506 51.4004 52.9581 51.8352 54.17 52.2354C56.1436 52.8872 61.2785 53.683 61.677 53.9356L53.8322 57.2583C52.592 57.8116 53.1312 57.59 51.3313 56.842C50.8162 56.6279 41.5304 52.7047 41.1356 52.1659ZM72.1248 51.4581C72.2385 50.0928 75.0067 46.0307 76.0729 44.7853C85.8712 33.3443 92.6666 38.7094 92.6666 42.6095C92.6666 43.429 92.1076 44.6964 91.753 45.2359C90.4402 47.2319 87.0893 48.7572 84.8349 49.4713C82.2583 50.2871 74.9467 51.4581 72.1248 51.4581ZM47.3334 42.6095C47.3334 41.2472 48.2652 39.8543 49.0727 39.2156C49.5041 38.8744 50.0786 38.5417 50.6392 38.3036C53.9106 36.9146 57.9032 39.0964 60.208 41.069C61.1955 41.9138 62.1842 42.735 62.9917 43.7735C63.318 44.1938 63.52 44.3275 63.8285 44.7069C64.9593 46.0979 67.7433 49.8781 67.8752 51.4581L61.2963 50.7769C56.9817 50.0302 51.0798 49.021 48.3407 45.3192C47.8595 44.6694 47.3334 43.648 47.3334 42.6095ZM65.0417 41.5479C66.1811 41.2824 69.2838 39.4999 70 39.4999C70.7162 39.4999 73.8189 41.2824 74.9583 41.5479C74.5611 42.1405 74.1406 42.5657 73.6923 43.1141C72.7988 44.2076 70.4334 47.527 70.177 48.6264H69.823C69.2983 46.3762 65.9131 42.8483 65.0417 41.5479ZM44.5 42.0785C44.5 45.9108 45.2719 45.0281 45.7396 47.0339L40.6636 49.217C39.282 49.8619 36 50.9913 36 51.989V90.2143C36 90.9461 37.0339 91.3246 37.643 91.5808C38.3885 91.8947 39.0965 92.2185 39.8367 92.5739C45.5464 95.3146 53.0096 98.2921 59.0805 101.127C60.9506 102 69.3675 105.787 70 105.787C70.8282 105.787 81.2217 100.938 83.0018 100.199C84.4902 99.5813 85.8603 98.9841 87.295 98.2954C91.1534 96.4434 96.1038 94.4701 100.164 92.5742C101.431 91.9823 104 91.1872 104 90.2143V51.989C104 51.2245 102.604 50.6527 102.027 50.4209L94.2604 47.0339C94.7281 45.0281 95.5 45.9108 95.5 42.0785C95.5 38.294 91.3976 35 87.5313 35C83.6837 35 80.6657 36.4509 78.1997 38.5944C77.0782 39.5697 77.7835 39.688 74.4299 38.1824C69.4341 35.9394 70.6855 35.7935 65.6903 38.1257C64.959 38.4676 64.257 38.7753 63.5962 39.0585C62.6776 39.4525 62.8312 39.4548 61.7989 38.5954C53.0887 31.343 44.5 36.3899 44.5 42.0785Z" fill="url(#paint1_linear_119_692)"/>
<defs>
<radialGradient id="paint0_radial_119_692" cx="0" cy="0" r="1" gradientUnits="userSpaceOnUse" gradientTransform="translate(69.5 69.5) rotate(90) scale(69.5)">
<stop offset="0.59375" stop-color="white"/>
<stop offset="1" stop-color="white" stop-opacity="0"/>
</radialGradient>
<linearGradient id="paint1_linear_119_692" x1="36" y1="70.922" x2="104" y2="70.922" gradientUnits="userSpaceOnUse">
<stop stop-color="#E9C88F"/>
<stop offset="1" stop-color="#E9AF8F"/>
</linearGradient>
</defs>
</svg>
