<svg width="15" height="11" viewBox="0 0 15 11" fill="none" xmlns="http://www.w3.org/2000/svg">
<path fill-rule="evenodd" clip-rule="evenodd" d="M0 6.29734V10.25C0 10.4929 0.232224 10.7189 0.602615 10.7189C0.811758 10.7189 1.07139 10.4592 1.07139 10.25V9.64705H13.9286V10.25C13.9286 10.4929 14.1608 10.7189 14.5313 10.7189C14.7404 10.7189 15 10.4592 15 10.25V6.29734C15 5.57988 14.244 4.82349 13.5268 4.82349H1.47322C0.755987 4.82349 0 5.57988 0 6.29734Z" fill="#D9B474"/>
<path fill-rule="evenodd" clip-rule="evenodd" d="M1.60742 0.468982V3.7517H3.21455V3.3497C3.21455 1.89681 4.58434 2.14379 5.75924 2.14379C6.51688 2.14379 6.96455 2.59166 6.96455 3.3497V3.7517H8.03603V3.3497C8.03603 1.89681 9.40574 2.14379 10.5806 2.14379C11.3384 2.14379 11.786 2.59166 11.786 3.3497V3.7517H13.3932V0.468982C13.3932 0.259828 13.1335 0 12.9245 0H2.07612C1.86706 0 1.60742 0.259828 1.60742 0.468982Z" fill="#D9B474"/>
</svg>
