<svg width="53" height="108" fill="none" xmlns="http://www.w3.org/2000/svg"><g filter="url(#filter0_d_1176_2073)"><path fill-rule="evenodd" clip-rule="evenodd" d="M44.398 89.841H8.133c.038-1.752 1.079-.772 4.533-.772 4.976 0 27.236.236 30.443-.17 1.526-.195 1.778.024 1.856.749-.23.132-.202.193-.567.193zm-8.877-15.837h6.61V87.91h-6.61V74.004zm-24.555-8.112h6.422V87.91h-6.422V65.892zm23.61 7.919V87.91h-2.833V57.974h6.422v14.872h-2.644c-.44 0-.945.514-.945.965zM14.744 50.635c0-.445.131-.579.566-.579h5.478c.435 0 .567.134.567.58V87.91H18.52V66.279c0-1.995-1.915-1.545-3.777-1.545V50.635zm15.866 7.532V87.91h-.944V42.33h6.421v14.486h-4.155c-.882 0-1.322.45-1.322 1.351zm-11.9-24.334h6.422V87.91h-2.644V51.02c0-1.062-.25-1.93-1.322-1.93H18.71V33.832zm9.822 8.884V87.91h-2.078V25.914h6.423v15.258h-3.212c-.612 0-1.133.84-1.133 1.545zm-3.21-17.768v7.725h-2.834V15.485h6.422v9.27h-2.645c-.297 0-.715.103-.944.194zM24.187 6.214h2.644c.435 0 .567.134.567.58v7.531h-3.211v-8.11zM25.32 4.67c0-2.292-.192-2.084.378-2.511.57.405.378.192.378 2.51 0 .545-.082.358-.378.58-.319-.226-.378-.028-.378-.58zm-.944-2.318V5.25c-.73.017-1.323.268-1.323.966v8.111c-1.107 0-1.7.24-1.7 1.352v16.996c-4.553 0-3.588-.805-3.588 9.077 0 1.8-.021 3.613.003 5.411.032 2.333.454 1.928-3.403 1.928-.26.398-.566.501-.566.966v14.678c-1.28 0-3.967-.397-3.967 1.158V87.91C8.443 87.91 7 87.556 7 89.648 7 90.35 7.92 91 8.7 91h35.32c2.668 0 2.417-3.09.567-3.09h-1.51v-14.1c0-1.298-2.49-.964-3.779-.964V58.36c0-1.735-1.431-1.544-2.077-1.544V42.523c0-1.681-1.451-1.351-3.211-1.351V26.687c0-2.321-1.607-1.932-3.967-1.932v-9.077c0-1.112-.592-1.352-1.7-1.352V6.215c0-.698-.593-.95-1.322-.966 0-2.953.422-4.249-1.511-4.249-.415 0-1.133.43-1.133 1.352z" fill="#E9AF8F"/><path d="M43.128 89.047l-.02-.149.02.15c.378-.049.672-.07.9-.066.23.004.384.035.49.083a.4.4 0 01.204.199c.038.077.064.177.082.306l-.055.038-.004.002a.579.579 0 01-.077.048c-.036.017-.093.033-.27.033H8.29c.021-.332.09-.507.187-.603.109-.107.292-.153.636-.14.234.009.516.043.862.084.158.02.329.04.514.06.588.065 1.306.127 2.177.127 1.022 0 2.77.01 4.932.022 3.106.018 7.065.04 10.952.045 3.295.004 6.534-.004 9.15-.04 2.613-.034 4.616-.096 5.428-.199zM25.266 24.81l-.095.038v7.677h-2.533v-16.89h6.122v8.97h-2.495c-.32 0-.758.108-1 .204zm-4.061-9.13v16.844c-.29 0-.553-.005-.797-.008a60.812 60.812 0 00-.514-.007 7.333 7.333 0 00-1.043.046c-.288.041-.53.119-.724.267-.197.15-.329.36-.418.64-.172.546-.192 1.399-.173 2.705.006.383.015.806.025 1.275.024 1.144.055 2.558.055 4.31 0 .566-.002 1.134-.004 1.702-.005 1.237-.01 2.478.007 3.711.004.239.01.45.017.633l.005.123c.007.213.01.382.003.519a.835.835 0 01-.057.295.265.265 0 01-.13.133.955.955 0 01-.327.079c-.154.016-.35.022-.6.021-.2 0-.429-.005-.696-.01l-.21-.004a66.466 66.466 0 00-1.258-.013h-.08l-.045.068c-.06.09-.122.165-.185.235l-.057.064c-.045.048-.09.097-.13.146a.886.886 0 00-.22.603v14.526c-.159-.003-.334-.01-.521-.018-.154-.006-.316-.013-.483-.018a9.45 9.45 0 00-1.325.035c-.424.048-.829.148-1.13.35-.311.207-.507.52-.507.961V87.76a21.508 21.508 0 01-.366-.01h-.013a14.07 14.07 0 00-.5-.012c-.334 0-.664.02-.955.115a1.274 1.274 0 00-.73.564c-.176.293-.269.694-.269 1.232 0 .417.27.794.617 1.059.349.267.805.443 1.233.443h35.32c.697 0 1.22-.202 1.575-.521a1.67 1.67 0 00.553-1.166c.043-.84-.532-1.703-1.561-1.703h-1.36V73.81c0-.384-.191-.652-.483-.826-.282-.169-.66-.252-1.059-.292-.545-.055-1.176-.032-1.72-.013-.184.006-.36.013-.517.015V58.36c0-.454-.093-.797-.257-1.054a1.277 1.277 0 00-.635-.509c-.397-.153-.855-.142-1.17-.134h-.015v-14.14c0-.44-.095-.773-.287-1.014-.193-.241-.465-.37-.777-.439-.309-.067-.67-.078-1.055-.074-.164.002-.33.007-.5.012-.192.005-.388.011-.592.013V26.686c0-.594-.103-1.038-.312-1.362-.213-.328-.523-.514-.897-.618-.369-.102-.808-.125-1.292-.125-.23 0-.473.005-.726.011l-.045.001c-.224.005-.455.01-.695.012v-8.927c0-.581-.156-.978-.499-1.216-.298-.207-.711-.274-1.2-.284V6.215c0-.4-.175-.685-.458-.865-.237-.15-.542-.222-.864-.244.001-.435.012-.83.021-1.193.006-.2.01-.39.014-.571.01-.536.002-.99-.07-1.354-.072-.367-.213-.663-.488-.861-.27-.195-.643-.277-1.14-.277-.492 0-1.282.492-1.282 1.502v2.754c-.323.022-.628.093-.865.244-.283.18-.458.465-.458.865v7.963c-.49.01-.902.077-1.2.284-.343.238-.5.635-.5 1.216zM35.67 74.153h6.31V87.76h-6.31V74.154zm-24.555-8.112h6.122V87.76h-6.122V66.042zm23.31 7.769v13.95h-2.533V58.124h6.122v14.572H35.52c-.275 0-.547.156-.745.358-.198.203-.35.48-.35.757zM14.894 50.635c0-.218.035-.308.077-.351.042-.043.127-.078.34-.078h5.477c.212 0 .298.035.34.078.042.043.077.133.077.351V87.76H18.67V66.279c0-.523-.125-.908-.365-1.182-.239-.273-.573-.414-.947-.486-.373-.072-.8-.077-1.243-.066-.165.004-.331.01-.498.017-.24.009-.48.018-.724.021V50.635zm15.566 7.532V87.76h-.645V42.48h6.122v14.186h-4.005c-.465 0-.84.118-1.099.383-.257.263-.373.645-.373 1.118zm-11.6-24.184h6.123V87.76h-2.345V51.02c0-.537-.062-1.052-.278-1.437a1.205 1.205 0 00-.462-.472 1.47 1.47 0 00-.732-.172H18.86V33.983zm9.522 8.734V87.76h-1.778V26.064h6.123v14.958h-3.061c-.377 0-.7.255-.92.572a2.04 2.04 0 00-.364 1.123zM24.338 6.365h2.494c.212 0 .298.035.34.077.042.044.077.134.077.352v7.382h-2.911V6.365zM25.47 4.67c0-.576-.012-.994-.02-1.304v-.001a6.914 6.914 0 01-.005-.638c.01-.126.034-.179.07-.223a1.06 1.06 0 01.185-.16.986.986 0 01.183.15c.034.04.058.089.068.215a7.3 7.3 0 01-.004.64v.003c-.01.313-.021.736-.021 1.318 0 .135-.006.213-.015.26a.146.146 0 01-.01.035l-.001.001c-.006.006-.014.009-.051.026l-.029.013a1.111 1.111 0 00-.124.064 1.182 1.182 0 00-.132-.066l-.027-.011a.859.859 0 01-.046-.022.173.173 0 01-.009-.034 1.83 1.83 0 01-.012-.266zm.023.304l-.001-.002v.002z" stroke="#E9AF8F" stroke-width=".3"/></g><defs><filter id="filter0_d_1176_2073" x=".699" y=".7" width="51.602" height="106.6" filterUnits="userSpaceOnUse" color-interpolation-filters="sRGB"><feFlood flood-opacity="0" result="BackgroundImageFix"/><feColorMatrix in="SourceAlpha" values="0 0 0 0 0 0 0 0 0 0 0 0 0 0 0 0 0 0 127 0" result="hardAlpha"/><feOffset dy="10"/><feGaussianBlur stdDeviation="3"/><feComposite in2="hardAlpha" operator="out"/><feColorMatrix values="0 0 0 0 0 0 0 0 0 0 0 0 0 0 0 0 0 0 0.1 0"/><feBlend in2="BackgroundImageFix" result="effect1_dropShadow_1176_2073"/><feBlend in="SourceGraphic" in2="effect1_dropShadow_1176_2073" result="shape"/></filter></defs></svg>