<svg width="98" height="83" fill="none" xmlns="http://www.w3.org/2000/svg"><g filter="url(#filter0_d_1176_2079)" fill="#E9AF8F" stroke="#E9AF8F" stroke-width=".2"><path d="M31.316 52.018a.22.22 0 00.06.018.72.72 0 00.067.007c.05.004.113.005.19.005.154-.001.366-.009.626-.023a85.257 85.257 0 002.104-.145c1.719-.136 3.989-.339 6.302-.554 3.883-.361 7.889-.758 9.614-.928l.723-.072h0l.178-.017a8.04 8.04 0 00.374-.041 1.04 1.04 0 00.381-.114c.222-.131.28-.377.28-.775 0-.242-.081-.418-.23-.532-.144-.109-.336-.15-.537-.16a4.06 4.06 0 00-.652.035l-.204.024a8.761 8.761 0 01-.444.047h-.002L32.365 50.42v-.126c-.001-1.162-.002-2.062.196-2.923.21-.913.645-1.786 1.555-2.87l-.076-.065.076.064c.392-.464 1.035-.947 1.74-1.367a11.2 11.2 0 012.078-.974h0c3.8-1.279 7.06-1.539 10.151-1.539 1.06 0 2.104.03 3.143.062 1.983.058 3.952.116 5.997-.041h0c1.311-.104 2.05-.23 2.699-.45.495-.169.938-.392 1.542-.696.182-.092.379-.191.596-.298h0c.587-.291 1.185-.616 1.791-.945.418-.226.839-.455 1.264-.676 1.046-.546 2.125-1.055 3.25-1.404h0c2.357-.734 4.221-.515 6.463.245a7.959 7.959 0 011.593.74c.14.082.278.168.419.255.285.177.582.361.934.55.001 3.117.041 6.129.081 9.15v.027c.04 3.01.08 6.027.081 9.167a7.666 7.666 0 01-1.356-.48l-.108-.05c-.34-.152-.65-.29-1.028-.37-.839-.173-2.002-.048-4.639.786h0c-.863.275-2.798.945-5.195 1.774-2.012.696-4.349 1.504-6.649 2.286a306.892 306.892 0 01-6.958 2.292c-.98.306-1.83.557-2.49.732-.33.088-.612.156-.839.202-.229.047-.395.07-.497.07-1.815 0-3.947-.494-5.959-1.145a46.872 46.872 0 01-5.207-2.065s0 0 0 0l-9.788-4.809s0 0 0 0c-4.586-2.381-11.532-6.503-16.143-9.276h0l-.229-.138a45.52 45.52 0 00-2.096-1.212c.224-.858.92-1.871 1.869-2.68.976-.83 2.202-1.431 3.43-1.431 2.799 0 5.312.916 7.73 2.132 1.171.59 2.319 1.249 3.466 1.907l.112.065c1.184.68 2.368 1.356 3.574 1.95 0 0 0 0 0 0l1.912.96-.016.19-.01.1-.033.378a18.31 18.31 0 00-.07 1.327c-.004.476.019.962.1 1.358.042.198.099.378.177.526a.749.749 0 00.318.334zm0 0s0 0 0 0l.044-.09-.044.09s0 0 0 0zM6.899 45.266H6.9v-.228h0c.028-.246.127-.534.304-.887.178-.353.438-.775.79-1.29 1.464-2.139 3.512-3.749 6.553-3.749 1.232 0 2.995.448 4.693 1.044 1.7.597 3.348 1.346 4.352 1.956h0a19.891 19.891 0 001.1.613c.307.163.612.326.902.496.162.093.32.171.48.251h.001c.16.08.322.16.49.256 0 0 0 0 0 0l4.673 2.56c.165-.346.28-.613.376-.836v-.001l.001-.002a7.86 7.86 0 01.294-.631c.21-.39.496-.76 1.18-1.494.173-.19.42-.395.648-.584l.232-.194c2.343-2.052 6.34-2.912 10.56-3.26 3.358-.277 6.876-.23 9.845-.192.767.01 1.497.02 2.179.023 1.856.009 3.265-.524 4.65-1.24.45-.233.9-.487 1.364-.748.956-.539 1.969-1.11 3.153-1.592M6.9 45.267L70.997 57.82l.682-.23a34.553 34.553 0 011.41-.46c.557-.16 1.003-.246 1.443-.243.87.008 1.738.365 3.406 1.245.002.632.041 1.15.08 1.676l.003.034a22.8 22.8 0 01.084 1.84c-.002.278-.017.6-.034.943v0c-.016.341-.034.701-.038 1.052a7.94 7.94 0 00.039 1.006c.035.31.097.592.205.814l.007.016.012.011c.035.036.085.06.134.078.052.02.115.037.186.052a5.5 5.5 0 00.535.078c.42.043.954.071 1.494.09a80.225 80.225 0 001.797.041c.322.005.564.009.675.014.32.017.507.05.694.084l.068.012c.216.038.447.072.877.077h.001l4.924.173h.001c.171.012.295.026.394.037l.026.003c.103.012.186.02.268.015.169-.01.325-.078.672-.243l.057-.027v-.063c0-3.738-.042-7.364-.083-10.983-.049-4.222-.097-8.434-.079-12.799v0c0-.6-.04-1.048-.083-1.47l-.009-.092c-.038-.388-.076-.76-.08-1.217v-.001l.005-5.908.002-.3c.002-.249.004-.468 0-.66a3.186 3.186 0 00-.066-.67.868.868 0 00-.247-.45c-.124-.116-.29-.19-.502-.24-.419-.099-1.056-.111-2.01-.123l-.174-.003c-.94-.012-2.182-.027-3.824-.115 0 0 0 0 0 0l-5.739-.33-.056-.002-.032.047c-.35.52-.448.738-.441 1.047.002.098.014.208.03.338.006.06.014.123.02.192.024.225.046.52.044.934v2.955c-2.254-1.179-4.033-1.82-5.85-1.922-1.858-.104-3.744.357-6.206 1.364M6.9 45.267v.011c.058.474.46.718.983.971h0c.337.162.51.267.717.391.12.073.252.153.433.254 0 0 0 0 0 0L30.63 59.09h0l.005.003c3.232 1.612 7.156 3.474 10.518 4.586 3.312 1.097 5.239 1.51 7.12 1.383 1.698-.115 3.354-.67 5.95-1.541l.86-.288h0l15.915-5.413L6.899 45.266zm58.82-9.73s0 0 0 0l.038.093-.038-.093s0 0 0 0zM7 45.267v-.218c.05-.458.374-1.105 1.077-2.132 1.452-2.12 3.472-3.705 6.47-3.705 2.428 0 7 1.774 8.993 2.985.36.22.735.42 1.105.616.307.164.61.325.899.495.164.095.325.174.485.254.161.08.322.159.486.254L7 45.266zm0 0c.05.412.396.635.926.892L7 45.266zm82.505 15.555c.041 1.254.081 2.5.083 3.867l-4.811-.327h0-.004c-.654-.02-1.253-.044-1.837-.068a80.278 80.278 0 00-3.319-.089V56.27c0-1.402-.041-2.682-.083-3.97v-.024a121.366 121.366 0 01-.084-4.041c0-2.78-.04-5.43-.081-8.069v-.03a518.86 518.86 0 01-.08-7.877c1.327.004 2.713.087 3.997.168l.296.02c1.2.076 2.298.146 3.154.141h0c.538-.005.886.036 1.233.079l.03.004c.317.039.638.079 1.1.084l.16 11.87s0 0 0 0c0 .763.044 1.422.086 2.053l.003.04c.041.617.081 1.205.079 1.84-.009 2.043-.008 4.086-.007 6.13l.001 2.073c0 1.447.042 2.749.084 4.042v.019z"/><path d="M22.525 2.579h52.953v28.007H22.525V2.579zm-1.68-.759v29.524c0 .435.319.753.759.753h54.794c.44 0 .76-.318.76-.753V1.82c0-.308-.176-.541-.415-.693A1.596 1.596 0 0075.907.9H22.096c-.292 0-.6.076-.836.227-.24.152-.415.385-.415.693z"/><path d="M26.663 7.794l-.06.014-.014.06c-.052.225-.093.612-.125 1.116a49.224 49.224 0 00-.073 1.856 201.343 201.343 0 00-.039 5.027c.005 2.133.027 4.305.045 6.014.012 1.199.022 2.17.022 2.74 0 .162.05.294.144.4.09.103.216.176.355.234.14.057.303.103.474.148l.129.034c.133.034.271.07.413.112.373.111.755.264 1.078.54.32.276.59.678.731 1.299h0c.026.113.043.235.06.363l.01.077c.022.153.047.312.093.455a.801.801 0 00.234.378c.12.1.277.155.482.155h36.094c.418 0 .683-.083.85-.254.166-.169.216-.404.254-.648l.02-.134c.069-.473.152-1.046.739-1.633.648-.647 1.358-.716 1.929-.764l.023-.002c.133-.01.262-.022.379-.04.123-.019.239-.047.339-.097a.548.548 0 00.245-.23.811.811 0 00.084-.394c0-.57.01-1.54.022-2.739.018-1.709.04-3.881.045-6.014.004-1.812-.004-3.592-.039-5.027a49.013 49.013 0 00-.073-1.856c-.032-.504-.073-.891-.125-1.115l-.014-.06-.06-.015a5.565 5.565 0 00-.594-.087l-.267-.03a5.244 5.244 0 01-1.05-.223c-.35-.12-.684-.3-.957-.581-.271-.28-.487-.666-.597-1.205a5.401 5.401 0 01-.067-.463 2.225 2.225 0 00-.081-.417.627.627 0 00-.223-.324c-.113-.081-.262-.121-.453-.121H30.622a.657.657 0 00-.56.297c-.125.174-.204.408-.272.651l-.075.285c-.04.159-.082.319-.132.477-.08.251-.177.48-.318.66h0c-.312.4-.668.6-1.092.736-.214.069-.444.12-.696.172l-.18.037c-.2.04-.411.083-.634.136zm1.274 16.077V9.266c.194-.092.39-.173.588-.255.121-.05.243-.1.366-.154.34-.148.68-.314.997-.546.627-.458 1.158-1.161 1.472-2.451h34.948c.26 1.065.665 1.798 1.279 2.327.611.527 1.42.843 2.473 1.095v14.581c-2.01.05-3.338 1.626-3.752 3.28H31.344a15.443 15.443 0 01-.132-.295c-.442-1.009-1.21-2.756-3.275-2.977z"/><path d="M56.078 13.067h0c2.659 5.707-1.829 11.286-6.418 11.286-1.361 0-2.5-.105-3.534-.464-1.033-.359-1.968-.974-2.919-2.004-4.608-4.998-1.09-13.241 5.794-13.241 3.059 0 5.888 1.87 7.077 4.423zm-.482 10.274h0c4.678-4.58 3.407-12.244-2.279-15.215h0c-6.245-3.26-13.767 1.609-13.767 7.962 0 9.412 10.382 12.796 16.046 7.253zM33.356 9.035c0-.365.141-.632.349-.809.21-.179.492-.27.78-.27.286 0 .57.091.779.27.207.177.348.444.348.81 0 .414-.144.715-.352.913-.21.2-.491.3-.775.298a1.13 1.13 0 01-.776-.303c-.209-.198-.353-.499-.353-.909zm1.045 2.729c.98 0 1.697-.338 2.163-.854.465-.514.673-1.197.654-1.875-.037-1.351-.982-2.722-2.65-2.722-.907 0-1.6.339-2.07.853-.47.512-.711 1.192-.728 1.87-.017.677.191 1.359.63 1.872.442.516 1.11.856 2 .856zm27.996-2.729c0-.316.087-.546.22-.708a.975.975 0 01.524-.318c.418-.107.898 0 1.146.2.246.2.371.52.375.848.003.328-.116.65-.34.853-.355.321-.838.4-1.23.253-.387-.146-.695-.517-.695-1.128zm1.044 2.729c.987 0 1.703-.338 2.164-.854.46-.515.66-1.198.634-1.876-.051-1.35-1.002-2.721-2.63-2.721-.911 0-1.607.339-2.079.853-.47.512-.713 1.192-.73 1.87-.018.677.19 1.359.632 1.872.443.516 1.115.856 2.009.856zM60.8 23.712h0c-.108.678.14 1.419.573 1.988.433.569 1.065.985 1.742.985h.82c1.253 0 2.058-1.033 2.243-2.173.185-1.142-.243-2.437-1.498-2.99-.94-.415-1.838-.32-2.539.109-.698.428-1.194 1.184-1.34 2.08zm1.595.25c0-.356.14-.616.348-.79a1.22 1.22 0 01.78-.265c.287 0 .57.09.78.265.207.174.347.434.347.79 0 .415-.144.716-.352.913-.21.198-.491.298-.775.297a1.132 1.132 0 01-.776-.303c-.209-.199-.352-.498-.352-.907zm-30.637-.251h0c-.11.678.139 1.42.571 1.989.432.568 1.063.984 1.738.984h.82c.66 0 1.277-.398 1.708-.942.432-.544.693-1.251.625-1.897-.167-1.607-1.391-2.51-2.643-2.575-1.255-.064-2.537.715-2.82 2.441zm1.594.25c0-.355.14-.616.348-.789.21-.175.493-.265.78-.265.287 0 .57.09.78.265.208.173.348.434.348.79 0 .414-.144.715-.352.913-.21.198-.492.298-.776.297a1.134 1.134 0 01-.776-.304c-.208-.198-.352-.498-.352-.906z"/></g><defs><filter id="filter0_d_1176_2079" x=".801" y=".8" width="96.398" height="81.581" filterUnits="userSpaceOnUse" color-interpolation-filters="sRGB"><feFlood flood-opacity="0" result="BackgroundImageFix"/><feColorMatrix in="SourceAlpha" values="0 0 0 0 0 0 0 0 0 0 0 0 0 0 0 0 0 0 127 0" result="hardAlpha"/><feOffset dy="10"/><feGaussianBlur stdDeviation="3"/><feComposite in2="hardAlpha" operator="out"/><feColorMatrix values="0 0 0 0 0 0 0 0 0 0 0 0 0 0 0 0 0 0 0.1 0"/><feBlend in2="BackgroundImageFix" result="effect1_dropShadow_1176_2079"/><feBlend in="SourceGraphic" in2="effect1_dropShadow_1176_2079" result="shape"/></filter></defs></svg>