<svg width="97" height="80" fill="none" xmlns="http://www.w3.org/2000/svg"><g filter="url(#filter0_d_1176_2064)" fill-rule="evenodd" clip-rule="evenodd" fill="#E9AF8F"><path d="M37.261 19.963c0-1.14-.088-1.494.897-2.153.53 1.001.923 2.097 1.846 3.18.354.414.546.498.846.948-1.961.457-3.589-.2-3.589-1.975zm24.23-.718l.857-2.014c.13-.235.1-.18.22-.319.024.29.723 1.914-1.076 2.333zm-21.538-2.153c1.166.56 2.736.91 2.154 3.41-.704-.472-2.02-2.362-2.154-3.41zm13.282-.539c1.143.266 2.665 1.544 3.337 2.406 3.706 4.76 1.972 10.754-2.983 13.205-.874.432-1.086.481-1.085 1.786.002 1.64.235 10.533-.126 11.36-.526 1.206-2.553 2.326-2.553 3.73 0 .513 1.97 2.509 2.333 3.051-.307 1.15-2.333 2.399-2.333 3.41 0 .958 1.394 2.009 2.333 3.41l-2.11 2.197c-.783-.538-1.322-1.238-1.983-1.873-.876-.844-.574-1.234-.574-3.375 0-4.467.296-21.294-.18-23.333.5-.24.993-.333 1.559-.595.542-.252.909-.435 1.39-.764 3.849-2.636 5.83-7.412 4.208-11.9l-1.233-2.715zm6.282 1.795c0-1.316.202-1.908 1.256-2.154-.159.332-.297.74-.454 1.161-.275.735-.131.814-.802.993zm-10.23-2.872c2.121.567 4.668 5.32 3.56 9.304-.923 3.322-3.6 5.643-7.139 6.146-4.157.59-1.81-2.169-6.662 6.258-.379.66-.788 1.318-1.185 2.046l-1.258 2.152c-.204.273-.072.163-.357.36-.552.383-2.849.835-4.19 1.734 0 1.743.538 2.705.538 4.307-1.133.095-3.01.987-3.948 1.616 0 1.428.538 2.455.538 4.128-.506.011-2.527.552-2.872.718-.212-.442-.965-3.193-.814-3.67.055-.174.724-1.293.849-1.5l7.683-13.317c1.081-1.999 2.355-3.929 3.41-5.923 1.693 0 3.5.637 6.104-.537 1.65-.744 2.944-1.592 4.075-2.925 1.028-1.212 1.89-2.867 2.26-4.74.14-.705.192-2.283.118-3.278-.086-1.154-.484-1.908-.71-2.879zm-10.231-1.795v-2.513c3.912 0 6.605 1.388 8.258 4.665 2.204 4.37.207 9.822-4.022 11.597-2.91 1.222-5.687 1.016-8.222-.61-1.448-.929-1.006-1.061-4.013.76-.71.43-7.97 4.588-7.976 4.588-1.045 0-3.99-.824-4.555-.61-.745.284-1.038 2.406-1.726 3.841-1.527 0-2.698-.538-4.128-.538-.581.867-.487.54-.921 1.771-.175.496-.65 1.651-.695 2.177-.924-.215-2.077-.696-3.05-.718.068-.825.64-3.326 1.254-3.77l19.688-11.363c2.868-1.724 2.21-.794 2.21-3.354 0-3.965 2.899-7.33 6.103-8.077l.18 4.488c-2.657 1.405-2.874 5.573-.001 7.359 1.304.811 2.965.851 4.37.061 3.787-2.13 2.748-8.138-2.575-8.138-.018-.812-.18-.713-.18-1.616zm14.718-.179c1.28-.298 9.837-2.067 10.463-1.863.995.324 22.89 13.45 23.998 13.709-.064.762-4.306 7.748-5.017 8.983-.363.631-1.484 2.44-1.625 3.042-.731-.06-2.108-.994-2.749-1.379l-17.072-9.85c-.53-.32-.863-.534-1.358-.796 0-2.274-.526-3.52-.359-4.308 5.227 1.218 6.357-6.64.718-6.64-1.614 0-3.016 1.448-3.051 3.05-.744-.498-1.274-1.25-2.16-1.788-1.184-.719-1.56-.377-1.788-2.16zM49.645 1.835c4.405 0 7.663 1.748 9.841 5.057l1.157 2.433c.146.414.142.595.31.946-.735.017-1.539.254-2.289.404-.634.127-1.608.321-2.243.45-1.649.333-3.101.587-4.622.941-.34 1.422-.198.534.18 2.154-1.452-.032-2.045-.706-3.11-1.2-.566-.262-1.059-.36-1.562-.59-1.289-.588-2.499-3.056-7.713-3.056 1.12-2.335 1.314-3.248 3.645-5.15 1.473-1.2 3.842-2.389 6.406-2.389zM29.364 20.681L8.03 32.913c-.727.46-.797.673-1.033 1.659-1.218 5.08-1.93 4.555 1.584 5.456 3.699.95 3.302 1.45 4.27-1.038.197-.508.67-1.592.717-2.154 3.8.084 4.06 1.915 5.092-1.19.218-.657.573-1.682.83-2.22 3.047.71 3.464.927 5.036.01L27.039 32c.856-.516 5.911-3.57 6.81-3.78.54.362 1.066.728 1.795.898-.2.858-9.904 17.335-11.298 19.753-1.14 1.978-.986 1.422-.367 3.758.175.659.342 1.39.513 2 .669 2.377.887 1.718 5.559.485 2.028-.536.847-1.46.568-4.817.663-.154 3.949-1.113 3.949-1.795 0-1.529-.539-2.572-.539-3.948 3.721-1.786 2.8-.032 4.701-3.197l3.88-6.71c.275-.457.803-1.277.932-1.76 1.18.026 1.089.65 2.154.898l-.006 25.133c.087.823.896 1.334 1.845 2.283 2.707 2.706 2.213 2.723 4.846.09 2.76-2.76 2.413-1.943.213-4.79-.384-.497-.285-.478-.796-.82.88-1.313 2.513-2.59 2.513-3.589 0-.748-2.333-2.627-2.333-3.23 0-.394 1.432-1.844 1.883-2.425.749-.964.45-1.667.45-3.857v-8.795c2.05-.478 5.37-4.128 5.564-6.462 1.098.091 20.234 11.955 22.076 12.385 1.136-.987 5.542-9.137 6.47-10.76 1.947-3.401 2.818-3.95.954-4.92l-9.1-5.258c-4.577-2.499-9.585-5.683-14.118-8.139-2.082-1.127-1.216-1.08-2.859-.856-.98.134-.59.035-.893-.952-.586-1.917-1.758-3.612-3.113-4.967-4.77-4.77-12.162-5.125-17.243-1-2.165 1.758-3.201 3.294-4.193 6.038-.242.666.282.425-1.517.996-3 .95-5.206 3.26-6.368 6.196-.54 1.364-.608 2.739-.608 4.596z"/><path d="M78.004 24.45c.222.464.621 2.117.791 2.798.319 1.28.148 1.945 1.362 2.228 1.466-.19.452-2.588.201-3.431-1.327-4.47-.337-3.876-4.652-2.815-.703.173-2.721.495-2.99 1.16-.396.978.395 1.502 2.078.981 1.001-.31 2.375-.52 3.21-.92z"/><path d="M72.26 29.297c0 .852.968 1.062 1.83 1.58 2.543 1.523 2.607 1.574 3.66-.22.322-.549.648-1.102.792-1.72l-.236-.302c-1.171-1.173-1.917.424-2.098 1.2-.67-.056-1.333-.589-1.794-.898.716-1.353 1.338-2.296-.36-2.692-.623.542-1.794 2.343-1.794 3.052z"/></g><defs><filter id="filter0_d_1176_2064" x="0" y="0" width="96.408" height="79.247" filterUnits="userSpaceOnUse" color-interpolation-filters="sRGB"><feFlood flood-opacity="0" result="BackgroundImageFix"/><feColorMatrix in="SourceAlpha" values="0 0 0 0 0 0 0 0 0 0 0 0 0 0 0 0 0 0 127 0" result="hardAlpha"/><feOffset dy="10"/><feGaussianBlur stdDeviation="3"/><feComposite in2="hardAlpha" operator="out"/><feColorMatrix values="0 0 0 0 0 0 0 0 0 0 0 0 0 0 0 0 0 0 0.1 0"/><feBlend in2="BackgroundImageFix" result="effect1_dropShadow_1176_2064"/><feBlend in="SourceGraphic" in2="effect1_dropShadow_1176_2064" result="shape"/></filter></defs></svg>