<svg width="23" height="23" viewBox="0 0 23 23" fill="none" xmlns="http://www.w3.org/2000/svg">
<path d="M22.9996 10.8046C22.9712 13.7718 22.2021 16.0932 20.6024 18.1103C18.8848 20.2772 16.6481 21.6532 13.9112 22.2101C11.7972 22.636 9.73985 22.4488 7.72022 21.7234C7.27194 21.5596 6.8331 21.3677 6.41313 21.1384C6.28572 21.0681 6.17719 21.0588 6.03563 21.1056C4.12453 21.7187 2.20872 22.3271 0.292904 22.9308C0.207967 22.9589 0.0947165 23.0385 0.028654 22.9776C-0.0468461 22.9028 0.047529 22.7904 0.0758415 22.7015C0.458061 21.5736 0.84028 20.441 1.22722 19.3131C1.46316 18.6251 1.68966 17.9418 1.93503 17.2585C2.00109 17.0807 1.9775 16.945 1.87841 16.7812C1.39237 15.9575 1.03375 15.0776 0.778936 14.1556C0.302342 12.424 0.250435 10.6736 0.623217 8.92322C1.02903 7.01373 1.87841 5.31017 3.1855 3.84061C4.76628 2.06216 6.71513 0.887449 9.03204 0.321154C10.509 -0.0392159 12.0001 -0.0953773 13.5007 0.147989C15.4637 0.466238 17.2332 1.23846 18.7763 2.48337C20.3806 3.77977 21.5509 5.38973 22.287 7.32262C22.6928 8.36629 23.0137 10.0745 22.9996 10.8046ZM2.90709 20.1508C4.07735 19.7764 5.19569 19.4207 6.3046 19.0604C6.45088 19.0136 6.56885 19.0229 6.69625 19.1072C7.12094 19.388 7.57866 19.6126 8.05054 19.8092C9.58413 20.4551 11.1791 20.6891 12.8259 20.4785C14.8455 20.221 16.6198 19.4161 18.1109 18.0167C19.989 16.2523 20.9941 14.0901 21.0837 11.5347C21.1687 9.03087 20.357 6.83121 18.663 4.96384C17.0539 3.19007 15.0343 2.17916 12.6513 1.92644C10.5798 1.70647 8.64038 2.15108 6.84725 3.21815C5.31366 4.13546 4.13869 5.38505 3.32234 6.96225C2.42106 8.69858 2.11434 10.5425 2.37387 12.4754C2.56734 13.9356 3.09584 15.2788 3.94522 16.4863C4.0396 16.622 4.06791 16.7344 4.01128 16.8935C3.83669 17.3708 3.68097 17.8529 3.51581 18.3303C3.31763 18.92 3.12416 19.5097 2.90709 20.1508Z" fill="#E9AF8F"/>
<path d="M6.04115 8.60027C6.06475 7.4864 6.46112 6.65802 7.2114 5.99812C7.45206 5.78283 7.74934 5.68923 8.08437 5.73603C8.22594 5.75475 8.3675 5.76879 8.50906 5.75943C8.77331 5.74539 8.95262 5.87176 9.04228 6.10108C9.35844 6.91542 9.66516 7.72977 9.97188 8.54879C10.0757 8.82959 9.89637 9.04956 9.74537 9.25081C9.57078 9.48949 9.35844 9.7001 9.15081 9.9107C8.93847 10.126 8.91015 10.2477 9.05644 10.5098C9.91053 12.0495 11.1091 13.2336 12.7371 13.9637C12.7937 13.9871 12.8503 14.0199 12.9069 14.0479C13.124 14.1462 13.3175 14.1228 13.4826 13.9356C13.7846 13.5846 14.1149 13.2617 14.3933 12.8919C14.5774 12.6486 14.7048 12.6065 14.9832 12.7281C15.8137 13.0838 16.5923 13.5331 17.385 13.9684C17.5313 14.0479 17.5832 14.1696 17.5785 14.3381C17.536 15.7187 16.7386 16.4395 15.3371 16.7577C14.6576 16.9122 14.03 16.7437 13.4071 16.519C12.1 16.051 10.8401 15.4988 9.78312 14.5721C8.94319 13.8326 8.20234 13.0089 7.57475 12.087C7.09343 11.3756 6.59325 10.6782 6.31484 9.84986C6.1544 9.40993 6.03643 8.96064 6.04115 8.60027Z" fill="#E9AF8F"/>
</svg>
