<svg width="25" height="25" viewBox="0 0 25 25" fill="none" xmlns="http://www.w3.org/2000/svg">
<path d="M2.73898 8.61452L2.73895 8.61459C2.67497 8.77959 2.62454 8.91286 2.56794 9.0693C2.18578 10.1255 1.99681 11.3848 1.99681 12.5898C1.99681 13.7478 2.24141 14.9516 2.53512 15.832C2.7821 16.5718 2.99987 17.0437 3.17775 17.3667C3.29952 17.5878 3.39925 17.7345 3.48231 17.8567C3.52272 17.9161 3.55919 17.9697 3.59232 18.0233C3.6415 18.1028 3.68121 18.1799 3.7056 18.2681C3.73013 18.3568 3.73772 18.4514 3.72952 18.5651C3.71349 18.7872 3.63555 19.0962 3.49205 19.5994C3.49203 19.5995 3.492 19.5996 3.49198 19.5996L2.92598 21.6344C2.92589 21.6348 2.9258 21.6352 2.92571 21.6355C2.90888 21.7016 2.88089 21.798 2.8498 21.9052C2.8255 21.9889 2.79929 22.0792 2.77503 22.1667C2.74675 22.2686 2.72053 22.3686 2.70116 22.4554C2.69793 22.4699 2.69492 22.4839 2.69216 22.4973C2.72588 22.4853 2.7631 22.4725 2.80322 22.4589C2.93492 22.4143 3.10409 22.3597 3.2973 22.299C3.68383 22.1774 4.1683 22.0307 4.64526 21.8891C5.12226 21.7476 5.59215 21.611 5.94961 21.5099C6.12828 21.4593 6.27921 21.4175 6.38901 21.3882C6.44382 21.3736 6.48896 21.362 6.52239 21.354C6.53903 21.35 6.55353 21.3467 6.56523 21.3444C6.57318 21.3428 6.58987 21.3394 6.60489 21.3394C6.70388 21.3394 6.81145 21.3733 6.91706 21.419C7.02428 21.4653 7.13934 21.5283 7.25524 21.5949C7.30323 21.6225 7.35132 21.6507 7.39932 21.6788C7.58774 21.7892 7.77476 21.8987 7.94902 21.9695L7.94904 21.9695C8.10058 22.031 8.23912 22.0932 8.37457 22.154C8.65162 22.2784 8.91573 22.3969 9.25175 22.4924C10.3131 22.7937 11.2275 23.0015 12.389 23.0015C14.2765 23.0015 15.2855 22.6919 16.8535 22.04C16.8667 22.0345 16.8795 22.0292 16.8919 22.024C17.0554 21.956 17.1486 21.9173 17.2958 21.8289C18.204 21.2834 18.8097 20.9008 19.3589 20.4296C19.9074 19.9591 20.4029 19.3976 21.085 18.4918L21.1648 18.5519L21.085 18.4917C21.4502 18.0067 21.997 16.9566 22.2173 16.3885L22.6777 14.9259C22.8379 14.2856 22.9606 13.4042 22.9606 12.6348C22.9606 10.707 22.6636 9.7169 22.0008 8.11699C22.0008 8.11696 22.0008 8.11694 22.0008 8.11692L2.73898 8.61452ZM2.73898 8.61452C2.94852 8.07278 3.29795 7.39297 3.61288 6.9129L3.61289 6.91288C4.13197 6.12119 4.37481 5.77916 5.07265 5.07993M2.73898 8.61452L5.07265 5.07993M5.07265 5.07993C5.21938 4.93299 5.34872 4.81499 5.48483 4.69081C5.56662 4.6162 5.65085 4.53936 5.74276 4.45267L5.74279 4.45263C5.7947 4.40362 5.84891 4.36232 5.90725 4.31995C5.91968 4.31093 5.93241 4.30178 5.94537 4.29245C5.9912 4.25951 6.03994 4.22446 6.0882 4.18578L6.84837 3.65246C7.68669 3.12428 8.08891 2.93364 9.02295 2.58251C11.3299 1.71531 14.0817 1.85785 16.3568 2.74197L16.3568 2.74199C16.47 2.78587 16.5483 2.82238 16.6331 2.86183C16.6888 2.8878 16.7474 2.91505 16.8203 2.94652L16.8204 2.94653C17.1437 3.08588 17.3871 3.21541 17.6731 3.37962C18.9299 4.10176 19.5132 4.68933 20.5109 5.75129L20.5109 5.75133C20.5598 5.80334 20.6011 5.85766 20.6434 5.91611C20.6524 5.92855 20.6615 5.9413 20.6708 5.95428C20.7043 6.00101 20.7399 6.05077 20.7793 6.09997L5.07265 5.07993ZM21.0629 6.4798C21.0212 6.4242 20.9869 6.37684 20.9545 6.33226C20.8991 6.25584 20.8495 6.18758 20.7794 6.09999L21.0629 6.4798ZM21.0629 6.4798L21.5666 7.27038C21.6083 7.34107 21.6398 7.40055 21.6722 7.46169L21.675 7.46692C21.7085 7.53027 21.7432 7.59555 21.7901 7.67377L21.0629 6.4798ZM11.9815 0.899926V0.9H12.8155H12.8193L12.8193 0.900073C13.8122 0.938042 14.8141 1.10836 15.8681 1.39772C16.0541 1.44869 16.1957 1.49581 16.3851 1.56212C17.5427 1.96627 18.5936 2.59316 19.5589 3.3207C20.4158 3.96635 21.3783 4.96394 21.9687 5.8504C21.9687 5.8504 21.9687 5.85041 21.9687 5.85042L22.2558 6.28138L22.2568 6.28288L22.2568 6.28289C22.508 6.67505 22.821 7.19589 22.9997 7.62927L22.9997 7.62932C23.0466 7.7432 23.0939 7.85076 23.1409 7.95747C23.2335 8.16795 23.3246 8.3751 23.408 8.62083C23.8042 9.78753 24.0149 10.8933 24.0573 11.9981L24.0575 12.0019H24.0574V12.8374V12.8412L24.0573 12.8412C24.0194 13.8359 23.8494 14.8396 23.5606 15.8955C23.2624 16.9858 22.7886 17.8426 22.2237 18.7705L22.1383 18.7185L22.2237 18.7705C21.9743 19.18 21.6739 19.5526 21.3831 19.9135C21.3682 19.9319 21.3534 19.9503 21.3386 19.9686L21.3386 19.9687C21.2433 20.0869 21.1788 20.1541 21.1025 20.2336C21.0693 20.2683 21.0337 20.3054 20.9924 20.35C20.9409 20.4057 20.9032 20.4525 20.8639 20.501C20.858 20.5084 20.852 20.5158 20.8459 20.5233C20.7997 20.5803 20.75 20.6399 20.6769 20.7131L20.6769 20.7132C20.6008 20.7894 20.5363 20.8427 20.4753 20.8924L20.4642 20.9015C20.4075 20.9476 20.3543 20.9909 20.2932 21.0501C19.7452 21.5802 18.9433 22.1688 18.2655 22.5571C17.6956 22.8838 16.9865 23.2328 16.3509 23.4494L16.3508 23.4494C16.017 23.563 15.6012 23.7031 15.2682 23.7724C14.3837 23.9566 13.6449 24.0687 12.9074 24.0999L12.9032 24.1001V24.1H12.0536H12.0494L12.0494 24.0999C11.5379 24.0784 11.0026 24.0188 10.3995 23.9192C9.90651 23.838 9.38103 23.6955 8.94622 23.5623C8.57289 23.4481 8.31354 23.3361 8.03021 23.2139C7.91102 23.1624 7.78759 23.1092 7.64963 23.0531C7.56697 23.0195 7.3626 22.9126 7.15086 22.8018C7.10604 22.7783 7.06089 22.7547 7.01649 22.7315C6.88712 22.6641 6.76212 22.5997 6.66435 22.5522C6.61533 22.5284 6.57445 22.5094 6.5439 22.4967C6.53349 22.4923 6.52493 22.489 6.51809 22.4865L3.08259 23.547L3.07978 23.5478L3.07977 23.5478C2.99872 23.5702 2.88244 23.6079 2.7515 23.6504C2.66561 23.6782 2.57342 23.7081 2.48072 23.7371C2.36561 23.7731 2.25099 23.8072 2.1514 23.8324C2.05485 23.8568 1.96261 23.8755 1.89681 23.8755C1.70053 23.8755 1.55536 23.8186 1.46272 23.7083C1.37277 23.6012 1.34821 23.4621 1.35007 23.3311C1.35311 23.1181 1.42873 22.8778 1.477 22.7244C1.48704 22.6926 1.49589 22.6644 1.50266 22.6411C1.50272 22.6409 1.50277 22.6407 1.50283 22.6405L2.30953 19.7217L2.30986 19.7206C2.36132 19.5428 2.40513 19.3976 2.44228 19.2745C2.47449 19.1678 2.50169 19.0777 2.52454 18.9972C2.57303 18.8265 2.59353 18.7263 2.59265 18.6469C2.59183 18.5734 2.5725 18.5116 2.52267 18.419C2.49189 18.3618 2.45313 18.299 2.40363 18.2187C2.36781 18.1607 2.32636 18.0935 2.27824 18.0128C1.97143 17.498 1.62455 16.6308 1.44793 16.0737L1.44792 16.0737C1.00406 14.6729 0.903129 13.6978 0.9 12.2546L0.9 12.2544L0.9 12.1856C0.9 11.2282 1.06415 10.4603 1.23461 9.66746L1.23461 9.66745C1.49892 8.43902 2.09541 7.2779 2.73368 6.22955L11.9815 0.899926ZM11.9815 0.899926L11.9777 0.900074M11.9815 0.899926L11.9777 0.900074M11.9777 0.900074C10.8749 0.942634 9.77113 1.15372 8.60656 1.5506C7.08301 2.06983 5.41906 3.14616 4.28049 4.28684L4.28038 4.28672L4.27652 4.29106L3.62191 5.02767L3.62182 5.02759L3.61878 5.03136C3.58288 5.07592 3.54973 5.11587 3.51708 5.15521C3.45367 5.23162 3.39217 5.30571 3.31617 5.40685L3.31616 5.40686M11.9777 0.900074L3.31616 5.40686M3.31616 5.40686C3.27736 5.45852 3.24367 5.50138 3.21171 5.54204C3.14575 5.62594 3.08714 5.7005 3.0061 5.82374M3.31616 5.40686L3.0061 5.82374M3.0061 5.82374C2.96713 5.88291 2.93311 5.93136 2.89991 5.97865M3.0061 5.82374L2.89991 5.97865M2.89991 5.97865C2.84783 6.05283 2.79775 6.12416 2.73372 6.22949L2.89991 5.97865Z" fill="#E9AF8F" stroke="#E9AF8F" stroke-width="0.2"/>
<path d="M10.4743 14.0234L10.4742 14.0233C10.4237 13.9786 10.3842 13.9374 10.3442 13.8956C10.3266 13.8771 10.3088 13.8586 10.29 13.8396C10.2734 13.8229 10.2568 13.8061 10.24 13.7892C9.85743 13.404 9.40717 12.9505 9.0479 12.4482C8.67299 11.924 8.38889 11.3356 8.38889 10.7031C8.38889 10.5611 8.47612 10.4362 8.5565 10.3434C8.59854 10.2949 8.64371 10.2497 8.68362 10.2104C8.68832 10.2057 8.69293 10.2012 8.69743 10.1967C8.73249 10.1622 8.76136 10.1337 8.78331 10.1088L8.78332 10.1088C8.79979 10.0901 8.81654 10.0712 8.83349 10.0521C8.95291 9.91714 9.08249 9.77075 9.19633 9.61824C9.32688 9.44332 9.42979 9.26917 9.47229 9.10612L10.4743 14.0234ZM10.4743 14.0234C10.8054 14.3154 11.5373 14.8992 12.2895 15.4105C12.6657 15.6661 13.049 15.905 13.3912 16.0805C13.7283 16.2533 14.0421 16.3734 14.273 16.3734C14.5341 16.3734 14.8083 16.2268 15.0638 16.0297C15.3227 15.8302 15.5785 15.5663 15.805 15.3058C16.0321 15.0449 16.2323 14.7844 16.3795 14.5903C16.3979 14.566 16.4154 14.5429 16.432 14.521C16.4822 14.4546 16.524 14.3993 16.5568 14.3575C16.5697 14.3412 16.5806 14.3276 16.5897 14.3166C16.6059 14.3227 16.626 14.3312 16.65 14.3424C16.7078 14.3694 16.7819 14.409 16.8684 14.4584C17.041 14.557 17.2565 14.691 17.4765 14.8314C17.6791 14.9608 17.8865 15.0964 18.0659 15.2137C18.2727 15.3489 18.4421 15.4597 18.5237 15.5083L18.5237 15.5083M10.4743 14.0234L18.5237 15.5083M18.5237 15.5083C18.5921 15.549 18.663 15.5928 18.7354 15.6375C18.8683 15.7194 19.0063 15.8045 19.1426 15.8798C19.1218 16.0139 19.0692 16.2033 19.0053 16.3937C18.931 16.6153 18.8459 16.8246 18.7891 16.931L18.7891 16.931M18.5237 15.5083L18.7891 16.931M18.7891 16.931C18.1656 18.1012 16.9687 18.494 15.6702 18.4717C14.3715 18.4494 12.9951 18.0106 12.0605 17.5466C11.2921 17.165 10.6482 16.6821 10.0013 16.1387C9.31545 15.5625 8.36176 14.4355 7.8354 13.6743C7.66907 13.4338 7.5257 13.2222 7.37812 12.9739C6.80872 12.0153 6.3644 11.159 6.20003 10.2846C6.03666 9.41553 6.14883 8.52168 6.70824 7.48591C6.85827 7.20825 7.19015 6.68242 7.39523 6.45566C7.40375 6.44625 7.41085 6.43831 7.417 6.43144C7.42855 6.41853 7.43671 6.4094 7.4446 6.40134C7.45496 6.39073 7.45885 6.38841 7.46073 6.38738C7.46976 6.38242 7.48505 6.3782 7.57268 6.36395L7.57275 6.36394M18.7891 16.931L7.57275 6.36394M7.57275 6.36394C7.76735 6.33216 7.9586 6.31429 8.16029 6.31136M7.57275 6.36394L8.16029 6.31136M15.9348 13.4911C16.5427 12.946 17.4275 13.5621 18.1677 14.0775C18.2684 14.1476 18.3665 14.2159 18.4608 14.2791C18.5466 14.3367 18.7062 14.4293 18.8951 14.5389C19.4273 14.8478 20.1917 15.2914 20.1917 15.4649L15.9348 13.4911ZM15.9348 13.4911C15.9077 13.5154 15.8999 13.5217 15.8931 13.529C15.8855 13.5372 15.8792 13.5465 15.8481 13.5838L15.9348 13.4911ZM18.9964 18.4438L18.9964 18.4438C18.303 19.1442 17.2962 19.4669 16.2553 19.5495C15.2133 19.6322 14.1246 19.4757 13.2515 19.2045C13.2515 19.2045 13.2515 19.2045 13.2515 19.2045L13.2811 19.109L18.9964 18.4438ZM18.9964 18.4438C19.4192 18.0166 19.5643 17.7942 19.848 17.2322L19.848 17.2321M18.9964 18.4438L19.848 17.2321M19.848 17.2321C20.0767 16.7789 20.2917 16.0742 20.2917 15.4649C20.2917 15.4263 20.2777 15.3922 20.2629 15.366C20.2476 15.339 20.2272 15.3129 20.2048 15.2882C20.1599 15.2389 20.0985 15.186 20.0283 15.132C19.8872 15.0236 19.6978 14.9011 19.5013 14.7809C19.3137 14.6662 19.1171 14.5521 18.9457 14.4526L18.9196 14.4375C18.7405 14.3336 18.595 14.2487 18.5165 14.196L18.5165 14.196M19.848 17.2321L18.5165 14.196M18.5165 14.196C18.4254 14.135 18.3296 14.0683 18.2304 13.9992C17.9093 13.7756 17.5522 13.5268 17.2038 13.3643C16.7474 13.1514 16.2603 13.065 15.8681 13.4166L15.868 13.4166M18.5165 14.196L15.868 13.4166M15.868 13.4166C15.8625 13.4216 15.8574 13.4261 15.8527 13.4303C15.8375 13.4437 15.8267 13.4533 15.8176 13.4634C15.8122 13.4694 15.8069 13.476 15.8021 13.4821L15.8003 13.4844C15.7941 13.492 15.7854 13.5029 15.7713 13.5199L15.7711 13.5197M15.868 13.4166L15.7711 13.5197M15.7711 13.5197L15.7669 13.5256M15.7711 13.5197L15.7669 13.5256M15.7669 13.5256L15.4865 13.9168C15.3564 14.0895 15.2557 14.2202 15.1172 14.3956L15.1171 14.3956M15.7669 13.5256L15.1171 14.3956M15.1171 14.3956C15.037 14.4973 14.8747 14.6894 14.7093 14.8664C14.6267 14.9549 14.5443 15.0385 14.4717 15.1046C14.3962 15.1736 14.3403 15.2151 14.309 15.2293L14.3089 15.2293M15.1171 14.3956L14.3089 15.2293M14.3089 15.2293C14.2994 15.2336 14.2618 15.2389 14.1771 15.2149C14.0988 15.1927 14 15.1514 13.8852 15.0939C13.6562 14.9791 13.3773 14.8068 13.0956 14.6184C12.5326 14.2421 11.9696 13.8093 11.7943 13.6664C11.5893 13.4992 11.2467 13.1967 10.913 12.8767C10.5777 12.5553 10.2581 12.2225 10.0942 11.9931C9.86713 11.6754 9.72314 11.447 9.63822 11.2777C9.55235 11.1065 9.53334 11.0081 9.53923 10.946C9.5445 10.8905 9.57098 10.8496 9.62771 10.7943C9.64287 10.7795 9.66166 10.7626 9.68262 10.7437C9.73338 10.698 9.79689 10.6408 9.85261 10.5744C10.285 10.0595 10.5306 9.67253 10.5855 9.25858C10.6404 8.8439 10.5014 8.42195 10.2225 7.84495L10.2225 7.84493M14.3089 15.2293L10.2225 7.84493M10.2225 7.84493C10.2054 7.80946 10.1846 7.76622 10.1608 7.71653C10.031 7.44586 9.8095 6.9838 9.57483 6.54361C9.43599 6.28319 9.29147 6.02837 9.15764 5.82417C9.09076 5.72212 9.02553 5.63116 8.96412 5.55789C8.90413 5.48632 8.84216 5.42472 8.78085 5.3887L8.73019 5.47492M10.2225 7.84493L8.73019 5.47492M8.73019 5.47492L8.78084 5.3887C8.5282 5.24029 8.24503 5.20334 7.96914 5.21023M8.73019 5.47492L7.96914 5.21023M8.16029 6.31136C8.21308 6.40793 8.2884 6.53931 8.37599 6.69211C8.40701 6.74622 8.43957 6.80302 8.47321 6.8619C8.6217 7.12182 8.79298 7.42528 8.95195 7.72754C9.11117 8.03029 9.25676 8.32943 9.35466 8.58101C9.40365 8.7069 9.4397 8.81839 9.45984 8.91095C9.48059 9.00632 9.48171 9.06984 9.4723 9.10608L8.16029 6.31136ZM7.96914 5.21023C7.74698 5.21578 7.52121 5.25034 7.31495 5.28191M7.96914 5.21023L7.31495 5.28191M7.31495 5.28191C7.2668 5.28928 7.21971 5.29648 7.17398 5.30312L7.31495 5.28191ZM5.96276 12.739L5.96276 12.739L7.17395 5.30312C6.95412 5.33497 6.76423 5.49195 6.612 5.65964C6.47518 5.81035 6.35577 5.98481 6.26216 6.12156C6.25015 6.1391 6.23857 6.15603 6.22743 6.1722L6.22742 6.17221C5.62292 7.04986 5.02598 8.19527 5.02598 9.35544C5.02598 10.1038 5.09393 10.6167 5.2472 11.1122C5.39533 11.591 5.62241 12.0504 5.93592 12.6847C5.9448 12.7027 5.95374 12.7208 5.96276 12.739Z" fill="#E9AF8F" stroke="#E9AF8F" stroke-width="0.2"/>
</svg>
