<svg width="26" height="20" viewBox="0 0 26 20" fill="none" xmlns="http://www.w3.org/2000/svg">
<path d="M20.8 0H5.2C2.33308 0 0 2.44724 0 5.45455V14.5455C0 17.5527 2.33308 20 5.2 20H20.8C23.6669 20 26 17.5527 26 14.5455V5.45455C26 2.44724 23.6669 0 20.8 0ZM24.8444 14.5455C24.8444 16.8848 23.0302 18.7878 20.8 18.7878H5.2C2.96978 18.7878 1.15556 16.8848 1.15556 14.5455V5.45455C1.15556 3.11515 2.96978 1.21212 5.2 1.21212H20.8C23.0302 1.21212 24.8444 3.11515 24.8444 5.45455V14.5455ZM9.24444 15.1278L17.7118 10.0006L9.24444 4.8721V15.1278ZM10.4 6.97152L15.4007 10.0006L10.4 13.0285V6.97152Z" fill="#E9AF8F"/>
</svg>
