<svg width="98" height="83" viewBox="0 0 98 83" fill="none" xmlns="http://www.w3.org/2000/svg">
<g filter="url(#filter0_d_1176_2079)">
<path d="M31.3158 52.0184C31.3367 52.0288 31.36 52.0335 31.3768 52.0363C31.3961 52.0395 31.4185 52.0417 31.443 52.0434C31.4923 52.0467 31.5563 52.048 31.6331 52.0476C31.787 52.0467 31.9986 52.039 32.2593 52.0254C32.7809 51.9982 33.5033 51.9473 34.3627 51.8795C36.0818 51.7441 38.3517 51.5412 40.6646 51.326C44.5479 50.9647 48.5537 50.5685 50.2794 50.3978C50.6094 50.3652 50.856 50.3408 51.0025 50.3264L51.0028 50.3264C51.0646 50.3201 51.1239 50.3145 51.1805 50.3091C51.3225 50.2955 51.4477 50.2835 51.5545 50.2679C51.7037 50.2461 51.8327 50.2156 51.9355 50.1545C52.1575 50.0226 52.2146 49.7774 52.2146 49.3787C52.2146 49.1369 52.134 48.9614 51.9845 48.8475C51.8411 48.7382 51.6488 48.6972 51.4479 48.6867C51.2454 48.6761 51.019 48.696 50.7964 48.7215C50.7276 48.7293 50.6594 48.7377 50.5921 48.7459C50.4382 48.7647 50.2889 48.783 50.1479 48.7935L50.1463 48.7937L32.3647 50.4187C32.3647 50.3764 32.3646 50.3344 32.3646 50.2927C32.3637 49.1314 32.3631 48.231 32.5609 47.37C32.7708 46.4569 33.2057 45.5836 34.1162 44.4992L34.0397 44.4349L34.1161 44.4993C34.5075 44.0347 35.1511 43.5518 35.8568 43.1321C36.5613 42.7132 37.3195 42.3621 37.934 42.1583L37.9344 42.1581C41.7333 40.8793 44.9943 40.6191 48.0852 40.6191C49.1456 40.6191 50.1887 40.6499 51.2276 40.6806C53.2112 40.7392 55.1796 40.7974 57.2247 40.6397L57.2249 40.6397C58.5365 40.5363 59.2748 40.4099 59.9236 40.1897C60.4195 40.0214 60.8625 39.798 61.4663 39.4936C61.6482 39.4018 61.8448 39.3027 62.0618 39.1956L62.0619 39.1955C62.649 38.9046 63.2469 38.5802 63.8535 38.2512C64.2706 38.0249 64.6918 37.7964 65.1166 37.575C66.1635 37.0291 67.2416 36.5204 68.3663 36.1715L68.3664 36.1715C70.7244 35.4373 72.5885 35.6564 74.8297 36.4162C75.5109 36.6477 75.9833 36.8941 76.4228 37.1552C76.5628 37.2384 76.7007 37.3239 76.8417 37.4112C77.1268 37.588 77.4244 37.7724 77.7765 37.9608C77.777 41.0778 77.817 44.0899 77.8571 47.1106L77.8574 47.1383C77.8974 50.1474 77.9373 53.1652 77.9384 56.305C77.3532 56.1592 76.9415 55.9849 76.5819 55.8244C76.5454 55.8081 76.5094 55.7919 76.4736 55.7758C76.1342 55.6232 75.8247 55.4841 75.4461 55.4056C74.6072 55.2317 73.4444 55.3573 70.807 56.1915L70.8068 56.1915C69.9444 56.4662 68.009 57.1358 65.6123 57.9648C63.6003 58.6608 61.2633 59.4692 58.9632 60.2509C56.442 61.1077 53.9644 61.9327 52.0046 62.5434C51.0247 62.8488 50.1752 63.1003 49.5149 63.2754C49.1847 63.363 48.9028 63.4311 48.6761 63.4774C48.4474 63.524 48.2812 63.5469 48.1793 63.5469C46.3639 63.5469 44.232 63.0526 42.2204 62.4023C40.2108 61.7526 38.3284 60.9496 37.0134 60.337C37.0131 60.3369 37.0128 60.3367 37.0125 60.3366L27.2253 55.5285C27.2249 55.5283 27.2246 55.5282 27.2243 55.528C22.639 53.1469 15.6927 49.0253 11.0817 46.252L11.0817 46.252C11.005 46.2058 10.9288 46.16 10.8531 46.1144C10.1377 45.6838 9.46327 45.2779 8.75666 44.902C8.98144 44.0437 9.67718 43.0308 10.626 42.2225C11.6015 41.3916 12.8283 40.7907 14.0556 40.7907C16.855 40.7907 19.3675 41.7066 21.786 42.9234C22.9574 43.5128 24.1048 44.1716 25.2521 44.8304L25.364 44.8947C26.5476 45.5742 27.7318 46.2512 28.9378 46.8456C28.938 46.8457 28.9381 46.8458 28.9383 46.8459L30.8499 47.8042C30.8468 47.8498 30.8413 47.914 30.8339 47.9959C30.831 48.027 30.828 48.0604 30.8247 48.0959C30.8147 48.2044 30.803 48.332 30.791 48.4733C30.7594 48.8484 30.7264 49.3222 30.7215 49.7997C30.7167 50.2762 30.7396 50.7615 30.8219 51.1579C30.863 51.3562 30.9198 51.5364 30.9981 51.6836C31.0762 51.8306 31.1793 51.951 31.3158 52.0184ZM31.3158 52.0184C31.3158 52.0184 31.3157 52.0183 31.3156 52.0183L31.3603 51.9289L31.3161 52.0185C31.316 52.0185 31.3159 52.0184 31.3158 52.0184ZM6.89926 45.2663H6.9V45.0486V45.0377L6.9006 45.0377C6.92757 44.792 7.02678 44.5036 7.20438 44.1513C7.38233 43.7983 7.64184 43.3757 7.99468 42.8606C9.45815 40.7225 11.5061 39.112 14.5468 39.112C15.7788 39.112 17.5422 39.5605 19.2397 40.1562C20.9394 40.7526 22.5875 41.5016 23.5918 42.1118L23.5919 42.1119C23.9185 42.3111 24.2581 42.494 24.5972 42.6747C24.6289 42.6916 24.6607 42.7085 24.6924 42.7253C24.9988 42.8884 25.3039 43.0508 25.5942 43.2213C25.7556 43.3142 25.9132 43.3924 26.0739 43.472L26.075 43.4725C26.2345 43.5516 26.3971 43.6321 26.5642 43.7283C26.5645 43.7285 26.5648 43.7286 26.5651 43.7288L31.2378 46.2885C31.403 45.9417 31.5178 45.6754 31.6144 45.4516L31.6147 45.4508L31.6154 45.4492C31.72 45.2066 31.8046 45.0105 31.9087 44.8177C32.1186 44.4286 32.405 44.0583 33.0896 43.3236C33.262 43.1345 33.5098 42.9288 33.737 42.7403C33.8183 42.6727 33.897 42.6074 33.9687 42.5458C36.3121 40.4942 40.3097 39.6341 44.5295 39.286C47.8871 39.009 51.4048 39.0553 54.3738 39.0944C55.1409 39.1045 55.8714 39.1141 56.553 39.1175C58.4093 39.1258 59.8177 38.5932 61.2034 37.8767C61.6537 37.6438 62.1038 37.3902 62.5668 37.1292C63.5235 36.59 64.5356 36.0195 65.7199 35.537M6.89926 45.2663L70.998 57.8211C71.2411 57.7397 71.4678 57.6628 71.6803 57.5906C72.2313 57.4035 72.6875 57.2486 73.0902 57.1319C73.6468 56.9705 74.0927 56.8846 74.5327 56.8883C75.4033 56.8956 76.2707 57.2533 77.9385 58.1327C77.9409 58.7653 77.9801 59.2839 78.0198 59.8093L78.0224 59.8432C78.0642 60.3967 78.1057 60.9611 78.1057 61.6822C78.1044 61.9614 78.0888 62.2837 78.0723 62.6257V62.6259C78.0558 62.9671 78.0385 63.3272 78.0339 63.6784C78.0293 64.0294 78.0375 64.3739 78.0726 64.6844C78.1076 64.9938 78.1701 65.2758 78.2776 65.4983L78.285 65.5136L78.297 65.5255C78.332 65.5606 78.382 65.5849 78.4314 65.6033C78.4833 65.6227 78.5463 65.6398 78.6173 65.6551C78.7595 65.6857 78.9429 65.7112 79.1523 65.7328C79.5717 65.7759 80.1057 65.8041 80.6457 65.8233C81.186 65.8425 81.7342 65.8528 82.1824 65.86C82.274 65.8615 82.3612 65.8629 82.4433 65.8641C82.7646 65.8691 83.0068 65.8728 83.1185 65.8783C83.4385 65.8954 83.6252 65.9286 83.8123 65.9619C83.8349 65.9659 83.8574 65.9699 83.8802 65.9739C84.0958 66.0116 84.3271 66.0457 84.7569 66.0514C84.7573 66.0514 84.7577 66.0514 84.758 66.0514L89.6818 66.2242C89.6823 66.2242 89.6828 66.2242 89.6834 66.2243C89.854 66.2356 89.9776 66.2497 90.0767 66.2611L90.1034 66.2641C90.2057 66.2758 90.2887 66.2845 90.3714 66.2793C90.5396 66.2688 90.6964 66.2011 91.043 66.0362L91.1 66.009V65.9459C91.1 62.2083 91.0584 58.5819 91.0168 54.9632C90.9684 50.7409 90.9201 46.5293 90.9381 42.1642V42.1638C90.9381 41.5646 90.8973 41.1157 90.8554 40.6933C90.8524 40.6628 90.8493 40.6323 90.8463 40.602C90.8075 40.2138 90.7704 39.8426 90.7653 39.3845C90.7653 39.3843 90.7653 39.384 90.7653 39.3838L90.7707 33.4762C90.7713 33.3715 90.7722 33.2712 90.773 33.1752C90.7751 32.9272 90.777 32.7082 90.7732 32.5165C90.7678 32.2509 90.7514 32.0291 90.7068 31.8465C90.6616 31.6618 90.5864 31.5119 90.4604 31.3955C90.3355 31.2803 90.1695 31.2061 89.9576 31.1561C89.5392 31.0574 88.9016 31.0449 87.9474 31.0326C87.8909 31.0319 87.8332 31.0311 87.7743 31.0304C86.8339 31.0185 85.5919 31.0029 83.9499 30.915C83.9499 30.915 83.9498 30.915 83.9497 30.915L78.2115 30.5858L78.1546 30.5826L78.1228 30.6299C77.7732 31.1498 77.6753 31.3681 77.6816 31.6768C77.6836 31.7748 77.6963 31.8846 77.7113 32.015C77.7182 32.0745 77.7256 32.1383 77.7327 32.2072C77.7558 32.4318 77.7779 32.7261 77.7765 33.1406V33.1409V33.147V33.1531V33.1592V33.1653V33.1715V33.1776V33.1837V33.1898V33.1959V33.202V33.2081V33.2143V33.2204V33.2265V33.2326V33.2387V33.2448V33.2509V33.257V33.2631V33.2693V33.2754V33.2815V33.2876V33.2937V33.2998V33.3059V33.312V33.3181V33.3243V33.3304V33.3365V33.3426V33.3487V33.3548V33.3609V33.367V33.3731V33.3792V33.3854V33.3915V33.3976V33.4037V33.4098V33.4159V33.422V33.4281V33.4342V33.4403V33.4464V33.4525V33.4587V33.4648V33.4709V33.477V33.4831V33.4892V33.4953V33.5014V33.5075V33.5136V33.5197V33.5258V33.5319V33.538V33.5442V33.5503V33.5564V33.5625V33.5686V33.5747V33.5808V33.5869V33.593V33.5991V33.6052V33.6113V33.6174V33.6235V33.6296V33.6357V33.6418V33.6479V33.654V33.6601V33.6663V33.6724V33.6785V33.6846V33.6907V33.6968V33.7029V33.709V33.7151V33.7212V33.7273V33.7334V33.7395V33.7456V33.7517V33.7578V33.7639V33.77V33.7761V33.7822V33.7883V33.7944V33.8005V33.8066V33.8127V33.8188V33.8249V33.831V33.8371V33.8432V33.8493V33.8554V33.8615V33.8676V33.8737V33.8798V33.8859V33.892V33.8981V33.9042V33.9103V33.9164V33.9225V33.9286V33.9347V33.9408V33.9469V33.953V33.9591V33.9652V33.9713V33.9774V33.9835V33.9896V33.9957V34.0018V34.0079V34.014V34.0201V34.0262V34.0323V34.0384V34.0445V34.0506V34.0567V34.0628V34.0689V34.075V34.0811V34.0872V34.0933V34.0994V34.1055V34.1116V34.1177V34.1238V34.1299V34.136V34.1421V34.1482V34.1543V34.1603V34.1664V34.1725V34.1786V34.1847V34.1908V34.1969V34.203V34.2091V34.2152V34.2213V34.2274V34.2335V34.2396V34.2457V34.2518V34.2579V34.264V34.2701V34.2762V34.2823V34.2883V34.2944V34.3005V34.3066V34.3127V34.3188V34.3249V34.331V34.3371V34.3432V34.3493V34.3554V34.3615V34.3676V34.3737V34.3798V34.3858V34.3919V34.398V34.4041V34.4102V34.4163V34.4224V34.4285V34.4346V34.4407V34.4468V34.4529V34.459V34.4651V34.4711V34.4772V34.4833V34.4894V34.4955V34.5016V34.5077V34.5138V34.5199V34.526V34.5321V34.5382V34.5442V34.5503V34.5564V34.5625V34.5686V34.5747V34.5808V34.5869V34.593V34.5991V34.6052V34.6112V34.6173V34.6234V34.6295V34.6356V34.6417V34.6478V34.6539V34.66V34.6661V34.6721V34.6782V34.6843V34.6904V34.6965V34.7026V34.7087V34.7148V34.7209V34.7269V34.733V34.7391V34.7452V34.7513V34.7574V34.7635V34.7696V34.7757V34.7817V34.7878V34.7939V34.8V34.8061V34.8122V34.8183V34.8244V34.8305V34.8365V34.8426V34.8487V34.8548V34.8609V34.867V34.8731V34.8792V34.8852V34.8913V34.8974V34.9035V34.9096V34.9157V34.9218V34.9279V34.9339V34.94V34.9461V34.9522V34.9583V34.9644V34.9705V34.9766V34.9826V34.9887V34.9948V35.0009V35.007V35.0131V35.0192V35.0252V35.0313V35.0374V35.0435V35.0496V35.0557V35.0618V35.0679V35.0739V35.08V35.0861V35.0922V35.0983V35.1044V35.1105V35.1165V35.1226V35.1287V35.1348V35.1409V35.147V35.1531V35.1591V35.1652V35.1713V35.1774V35.1835V35.1896V35.1957V35.2017V35.2078V35.2139V35.22V35.2261V35.2322V35.2382V35.2443V35.2504V35.2565V35.2626V35.2687V35.2748V35.2808V35.2869V35.293V35.2991V35.3052V35.3113V35.3173V35.3234V35.3295V35.3356V35.3417V35.3478V35.3539V35.3599V35.366V35.3721V35.3782V35.3843V35.3904V35.3964V35.4025V35.4086V35.4147V35.4208V35.4269V35.4329V35.439V35.4451V35.4512V35.4573V35.4634V35.4694V35.4755V35.4816V35.4877V35.4938V35.4999V35.5059V35.512V35.5181V35.5242V35.5303V35.5364V35.5424V35.5485V35.5546V35.5607V35.5668V35.5729V35.5789V35.585V35.5911V35.5972V35.6033V35.6094V35.6154V35.6215V35.6276V35.6337V35.6398V35.6458V35.6519V35.658V35.6641V35.6702V35.6763V35.6823V35.6884V35.6945V35.7006V35.7067V35.7128V35.7188V35.7249V35.731V35.7371V35.7432V35.7492V35.7553V35.7614V35.7675V35.7736V35.7797V35.7857V35.7918V35.7979V35.804V35.8101V35.8162V35.8222V35.8283V35.8344V35.8405V35.8466V35.8526V35.8587V35.8648V35.8709V35.877V35.8831V35.8891V35.8952V35.9013V35.9074V35.9135V35.9195V35.9256V35.9317V35.9378V35.9439V35.95V35.956V35.9621V35.9682V35.9743V35.9804V35.9864V35.9925V35.9986V36.0047V36.0108V36.0168V36.0229V36.029V36.0351V36.0412V36.0473V36.0533V36.0594V36.0655V36.0716V36.0777V36.0837V36.0898V36.0946C75.5222 34.9164 73.743 34.2746 71.9252 34.1731C70.0679 34.0693 68.1818 34.5302 65.7199 35.537M6.89926 45.2663L6.90073 45.2783C6.95838 45.7521 7.35947 45.9959 7.88261 46.2491L7.88298 46.2492C8.21986 46.4106 8.39391 46.5158 8.60013 46.6404C8.72052 46.7132 8.85187 46.7926 9.03298 46.8936C9.03303 46.8936 9.03309 46.8937 9.03314 46.8937L30.6303 59.0914L30.6302 59.0915L30.6348 59.0938C33.867 60.7065 37.791 62.5675 41.1533 63.6804C44.4652 64.7774 46.3916 65.1905 48.2734 65.0628C49.9706 64.9477 51.6267 64.3923 54.2237 63.5215C54.4992 63.4292 54.7851 63.3333 55.0829 63.234L55.0834 63.2338L70.9976 57.8213L6.89926 45.2663ZM65.7199 35.537C65.7198 35.537 65.7198 35.537 65.7198 35.537L65.7576 35.6296L65.7199 35.537C65.7199 35.537 65.7199 35.537 65.7199 35.537ZM7 45.2663V45.0486C7.05024 44.5911 7.37383 43.9438 8.07718 42.9171C9.52854 40.7967 11.5492 39.212 14.5468 39.212C16.9751 39.212 21.547 40.9864 23.5399 42.1973C23.9 42.4169 24.2751 42.6166 24.6452 42.8135C24.952 42.9768 25.2553 43.1382 25.5438 43.3077C25.7084 43.4025 25.869 43.4821 26.0295 43.5616C26.19 43.6411 26.3505 43.7206 26.5152 43.8155L7 45.2663ZM7 45.2663C7.05024 45.6792 7.39588 45.9024 7.92618 46.1591L7 45.2663ZM89.5054 60.822C89.546 62.0762 89.5863 63.3229 89.5883 64.6893L84.777 64.3618L84.777 64.3617L84.7732 64.3616C84.1192 64.3424 83.5198 64.3178 82.936 64.2938C81.859 64.2496 80.8347 64.2076 79.6173 64.2054V64.1954V64.1798V64.1641V64.1484V64.1327V64.117V64.1013V64.0856V64.0699V64.0542V64.0385V64.0228V64.0071V63.9914V63.9757V63.96V63.9443V63.9286V63.913V63.8973V63.8816V63.8659V63.8502V63.8345V63.8188V63.8031V63.7874V63.7717V63.756V63.7403V63.7246V63.7089V63.6932V63.6775V63.6619V63.6462V63.6305V63.6148V63.5991V63.5834V63.5677V63.552V63.5363V63.5206V63.5049V63.4892V63.4735V63.4578V63.4421V63.4264V63.4108V63.3951V63.3794V63.3637V63.348V63.3323V63.3166V63.3009V63.2852V63.2695V63.2538V63.2381V63.2224V63.2067V63.191V63.1753V63.1597V63.144V63.1283V63.1126V63.0969V63.0812V63.0655V63.0498V63.0341V63.0184V63.0027V62.987V62.9713V62.9556V62.9399V62.9242V62.9086V62.8929V62.8772V62.8615V62.8458V62.8301V62.8144V62.7987V62.783V62.7673V62.7516V62.7359V62.7202V62.7045V62.6888V62.6731V62.6574V62.6418V62.6261V62.6104V62.5947V62.579V62.5633V62.5476V62.5319V62.5162V62.5005V62.4848V62.4691V62.4534V62.4377V62.422V62.4063V62.3907V62.375V62.3593V62.3436V62.3279V62.3122V62.2965V62.2808V62.2651V62.2494V62.2337V62.218V62.2023V62.1866V62.1709V62.1552V62.1396V62.1239V62.1082V62.0925V62.0768V62.0611V62.0454V62.0297V62.014V61.9983V61.9826V61.9669V61.9512V61.9355V61.9198V61.9041V61.8885V61.8728V61.8571V61.8414V61.8257V61.81V61.7943V61.7786V61.7629V61.7472V61.7315V61.7158V61.7001V61.6844V61.6687V61.653V61.6374V61.6217V61.606V61.5903V61.5746V61.5589V61.5432V61.5275V61.5118V61.4961V61.4804V61.4647V61.449V61.4333V61.4176V61.4019V61.3862V61.3706V61.3549V61.3392V61.3235V61.3078V61.2921V61.2764V61.2607V61.245V61.2293V61.2136V61.1979V61.1822V61.1665V61.1508V61.1351V61.1195V61.1038V61.0881V61.0724V61.0567V61.041V61.0253V61.0096V60.9939V60.9782V60.9625V60.9468V60.9311V60.9154V60.8997V60.884V60.8684V60.8527V60.837V60.8213V60.8056V60.7899V60.7742V60.7585V60.7428V60.7271V60.7114V60.6957V60.68V60.6643V60.6486V60.6329V60.6173V60.6016V60.5859V60.5702V60.5545V60.5388V60.5231V60.5074V60.4917V60.476V60.4603V60.4446V60.4289V60.4132V60.3975V60.3818V60.3661V60.3505V60.3348V60.3191V60.3034V60.2877V60.272V60.2563V60.2406V60.2249V60.2092V60.1935V60.1778V60.1621V60.1464V60.1307V60.115V60.0994V60.0837V60.068V60.0523V60.0366V60.0209V60.0052V59.9895V59.9738V59.9581V59.9424V59.9267V59.911V59.8953V59.8796V59.8639V59.8483V59.8326V59.8169V59.8012V59.7855V59.7698V59.7541V59.7384V59.7227V59.707V59.6913V59.6756V59.6599V59.6442V59.6285V59.6128V59.5972V59.5815V59.5658V59.5501V59.5344V59.5187V59.503V59.4873V59.4716V59.4559V59.4402V59.4245V59.4088V59.3931V59.3774V59.3617V59.3461V59.3304V59.3147V59.299V59.2833V59.2676V59.2519V59.2362V59.2205V59.2048V59.1891V59.1734V59.1577V59.142V59.1263V59.1106V59.0949V59.0793V59.0636V59.0479V59.0322V59.0165V59.0008V58.9851V58.9694V58.9537V58.938V58.9223V58.9066V58.8909V58.8752V58.8595V58.8438V58.8282V58.8125V58.7968V58.7811V58.7654V58.7497V58.734V58.7183V58.7026V58.6869V58.6712V58.6555V58.6398V58.6241V58.6084V58.5927V58.5771V58.5614V58.5457V58.53V58.5143V58.4986V58.4829V58.4672V58.4515V58.4358V58.4201V58.4044V58.3887V58.373V58.3573V58.3416V58.3259V58.3103V58.2946V58.2789V58.2632V58.2475V58.2318V58.2161V58.2004V58.1847V58.169V58.1533V58.1376V58.1219V58.1062V58.0905V58.0748V58.0592V58.0435V58.0278V58.0121V57.9964V57.9807V57.965V57.9493V57.9336V57.9179V57.9022V57.8865V57.8708V57.8551V57.8394V57.8237V57.8081V57.7924V57.7767V57.761V57.7453V57.7296V57.7139V57.6982V57.6825V57.6668V57.6511V57.6354V57.6197V57.604V57.5883V57.5726V57.557V57.5413V57.5256V57.5099V57.4942V57.4785V57.4628V57.4471V57.4314V57.4157V57.4V57.3843V57.3686V57.3529V57.3372V57.3215V57.3059V57.2902V57.2745V57.2588V57.2431V57.2274V57.2117V57.196V57.1803V57.1646V57.1489V57.1332V57.1175V57.1018V57.0861V57.0704V57.0547V57.0391V57.0234V57.0077V56.992V56.9763V56.9606V56.9449V56.9292V56.9135V56.8978V56.8821V56.8664V56.8507V56.835V56.8193V56.8036V56.788V56.7723V56.7566V56.7409V56.7252V56.7095V56.6938V56.6781V56.6624V56.6467V56.631V56.6153V56.5996V56.5839V56.5682V56.5525V56.5369V56.5212V56.5055V56.4898V56.4741V56.4584V56.4427V56.427V56.4113V56.3956V56.3799V56.3642V56.3485V56.3328V56.3171V56.3014V56.2858V56.2701C79.6173 54.8681 79.576 53.5877 79.5344 52.3008L79.5336 52.2764C79.4918 50.981 79.45 49.6782 79.45 48.2348C79.45 45.4551 79.4095 42.8052 79.369 40.166L79.3686 40.1369C79.3287 37.5394 79.2891 34.9518 79.2881 32.259C80.6163 32.263 82.0022 32.3457 83.2861 32.4274C83.3853 32.4337 83.4838 32.44 83.5816 32.4462C84.7813 32.5229 85.8804 32.5932 86.736 32.588L86.7365 32.588C87.2741 32.5825 87.622 32.6237 87.9687 32.6668L87.9993 32.6706C88.3159 32.71 88.6367 32.7499 89.0986 32.7549L89.2592 44.6246C89.2592 44.6248 89.2592 44.6251 89.2592 44.6253C89.2592 45.3876 89.3026 46.0475 89.3452 46.6778L89.3479 46.7189C89.3895 47.335 89.4292 47.9235 89.4265 48.5581C89.4182 50.6011 89.4193 52.6442 89.4203 54.6871C89.4207 55.3785 89.4211 56.0698 89.4211 56.7611C89.4211 58.2082 89.463 59.5098 89.5048 60.8029L89.5054 60.822Z" fill="#E9AF8F" stroke="#E9AF8F" stroke-width="0.2"/>
<path d="M22.5248 2.57865H75.4779V30.5857H22.5248V2.57865ZM20.8453 1.82025V31.3442C20.8453 31.7794 21.164 32.097 21.6038 32.097H76.3984C76.8381 32.097 77.1574 31.7795 77.1574 31.3442V1.82025C77.1574 1.51186 76.9819 1.27858 76.7432 1.12693C76.506 0.976256 76.1991 0.9 75.9072 0.9H22.0955C21.8036 0.9 21.4967 0.976256 21.2596 1.12693C21.0209 1.27858 20.8453 1.51186 20.8453 1.82025Z" fill="#E9AF8F" stroke="#E9AF8F" stroke-width="0.2"/>
<path d="M26.6635 7.79404L26.6033 7.8083L26.5892 7.86858C26.5368 8.09255 26.4962 8.47976 26.4642 8.98422C26.432 9.491 26.4082 10.1229 26.3909 10.8403C26.3563 12.2751 26.348 14.0551 26.3522 15.8668C26.3571 17.9995 26.3794 20.1719 26.3969 21.8811C26.4092 23.0798 26.4192 24.0507 26.4192 24.6202C26.4192 24.7833 26.4699 24.9151 26.563 25.0211C26.6535 25.1243 26.7788 25.197 26.9184 25.2546C27.0583 25.3124 27.2208 25.3583 27.3917 25.4032C27.4342 25.4143 27.4772 25.4254 27.5207 25.4367C27.6542 25.4711 27.7924 25.5068 27.9337 25.5489C28.3073 25.6603 28.6888 25.8134 29.0118 26.0899C29.3329 26.3647 29.6025 26.7669 29.7432 27.3878L29.7432 27.3879C29.769 27.501 29.7856 27.6234 29.803 27.7515C29.8064 27.7769 29.8099 27.8024 29.8135 27.8281C29.8347 27.9811 29.8597 28.1401 29.9059 28.2829C29.9522 28.4262 30.0226 28.5616 30.1402 28.6607C30.2597 28.7613 30.4175 28.816 30.6219 28.816H66.7162C67.1335 28.816 67.3991 28.7333 67.5669 28.5618C67.7316 28.3935 67.7817 28.1582 67.8198 27.9139C67.8266 27.8701 67.8331 27.8253 67.8398 27.7796C67.9086 27.3067 67.9919 26.7339 68.5787 26.1474C69.2268 25.4995 69.9365 25.4312 70.5079 25.3832L70.5305 25.3813C70.6645 25.3701 70.7934 25.3593 70.9098 25.3412C71.0326 25.3221 71.1486 25.2939 71.2485 25.2441C71.3503 25.1933 71.4354 25.12 71.4935 25.0134C71.5508 24.9082 71.5779 24.7783 71.5779 24.6202C71.5779 24.0507 71.5879 23.0799 71.6002 21.8812C71.6177 20.172 71.64 17.9996 71.645 15.8668C71.6492 14.0551 71.6408 12.2751 71.6062 10.8403C71.589 10.1229 71.5651 9.491 71.5329 8.98422C71.5009 8.47976 71.4603 8.09255 71.4079 7.86858L71.3938 7.80821L71.3335 7.79401C71.1739 7.75649 70.9668 7.73304 70.74 7.70736C70.6534 7.69756 70.564 7.68743 70.4732 7.67608C70.1387 7.63421 69.7735 7.5747 69.4225 7.45427C69.0721 7.33404 68.739 7.15405 68.4665 6.87302C68.1948 6.59274 67.9787 6.20714 67.8691 5.66775C67.8434 5.53682 67.8276 5.40885 67.8122 5.28408C67.809 5.2575 67.8057 5.23107 67.8024 5.20478C67.7838 5.05802 67.7627 4.91375 67.7208 4.7885C67.6783 4.66153 67.6121 4.54623 67.4983 4.46432C67.3848 4.38267 67.2361 4.34287 67.0454 4.34287H30.6219C30.3681 4.34287 30.1897 4.46026 30.0613 4.64014C29.9373 4.8138 29.8579 5.04788 29.7901 5.29143C29.7639 5.38559 29.7395 5.48058 29.715 5.57593C29.6743 5.73485 29.6332 5.89477 29.583 6.05349C29.5035 6.30425 29.406 6.53365 29.2649 6.71363L29.2647 6.71383C28.9533 7.11287 28.5969 7.31381 28.173 7.44945C27.9593 7.51782 27.729 7.56943 27.4771 7.6214C27.4183 7.63355 27.3582 7.64572 27.2969 7.65814C27.0976 7.69853 26.8859 7.74142 26.6635 7.79404ZM27.9368 23.8708V9.26584C28.1313 9.17449 28.3271 9.09328 28.5252 9.01112C28.6463 8.96089 28.7683 8.91031 28.8913 8.85685C29.2312 8.70911 29.5703 8.5428 29.8878 8.3111C30.5152 7.8533 31.0458 7.14962 31.3599 5.85975H66.3081C66.5687 6.92476 66.9727 7.65762 67.5866 8.18679C68.198 8.71375 69.0074 9.02973 70.0603 9.28175V23.863C68.0495 23.9137 66.722 25.489 66.3082 27.1428H31.3442C31.3032 27.0547 31.2596 26.9555 31.2123 26.8478C30.7695 25.8391 30.0025 24.0918 27.9368 23.8708Z" fill="#E9AF8F" stroke="#E9AF8F" stroke-width="0.2"/>
<path d="M56.0778 13.0669L56.0778 13.0669C58.7368 18.7744 54.2492 24.3526 49.6596 24.3526C48.2988 24.3526 47.1605 24.248 46.126 23.8887C45.0934 23.53 44.1579 22.9152 43.2073 21.8849C38.5988 16.8869 42.1169 8.64398 49.0005 8.64398C52.06 8.64398 54.8886 10.5132 56.0778 13.0669ZM55.5962 23.3411L55.5962 23.341C60.2736 18.7614 59.003 11.0975 53.3174 8.12608L53.3173 8.12606C47.0719 4.86635 39.5504 9.73485 39.5504 16.0881C39.5504 25.5005 49.9322 28.8845 55.5962 23.3411Z" fill="#E9AF8F" stroke="#E9AF8F" stroke-width="0.2"/>
<path d="M33.3562 9.0353C33.3562 8.67047 33.4974 8.40346 33.7049 8.22621C33.9146 8.04714 34.1975 7.95513 34.4843 7.95513C34.7711 7.95513 35.0541 8.04714 35.2638 8.22621C35.4713 8.40346 35.6125 8.67047 35.6125 9.0353C35.6125 9.44995 35.4684 9.75134 35.2599 9.9491C35.05 10.1481 34.7685 10.2483 34.4847 10.2473C34.2008 10.2463 33.919 10.1442 33.7089 9.94448C33.5001 9.74598 33.3562 9.44549 33.3562 9.0353ZM34.4009 11.7635C35.3813 11.7635 36.098 11.4261 36.5642 10.9101C37.029 10.3959 37.2367 9.71318 37.218 9.03536C37.1806 7.68356 36.2356 6.31272 34.5683 6.31272C33.6608 6.31272 32.9673 6.65186 32.4972 7.16566C32.0288 7.67775 31.787 8.35806 31.7701 9.03563C31.7532 9.7131 31.961 10.3945 32.4004 10.9081C32.8416 11.4237 33.5108 11.7635 34.4009 11.7635Z" fill="#E9AF8F" stroke="#E9AF8F" stroke-width="0.2"/>
<path d="M62.3965 9.0353C62.3965 8.71856 62.4845 8.48944 62.6171 8.32726C62.7504 8.16433 62.9351 8.06119 63.1411 8.00851C63.559 7.9016 64.0389 8.00826 64.2875 8.20898C64.5331 8.40951 64.6583 8.72869 64.6616 9.05656C64.6649 9.38491 64.5458 9.70681 64.3226 9.90989C63.9675 10.2311 63.4836 10.3108 63.0916 10.1631C62.7052 10.0175 62.3965 9.64627 62.3965 9.0353ZM63.4407 11.7635C64.4278 11.7635 65.1435 11.4262 65.6052 10.9097C66.0653 10.395 66.2645 9.71195 66.2389 9.03436C66.1879 7.68424 65.237 6.31272 63.6081 6.31272C62.6979 6.31272 62.002 6.65177 61.5301 7.16551C61.0598 7.67757 60.8167 8.3579 60.7994 9.03558C60.7822 9.71316 60.9905 10.3947 61.4317 10.9083C61.8746 11.4239 62.5466 11.7635 63.4407 11.7635Z" fill="#E9AF8F" stroke="#E9AF8F" stroke-width="0.2"/>
<path d="M60.8005 23.7115L60.8004 23.7118C60.6918 24.3895 60.9398 25.1307 61.3728 25.7C61.8055 26.2688 62.4375 26.6846 63.1151 26.6846H63.9356C65.188 26.6846 65.9931 25.652 66.178 24.5123C66.3633 23.3699 65.9352 22.0746 64.6797 21.5213C63.7408 21.1067 62.8423 21.2015 62.1414 21.6307C61.4425 22.0587 60.9471 22.8148 60.8005 23.7115ZM62.3947 23.9619C62.3947 23.6063 62.5353 23.3457 62.7426 23.1724C62.9521 22.9971 63.2354 22.9069 63.5226 22.9069C63.8099 22.9069 64.0931 22.9971 64.3027 23.1724C64.51 23.3457 64.6505 23.6063 64.6505 23.9619C64.6505 24.3766 64.5065 24.6776 64.2981 24.8749C64.0883 25.0735 63.8069 25.1731 63.5231 25.1718C63.2392 25.1706 62.9574 25.0683 62.7473 24.8687C62.5385 24.6704 62.3947 24.3706 62.3947 23.9619Z" fill="#E9AF8F" stroke="#E9AF8F" stroke-width="0.2"/>
<path d="M31.7575 23.7111L31.7575 23.7114C31.6489 24.3892 31.8969 25.1304 32.3292 25.6996C32.7611 26.2683 33.3918 26.6842 34.0667 26.6842H34.8877C35.5478 26.6842 36.1642 26.286 36.5953 25.7424C37.0267 25.1985 37.2875 24.491 37.22 23.8452C37.0525 22.2376 35.829 21.3349 34.5772 21.2705C33.3215 21.206 32.0396 21.9845 31.7575 23.7111ZM33.3517 23.9616C33.3517 23.6059 33.4923 23.3453 33.6997 23.172C33.9093 22.9968 34.1926 22.9065 34.4799 22.9065C34.7673 22.9065 35.0505 22.9968 35.2602 23.172C35.4675 23.3453 35.6081 23.6059 35.6081 23.9616C35.6081 24.3762 35.464 24.6772 35.2556 24.8745C35.0458 25.0731 34.7643 25.1728 34.4804 25.1715C34.1964 25.1702 33.9146 25.0679 33.7044 24.8684C33.4956 24.6701 33.3517 24.3703 33.3517 23.9616Z" fill="#E9AF8F" stroke="#E9AF8F" stroke-width="0.2"/>
</g>
<defs>
<filter id="filter0_d_1176_2079" x="0.800781" y="0.800049" width="96.3984" height="81.5808" filterUnits="userSpaceOnUse" color-interpolation-filters="sRGB">
<feFlood flood-opacity="0" result="BackgroundImageFix"/>
<feColorMatrix in="SourceAlpha" type="matrix" values="0 0 0 0 0 0 0 0 0 0 0 0 0 0 0 0 0 0 127 0" result="hardAlpha"/>
<feOffset dy="10"/>
<feGaussianBlur stdDeviation="3"/>
<feComposite in2="hardAlpha" operator="out"/>
<feColorMatrix type="matrix" values="0 0 0 0 0 0 0 0 0 0 0 0 0 0 0 0 0 0 0.1 0"/>
<feBlend mode="normal" in2="BackgroundImageFix" result="effect1_dropShadow_1176_2079"/>
<feBlend mode="normal" in="SourceGraphic" in2="effect1_dropShadow_1176_2079" result="shape"/>
</filter>
</defs>
</svg>
