<svg width="97" height="80" viewBox="0 0 97 80" fill="none" xmlns="http://www.w3.org/2000/svg">
<g filter="url(#filter0_d_1176_2064)">
<path fill-rule="evenodd" clip-rule="evenodd" d="M37.2611 19.9634C37.2611 18.8229 37.1727 18.4692 38.1582 17.8096C38.6881 18.8114 39.0807 19.9072 40.0043 20.9892C40.358 21.4039 40.5496 21.4884 40.8505 21.9376C38.8888 22.3946 37.2611 21.7384 37.2611 19.9634ZM61.4915 19.2453L62.3483 17.2308C62.4788 16.9965 62.4471 17.0512 62.5681 16.912C62.5921 17.2015 63.291 18.8263 61.4915 19.2453ZM39.9529 17.0916C41.1193 17.6512 42.6894 18.0012 42.1072 20.502C41.403 20.0301 40.0878 18.1404 39.9529 17.0916ZM53.235 16.553C54.3784 16.8194 55.9004 18.0967 56.5719 18.9593C60.2775 23.7199 58.5443 29.7132 53.5892 32.1636C52.7147 32.596 52.503 32.645 52.5044 33.9501C52.5059 35.5908 52.7387 44.4828 52.3777 45.3108C51.8521 46.5165 49.8246 47.6359 49.8246 49.0399C49.8246 49.553 51.795 51.5489 52.1579 52.0913C51.8507 53.2418 49.8246 54.4898 49.8246 55.5012C49.8246 56.4588 51.2195 57.5095 52.1579 58.9116L50.0473 61.1085C49.2654 60.5704 48.7264 59.8701 48.0654 59.2346C47.1894 58.3912 47.4913 58.001 47.4913 55.8602C47.4918 51.3929 47.787 34.566 47.3118 32.5274C47.8105 32.2879 48.3039 32.1938 48.8699 31.9317C49.4123 31.6802 49.7785 31.4968 50.2599 31.1676C54.1086 28.5324 56.0895 23.7564 54.4681 19.2689L53.235 16.553ZM59.5168 18.3477C59.5168 17.0321 59.7188 16.4397 60.7734 16.194C60.614 16.5261 60.4758 16.9346 60.3189 17.3551C60.0443 18.0895 60.1878 18.1687 59.5168 18.3477ZM49.2865 15.4764C51.4081 16.0428 53.955 20.7962 52.8472 24.7802C51.9236 28.1018 49.2471 30.4226 45.7081 30.9256C41.5513 31.5165 43.898 28.757 39.0462 37.1844C38.667 37.8439 38.2585 38.5015 37.8611 39.2296L36.603 41.382C36.399 41.6551 36.5315 41.5452 36.2459 41.7429C35.6943 42.1245 33.3975 42.5772 32.0559 43.4757C32.0559 45.2186 32.5945 46.181 32.5945 47.7833C31.4608 47.8778 29.5849 48.7697 28.6456 49.3989C28.6456 50.8265 29.1841 51.8537 29.1841 53.5269C28.6782 53.538 26.6574 54.0794 26.3123 54.245C26.1001 53.8025 25.347 51.0516 25.4977 50.5754C25.5529 50.4007 26.2221 49.2818 26.3469 49.0744L34.0302 35.7578C35.1111 33.7591 36.3851 31.8295 37.4401 29.8351C39.1331 29.8351 40.9408 30.472 43.5438 29.298C45.1931 28.554 46.4876 27.7058 47.619 26.3729C48.6472 25.1613 49.5088 23.5058 49.8789 21.6329C50.0185 20.9277 50.0713 19.35 49.9974 18.3549C49.911 17.2015 49.5126 16.4469 49.2865 15.4764ZM39.0558 13.6812V11.1684C42.9683 11.1684 45.6615 12.5556 47.3142 15.833C49.5183 20.2024 47.5206 25.6553 43.2918 27.4303C40.3815 28.6519 37.6052 28.446 35.0699 26.8202C33.6217 25.8914 34.0643 25.7589 31.0571 27.58C30.3467 28.0106 23.0876 32.1684 23.0814 32.1684C22.0364 32.1684 19.0902 31.3442 18.5262 31.5588C17.7807 31.8415 17.4884 33.9636 16.7996 35.3993C15.2728 35.3993 14.1025 34.8607 12.6716 34.8607C12.0908 35.7276 12.1849 35.4016 11.751 36.6324C11.5758 37.1282 11.1001 38.2831 11.0559 38.8092C10.1319 38.5936 8.97901 38.1132 8.00509 38.0911C8.07373 37.266 8.64635 34.7647 9.25979 34.3207L28.9479 22.9581C31.8164 21.2344 31.1583 22.1642 31.1583 19.6044C31.1583 15.6386 34.0566 12.2743 37.2611 11.5274L37.4401 16.0149C34.7843 17.4199 34.5673 21.5877 37.4396 23.3738C38.7438 24.185 40.4051 24.2253 41.81 23.4353C45.5967 21.3055 44.5585 15.2969 39.2353 15.2969C39.2171 14.4852 39.0558 14.5836 39.0558 13.6812ZM53.7736 13.5021C55.0532 13.2036 63.6107 11.4348 64.2371 11.6388C65.2317 11.9628 87.1264 25.0898 88.2347 25.348C88.1709 26.1098 83.9291 33.0962 83.2182 34.3313C82.8548 34.9625 81.734 36.7701 81.5934 37.3735C80.8619 37.3125 79.4852 36.3789 78.8444 35.994L61.7718 26.1439C61.2428 25.8237 60.9087 25.6096 60.4143 25.348C60.4143 23.0743 59.8883 21.8287 60.0553 21.04C65.2825 22.2578 66.4124 14.3992 60.7734 14.3992C59.1592 14.3992 57.7575 15.8479 57.722 17.4506C56.978 16.9524 56.4481 16.2002 55.5616 15.6621C54.3779 14.9431 54.002 15.2849 53.7736 13.5021ZM49.6451 1.83525C54.0505 1.83525 57.3083 3.58293 59.486 6.89205L60.6429 9.32469C60.7888 9.73893 60.7845 9.91989 60.9529 10.2712C60.2176 10.2876 59.4145 10.5247 58.6643 10.6749C58.0302 10.8021 57.0558 10.996 56.4212 11.1242C54.7724 11.4578 53.32 11.7117 51.7993 12.066C51.4585 13.4877 51.6011 12.6002 51.9789 14.2197C50.5273 14.1876 49.9335 13.5136 48.8699 13.0207C48.3025 12.7576 47.8105 12.6602 47.307 12.4303C46.0182 11.8418 44.8081 9.37365 39.5943 9.37365C40.7142 7.03941 40.9076 6.12597 43.2395 4.22421C44.7116 3.02421 47.0809 1.83525 49.6451 1.83525ZM29.3636 20.6815L8.03101 32.9124C7.30429 33.3713 7.23372 33.5849 6.99756 34.5708C5.7798 39.6511 5.06844 39.1255 8.58156 40.0274C12.2809 40.9768 11.884 41.4765 12.8512 38.9892C13.0489 38.4813 13.5222 37.397 13.5688 36.8349C17.3685 36.9194 17.6286 38.7496 18.6606 35.645C18.879 34.9884 19.2337 33.9626 19.4919 33.4245C22.5385 34.1344 22.9547 34.3519 24.5267 33.4341L27.0404 31.9989C27.8958 31.4834 32.9512 28.4292 33.8507 28.2194C34.3902 28.5808 34.9163 28.9471 35.6454 29.117C35.4457 29.9748 25.7406 46.4522 24.3472 48.8695C23.2072 50.8476 23.3612 50.2917 23.9804 52.6284C24.1547 53.2869 24.3217 54.018 24.4931 54.628C25.1617 57.0045 25.3796 56.346 30.0519 55.1129C32.0804 54.5772 30.8992 53.6536 30.6198 50.2961C31.2827 50.142 34.5688 49.1829 34.5688 48.5013C34.5688 46.972 34.0302 45.9295 34.0302 44.5529C37.7511 42.7673 36.8296 44.5212 38.7313 41.3565L42.6107 34.6466C42.8862 34.1892 43.4137 33.3693 43.5429 32.8864C44.7232 32.9124 44.6315 33.5354 45.6966 33.7836L45.6909 58.9169C45.7782 59.7396 46.5875 60.2508 47.5364 61.1997C50.2427 63.906 49.7488 63.9233 52.3825 61.2895C55.1411 58.5309 54.7945 59.3469 52.5952 56.5C52.2112 56.0033 52.3096 56.0224 51.7993 55.6807C52.6792 54.3669 54.3116 53.0892 54.3116 52.0913C54.3116 51.3434 51.9789 49.4642 51.9789 48.8604C51.9789 48.4673 53.4107 47.0167 53.8619 46.4359C54.6107 45.4716 54.3116 44.7688 54.3116 42.5786C54.3116 39.6468 54.3116 36.7154 54.3116 33.7836C56.3622 33.306 59.6819 29.6561 59.8758 27.3223C60.974 27.4135 80.1097 39.2772 81.9524 39.7068C83.0876 38.7199 87.4941 30.5695 88.4229 28.9466C90.3688 25.5458 91.2404 24.9967 89.3761 24.0266L80.2753 18.7687C75.699 16.2703 70.6911 13.0855 66.158 10.6303C64.0763 9.50277 64.9422 9.54981 63.2992 9.77397C62.319 9.90789 62.7083 9.80853 62.4063 8.82213C61.8203 6.90549 60.6477 5.20965 59.2926 3.85461C54.5233 -0.91467 47.1313 -1.27035 42.05 2.85525C39.8852 4.61301 38.8489 6.14853 37.8568 8.89269C37.6153 9.55941 38.139 9.31845 36.3399 9.88869C33.3404 10.8396 31.1339 13.1493 29.9723 16.085C29.4323 17.4487 29.3636 18.8239 29.3636 20.6815Z" fill="#E9AF8F"/>
<path fill-rule="evenodd" clip-rule="evenodd" d="M78.0037 24.4505C78.226 24.9141 78.6253 26.5668 78.7952 27.2484C79.114 28.5271 78.9426 29.1928 80.1575 29.476C81.6229 29.286 80.6091 26.8884 80.3581 26.0445C79.0314 21.5757 80.0207 22.169 75.706 23.2298C75.0032 23.4026 72.9848 23.7247 72.7156 24.3895C72.32 25.3677 73.1106 25.8919 74.7935 25.3711C75.7952 25.061 77.169 24.8508 78.0037 24.4505Z" fill="#E9AF8F"/>
<path fill-rule="evenodd" clip-rule="evenodd" d="M72.2598 29.2965C72.2598 30.1495 73.2284 30.3593 74.0905 30.8762C76.6326 32.3997 76.6969 32.4506 77.7491 30.6578C78.0716 30.1082 78.398 29.5548 78.542 28.9375L78.3058 28.6351C77.1346 27.4625 76.3892 29.0594 76.2083 29.8351C75.5387 29.7794 74.8748 29.2461 74.4135 28.9375C75.1297 27.5844 75.7523 26.6407 74.0545 26.2452C73.4315 26.7871 72.2598 28.5876 72.2598 29.2965Z" fill="#E9AF8F"/>
</g>
<defs>
<filter id="filter0_d_1176_2064" x="0" y="0" width="96.4082" height="79.2473" filterUnits="userSpaceOnUse" color-interpolation-filters="sRGB">
<feFlood flood-opacity="0" result="BackgroundImageFix"/>
<feColorMatrix in="SourceAlpha" type="matrix" values="0 0 0 0 0 0 0 0 0 0 0 0 0 0 0 0 0 0 127 0" result="hardAlpha"/>
<feOffset dy="10"/>
<feGaussianBlur stdDeviation="3"/>
<feComposite in2="hardAlpha" operator="out"/>
<feColorMatrix type="matrix" values="0 0 0 0 0 0 0 0 0 0 0 0 0 0 0 0 0 0 0.1 0"/>
<feBlend mode="normal" in2="BackgroundImageFix" result="effect1_dropShadow_1176_2064"/>
<feBlend mode="normal" in="SourceGraphic" in2="effect1_dropShadow_1176_2064" result="shape"/>
</filter>
</defs>
</svg>
