<svg width="1512" height="122" viewBox="0 0 1512 122" fill="none" xmlns="http://www.w3.org/2000/svg">
<path fill-rule="evenodd" clip-rule="evenodd" d="M211.347 213.845H179.569H163.725H132.857V128.61H46.7122V213.845H0V1.51663H46.7122V85.5379H132.857V1.51663H179.569V176.611L254.723 0H297.795L388.793 213.845H339.957L320.544 166.223H230.76L211.347 213.845ZM275.652 56.1153L247.443 124.97H303.861L275.652 56.1153ZM399.314 213.845H446.027V129.217L508.154 31.9842V213.845H554.866V148.933L579.435 123.454L645.257 213.845H701.372L610.981 91.6044L697.429 1.51663H641.011L554.866 94.3344V1.51663H527.621H508.154H474.539L422.974 86.7512L372.318 1.51663H317.72L399.314 130.127V213.845ZM1254.49 213.845H1302.12L1321.53 166.223H1411.31L1430.73 213.845H1465.92H1479.56H1512.64V1.51663H1465.92V181.796L1388.56 0H1345.49L1282.44 148.165C1280.02 123.983 1265.44 111.392 1243.06 102.827C1258.23 94.3344 1270.97 80.988 1270.97 57.0253C1270.97 41.859 1266.12 30.0293 1256.41 20.3228C1244.28 8.1898 1225.17 1.51663 1200.9 1.51663H1103.27H1102.32H1056.56V123.15C1056.56 156.819 1039.27 174.109 1010.76 174.109C982.246 174.109 964.957 156.213 964.957 121.634V1.51663H918.245V61.1714C901.112 25.2978 863.736 1.51663 815.652 1.51663H732.844V213.845H815.652C866.006 213.845 904.615 187.421 920.534 148.777C929.152 194.131 961.64 217.181 1010.15 217.181C1061.79 217.181 1096.27 191.311 1102.32 138.67V213.845H1203.33C1227.01 213.845 1246.69 209.105 1260.54 199.626L1254.49 213.845ZM1338.21 124.97L1366.42 56.1153L1394.63 124.97H1338.21ZM779.556 171.682V43.6789H815.652C853.871 43.6789 879.654 70.0683 879.654 107.681C879.654 145.9 853.871 171.682 815.652 171.682H779.556ZM1147.82 42.4656V87.3579H1190.89C1211.52 87.3579 1224.56 80.6847 1224.56 64.3051C1224.56 50.3521 1213.64 42.4656 1193.93 42.4656H1147.82ZM1147.82 126.184V172.896H1203.33C1223.95 172.896 1236.39 165.616 1236.39 149.236C1236.39 134.98 1225.77 126.184 1201.81 126.184H1147.82Z" fill="url(#paint0_linear_119_684)" fill-opacity="0.1"/>
<path fill-rule="evenodd" clip-rule="evenodd" d="M211.347 213.845H179.569H163.725H132.857V128.61H46.7122V213.845H0V1.51663H46.7122V85.5379H132.857V1.51663H179.569V176.611L254.723 0H297.795L388.793 213.845H339.957L320.544 166.223H230.76L211.347 213.845ZM275.652 56.1153L247.443 124.97H303.861L275.652 56.1153ZM399.314 213.845H446.027V129.217L508.154 31.9842V213.845H554.866V148.933L579.435 123.454L645.257 213.845H701.372L610.981 91.6044L697.429 1.51663H641.011L554.866 94.3344V1.51663H527.621H508.154H474.539L422.974 86.7512L372.318 1.51663H317.72L399.314 130.127V213.845ZM1254.49 213.845H1302.12L1321.53 166.223H1411.31L1430.73 213.845H1465.92H1479.56H1512.64V1.51663H1465.92V181.796L1388.56 0H1345.49L1282.44 148.165C1280.02 123.983 1265.44 111.392 1243.06 102.827C1258.23 94.3344 1270.97 80.988 1270.97 57.0253C1270.97 41.859 1266.12 30.0293 1256.41 20.3228C1244.28 8.1898 1225.17 1.51663 1200.9 1.51663H1103.27H1102.32H1056.56V123.15C1056.56 156.819 1039.27 174.109 1010.76 174.109C982.246 174.109 964.957 156.213 964.957 121.634V1.51663H918.245V61.1714C901.112 25.2978 863.736 1.51663 815.652 1.51663H732.844V213.845H815.652C866.006 213.845 904.615 187.421 920.534 148.777C929.152 194.131 961.64 217.181 1010.15 217.181C1061.79 217.181 1096.27 191.311 1102.32 138.67V213.845H1203.33C1227.01 213.845 1246.69 209.105 1260.54 199.626L1254.49 213.845ZM1338.21 124.97L1366.42 56.1153L1394.63 124.97H1338.21ZM779.556 171.682V43.6789H815.652C853.871 43.6789 879.654 70.0683 879.654 107.681C879.654 145.9 853.871 171.682 815.652 171.682H779.556ZM1147.82 42.4656V87.3579H1190.89C1211.52 87.3579 1224.56 80.6847 1224.56 64.3051C1224.56 50.3521 1213.64 42.4656 1193.93 42.4656H1147.82ZM1147.82 126.184V172.896H1203.33C1223.95 172.896 1236.39 165.616 1236.39 149.236C1236.39 134.98 1225.77 126.184 1201.81 126.184H1147.82Z" fill="white"/>
<defs>
<linearGradient id="paint0_linear_119_684" x1="0" y1="110.212" x2="1512.64" y2="110.212" gradientUnits="userSpaceOnUse">
<stop stop-color="#E9C88F"/>
<stop offset="1" stop-color="#E9AF8F"/>
</linearGradient>
</defs>
</svg>
