<svg width="79" height="64" viewBox="0 0 79 64" fill="none" xmlns="http://www.w3.org/2000/svg">
<path fill-rule="evenodd" clip-rule="evenodd" d="M16.4767 45.0457H24.019V61.6344H16.4767V45.0457ZM14.6309 44.875V61.6344H7.75909V35.6613C7.75909 35.0703 10.2817 33.2971 10.7219 32.9293C12.7059 31.2613 19.0587 25.7842 20.3332 24.9371C20.7537 25.5675 30.0436 33.1657 32.0342 34.8535C32.4218 35.1818 32.7367 35.195 32.7367 35.6613V61.6344H25.6942C25.6942 58.7186 25.9438 45.3085 25.5299 43.5353C23.8941 43.1544 17.8961 43.3711 15.8069 43.3711C14.8675 43.3711 14.6309 43.949 14.6309 44.875ZM71.288 29.626C72.2734 29.8887 75.7486 33.3234 76.9902 34.1508L75.1438 36.1603L69.7835 31.8063C70.3091 31.0248 70.8149 30.5257 71.288 29.626ZM4.07327 36.1603L2.22748 34.1508L19.0129 20.0971C19.2757 19.8935 20.0115 19.2762 20.1626 19.0726L25.7468 23.709C26.2067 24.0965 26.4762 24.3461 26.9164 24.7204L29.2157 26.6117C29.9581 27.1896 30.6543 27.8135 31.4163 28.4308C31.8499 28.7789 32.0074 28.9824 32.4935 29.3633L37.0532 33.192C37.4473 33.5467 37.8544 33.875 38.2683 34.1508C38.1172 34.3741 36.5999 36.0421 36.4225 36.1603C35.8444 36.0093 32.967 33.3955 32.4217 32.9556L21.3912 23.709C21.0364 23.4069 20.8653 23.0458 20.2806 22.9932C19.7156 22.9407 18.8943 23.8732 18.1782 24.4577L12.1609 29.5013C11.5171 30.112 10.8203 30.5783 10.1502 31.1759C9.46698 31.7866 8.81686 32.2464 8.14018 32.8571L4.07327 36.1603ZM56.204 4.49349C61.2824 4.49349 65.0204 6.5228 67.7337 9.2219C74.9866 16.4589 73.5477 29.2254 63.634 34.5448C59.4097 36.8105 53.5691 36.6857 49.2725 34.5448C45.876 32.8505 43.2417 30.0398 41.7373 26.4935C39.5561 21.3514 40.371 15.8744 43.3996 11.2971L45.2191 9.09708C48.1623 6.37171 51.7761 4.49349 56.204 4.49349ZM38.7681 20.4123C38.7681 26.1454 41.8948 31.7538 46.3425 34.7944C50.4354 37.5789 55.2052 38.6296 60.1259 37.5723C62.2479 37.1126 64.5079 36.1341 66.2292 34.9586C66.6562 34.6696 67.0962 34.361 67.4706 34.0195C67.9042 33.6386 68.1606 33.3102 68.7781 33.146C69.1263 33.3824 71.4586 35.1819 71.4586 35.6613V61.6344H34.4118V36.8302C36.5732 38.2815 36.0018 39.1747 37.6376 37.3753C37.9924 36.9879 38.3017 36.7645 38.6301 36.3574C39.8652 34.801 41.1724 34.269 39.5431 33.0475C37.0269 31.1627 31.8237 26.4541 28.9527 24.195L25.195 20.9114C25.4381 20.5502 25.5433 20.4452 25.9309 20.1431C26.3645 19.8147 26.4694 19.6834 26.8439 19.3813L32.3293 14.8106C32.96 14.318 33.5054 13.7794 34.1295 13.2606L39.6085 8.68335C40.2918 9.13648 41.0738 10.0493 41.7899 10.5222C40.0949 13.727 38.7681 16.0845 38.7681 20.4123ZM23.6841 19.7424C22.9812 19.2696 22.1401 18.2386 21.5028 18.0678L39.6085 2.81892C39.9502 3.0422 39.937 3.08813 40.2392 3.35739C40.548 3.62007 40.6005 3.62009 40.8962 3.86965L42.1575 4.95982C42.7882 5.50489 44.2536 6.6016 44.6346 7.17295C44.0827 8.00698 43.4982 8.17111 42.9595 9.18246C41.7441 8.3747 40.9093 7.35682 39.6085 6.67384C38.2552 7.38309 36.7835 8.92635 35.5878 9.85232C34.9374 10.358 34.3593 10.9162 33.6695 11.4612L23.6841 19.7424ZM0.216797 33.9866C0.216797 34.8863 0.394152 34.7156 1.0117 35.3657C4.76956 39.3192 3.02248 38.8791 6.08395 36.8302V62.9741C6.44528 63.2171 6.64191 63.4732 7.25289 63.4732H71.9642C72.5752 63.4732 72.7724 63.2171 73.1338 62.9741V36.8302C76.031 38.7741 74.6187 39.1419 77.286 36.4625C77.6013 36.1472 79.0003 34.604 79.0003 34.3216C79.0003 33.2446 78.4225 33.2577 77.5356 32.4368C76.9771 31.918 76.3858 31.4123 75.8142 30.9658C74.6317 30.0464 73.5545 28.9627 72.2997 28.1221C72.983 25.1669 73.9749 25.3179 73.9749 19.7424C73.9749 10.9424 65.861 2.81892 57.0445 2.81892C49.4565 2.81892 47.6499 5.60338 46.1455 6.00397C45.482 5.55741 45.1867 5.26187 44.5429 4.7562C43.2618 3.75142 40.9093 1.49231 39.6085 0.809326C38.4391 1.42664 34.7867 4.67737 33.3808 5.80693C32.9669 6.14842 32.5199 6.51619 32.106 6.88395L19.8078 17.2075C15.8988 20.3597 11.3722 24.4774 7.49605 27.518L5.03884 29.5932C4.21763 30.309 3.42303 30.9854 2.58868 31.6618C1.98427 32.1478 0.216797 33.4087 0.216797 33.9866Z" fill="#E9AF8F"/>
<path fill-rule="evenodd" clip-rule="evenodd" d="M48.1504 28.2864C48.6563 27.5378 55.0417 21.3122 56.2374 20.1169L62.3605 14.0029C63.0898 13.2739 64.2196 11.8029 64.4758 12.4202C64.64 12.8077 63.2538 13.9438 62.6954 14.502L49.4509 27.748C49.0173 28.2077 48.8533 28.6214 48.1504 28.2864ZM46.4746 28.1223C46.4746 29.3372 47.5064 30.296 48.4853 30.296C49.6744 30.296 52.322 27.216 53.222 26.3163L64.2852 15.2572C65.3101 14.2393 66.2561 13.773 66.2561 12.3677C66.2561 11.33 64.9292 9.46501 62.6364 11.2644C62.0254 11.7373 62.0646 11.8883 61.6047 12.4071C59.647 14.6334 51.2968 22.7109 48.4455 25.5676C47.8542 26.1521 46.4746 27.1372 46.4746 28.1223Z" fill="#E9AF8F"/>
<path fill-rule="evenodd" clip-rule="evenodd" d="M45.14 45.0457H49.4956V53.4188H45.14V45.0457ZM43.4648 44.2051V54.4302C43.4648 55.7108 47.5378 55.2642 49.3314 55.2642C49.9883 55.2642 50.5735 55.1394 51.0071 54.9293C51.3947 53.2744 51.1778 46.7072 51.1778 44.54C51.1778 43.7585 50.7836 43.3711 50.0018 43.3711H44.2995C43.9119 43.3711 43.4648 43.8176 43.4648 44.2051Z" fill="#E9AF8F"/>
<path fill-rule="evenodd" clip-rule="evenodd" d="M56.3791 45.0457H60.7347V53.4188H56.3791V45.0457ZM54.6969 44.54C54.6969 46.7072 54.4806 53.2744 54.8682 54.9293C55.9916 55.4678 59.3551 55.2642 60.899 55.2642C61.5822 55.2642 62.4098 55.0869 62.4098 54.4302V44.2051C62.4098 43.8176 61.9634 43.3711 61.5758 43.3711H55.8729C55.0911 43.3711 54.6969 43.7585 54.6969 44.54Z" fill="#E9AF8F"/>
<path fill-rule="evenodd" clip-rule="evenodd" d="M50.8373 12.2036C54.3126 12.2036 54.6341 17.5624 50.666 17.5624C50.1076 17.5624 49.2472 17.0765 48.9581 16.7547C47.3814 15.0406 48.5773 12.2036 50.8373 12.2036ZM46.4746 14.883C46.4746 17.1684 48.544 19.2371 50.5017 19.2371C51.9996 19.2371 53.0117 19.0794 54.1548 17.8645C55.7381 16.1833 55.6922 13.4251 54.0695 11.8162C51.2708 9.03825 46.4746 11.0281 46.4746 14.883Z" fill="#E9AF8F"/>
<path fill-rule="evenodd" clip-rule="evenodd" d="M59.2217 26.1062C59.2217 22.0017 64.5891 22.6715 64.5891 25.7712C64.5891 29.6327 59.2217 29.1008 59.2217 26.1062ZM57.5459 25.4363V26.2769C57.5459 28.2996 59.721 30.296 61.7379 30.296C66.133 30.296 67.5717 25.1079 64.9701 22.7109C61.7839 19.782 57.5459 22.5074 57.5459 25.4363Z" fill="#E9AF8F"/>
<path fill-rule="evenodd" clip-rule="evenodd" d="M62.0653 25.4364C62.2821 25.883 62.2163 25.6203 62.236 26.277C61.7695 26.2639 61.5396 26.3427 61.4674 25.9092C61.4017 25.5021 61.5923 25.4889 62.0653 25.4364ZM59.7197 25.7713C59.7197 28.8251 64.0753 28.4573 64.0753 25.9421C64.0753 22.8884 59.7197 23.2561 59.7197 25.7713Z" fill="#E9AF8F"/>
<path fill-rule="evenodd" clip-rule="evenodd" d="M50.5028 14.5479C51.462 14.3181 50.5754 14.5479 51.3375 14.5479V15.2178C50.6871 15.3557 51.1532 15.3557 50.5028 15.2178V14.5479ZM48.8213 14.7121C48.8213 17.7987 53.0127 17.8381 53.0127 14.7121C53.0127 12.1706 48.8213 12.0458 48.8213 14.7121Z" fill="#E9AF8F"/>
</svg>
