<svg width="1512" height="218" viewBox="0 0 1512 218" fill="none" xmlns="http://www.w3.org/2000/svg">
<path fill-rule="evenodd" clip-rule="evenodd" d="M210.711 213.845H178.933H163.089H132.221V128.61H46.0765V213.845H-0.635742V1.51663H46.0765V85.5379H132.221V1.51663H178.933V176.611L254.087 0H297.159L388.157 213.845H339.322L319.909 166.223H230.124L210.711 213.845ZM275.016 56.1153L246.807 124.97H303.226L275.016 56.1153ZM398.679 213.845H445.391V129.217L507.518 31.9842V213.845H554.23V148.933L578.8 123.454L644.621 213.845H700.737L610.346 91.6044L696.794 1.51663H640.375L554.23 94.3344V1.51663H526.986H507.518H473.903L422.338 86.7512L371.683 1.51663H317.084L398.679 130.127V213.845ZM1253.86 213.845H1301.48L1320.89 166.223H1410.68L1430.09 213.845H1465.29H1478.93H1512V1.51663H1465.29V181.796L1387.93 0H1344.86L1281.81 148.165C1279.39 123.983 1264.81 111.392 1242.43 102.827C1257.59 94.3344 1270.33 80.988 1270.33 57.0253C1270.33 41.859 1265.48 30.0293 1255.77 20.3228C1243.64 8.1898 1224.53 1.51663 1200.27 1.51663H1102.64H1101.69H1055.93V123.15C1055.93 156.819 1038.64 174.109 1010.12 174.109C981.611 174.109 964.321 156.213 964.321 121.634V1.51663H917.609V61.1714C900.476 25.2978 863.101 1.51663 815.016 1.51663H732.208V213.845H815.016C865.37 213.845 903.98 187.421 919.898 148.777C928.516 194.131 961.004 217.181 1009.52 217.181C1061.16 217.181 1095.63 191.311 1101.69 138.67V213.845H1202.69C1226.37 213.845 1246.06 209.105 1259.91 199.626L1253.86 213.845ZM1337.58 124.97L1365.78 56.1153L1393.99 124.97H1337.58ZM778.92 171.682V43.6789H815.016C853.235 43.6789 879.018 70.0683 879.018 107.681C879.018 145.9 853.235 171.682 815.016 171.682H778.92ZM1147.18 42.4656V87.3579H1190.26C1210.88 87.3579 1223.93 80.6847 1223.93 64.3051C1223.93 50.3521 1213.01 42.4656 1193.29 42.4656H1147.18ZM1147.18 126.184V172.896H1202.69C1223.32 172.896 1235.76 165.616 1235.76 149.236C1235.76 134.98 1225.14 126.184 1201.18 126.184H1147.18Z" fill="url(#paint0_linear_109_1765)"/>
<defs>
<linearGradient id="paint0_linear_109_1765" x1="-0.635742" y1="110.212" x2="1512" y2="110.212" gradientUnits="userSpaceOnUse">
<stop stop-color="#E9C88F"/>
<stop offset="1" stop-color="#E9AF8F"/>
</linearGradient>
</defs>
</svg>
