<svg width="1512" height="218" fill="none" xmlns="http://www.w3.org/2000/svg"><path fill-rule="evenodd" clip-rule="evenodd" d="M210.711 213.845h-78.49V128.61H46.077v85.235H-.636V1.517h46.713v84.02h86.144V1.518h46.712V176.61L254.087 0h43.072l90.998 213.845h-48.835l-19.413-47.622h-89.785l-19.413 47.622zm64.305-157.73l-28.209 68.855h56.419l-28.21-68.855zm123.663 157.73h46.712v-84.628l62.127-97.233v181.861h46.712v-64.912l24.57-25.479 65.821 90.391h56.116l-90.391-122.24 86.448-90.088h-56.419L554.23 94.334V1.517h-80.327L422.338 86.75 371.683 1.517h-54.599l81.595 128.61v83.718zm855.181 0h47.62l19.41-47.622h89.79l19.41 47.622H1512V1.517h-46.71v180.279L1387.93 0h-43.07l-63.05 148.165c-2.42-24.182-17-36.773-39.38-45.338 15.16-8.493 27.9-21.839 27.9-45.802 0-15.166-4.85-26.996-14.56-36.702-12.13-12.133-31.24-18.806-55.5-18.806h-144.34V123.15c0 33.669-17.29 50.959-45.81 50.959-28.509 0-45.799-17.896-45.799-52.475V1.517h-46.712V61.17C900.476 25.298 863.101 1.517 815.016 1.517h-82.808v212.328h82.808c50.354 0 88.964-26.424 104.882-65.068 8.618 45.354 41.106 68.404 89.622 68.404 51.64 0 86.11-25.87 92.17-78.511v75.175h101c23.68 0 43.37-4.74 57.22-14.219l-6.05 14.219zm83.72-88.875l28.2-68.855 28.21 68.855h-56.41zm-558.66 46.712V43.679h36.096c38.219 0 64.002 26.39 64.002 64.002 0 38.219-25.783 64.001-64.002 64.001H778.92zm368.26-129.216v44.892h43.08c20.62 0 33.67-6.673 33.67-23.053 0-13.953-10.92-21.84-30.64-21.84h-46.11zm0 83.718v46.712h55.51c20.63 0 33.07-7.28 33.07-23.66 0-14.256-10.62-23.052-34.58-23.052h-54z" fill="url(#paint0_linear_109_1765)"/><defs><linearGradient id="paint0_linear_109_1765" x1="-.636" y1="110.212" x2="1512" y2="110.212" gradientUnits="userSpaceOnUse"><stop stop-color="#E9C88F"/><stop offset="1" stop-color="#E9AF8F"/></linearGradient></defs></svg>