<svg width="69" height="73" fill="none" xmlns="http://www.w3.org/2000/svg"><g filter="url(#filter0_d_113_3128)" fill="#fff" stroke="#fff" stroke-width=".3"><path d="M8.233 49.512V7.488c0-2.748 2.507-5.255 5.255-5.255h42.024c2.76 0 5.255 2.507 5.255 5.255v42.024c0 2.748-2.507 5.255-5.255 5.255H13.488c-2.748 0-5.255-2.507-5.255-5.255zM6.85 8.093v40.814c0 4.218 3.037 7.243 7.243 7.243h40.814c4.217 0 7.243-3.026 7.243-7.243V8.093c0-4.217-3.026-7.243-7.243-7.243H14.093C9.876.85 6.85 3.876 6.85 8.093z"/><path d="M39.821 26.377h0L47.51 18.7h0m-7.688 7.676l-10.749 3.646c.944-.944 1.46-1.307 1.48-1.696.018-.365-.398-.751-1.305-1.658l-9.365-9.365-.15-.148c-.487-.477-.956-.937-.956-1.867 0-1.759 1.001-2.76 2.76-2.76 1.035 0 1.953.974 2.875 1.953.21.222.42.444.631.656l7.687 7.687c.915.914 1.292 1.451 1.708 1.482.563.043 1.197-.846 3.336-2.984l7.687-7.688.121-.121c.75-.754.981-.986 2.244-.986 1.362 0 2.4 1.13 2.4 2.761 0 1.045-.978 1.967-1.958 2.89a30.82 30.82 0 00-.652.628l-.106-.106m-7.688 7.676c-.228.23-.433.425-.613.597l-.087.084c-.199.19-.367.354-.497.502a1.36 1.36 0 00-.28.439.697.697 0 000 .473c.054.157.158.317.302.493.145.178.338.38.58.62.193.191.414.404.667.648.393.378.864.832 1.431 1.399l7.688 7.687.115.116c.365.363.588.585.73.853.153.287.217.638.217 1.301 0 1.264-1.033 2.25-2.61 2.25-.844 0-1.26-.42-1.733-.897l-.106-.108-9.249-9.248c-.232-.232-.43-.44-.603-.622l-.077-.082c-.19-.2-.353-.369-.501-.499a1.387 1.387 0 00-.438-.283.692.692 0 00-.472 0 1.66 1.66 0 00-.493.302c-.177.146-.38.34-.62.582-.187.19-.396.407-.635.655-.382.398-.842.875-1.416 1.45 0 0 0 0 0 0l-7.688 7.675v.001l-.111.113c-.366.372-.589.599-.857.743-.285.154-.633.218-1.29.218-1.263 0-2.25-1.045-2.25-2.61 0-.874.429-1.29.925-1.774l.079-.076v-.002l9.25-9.248c.226-.227.429-.42.606-.59l.033-.031c.163-.155.305-.29.424-.412.245-.25.423-.47.455-.713.034-.255-.096-.488-.314-.752-.19-.23-.473-.513-.846-.885l-.184-.183-9.365-9.365-.15-.148c-.487-.479-.912-.896-.912-1.761 0-.851.242-1.499.676-1.934.435-.434 1.083-.677 1.934-.677.577 0 1.132.335 1.702.84.358.317.704.684 1.056 1.058.21.224.424.45.642.668l7.687 7.687c.233.232.43.44.604.623l.077.08c.19.2.353.37.5.5.148.13.29.23.438.284.156.055.31.055.473-.001.156-.054.316-.158.492-.302.178-.145.38-.34.62-.582.188-.19.397-.407.636-.655.382-.398.842-.875 1.416-1.45l7.687-7.687.117-.117c.363-.364.585-.586.851-.729.286-.152.634-.216 1.29-.216 1.264 0 2.25 1.044 2.25 2.61 0 .583-.335 1.141-.839 1.712-.318.36-.687.708-1.063 1.062-.222.21-.446.42-.663.638m-7.688 7.676L47.51 18.7m-27.617.27h.001l.834.824c.994.98 2.595 2.558 4.142 4.097a376.682 376.682 0 012.908 2.917c.4.407.738.756.988 1.022.182.192.312.335.386.424-.1.124-.273.317-.512.57-.301.317-.697.72-1.159 1.183-.924.925-2.11 2.086-3.322 3.271l-.244.239c-2.344 2.291-4.736 4.63-5.462 5.481a3.996 3.996 0 00-.619 1.007h0v.003a3.777 3.777 0 001.87 4.803h0c1.395.643 2.459.481 3.337-.019.681-.388 1.25-.983 1.77-1.524.135-.142.267-.28.396-.409.305-.302 1.015-1.018 1.916-1.927.888-.897 1.962-1.981 3.016-3.04a392.875 392.875 0 012.918-2.906c.407-.399.756-.738 1.022-.988.192-.18.334-.31.423-.385.105.087.275.242.503.458.301.286.694.67 1.15 1.121.912.904 2.078 2.08 3.275 3.291l1.222 1.237c1.981 2.008 3.846 3.898 4.578 4.587 1.15 1.082 2.713 1.115 3.976.514 1.262-.601 2.252-1.847 2.252-3.36 0-1.664-1.033-2.65-1.922-3.5-.148-.14-.292-.279-.427-.415l-.001-.001-.716-.707c-.982-.97-2.65-2.616-4.26-4.22a374.458 374.458 0 01-2.908-2.92c-.4-.408-.738-.758-.989-1.024a12.62 12.62 0 01-.385-.423c.087-.105.242-.275.459-.503a79.1 79.1 0 011.122-1.15c.905-.913 2.082-2.078 3.295-3.276l1.217-1.199c2.018-1.99 3.921-3.866 4.613-4.6h0c.662-.706.919-1.647.86-2.562-.059-.915-.433-1.817-1.048-2.456h0c-.651-.676-1.713-1.21-2.659-1.21-1.686 0-2.684 1.06-3.535 1.965-.13.137-.255.27-.38.396-.305.303-1.015 1.019-1.915 1.928-.888.896-1.962 1.98-3.016 3.039a388.853 388.853 0 01-2.918 2.906c-.407.4-.757.738-1.022.988-.193.182-.336.312-.424.387a9.966 9.966 0 01-.57-.51c-.317-.3-.72-.695-1.182-1.157-.924-.924-2.084-2.11-3.268-3.322l-.223-.229c-2.295-2.35-4.643-4.754-5.502-5.482a3.775 3.775 0 00-1.01-.608c-1.514-.594-2.973-.192-3.99.789-.676.651-1.21 1.713-1.21 2.658 0 1.714.995 2.648 1.895 3.491.156.147.31.291.454.436z"/></g><defs><filter id="filter0_d_113_3128" x=".7" y=".7" width="67.6" height="71.6" filterUnits="userSpaceOnUse" color-interpolation-filters="sRGB"><feFlood flood-opacity="0" result="BackgroundImageFix"/><feColorMatrix in="SourceAlpha" values="0 0 0 0 0 0 0 0 0 0 0 0 0 0 0 0 0 0 127 0" result="hardAlpha"/><feOffset dy="10"/><feGaussianBlur stdDeviation="3"/><feComposite in2="hardAlpha" operator="out"/><feColorMatrix values="0 0 0 0 0 0 0 0 0 0 0 0 0 0 0 0 0 0 0.1 0"/><feBlend in2="BackgroundImageFix" result="effect1_dropShadow_113_3128"/><feBlend in="SourceGraphic" in2="effect1_dropShadow_113_3128" result="shape"/></filter></defs></svg>