<svg width="69" height="73" fill="none" xmlns="http://www.w3.org/2000/svg"><g filter="url(#filter0_d_113_3156)"><mask id="a" maskUnits="userSpaceOnUse" x="6" y="0" width="57" height="57" fill="#000"><path fill="#fff" d="M6 0h57v57H6z"/><path fill-rule="evenodd" clip-rule="evenodd" d="M60.759 54.742v-2.187H8.267v2.187h52.492zm-2.55-5.228h-8.991v1.822h8.992v-1.822zM40.59 38.331h-5.474v13.005h5.474V38.331zm-6.681 0h-5.474v13.005h5.474V38.331zM19.808 49.514h-8.992v1.822h8.992v-1.822zM56.024 21.91h-4.62v26.272h4.62V21.91zm-38.401 0H13v26.272h4.622V21.91zm26.006 13.256H25.396v1.822H43.63v-1.822zm-19.335 2.963c-.383-.367-.23-1.293-.23-3.567 0-.281.323-.614.604-.614h19.69c.28 0 .603.333.603.614 0 2.274.154 3.2-.23 3.567-.35.336-1.149.203-2.923.203v13.005H48c0-1.933-.112-2.695.207-2.989.263-.242.821-.166 1.98-.166V21.91c-.275 0-.487.006-.667.011-.502.014-.751.02-1.395-.125-.166-.713-.152-1.383-.136-2.157.006-.244.011-.5.011-.77h-3.88c0 1.584-1.01 3.989-1.926 5.134l-1.093 1.23c-5.214 4.55-12.446 2.727-15.183-2.75-.417-.843-.978-2.447-1.01-3.613h-3.882c0 .27.006.525.01.77.017.773.031 1.444-.135 2.156-.643.145-.892.139-1.394.125-.18-.005-.392-.01-.666-.01V48.18c1.158 0 1.716-.076 1.979.166.319.294.206 1.056.206 2.99h6.193V38.33c-1.775 0-2.574.133-2.924-.203zm33.916-19.26h-8.992v1.833h8.992V18.87zm-38.527 0h-8.867v1.833h8.867V18.87zm20.814-6.466c-1.936-1.926-3.59-2.53-6.348-2.53-3.726 0-7.12 3.01-7.817 6.654-1.03 5.342 3.081 10.007 8.056 10.007 6.442 0 10.189-6.53 7.743-11.757-.458-.978-.916-1.666-1.634-2.374zM9.109 17.536h15.799c.072-3.062 2.143-5.936 4.308-7.373a8.63 8.63 0 011.499-.812c6.9-3.01 13.404 2.864 13.404 8.185h15.797c.573 0 1.073-1.073.635-1.604-.253-.313-4.013-2.25-6.55-3.556a123.5 123.5 0 01-2.15-1.12 34.072 34.072 0 00-1.738-.936c-1.354-.673-2.79-1.453-4.237-2.238-1.466-.797-2.944-1.6-4.359-2.302-.263-.13-.877-.462-1.64-.874-1.985-1.073-4.973-2.688-5.364-2.688-.356 0-2.395 1.101-3.841 1.883-.543.293-1.003.54-1.258.668l-.206.099c-.227.107-.45.213-.69.35l-4.985 2.675c-.219.114-.4.2-.59.29l-.222.106-3.257 1.729a11.42 11.42 0 01-1.008.533c-.218.106-.441.215-.678.341l-6.598 3.489c-.371.215-.762.403-1.133.581-.958.462-1.78.857-1.78 1.48 0 .417.447 1.094.842 1.094zm.365 1.333c-1.582-.125-2.425-.969-2.425-2.552 0-1.298 1.084-1.8 2.094-2.27.23-.106.455-.21.663-.322L29.04 3.55c.5-.295.946-.52 1.477-.79l.27-.137c.285-.146.579-.316.879-.491C32.605 1.586 33.612 1 34.638 1c.822 0 5.942 2.78 7.201 3.488 1.132.633 2.26 1.22 3.387 1.808 1.194.623 2.387 1.245 3.586 1.92l7.004 3.686a34.42 34.42 0 011.748.927l3.518 1.833c1.571 1.062 1.166 3.988-1.53 4.207 0 1.785.124 2.528-.185 2.834-.26.256-.82.206-2.01.206v26.272c1.14 0 1.699-.061 1.968.189.328.304.227 1.069.227 2.966.261 0 .517-.01.759-.018.936-.036 1.665-.063 1.665.508v3.644c0 .292-.197.49-.489.49H7.537a.464.464 0 01-.488-.49c0-2.728-.19-3.695.18-4.019.29-.252.919-.115 2.245-.115 0-.23-.006-.462-.012-.692-.022-.87-.044-1.714.26-2.348.632-.145.825-.14 1.289-.126.17.005.378.011.658.011V21.91c-1.19 0-1.751.05-2.01-.206-.309-.306-.185-1.049-.185-2.834zm24.544 3.637l5.883-6.303-.983-.917-5.408 5.794-2.87-2.87-.95.951 3.362 3.362a.672.672 0 00.966-.017z"/></mask><path fill-rule="evenodd" clip-rule="evenodd" d="M60.759 54.742v-2.187H8.267v2.187h52.492zm-2.55-5.228h-8.991v1.822h8.992v-1.822zM40.59 38.331h-5.474v13.005h5.474V38.331zm-6.681 0h-5.474v13.005h5.474V38.331zM19.808 49.514h-8.992v1.822h8.992v-1.822zM56.024 21.91h-4.62v26.272h4.62V21.91zm-38.401 0H13v26.272h4.622V21.91zm26.006 13.256H25.396v1.822H43.63v-1.822zm-19.335 2.963c-.383-.367-.23-1.293-.23-3.567 0-.281.323-.614.604-.614h19.69c.28 0 .603.333.603.614 0 2.274.154 3.2-.23 3.567-.35.336-1.149.203-2.923.203v13.005H48c0-1.933-.112-2.695.207-2.989.263-.242.821-.166 1.98-.166V21.91c-.275 0-.487.006-.667.011-.502.014-.751.02-1.395-.125-.166-.713-.152-1.383-.136-2.157.006-.244.011-.5.011-.77h-3.88c0 1.584-1.01 3.989-1.926 5.134l-1.093 1.23c-5.214 4.55-12.446 2.727-15.183-2.75-.417-.843-.978-2.447-1.01-3.613h-3.882c0 .27.006.525.01.77.017.773.031 1.444-.135 2.156-.643.145-.892.139-1.394.125-.18-.005-.392-.01-.666-.01V48.18c1.158 0 1.716-.076 1.979.166.319.294.206 1.056.206 2.99h6.193V38.33c-1.775 0-2.574.133-2.924-.203zm33.916-19.26h-8.992v1.833h8.992V18.87zm-38.527 0h-8.867v1.833h8.867V18.87zm20.814-6.466c-1.936-1.926-3.59-2.53-6.348-2.53-3.726 0-7.12 3.01-7.817 6.654-1.03 5.342 3.081 10.007 8.056 10.007 6.442 0 10.189-6.53 7.743-11.757-.458-.978-.916-1.666-1.634-2.374zM9.109 17.536h15.799c.072-3.062 2.143-5.936 4.308-7.373a8.63 8.63 0 011.499-.812c6.9-3.01 13.404 2.864 13.404 8.185h15.797c.573 0 1.073-1.073.635-1.604-.253-.313-4.013-2.25-6.55-3.556a123.5 123.5 0 01-2.15-1.12 34.072 34.072 0 00-1.738-.936c-1.354-.673-2.79-1.453-4.237-2.238-1.466-.797-2.944-1.6-4.359-2.302-.263-.13-.877-.462-1.64-.874-1.985-1.073-4.973-2.688-5.364-2.688-.356 0-2.395 1.101-3.841 1.883-.543.293-1.003.54-1.258.668l-.206.099c-.227.107-.45.213-.69.35l-4.985 2.675c-.219.114-.4.2-.59.29l-.222.106-3.257 1.729a11.42 11.42 0 01-1.008.533c-.218.106-.441.215-.678.341l-6.598 3.489c-.371.215-.762.403-1.133.581-.958.462-1.78.857-1.78 1.48 0 .417.447 1.094.842 1.094zm.365 1.333c-1.582-.125-2.425-.969-2.425-2.552 0-1.298 1.084-1.8 2.094-2.27.23-.106.455-.21.663-.322L29.04 3.55c.5-.295.946-.52 1.477-.79l.27-.137c.285-.146.579-.316.879-.491C32.605 1.586 33.612 1 34.638 1c.822 0 5.942 2.78 7.201 3.488 1.132.633 2.26 1.22 3.387 1.808 1.194.623 2.387 1.245 3.586 1.92l7.004 3.686a34.42 34.42 0 011.748.927l3.518 1.833c1.571 1.062 1.166 3.988-1.53 4.207 0 1.785.124 2.528-.185 2.834-.26.256-.82.206-2.01.206v26.272c1.14 0 1.699-.061 1.968.189.328.304.227 1.069.227 2.966.261 0 .517-.01.759-.018.936-.036 1.665-.063 1.665.508v3.644c0 .292-.197.49-.489.49H7.537a.464.464 0 01-.488-.49c0-2.728-.19-3.695.18-4.019.29-.252.919-.115 2.245-.115 0-.23-.006-.462-.012-.692-.022-.87-.044-1.714.26-2.348.632-.145.825-.14 1.289-.126.17.005.378.011.658.011V21.91c-1.19 0-1.751.05-2.01-.206-.309-.306-.185-1.049-.185-2.834zm24.544 3.637l5.883-6.303-.983-.917-5.408 5.794-2.87-2.87-.95.951 3.362 3.362a.672.672 0 00.966-.017z" fill="#fff"/><path d="M60.759 52.555h.1a.1.1 0 00-.1-.1v.1zm0 2.187v.1a.1.1 0 00.1-.1h-.1zM8.267 52.555v-.1a.1.1 0 00-.1.1h.1zm0 2.187h-.1a.1.1 0 00.1.1v-.1zm40.95-5.228v-.1a.1.1 0 00-.1.1h.1zm8.993 0h.1a.1.1 0 00-.1-.1v.1zm-8.992 1.822h-.1a.1.1 0 00.1.1v-.1zm8.992 0v.1a.1.1 0 00.1-.1h-.1zM35.116 38.331v-.1a.1.1 0 00-.1.1h.1zm5.474 0h.1a.1.1 0 00-.1-.1v.1zm-5.474 13.005h-.1a.1.1 0 00.1.1v-.1zm5.474 0v.1a.1.1 0 00.1-.1h-.1zM28.435 38.331v-.1a.1.1 0 00-.1.1h.1zm5.474 0h.1a.1.1 0 00-.1-.1v.1zm-5.474 13.005h-.1a.1.1 0 00.1.1v-.1zm5.474 0v.1a.1.1 0 00.1-.1h-.1zm-23.093-1.822v-.1a.1.1 0 00-.1.1h.1zm8.992 0h.1a.1.1 0 00-.1-.1v.1zm-8.992 1.822h-.1a.1.1 0 00.1.1v-.1zm8.992 0v.1a.1.1 0 00.1-.1h-.1zM51.404 21.91v-.1a.1.1 0 00-.1.1h.1zm4.62 0h.1a.1.1 0 00-.1-.1v.1zm-4.62 26.272h-.1a.1.1 0 00.1.1v-.1zm4.62 0v.1a.1.1 0 00.1-.1h-.1zM13 21.91v-.1a.1.1 0 00-.1.1h.1zm4.622 0h.1a.1.1 0 00-.1-.1v.1zM13 48.181h-.1a.1.1 0 00.1.1v-.1zm4.622 0v.1a.1.1 0 00.1-.1h-.1zm7.773-13.016v-.1a.1.1 0 00-.1.1h.1zm18.233 0h.1a.1.1 0 00-.1-.1v.1zm-18.233 1.822h-.1a.1.1 0 00.1.1v-.1zm18.233 0v.1a.1.1 0 00.1-.1h-.1zm-19.335 1.141l.069-.072-.07.072zm20.437 0l-.069-.072.07.072zm-2.923.203v-.1a.1.1 0 00-.1.1h.1zm0 13.005h-.1a.1.1 0 00.1.1v-.1zm6.192 0v.1a.1.1 0 00.1-.1H48zm.207-2.989l.068.074-.068-.074zm1.98-.166v.1a.1.1 0 00.1-.1h-.1zm0-26.272h.1a.1.1 0 00-.1-.1v.1zm-.667.011l-.003-.1.003.1zm-1.395-.125l-.097.022a.1.1 0 00.075.075l.022-.097zm-.136-2.157l.1.002-.1-.002zm.011-.77h.1a.1.1 0 00-.1-.1v.1zm-3.881 0v-.1a.1.1 0 00-.1.1h.1zm-1.926 5.134l.075.067.003-.004-.078-.063zm-1.093 1.23l.067.075.008-.01-.075-.066zm-15.183-2.75l-.09.044.09-.044zm-1.01-3.613l.1-.003a.1.1 0 00-.1-.097v.1zm-3.882 0v-.1a.1.1 0 00-.1.1h.1zm.01.77l.1-.003-.1.002zm-.135 2.156l.022.097a.1.1 0 00.076-.075l-.098-.022zm-1.394.125l-.003.1.003-.1zm-.666-.01v-.1a.1.1 0 00-.1.1h.1zm0 26.271h-.1a.1.1 0 00.1.1v-.1zm1.979.166l.068-.073-.068.073zm.206 2.99h-.1a.1.1 0 00.1.1v-.1zm6.193 0v.1a.1.1 0 00.1-.1h-.1zm0-13.006h.1a.1.1 0 00-.1-.1v.1zm22-19.462v-.1a.1.1 0 00-.1.1h.1zm8.992 0h.1a.1.1 0 00-.1-.1v.1zM49.218 20.7h-.1a.1.1 0 00.1.1v-.1zm8.992 0v.1a.1.1 0 00.1-.1h-.1zm-47.394-1.83v-.1a.1.1 0 00-.1.1h.1zm8.867 0h.1a.1.1 0 00-.1-.1v.1zm-8.867 1.83h-.1a.1.1 0 00.1.1v-.1zm8.867 0v.1a.1.1 0 00.1-.1h-.1zm20.814-8.299l-.07.071.07-.07zm-14.165 4.124l.099.019-.099-.02zm15.799-1.75l-.09.043.09-.043zm-17.223 2.76v.1a.1.1 0 00.1-.098l-.1-.002zm4.308-7.373l.055.084-.055-.084zm1.499-.812l.04.092-.04-.092zm13.404 8.185h-.1a.1.1 0 00.1.1v-.1zm16.432-1.604l-.077.063.077-.063zm-6.55-3.556l.046-.089-.046.089zm-2.15-1.12l-.05.088h.002l.048-.087zm-1.738-.936l.045-.09-.045.09zm-4.237-2.238l.048-.088-.048.088zM41.517 5.78l.044-.09-.044.09zm-1.64-.874l-.047.088.048-.088zM30.672 4.1l-.047-.088.048.088zm-1.257.668l.043.09h.002l-.045-.09zm-.206.099l-.042-.09.042.09zm-.69.35l.048.087h.002l-.05-.088zm-4.985 2.675l.046.09.002-.001-.047-.089zm-.59.29l.043.09-.043-.09zm-.222.106l-.043-.09-.003.002.046.088zm-3.257 1.729l-.047-.089-.005.003.052.086zm-1.008.533l-.043-.09.043.09zm-.678.341l.047.089-.047-.089zm-6.598 3.489l-.046-.089-.004.002.05.087zm-1.133.581l.043.09-.043-.09zm-.573 3.907h.1a.1.1 0 00-.092-.1l-.008.1zm-.331-4.821l.042.09-.042-.09zm.663-.323l-.046-.089H9.76l.047.089zM29.04 3.55l.047.089.004-.003-.051-.086zm1.477-.79l.045.09-.045-.09zm.27-.137l.046.09-.045-.09zm.879-.491l.05.086-.05-.086zM41.84 4.487l-.049.087.05-.087zm3.387 1.808l.046-.088-.046.088zm3.586 1.92l-.049.087.003.002.046-.089zm7.004 3.686l-.047.089.002.001.044-.09zm1.748.927l-.048.087.002.002.047-.089zm3.518 1.833l.056-.084-.01-.005-.046.089zm-1.53 4.207l-.008-.1a.1.1 0 00-.092.1h.1zm-.185 2.834l-.07-.071.07.07zm-2.01.206v-.1a.1.1 0 00-.1.1h.1zm0 26.272h-.1a.1.1 0 00.1.1v-.1zm1.968.189l-.068.073.068-.073zm.227 2.966h-.1a.1.1 0 00.1.1v-.1zm.759-.018l.003.1-.003-.1zM7.23 51.45l.066.075-.066-.075zm2.245-.115v.1a.1.1 0 00.1-.1h-.1zm-.012-.692l-.1.003.1-.003zm.26-2.348l-.021-.098a.1.1 0 00-.068.055l.09.043zm1.289-.126l.003-.1-.003.1zm.658.011v.1a.1.1 0 00.1-.1h-.1zm0-26.272h.1a.1.1 0 00-.1-.1v.1zm-2.01-.206l.07-.071-.07.071zm30.242-5.5l.073.069a.1.1 0 00-.005-.142l-.068.073zm-5.883 6.303l-.073-.068.073.068zm4.9-7.22l.068-.073a.1.1 0 00-.141.005l.073.068zM33.51 21.08l-.07.07a.1.1 0 00.143-.002l-.073-.068zm-2.87-2.87l.072-.07a.1.1 0 00-.142 0l.07.07zm-.95.951l-.07-.07a.1.1 0 000 .141l.07-.07zm3.848 3.558l-.001-.1.002.1zm27.12 29.836v2.187h.2v-2.187h-.2zm-52.391.1h52.492v-.2H8.267v.2zm.1 2.087v-2.187h-.2v2.187h.2zm52.392-.1H8.267v.2h52.492v-.2zm-11.541-5.028h8.992v-.2h-8.992v.2zm.1 1.722v-1.822h-.2v1.822h.2zm8.892-.1h-8.992v.2h8.992v-.2zm-.1-1.722v1.822h.2v-1.822h-.2zM35.116 38.431h5.474v-.2h-5.474v.2zm.1 12.905V38.331h-.2v13.005h.2zm5.374-.1h-5.474v.2h5.474v-.2zm-.1-12.905v13.005h.2V38.331h-.2zm-12.055.1h5.474v-.2h-5.474v.2zm.1 12.905V38.331h-.2v13.005h.2zm5.374-.1h-5.474v.2h5.474v-.2zm-.1-12.905v13.005h.2V38.331h-.2zM10.817 49.614h8.99v-.2h-8.99v.2zm.1 1.722v-1.822h-.2v1.822h.2zm8.89-.1h-8.99v.2h8.99v-.2zm-.1-1.722v1.822h.2v-1.822h-.2zM51.405 22.01h4.62v-.2h-4.62v.2zm.1 26.172V21.91h-.2v26.272h.2zm4.52-.1h-4.62v.2h4.62v-.2zm-.1-26.172v26.272h.2V21.91h-.2zm-42.922.1h4.62v-.2h-4.62v.2zm.1 26.172V21.91h-.2v26.272h.2zm4.52-.1h-4.62v.2h4.62v-.2zm-.1-26.172v26.272h.2V21.91h-.2zm7.874 13.356H43.63v-.2H25.396v.2zm.1 1.722v-1.822h-.2v1.822h.2zm18.133-.1H25.396v.2H43.63v-.2zm-.1-1.722v1.822h.2v-1.822h-.2zm-19.565-.604c0 1.127-.038 1.94-.029 2.5.005.283.022.513.064.697a.846.846 0 00.226.442l.138-.144c-.077-.074-.132-.18-.17-.342a3.348 3.348 0 01-.058-.656c-.01-.564.029-1.35.029-2.497h-.2zm.704-.714c-.177 0-.352.102-.479.232s-.225.306-.225.482h.2c0-.105.063-.235.168-.343.105-.107.232-.171.336-.171v-.2zm19.69 0h-19.69v.2h19.69v-.2zm.703.714c0-.176-.098-.353-.225-.482-.126-.13-.301-.232-.478-.232v.2c.104 0 .23.064.335.171.105.108.168.238.168.343h.2zm-.26 3.64a.847.847 0 00.225-.443 3.53 3.53 0 00.064-.697c.01-.56-.029-1.373-.029-2.5h-.2c0 1.147.039 1.933.03 2.497-.006.28-.022.492-.06.656a.646.646 0 01-.169.342l.139.145zm-2.993.23c.442 0 .824.008 1.154.015.329.007.608.014.844.01.461-.01.788-.058.995-.256l-.139-.144c-.143.137-.391.19-.86.2-.23.004-.505-.003-.836-.01-.33-.007-.713-.015-1.158-.015v.2zm.1 12.905V38.331h-.2v13.005h.2zm6.092-.1h-6.192v.2H48v-.2zm.14-2.962a.704.704 0 00-.197.37 2.883 2.883 0 00-.06.58c-.011.47.017 1.153.017 2.112h.2c0-.974-.028-1.638-.016-2.106.006-.233.021-.408.053-.54a.508.508 0 01.138-.27l-.136-.146zm2.046-.193c-.572 0-1.01-.019-1.328-.008-.317.011-.557.052-.719.2l.136.148c.102-.094.272-.137.59-.148.315-.01.735.008 1.321.008v-.2zm-.1-26.172v26.272h.2V21.91h-.2zm-.563.11c.18-.004.39-.01.663-.01v-.2c-.276 0-.489.006-.669.011l.006.2zm-1.42-.127c.655.149.913.142 1.42.128l-.006-.2c-.497.014-.737.02-1.37-.123l-.044.195zm-.214-2.256c-.016.772-.03 1.455.139 2.181l.194-.045c-.162-.698-.149-1.356-.133-2.132l-.2-.004zm.011-.767c0 .268-.005.522-.01.767l.2.004c.005-.244.01-.5.01-.771h-.2zm-3.781.1H48v-.2h-3.88v.2zm-1.848 5.096c.466-.583.952-1.48 1.322-2.43.368-.947.626-1.957.626-2.766h-.2c0 .773-.248 1.757-.613 2.694s-.842 1.815-1.291 2.377l.156.125zm-1.096 1.232l1.093-1.228-.15-.133-1.092 1.229.15.133zm-15.348-2.77c2.766 5.534 10.075 7.374 15.34 2.78l-.132-.151c-5.164 4.506-12.32 2.701-15.029-2.719l-.179.09zm-1.02-3.656c.032 1.187.6 2.806 1.02 3.655l.18-.088c-.414-.837-.969-2.426-1-3.572l-.2.005zm-3.782.098h3.883v-.2h-3.883v.2zm.11.667a35.49 35.49 0 01-.01-.767h-.2c0 .27.006.527.01.771l.2-.004zm-.137 2.181c.169-.726.154-1.409.138-2.181l-.2.004c.016.776.03 1.434-.133 2.132l.195.045zm-1.495.203c.507.014.764.02 1.42-.128l-.045-.195c-.632.143-.872.137-1.369.123l-.006.2zm-.663-.01c.273 0 .484.005.663.01l.006-.2c-.18-.005-.393-.01-.669-.01v.2zm.1 26.171V21.91h-.2v26.272h.2zm1.947.093c-.162-.149-.402-.19-.718-.2-.319-.012-.757.007-1.329.007v.2c.587 0 1.006-.019 1.322-.008.317.011.487.054.59.148l.135-.147zm.238 3.062c0-.959.028-1.642.017-2.112a2.892 2.892 0 00-.06-.581.704.704 0 00-.195-.37l-.136.148c.06.055.106.138.137.269.032.132.048.307.054.54.011.468-.017 1.132-.017 2.106h.2zm6.093-.1h-6.193v.2h6.193v-.2zm-.1-12.905v13.005h.2V38.331h-.2zm-2.893-.13c.206.197.533.246.995.254.235.005.514-.002.844-.009.33-.007.711-.015 1.154-.015v-.2c-.445 0-.829.008-1.159.015-.33.007-.605.014-.836.01-.469-.01-.716-.063-.86-.2l-.138.145zM49.219 18.97h8.992v-.2h-8.992v.2zm.1 1.732V18.87h-.2v1.83h.2zm8.892-.1h-8.992v.2h8.992v-.2zm-.1-1.732v1.83h.2v-1.83h-.2zm-47.294.1h8.867v-.2h-8.867v.2zm.1 1.732V18.87h-.2v1.83h.2zm8.767-.1h-8.867v.2h8.867v-.2zm-.1-1.732v1.83h.2v-1.83h-.2zM34.15 9.973c1.372 0 2.461.15 3.446.536.984.385 1.87 1.008 2.831 1.965l.141-.142c-.974-.97-1.883-1.611-2.9-2.01-1.016-.397-2.132-.55-3.518-.55v.2zm-7.718 6.573c.689-3.601 4.044-6.573 7.718-6.573v-.2c-3.777 0-7.21 3.047-7.915 6.735l.197.038zm7.957 9.888c-4.912 0-8.976-4.608-7.957-9.888l-.197-.038c-1.042 5.404 3.117 10.126 8.154 10.126v-.2zm7.652-11.614c2.416 5.162-1.285 11.614-7.652 11.614v.2c6.516 0 10.31-6.607 7.834-11.899l-.182.085zm-1.614-2.346c.709.699 1.16 1.376 1.614 2.346l.181-.085c-.461-.988-.926-1.685-1.654-2.403l-.14.142zm-15.518 4.963h-15.8v.2h15.799v-.2zm4.252-7.356c-2.185 1.45-4.279 4.352-4.352 7.454l.2.004c.071-3.021 2.119-5.868 4.263-7.291l-.11-.167zm1.515-.82a8.7 8.7 0 00-1.515.82l.111.167c.495-.33.906-.556 1.483-.804l-.079-.184zm13.544 8.276c0-2.7-1.648-5.526-4.157-7.298-2.513-1.775-5.901-2.499-9.387-.978l.08.183c3.413-1.489 6.728-.781 9.192.958 2.467 1.743 4.072 4.513 4.072 7.135h.2zm15.697-.1H44.12v.2h15.797v-.2zm.558-1.44c.185.224.181.58.046.898-.066.156-.16.294-.269.392a.512.512 0 01-.335.15v.2a.71.71 0 00.47-.202 1.32 1.32 0 00.319-.462c.148-.351.176-.797-.076-1.103l-.155.127zm-6.518-3.531c1.268.653 2.842 1.464 4.13 2.15.644.343 1.216.655 1.642.9.213.123.39.228.52.312.064.042.117.078.156.108.041.031.062.05.07.06l.155-.126a.618.618 0 00-.105-.094 2.972 2.972 0 00-.168-.116 12.32 12.32 0 00-.528-.317c-.43-.247-1.003-.56-1.648-.903a353.764 353.764 0 00-4.133-2.152l-.091.178zm-2.153-1.12c.324.178 1.143.6 2.153 1.12l.091-.178c-1.011-.521-1.826-.94-2.148-1.118l-.096.175zm-1.735-.936c.664.332 1.11.581 1.733.935l.1-.174a34.157 34.157 0 00-1.743-.94l-.09.179zm-4.24-2.24c1.447.786 2.885 1.567 4.24 2.24l.09-.179c-1.352-.671-2.787-1.45-4.234-2.236l-.095.175zm-4.355-2.3c1.412.702 2.889 1.503 4.356 2.3l.095-.175c-1.466-.797-2.946-1.6-4.362-2.304l-.09.18zm-1.643-.875c.761.411 1.378.744 1.643.875l.088-.18c-.26-.128-.872-.459-1.636-.871l-.095.176zm-5.317-2.676a.34.34 0 01.076.015c.04.011.09.028.15.05.12.046.274.112.456.195.364.168.835.402 1.357.67 1.043.538 2.285 1.21 3.278 1.746l.095-.176c-.992-.536-2.236-1.209-3.282-1.747-.522-.27-.996-.505-1.364-.674a7.543 7.543 0 00-.47-.2 1.984 1.984 0 00-.167-.057.513.513 0 00-.13-.022v.2zm-3.794 1.87c.723-.39 1.594-.86 2.327-1.232.367-.186.699-.347.96-.462.13-.057.242-.102.331-.132a.677.677 0 01.176-.044v-.2a.827.827 0 00-.24.055 4.67 4.67 0 00-.347.138 20 20 0 00-.97.466c-.737.374-1.61.845-2.332 1.236l.095.176zm-1.26.67a59.62 59.62 0 001.26-.67l-.095-.175c-.544.293-1.001.54-1.255.667l.09.179zm-.208.1l.206-.098-.087-.18-.204.097.085.181zm-.683.346c.237-.134.456-.238.683-.346l-.085-.18c-.227.107-.453.214-.697.352l.099.174zM23.58 7.982l4.985-2.677-.095-.176-4.985 2.676.095.177zm-.595.291c.19-.09.373-.177.593-.29l-.091-.178c-.218.112-.397.197-.587.288l.085.18zm-.221.106l.221-.106-.085-.18-.223.106.087.18zm-3.254 1.727l3.257-1.729-.093-.176-3.258 1.728.094.177zm-1.01.535c.338-.165.669-.326 1.015-.538l-.104-.17c-.337.206-.66.363-1 .528l.088.18zm-.676.34c.235-.126.457-.234.675-.34l-.087-.18a18.99 18.99 0 00-.682.343l.094.176zm-6.598 3.488l6.598-3.488-.094-.177-6.597 3.488.093.177zm-1.137.583c.37-.178.765-.368 1.14-.585l-.1-.173c-.368.213-.755.4-1.126.578l.086.18zm-1.723 1.39c0-.261.171-.49.489-.72.317-.227.753-.438 1.234-.67l-.086-.18c-.477.23-.931.448-1.265.688-.333.24-.572.521-.572.882h.2zm.742.994a.427.427 0 01-.24-.094 1.148 1.148 0 01-.249-.255c-.154-.212-.253-.465-.253-.645h-.2c0 .238.123.531.292.762.085.117.185.223.293.3a.62.62 0 00.357.132v-.2zm-2.16-1.119c0 .81.216 1.444.647 1.892.431.448 1.064.696 1.87.76l.016-.2c-.776-.061-1.356-.297-1.742-.699-.385-.4-.591-.979-.591-1.753h-.2zm2.152-2.36c-.502.233-1.04.481-1.45.84-.415.361-.702.838-.702 1.52h.2c0-.615.255-1.04.634-1.37.385-.336.894-.573 1.402-.808l-.084-.182zm.658-.32c-.205.11-.428.213-.658.32l.084.181c.229-.106.457-.212.669-.325l-.095-.176zM28.992 3.463L9.76 13.636l.094.177L29.086 3.64l-.094-.177zm1.479-.79c-.53.268-.98.495-1.483.792l.102.172c.497-.293.94-.517 1.471-.786l-.09-.179zm.27-.138l-.27.137.09.179.271-.137-.09-.179zm.873-.488c-.3.174-.591.344-.873.488l.092.178c.287-.147.582-.32.882-.494l-.1-.172zM34.638.9c-1.058 0-2.09.604-3.024 1.147l.101.172c.946-.55 1.93-1.119 2.923-1.119V.9zm7.25 3.501c-.63-.354-2.227-1.227-3.768-2.011a46.06 46.06 0 00-2.147-1.036 11.501 11.501 0 00-.809-.328C34.944.95 34.76.9 34.638.9v.2c.083 0 .238.037.46.115.218.076.488.187.794.322.613.27 1.368.64 2.137 1.03a120.14 120.14 0 013.761 2.008l.098-.174zm3.384 1.807A133.424 133.424 0 0141.888 4.4l-.097.175c1.133.633 2.262 1.221 3.389 1.809l.092-.177zm3.59 1.921a124.72 124.72 0 00-3.59-1.921l-.092.177c1.194.623 2.386 1.244 3.583 1.918l.098-.174zm7 3.685l-7.003-3.686-.093.177 7.003 3.686.093-.177zm1.751.928a34.52 34.52 0 00-1.753-.93l-.089.18c.675.332 1.11.57 1.745.924l.097-.174zm3.515 1.831l-3.517-1.832-.093.177 3.518 1.833.092-.178zm-1.568 4.395c2.787-.226 3.23-3.272 1.578-4.389l-.112.166c1.49 1.007 1.123 3.813-1.482 4.024l.017.2zm-.123 2.806a.727.727 0 00.187-.37 2.84 2.84 0 00.051-.562c.004-.226-.002-.497-.008-.822a53.558 53.558 0 01-.015-1.151h-.2c0 .447.008.83.015 1.155.007.326.012.594.008.815a2.66 2.66 0 01-.047.52.531.531 0 01-.132.273l.141.142zm-2.08.235c.59 0 1.034.013 1.36-.007.322-.02.562-.072.72-.228l-.14-.142c-.101.1-.272.15-.592.17-.318.02-.749.007-1.349.007v.2zm.1 26.172V21.91h-.2v26.272h.2zm1.936.116c-.163-.152-.404-.2-.72-.215-.32-.016-.752 0-1.317 0v.2c.576 0 .994-.016 1.306 0 .315.016.489.063.595.161l.136-.146zm.26 3.04c0-.943.025-1.617.008-2.085a2.821 2.821 0 00-.065-.582.737.737 0 00-.203-.373l-.136.146a.54.54 0 01.145.276c.034.134.052.309.06.54.015.465-.01 1.123-.01 2.077h.2zm.654-.12c-.242.01-.496.02-.755.02v.2c.263 0 .52-.01.762-.02l-.007-.2zm1.77.609a.52.52 0 00-.161-.399.815.815 0 00-.402-.18c-.313-.064-.744-.047-1.207-.03l.007.2c.474-.017.876-.032 1.161.025a.621.621 0 01.305.132c.06.056.096.133.096.252h.2zm0 3.644v-3.644h-.2v3.644h.2zm-.59.59a.588.588 0 00.425-.165.59.59 0 00.164-.425h-.2a.39.39 0 01-.106.284.389.389 0 01-.283.106v.2zm-53.95 0h53.95v-.2H7.537v.2zm-.588-.59a.59.59 0 00.164.425.588.588 0 00.425.165v-.2a.389.389 0 01-.283-.106.39.39 0 01-.106-.284h-.2zm.215-4.094c-.117.101-.181.248-.218.437a4.135 4.135 0 00-.046.746c0 .314.013.702.025 1.18.012.48.024 1.05.024 1.731h.2c0-.683-.012-1.256-.024-1.736s-.024-.865-.025-1.175c0-.311.01-.54.043-.708.032-.168.083-.264.152-.325l-.131-.15zm2.31-.14c-.33 0-.616-.008-.866-.017-.249-.009-.463-.018-.644-.02a2.506 2.506 0 00-.467.03.682.682 0 00-.333.147l.131.15a.486.486 0 01.239-.101c.11-.02.25-.027.428-.026.178.002.387.01.639.02.25.009.54.017.873.017v-.2zm-.112-.59c.006.23.012.462.012.69h.2c0-.231-.006-.465-.012-.694l-.2.005zm.27-2.393c-.16.333-.231.716-.262 1.12-.03.406-.019.84-.008 1.274l.2-.005c-.011-.437-.022-.86.008-1.253.03-.393.098-.748.243-1.05l-.18-.086zm1.382-.183c-.47-.013-.672-.019-1.313.128l.044.195c.621-.142.805-.136 1.263-.123l.006-.2zm.655.011c-.278 0-.485-.006-.655-.01l-.006.2c.17.004.38.01.661.01v-.2zm-.1-26.172v26.272h.2V21.91h-.2zm-1.98-.135c.158.156.397.208.72.228.325.02.77.007 1.36.007v-.2c-.6 0-1.03.013-1.348-.007-.32-.02-.49-.07-.591-.17l-.141.142zm-.215-2.905c0 .445-.008.825-.015 1.15-.006.326-.012.598-.008.824.004.225.017.41.051.561a.726.726 0 00.187.37l.14-.142a.53.53 0 01-.131-.272c-.03-.13-.043-.3-.047-.521-.004-.221.002-.489.008-.815.007-.326.015-.708.015-1.155h-.2zm30.454-2.734l-5.883 6.303.147.136 5.882-6.303-.146-.136zm-.978-.776l.983.917.136-.146-.983-.917-.136.146zm-5.267 5.79l5.408-5.795-.146-.136-5.408 5.794.146.136zM30.57 18.28l2.87 2.87.141-.142-2.87-2.87-.14.142zm-.81.951l.952-.95-.142-.142-.95.95.14.142zm3.362 3.22l-3.361-3.361-.142.141 3.362 3.361.141-.141zm.415.167a.572.572 0 01-.415-.167l-.141.141c.148.148.35.23.56.227l-.004-.2zm.408-.181a.572.572 0 01-.408.181l.003.2a.772.772 0 00.552-.245l-.147-.136z" fill="#fff" mask="url(#a)"/></g><defs><filter id="filter0_d_113_3156" x=".9" y=".9" width="67.2" height="71.159" filterUnits="userSpaceOnUse" color-interpolation-filters="sRGB"><feFlood flood-opacity="0" result="BackgroundImageFix"/><feColorMatrix in="SourceAlpha" values="0 0 0 0 0 0 0 0 0 0 0 0 0 0 0 0 0 0 127 0" result="hardAlpha"/><feOffset dy="10"/><feGaussianBlur stdDeviation="3"/><feComposite in2="hardAlpha" operator="out"/><feColorMatrix values="0 0 0 0 0 0 0 0 0 0 0 0 0 0 0 0 0 0 0.1 0"/><feBlend in2="BackgroundImageFix" result="effect1_dropShadow_113_3156"/><feBlend in="SourceGraphic" in2="effect1_dropShadow_113_3156" result="shape"/></filter></defs></svg>