<svg width="69" height="62" fill="none" xmlns="http://www.w3.org/2000/svg"><g filter="url(#filter0_d_113_3123)" fill="#fff" stroke="#fff" stroke-width=".3"><path d="M54.785 30.93a2.46 2.46 0 00-.278-.166 7.845 7.845 0 00-.456-.212l-.208-.092-.001-.001-18.367-8.706-.003-.001h0c-1.27-.636-2.564-1.23-3.86-1.826l-.074-.034a121.834 121.834 0 01-3.942-1.869h-.001l-2.61-1.256h0a28.98 28.98 0 00-1.316-.605c-.704-.3-1.003-.488-1.214-.793a3.462 3.462 0 01-.257-.472l-.02-.043a9.742 9.742 0 00-.418-.784s0 0 0 0l-.024-.04c-.694-1.166-1.561-2.623-2.258-4.106-.702-1.497-1.24-3.041-1.24-4.353 0-1.51.88-2.96 2.152-3.843 1.276-.885 2.963-1.214 4.583-.455h0c1.571.74 2.457 1.931 2.771 3.298.313 1.36.056 2.881-.629 4.286a11.937 11.937 0 00-.237.538c-.078.182-.16.371-.263.571m28.17 20.964L41.75 36.36c.784-.25 1.555-.491 2.322-.73 1.534-.48 3.05-.954 4.608-1.476h.001l5.13-1.64h.003l.446-.153c.451-.155.859-.296 1.334-.427.804-.222 1.213-.483 1.509-.874.143-.19.256-.407.376-.649l.068-.14c.102-.208.214-.437.36-.698h0c.206-.372.438-.775.682-1.2.639-1.114 1.369-2.386 1.999-3.683.87-1.792 1.563-3.66 1.563-5.26 0-1.634-.784-2.935-1.791-3.943-2.62-2.63-6.36-2.086-8.243.321-1.457 1.853-1.65 3.607-1.241 5.357.335 1.43 1.077 2.865 1.842 4.343.16.311.322.624.482.939h0l.002.004 1.287 2.36c.082.167.172.316.255.452l.096.16c.046.08.089.158.126.239a21.057 21.057 0 00-.643-.302l-.134-.06c-.285-.129-.57-.258-.855-.4h0l-.003-.001-11.82-5.602h0l-.006-.002c-.86-.364-1.885-.87-2.918-1.385l-.33-.165a77.283 77.283 0 00-2.62-1.27h-.002l-11.689-5.527a12.473 12.473 0 01.37-.767c.226-.437.52-.978.825-1.53.187-.34.379-.683.56-1.01.407-.73.764-1.372.915-1.674m28.17 20.964a4.65 4.65 0 00-.252.058c-.223.058-.47.134-.715.216-.244.08-.487.167-.7.243l-.046.016c-.194.07-.359.128-.476.166h-.002c-2.473.832-4.96 1.605-7.45 2.38h0c-2.489.774-4.979 1.548-7.455 2.38v.001l-7.483 2.396a48.55 48.55 0 00-2.483.794l-.134.046c-.774.264-1.544.526-2.331.757h0l-.003.001-9.672 3.084c.335-.62.748-1.35 1.201-2.15l.358-.633c.677-1.2 1.415-2.523 2.099-3.845.683-1.321 1.313-2.644 1.772-3.845.458-1.197.752-2.287.752-3.138 0-2.403-.6-4.267-2.273-5.94h0c-2.67-2.655-5.838-2.735-8.332-1.486-2.482 1.243-4.31 3.81-4.31 6.46 0 1.958.456 3.587 1.271 5.26h0c.221.451.426.892.628 1.329.379.816.75 1.616 1.206 2.432l44.83-6.982zM26.615 9.966s0 0 0 0L26.48 9.9l.134.067s0 0 0 0zm26.528 6.483h0c1.319-1.71 4.22-2.12 6.151-.323h.001c.066.06.08.072.108.095l.068.056.16.153c.736.764 1.116 1.562 1.255 2.377.138.817.035 1.66-.21 2.51-.363 1.251-1.023 2.492-1.653 3.676-.232.437-.46.866-.668 1.285-.133.26-.576 1.11-1.024 1.92-.225.406-.45.8-.636 1.106a7.392 7.392 0 01-.288.44l-.006-.009a3.589 3.589 0 01-.161-.235c-.12-.188-.258-.427-.396-.675a52.454 52.454 0 01-.517-.962l-.141-.266h0l-.276-.5c-.508-.918-1.193-2.156-1.789-3.404a20.95 20.95 0 01-.912-2.175c-.234-.684-.374-1.293-.374-1.765 0-.657.21-1.444.396-1.898.225-.529.473-.846.803-1.267.035-.045.072-.09.109-.139zM25.664 3.225h0c1.04 1.12 1.197 2.277.95 3.457-.217 1.041-.747 2.092-1.28 3.147l-.233.466-1.603 2.916a4.338 4.338 0 00-.189.363c-.03.065-.06.126-.088.18a1.46 1.46 0 01-.174.272l-1.98-3.762v-.001a81.316 81.316 0 00-.176-.345 30.89 30.89 0 01-.866-1.8c-.352-.815-.623-1.628-.623-2.231a3.83 3.83 0 012.26-3.499c1.272-.575 2.832-.43 4.002.837zm9.2 35.355l6.885-2.221-12.102 3.895 3.41-1.107h.001c.285-.096.569-.181.856-.268l.036-.011c.3-.09.603-.183.913-.287 0 0 0 0 0 0zm-24.909-.668l3.494 6.292h0l.001.003c.052.088.09.171.127.252l.011.027c.032.07.064.143.102.21.045.076.1.15.18.212.078.06.172.103.286.132.126.05.276.05.417.03.152-.02.317-.065.477-.115.162-.052.324-.112.47-.166l.012-.004c.143-.053.266-.099.361-.127h0l.003-.001 12.037-3.87h.001c.302-.1.576-.183.853-.266h.001c.276-.083.554-.167.859-.267L9.955 37.912zm-1.94-8.38c0-3.657 2.791-6.512 6.221-6.7 1.528-.08 3.121.657 4.336 1.88 1.214 1.22 2.036 2.91 2.036 4.712 0 1.074-.473 2.497-1.06 3.875-.465 1.092-.994 2.138-1.4 2.94l-.285.565-3.157 5.763-.1.158c-.112.176-.22.344-.302.61a3.153 3.153 0 00-.073-.166 9.618 9.618 0 00-.232-.458 66.69 66.69 0 00-.75-1.356l-.235-.417a160.464 160.464 0 01-1.931-3.496c-.778-1.461-1.546-3.002-2.12-4.4-.577-1.403-.948-2.643-.948-3.51z"/><path d="M16.477 27.665h0c.874.945.951 2.179.535 3.183-.419 1.009-1.323 1.759-2.388 1.759h-.64c-.693 0-1.354-.355-1.845-.899-.491-.543-.8-1.262-.8-1.964 0-.8.327-1.545.825-2.09.498-.546 1.159-.881 1.82-.881.5 0 .939.025 1.345.148.403.122.78.343 1.148.744zm.691-1.015h0c-1.57-1.339-3.32-1.371-4.675-.703-1.347.664-2.311 2.024-2.311 3.472 0 .638.044 1.215.224 1.759.181.547.497 1.052 1.03 1.554 1.419 1.343 3.17 1.38 4.56.749 1.378-.627 2.43-1.93 2.43-3.305 0-1.323-.182-2.598-1.258-3.526zm39.132-8.8c.728 0 1.267.26 1.625.641.36.384.545.898.548 1.415a2.045 2.045 0 01-.532 1.413c-.356.38-.898.641-1.642.641-.65 0-1.128-.256-1.445-.635-.32-.383-.483-.898-.482-1.42 0-.522.166-1.038.486-1.42.318-.38.795-.636 1.441-.636zm-3.153 2.005c0 1.434.759 2.5 1.907 3.04 1.276.604 2.665.295 3.637-.652 2.076-1.999.672-5.601-2.284-5.601-1.724 0-3.26 1.402-3.26 3.213zM23.127 4.428c.536 0 .917.204 1.165.5.25.3.372.706.363 1.12-.017.832-.553 1.626-1.528 1.626-.928 0-1.616-.762-1.647-1.595-.03-.853.73-1.65 1.647-1.65zm-2.845 1.456c0 1.006.342 1.747.87 2.236.526.486 1.223.71 1.913.709 1.369-.002 2.782-.904 2.782-2.512v-.532c0-1.356-1.198-2.514-2.936-2.514-.669 0-1.325.333-1.81.817-.486.483-.82 1.135-.82 1.796z"/></g><defs><filter id="filter0_d_113_3123" x=".7" y=".7" width="67.6" height="60.532" filterUnits="userSpaceOnUse" color-interpolation-filters="sRGB"><feFlood flood-opacity="0" result="BackgroundImageFix"/><feColorMatrix in="SourceAlpha" values="0 0 0 0 0 0 0 0 0 0 0 0 0 0 0 0 0 0 127 0" result="hardAlpha"/><feOffset dy="10"/><feGaussianBlur stdDeviation="3"/><feComposite in2="hardAlpha" operator="out"/><feColorMatrix values="0 0 0 0 0 0 0 0 0 0 0 0 0 0 0 0 0 0 0.1 0"/><feBlend in2="BackgroundImageFix" result="effect1_dropShadow_113_3123"/><feBlend in="SourceGraphic" in2="effect1_dropShadow_113_3123" result="shape"/></filter></defs></svg>