<svg width="61" height="73" fill="none" xmlns="http://www.w3.org/2000/svg"><g filter="url(#filter0_d_113_3144)"><mask id="a" maskUnits="userSpaceOnUse" x="6" y="0" width="49" height="57" fill="#000"><path fill="#fff" d="M6 0h49v57H6z"/><path fill-rule="evenodd" clip-rule="evenodd" d="M10.274 1.982h33.392a2.292 2.292 0 012.291 2.292v18.333a2.292 2.292 0 01-2.291 2.291H36.79v6.548l-6.86-6.548H10.275a2.292 2.292 0 01-2.292-2.291V4.274a2.292 2.292 0 012.292-2.292zM29.625 25.88H10.274A3.274 3.274 0 017 22.607V4.274A3.274 3.274 0 0110.274 1h33.392a3.274 3.274 0 013.273 3.274v18.333a3.274 3.274 0 01-3.273 3.273h-5.893v7.857l-.982-.947-7.166-6.91zM25.8 15.755c-.115.617-.238 1.28-.238 1.753.224-.052.64-.283.999-.482.147-.082.285-.159.395-.215l.342-.174c.442-.227.69-.354.941-.361.32-.01.647.173 1.39.59.35.196.79.444 1.366.748l-.003-.01c-.125-.544-.653-2.832-.395-3.203.085-.124.457-.48.849-.854.505-.482 1.044-.997 1.048-1.093.004-.191-.505-.232-1.11-.282-.73-.059-1.602-.13-1.881-.489-.178-.243-1.16-2.239-1.225-2.54l-1.322 2.548c-.24.344-1.178.434-1.843.497-.167.016-.317.03-.435.047-.078.01-.15.02-.216.027-.315.04-.486.061-.514.136-.033.088.136.252.506.61.115.112.249.243.402.395.266.266.473.455.632.602.489.448.53.486.439 1.037-.035.22-.08.462-.127.713zm-.87-.965c-.382-.202-2.717-2.304-2.717-2.823 0-.487 1.365-.645 2.442-.77.287-.033.554-.064.77-.098a3.01 3.01 0 01.316-.03c.264-.017.416-.027.591-.31.252-.397.481-.945.704-1.479.566-1.356 1.093-2.62 1.867-1.077.468.928.745 1.549.932 1.966.242.54.331.741.485.826.09.05.203.06.382.076.128.011.29.026.503.06.317.053.656.089.987.124 1.059.113 2.046.218 2.046.818 0 .316-2.49 2.669-2.725 2.823.157.664.283 1.449.393 2.136l.013.079c.015.089.04.2.066.324.137.618.34 1.542-.261 1.542-.438 0-1.26-.483-2.015-.925-.657-.386-1.263-.741-1.52-.722l-2.481 1.274c-1.722 1.046-1.46-.2-1.11-1.855.133-.628.278-1.315.331-1.959zm22.473 13.18v26.772c0 .244.073.317.308.317h5.651v-27.09h-5.959zm-.94 27.608V27.45c0-.413.518-.527.94-.527h6.057c.43 0 .948.114.948.527v28.128a.405.405 0 01-.422.422h-7.11c-.244 0-.414-.17-.414-.422zM30.888 36.744h-5.96v18.303h5.96V36.744zm-6.901 18.822V36.12c0-.324.308-.421.633-.421h6.794c.243 0 .52.284.52.527v19.138c0 .317-.098.625-.422.625H24.41a.405.405 0 01-.422-.422zM36.21 39.785h5.951v15.269H36.21V39.785zm-1.046-.316V55.37c0 .317.097.625.413.625h7.11c.333 0 .52-.381.52-.73V39.68c0-.207-.024-.31-.051-.424-.02-.083-.04-.17-.054-.307-.82-.19-4.092-.147-6.164-.119-.57.008-1.048.014-1.36.014-.317 0-.414.308-.414.625zm-21.426 6.063h5.96v9.517h-5.96v-9.517zm-.94-.941c-.2.87-.15 6.044-.12 9.02.008.769.014 1.39.014 1.754 0 .316.098.625.422.625h7.103c.243 0 .422-.17.422-.422v-10.66a.405.405 0 00-.422-.422c-.2 0-.564-.005-1.029-.01h-.001c-2.017-.024-5.922-.07-6.39.115zm4.01-30.917c-.34.317-1.395.39-2.02.39.098.146.298.336.516.543.395.374.847.804.847 1.128 0 .327-.05.589-.103.856a4.5 4.5 0 00-.108.92c.234-.053.514-.222.794-.39.35-.21.7-.421.965-.412.181.004.495.177.834.363.33.181.682.376.958.44-.006-.251-.073-.525-.14-.796-.12-.493-.24-.979.011-1.314.13-.18.315-.34.5-.499.29-.248.581-.499.675-.84-.543 0-1.743-.154-2.002-.405-.17-.17-.64-1.274-.714-1.582h-.21c-.073.308-.6 1.412-.803 1.598zm-3.236-.405c.276-.09 2.255-.357 2.58-.357.072-.316.303-.759.504-1.142.067-.129.131-.251.184-.36.056-.107.102-.21.145-.305.178-.395.308-.682.836-.806.385.334.685 1.01.94 1.585.19.43.355.802.512.93.223.18.746.227 1.29.275.8.071 1.645.146 1.645.658 0 .406-1.598 1.988-1.987 2.094.17.713.422 1.898.422 2.717 0 .855-1.229.16-2.109-.337-.38-.215-.696-.393-.818-.393-.263 0-.705.263-1.169.538-.981.584-2.061 1.226-1.758-.432l.074-.455c.043-.266.085-.528.137-.803.02-.108.04-.2.057-.278.077-.352.102-.463-.236-.801a15.75 15.75 0 00-.473-.446c-.795-.729-1.717-1.575-.776-1.882zm26.93 4.243c-.228-.051-.516-.223-.803-.394-.355-.211-.71-.423-.956-.41-.165.013-.482.182-.822.364-.343.183-.71.379-.97.44a5.89 5.89 0 01.116-.656c.11-.525.234-1.109.063-1.397-.144-.229-.353-.397-.56-.563-.285-.23-.566-.456-.665-.832.396 0 .632-.039.93-.087l.116-.019.204-.027c.3-.037.583-.072.761-.265.143-.15.254-.412.37-.688.148-.352.305-.724.547-.902.073.308.6 1.412.803 1.598.34.317 1.394.39 2.018.39a5.697 5.697 0 00-.048.138c-.016.047-.02.059-.029.065l-.012.005c-.02.007-.064.022-.187.14a3.619 3.619 0 01-.139.127c-.057.052-.108.097-.184.174-.878.872-.838 1.035-.709 1.557.067.27.157.634.157 1.242zm-6.267-3.87c0 .649 1.468 1.858 1.987 2.199-.859 3.662-.422 3.444 1.199 2.637l.05-.025c.32-.16.546-.29.718-.388.246-.141.38-.218.52-.227.168-.01.341.083.726.286.139.073.305.161.509.264.159.078.295.163.425.244.3.186.561.348.969.348.59 0 .392-.909.203-1.77-.127-.581-.25-1.14-.122-1.386.093-.173.366-.419.68-.7.506-.454 1.115-1 1.226-1.482-.353-.407-.531-.425-1.006-.472a9.98 9.98 0 01-.356-.04 16.72 16.72 0 01-.487-.078c-.398-.068-.82-.14-1.184-.14-.072-.308-.288-.718-.477-1.078a14.859 14.859 0 01-.18-.35 7.099 7.099 0 01-.143-.31c-.186-.422-.331-.75-.87-.875-.388.334-.704 1.045-.964 1.629-.17.38-.314.706-.44.838-.23.236-.772.281-1.21.318a7.707 7.707 0 00-.484.05c-.477.058-1.289.155-1.289.508z"/></mask><path fill-rule="evenodd" clip-rule="evenodd" d="M10.274 1.982h33.392a2.292 2.292 0 012.291 2.292v18.333a2.292 2.292 0 01-2.291 2.291H36.79v6.548l-6.86-6.548H10.275a2.292 2.292 0 01-2.292-2.291V4.274a2.292 2.292 0 012.292-2.292zM29.625 25.88H10.274A3.274 3.274 0 017 22.607V4.274A3.274 3.274 0 0110.274 1h33.392a3.274 3.274 0 013.273 3.274v18.333a3.274 3.274 0 01-3.273 3.273h-5.893v7.857l-.982-.947-7.166-6.91zM25.8 15.755c-.115.617-.238 1.28-.238 1.753.224-.052.64-.283.999-.482.147-.082.285-.159.395-.215l.342-.174c.442-.227.69-.354.941-.361.32-.01.647.173 1.39.59.35.196.79.444 1.366.748l-.003-.01c-.125-.544-.653-2.832-.395-3.203.085-.124.457-.48.849-.854.505-.482 1.044-.997 1.048-1.093.004-.191-.505-.232-1.11-.282-.73-.059-1.602-.13-1.881-.489-.178-.243-1.16-2.239-1.225-2.54l-1.322 2.548c-.24.344-1.178.434-1.843.497-.167.016-.317.03-.435.047-.078.01-.15.02-.216.027-.315.04-.486.061-.514.136-.033.088.136.252.506.61.115.112.249.243.402.395.266.266.473.455.632.602.489.448.53.486.439 1.037-.035.22-.08.462-.127.713zm-.87-.965c-.382-.202-2.717-2.304-2.717-2.823 0-.487 1.365-.645 2.442-.77.287-.033.554-.064.77-.098a3.01 3.01 0 01.316-.03c.264-.017.416-.027.591-.31.252-.397.481-.945.704-1.479.566-1.356 1.093-2.62 1.867-1.077.468.928.745 1.549.932 1.966.242.54.331.741.485.826.09.05.203.06.382.076.128.011.29.026.503.06.317.053.656.089.987.124 1.059.113 2.046.218 2.046.818 0 .316-2.49 2.669-2.725 2.823.157.664.283 1.449.393 2.136l.013.079c.015.089.04.2.066.324.137.618.34 1.542-.261 1.542-.438 0-1.26-.483-2.015-.925-.657-.386-1.263-.741-1.52-.722l-2.481 1.274c-1.722 1.046-1.46-.2-1.11-1.855.133-.628.278-1.315.331-1.959zm22.473 13.18v26.772c0 .244.073.317.308.317h5.651v-27.09h-5.959zm-.94 27.608V27.45c0-.413.518-.527.94-.527h6.057c.43 0 .948.114.948.527v28.128a.405.405 0 01-.422.422h-7.11c-.244 0-.414-.17-.414-.422zM30.888 36.744h-5.96v18.303h5.96V36.744zm-6.901 18.822V36.12c0-.324.308-.421.633-.421h6.794c.243 0 .52.284.52.527v19.138c0 .317-.098.625-.422.625H24.41a.405.405 0 01-.422-.422zM36.21 39.785h5.951v15.269H36.21V39.785zm-1.046-.316V55.37c0 .317.097.625.413.625h7.11c.333 0 .52-.381.52-.73V39.68c0-.207-.024-.31-.051-.424-.02-.083-.04-.17-.054-.307-.82-.19-4.092-.147-6.164-.119-.57.008-1.048.014-1.36.014-.317 0-.414.308-.414.625zm-21.426 6.063h5.96v9.517h-5.96v-9.517zm-.94-.941c-.2.87-.15 6.044-.12 9.02.008.769.014 1.39.014 1.754 0 .316.098.625.422.625h7.103c.243 0 .422-.17.422-.422v-10.66a.405.405 0 00-.422-.422c-.2 0-.564-.005-1.029-.01h-.001c-2.017-.024-5.922-.07-6.39.115zm4.01-30.917c-.34.317-1.395.39-2.02.39.098.146.298.336.516.543.395.374.847.804.847 1.128 0 .327-.05.589-.103.856a4.5 4.5 0 00-.108.92c.234-.053.514-.222.794-.39.35-.21.7-.421.965-.412.181.004.495.177.834.363.33.181.682.376.958.44-.006-.251-.073-.525-.14-.796-.12-.493-.24-.979.011-1.314.13-.18.315-.34.5-.499.29-.248.581-.499.675-.84-.543 0-1.743-.154-2.002-.405-.17-.17-.64-1.274-.714-1.582h-.21c-.073.308-.6 1.412-.803 1.598zm-3.236-.405c.276-.09 2.255-.357 2.58-.357.072-.316.303-.759.504-1.142.067-.129.131-.251.184-.36.056-.107.102-.21.145-.305.178-.395.308-.682.836-.806.385.334.685 1.01.94 1.585.19.43.355.802.512.93.223.18.746.227 1.29.275.8.071 1.645.146 1.645.658 0 .406-1.598 1.988-1.987 2.094.17.713.422 1.898.422 2.717 0 .855-1.229.16-2.109-.337-.38-.215-.696-.393-.818-.393-.263 0-.705.263-1.169.538-.981.584-2.061 1.226-1.758-.432l.074-.455c.043-.266.085-.528.137-.803.02-.108.04-.2.057-.278.077-.352.102-.463-.236-.801a15.75 15.75 0 00-.473-.446c-.795-.729-1.717-1.575-.776-1.882zm26.93 4.243c-.228-.051-.516-.223-.803-.394-.355-.211-.71-.423-.956-.41-.165.013-.482.182-.822.364-.343.183-.71.379-.97.44a5.89 5.89 0 01.116-.656c.11-.525.234-1.109.063-1.397-.144-.229-.353-.397-.56-.563-.285-.23-.566-.456-.665-.832.396 0 .632-.039.93-.087l.116-.019.204-.027c.3-.037.583-.072.761-.265.143-.15.254-.412.37-.688.148-.352.305-.724.547-.902.073.308.6 1.412.803 1.598.34.317 1.394.39 2.018.39a5.697 5.697 0 00-.048.138c-.016.047-.02.059-.029.065l-.012.005c-.02.007-.064.022-.187.14a3.619 3.619 0 01-.139.127c-.057.052-.108.097-.184.174-.878.872-.838 1.035-.709 1.557.067.27.157.634.157 1.242zm-6.267-3.87c0 .649 1.468 1.858 1.987 2.199-.859 3.662-.422 3.444 1.199 2.637l.05-.025c.32-.16.546-.29.718-.388.246-.141.38-.218.52-.227.168-.01.341.083.726.286.139.073.305.161.509.264.159.078.295.163.425.244.3.186.561.348.969.348.59 0 .392-.909.203-1.77-.127-.581-.25-1.14-.122-1.386.093-.173.366-.419.68-.7.506-.454 1.115-1 1.226-1.482-.353-.407-.531-.425-1.006-.472a9.98 9.98 0 01-.356-.04 16.72 16.72 0 01-.487-.078c-.398-.068-.82-.14-1.184-.14-.072-.308-.288-.718-.477-1.078a14.859 14.859 0 01-.18-.35 7.099 7.099 0 01-.143-.31c-.186-.422-.331-.75-.87-.875-.388.334-.704 1.045-.964 1.629-.17.38-.314.706-.44.838-.23.236-.772.281-1.21.318a7.707 7.707 0 00-.484.05c-.477.058-1.289.155-1.289.508z" fill="#fff"/><path d="M36.79 24.898v-.2a.2.2 0 00-.2.2h.2zm0 .982h-.2c0 .11.09.2.2.2v-.2zm0 0h.2a.2.2 0 00-.2-.2v.2zm0 5.546l-.138.144a.2.2 0 00.339-.144h-.2zm0 0l.14-.145a.2.2 0 00-.34.145h.2zm0 .02l-.137.144a.2.2 0 00.338-.145h-.2zm-6.858-6.548l.138-.145a.2.2 0 00-.138-.055v.2zm-.307.982l.139-.144a.2.2 0 00-.139-.056v.2zm8.148 0v-.2a.2.2 0 00-.2.2h.2zm0 7.857l-.139.144a.2.2 0 00.339-.144h-.2zm-.982-.947l-.139.144.139-.144zM25.799 15.755l-.192-.055a.234.234 0 00-.004.018l.196.037zm0 0l.193.054a.234.234 0 00.004-.018l-.197-.037zm-.238 1.753h-.2a.2.2 0 00.245.195l-.045-.195zm.999-.482l-.09-.18-.007.005.097.175zm0 0l.09.179.007-.005-.097-.174zm.395-.215l-.09-.18v.002l.09.178zm.342-.174l.091.178h.002l-.093-.178zm0 0l-.09-.178h-.002l.092.178zm.941-.361l-.006-.2.006.2zm1.39.59l-.098.175.098-.175zm1.366.748l-.094.177a.2.2 0 00.289-.222l-.195.045zm-.003-.01l.195-.045-.195.045zm-.395-3.203l.164.114h.001l-.165-.114zm.849-.854l-.128-.154-.01.01.138.144zm0 0l.128.154.006-.005-.134-.149zm0 0l.134.149.002-.002-.136-.147zm0 0l.136.147.002-.002-.138-.145zm1.048-1.093l.2.01v-.006l-.2-.004zm-1.11-.282l-.016.2.016-.2zm-1.881-.489l-.162.119.004.004.158-.123zm-1.225-2.54l.195-.041a.2.2 0 00-.373-.05l.178.092zm-1.322 2.548l.164.115a.196.196 0 00.014-.023l-.178-.092zm-1.843.497l-.02-.199h-.005l.025.2zm0 0l.019.2.005-.001-.024-.199zm-.435.047l.027.198-.027-.198zm-.216.027l-.025-.198-.008.001.032.197zm0 0l.024.2.008-.002-.032-.198zm-.514.136l.187.07-.187-.07zm.506.61l.139-.143-.14.144zm.402.395l.142-.141-.142.141zm.632.602l.136-.148-.136.148zm0 0l-.135.147.135-.147zm0 0l-.134.148.003.002.131-.15zm0 0l.136-.148-.004-.003-.132.15zm.439 1.037l-.197-.033v.001l.197.032zm-.998-.252l.2.017a.2.2 0 00-.106-.193l-.094.176zm-.274-3.593l.023.2-.023-.2zm.77-.098l-.031-.198h-.001l.031.198zm.316-.03l.012.2.013-.002-.025-.199zm0 0l-.013-.2h-.012l.025.2zm.591-.31l-.168-.108-.002.002.17.105zm.704-1.479l-.18-.09-.005.013.185.077zm0 0l.18.09.004-.013-.184-.077zm1.867-1.077l-.18.09h.001l.179-.09zm.932 1.966l-.182.082v.002l.182-.084zm0 0l.186-.074-.004-.01-.182.084zm0 0l-.186.075.004.007.182-.082zm.485.826l-.097.175.097-.175zm.382.076l.018-.2-.018.2zm.503.06l.033-.197-.033.198zm.987.124l.022-.199-.022.2zm-.679 3.64l-.11-.166a.2.2 0 00-.084.213l.194-.046zm.393 2.137l-.197.032.197-.032zm.013.079l-.198.031v.002l.198-.033zm.066.324l-.195.043.195-.043zm0 0l.196-.043-.196.043zm-2.276.617l-.111.166.01.006.1-.172zm0 0l.111-.167-.01-.006-.101.173zm-1.52-.722l-.014-.2a.2.2 0 00-.077.022l.091.178zm-2.481 1.274l-.092-.178a.155.155 0 00-.012.007l.104.17zm-1.11-1.855l-.196-.041.196.041zm22.805 11.22v-.2a.2.2 0 00-.2.2h.2zm5.96 27.09v.2a.2.2 0 00.2-.2h-.2zm0-27.09h.2a.2.2 0 00-.2-.2v.2zm-28.434 8.775v-.2a.2.2 0 00-.2.2h.2zm5.96 0h.2a.2.2 0 00-.2-.2v.2zm-5.96 18.303h-.2c0 .11.09.2.2.2v-.2zm5.96 0v.2a.2.2 0 00.2-.2h-.2zm11.274-15.262h.2a.2.2 0 00-.2-.2v.2zm-5.951 0v-.2a.2.2 0 00-.2.2h.2zm5.951 15.269v.2a.2.2 0 00.2-.2h-.2zm-5.951 0h-.2c0 .11.09.2.2.2v-.2zm6.946-15.798l.194-.046-.194.046zm-.054-.307l.199-.02a.2.2 0 00-.154-.174l-.045.194zm-6.164-.119v.2h.002l-.002-.2zm0 0v-.2h-.003l.003.2zm-17.24 6.702h.2a.2.2 0 00-.2-.2v.2zm-5.96 0v-.2a.2.2 0 00-.2.2h.2zm5.96 9.517v.2a.2.2 0 00.2-.2h-.2zm-5.96 0h-.2c0 .11.09.2.2.2v-.2zm-1.06-1.438l.2-.002-.2.002zm.12-9.02l-.074-.186a.2.2 0 00-.122.141l.195.045zm6.39-.115l.003-.2-.003.2zm0 0l.002-.2h-.003v.2zm-.001 0l-.002.2h.002v-.2zM14.79 14.064v-.2a.2.2 0 00-.167.31l.167-.11zm2.019-.39l-.136-.147.136.147zm-1.504.933l-.138.145a.196.196 0 00.027.02l.11-.165zm0 0l.141-.142a.196.196 0 00-.03-.025l-.111.167zm0 0l-.142.141.004.004.138-.146zm.744 1.984l.19.063a.18.18 0 00.007-.025l-.197-.038zm0 0l-.19-.064a.18.18 0 00-.006.025l.196.039zm-.108.92h-.2a.2.2 0 00.245.195l-.045-.194zm.794-.39l.103.171-.103-.171zm.965-.412l-.007.2h.003l.004-.2zm.834.363l-.096.175.096-.175zm.958.44l-.045.194a.2.2 0 00.245-.199l-.2.005zm-.14-.796l-.194.047.194-.047zm.011-1.314l.16.12.002-.003-.162-.117zm.5-.499l.131.152-.13-.152zm.675-.84l.193.054a.2.2 0 00-.193-.253v.2zm-2.002-.405l-.142.141.002.003.14-.144zm-.714-1.582l.195-.046a.2.2 0 00-.195-.154v.2zm-.21 0v-.2a.2.2 0 00-.195.154l.194.046zm-1.46.836v.2a.2.2 0 00.195-.155l-.195-.045zm-2.579.357l-.061-.19.061.19zm3.084-1.499l-.177-.093.177.093zm.184-.36l-.178-.09-.002.003.18.088zm.145-.305l.182.082v-.001l-.182-.081zm0 0l-.182-.083v.002l.182.08zm.836-.806l.131-.15a.2.2 0 00-.177-.044l.046.194zm.94 1.585l-.183.081.004.008.179-.089zm0 0l.19-.063a.198.198 0 00-.011-.027l-.18.09zm0 0l-.19.063a.184.184 0 00.007.018l.183-.081zm.512.93l-.128.155h.002l.126-.155zm1.29.275l-.018.2h.018v-.2zm0 0l.017-.199h-.017v.2zm-.342 2.752l-.052-.194a.2.2 0 00-.142.24l.194-.046zm-1.687 2.38l-.098.175.098-.175zm-1.987.145l-.102-.171.102.171zm-1.758-.432l.196.035v-.002l-.197-.033zm.074-.455l.197.032-.197-.032zm.137-.803l.196.037v-.002l-.196-.035zm.057-.278l-.195-.045v.002l.195.043zm0 0l-.19-.063a.19.19 0 00-.005.018l.195.045zm0 0l.19.063a.201.201 0 00.005-.02l-.195-.043zm-.236-.801l.141-.141-.141.141zm-.473-.446l.135-.147-.001-.001-.134.148zm0 0l.134-.148-.002-.001-.132.15zm0 0l-.136.148.003.002.133-.15zm25.35 1.967l.103-.172-.102.172zm.805.394l-.044.195a.2.2 0 00.244-.195h-.2zm-1.76-.803l-.01-.2h-.004l.014.2zm-.822.363l-.094-.177-.009.005.103.172zm0 0l.094.176.009-.005-.103-.171zm-.97.44l-.199-.017a.2.2 0 00.245.211l-.046-.194zm.116-.656l-.196-.042.196.042zm.063-1.397l.171-.102-.002-.004-.17.106zm-.56-.563l.126-.156-.126.156zm-.665-.832v-.2a.2.2 0 00-.193.25l.193-.05zm.93-.087l-.032-.197.032.197zm.116-.019l-.03-.197h-.002l.032.197zm.204-.027l.024.199-.024-.199zm0 0l-.025-.198.025.198zm.761-.265l-.144-.138-.002.002.146.136zm.37-.688l-.184-.077.184.077zm.547-.902l.194-.046a.2.2 0 00-.313-.115l.119.161zm.803 1.598l.136-.146h-.001l-.135.146zm2.018.39l.188.068a.2.2 0 00-.188-.268v.2zm-.048.138l.19.064-.19-.064zm-.029.065l-.112-.166.112.166zm-.012.005l.065.19-.065-.19zm-.187.14l.138.146.002-.002-.14-.143zm-.139.127l.131.152.003-.003-.134-.149zm0 0l-.13-.15-.003.001.133.15zm-.184.174l.14.142h.001l-.142-.142zm-.709 1.557l.194-.048-.194.048zm-4.124-.43l.195.046a.2.2 0 00-.085-.213l-.11.168zm1.199 2.638l-.09-.18.09.18zm.05-.025l-.09-.18.09.18zm.718-.388l-.1-.173.1.173zm.52-.227l.011.2-.011-.2zm.726.286l.093-.177-.093.177zm.509.264l-.09.178.001.001.089-.18zm.425.244l.105-.17-.105.17zm1.172-1.423l.195-.042-.195.042zm-.122-1.385l-.177-.094v.002l.177.092zm.68-.7l.133.15-.134-.15zm1.226-1.482l.195.044a.2.2 0 00-.044-.175l-.151.13zm-1.006-.472l-.02.199.02-.199zm-.356-.04l-.028.199h.002l.026-.198zm-.487-.078l-.034.197.034-.197zm-1.184-.14l-.195.045a.2.2 0 00.195.155v-.2zm-.477-1.078l.178-.093-.178.093zm-.18-.35l.18-.088v-.002l-.18.09zm-.143-.31l.183-.081-.183.08zm-.87-.875l.045-.195a.2.2 0 00-.175.044l.13.151zm-.964 1.629l-.182-.082.182.082zm-.44.838l.144.14.002-.003-.145-.137zm-1.21.318l.017.199-.017-.2zm-.321.03l-.026-.198.026.198zm-.163.02l-.024-.198.024.199zm8.14-11.352h-33.39v.4h33.392v-.4zm2.492 2.492a2.492 2.492 0 00-2.491-2.492v.4c1.155 0 2.091.937 2.091 2.092h.4zm0 18.333V4.274h-.4v18.333h.4zm-2.491 2.491a2.492 2.492 0 002.491-2.491h-.4a2.092 2.092 0 01-2.091 2.091v.4zm-5.893 0h5.893v-.4h-5.893v.4zm-.982 0h.982v-.4h-.982v.4zm0 0v-.4.4zm.2.782v-.982h-.4v.982h.4zm-.2-.2v.4-.4zm.2 5.746V25.88h-.4v5.546h.4zm-.339.144l.277-.288-.277.288zm.339-.125v-.02h-.4v.02h.4zm-7.197-6.402l6.859 6.547.276-.29-6.86-6.547-.275.29zm-1.187.055h1.325v-.4h-1.325v.4zm-18.333 0h18.333v-.4H10.274v.4zm-2.492-2.491a2.492 2.492 0 002.492 2.491v-.4a2.092 2.092 0 01-2.092-2.091h-.4zm0-18.333v18.333h.4V4.274h-.4zm2.492-2.492a2.492 2.492 0 00-2.492 2.492h.4c0-1.155.937-2.092 2.092-2.092v-.4zm0 24.298h19.351v-.4H10.274v.4zM6.8 22.607a3.474 3.474 0 003.474 3.473v-.4A3.074 3.074 0 017.2 22.607h-.4zm0-18.333v18.333h.4V4.274h-.4zM10.274.8A3.474 3.474 0 006.8 4.274h.4A3.074 3.074 0 0110.274 1.2V.8zm33.392 0H10.274v.4h33.392V.8zm3.473 3.474A3.474 3.474 0 0043.666.8v.4a3.074 3.074 0 013.073 3.074h.4zm0 18.333V4.274h-.4v18.333h.4zm-3.473 3.473a3.474 3.474 0 003.473-3.473h-.4a3.074 3.074 0 01-3.073 3.073v.4zm-5.893 0h5.893v-.4h-5.893v.4zm.2 6.293V25.88h-.4v6.493h.4zm0 1.364v-1.364h-.4v1.364h.4zm-1.321-.803l.982.947.278-.288-.982-.947-.278.288zm-7.166-6.91l7.166 6.91.278-.288-7.166-6.91-.278.288zM25.992 15.81l-.385-.11.385.11zm-.231 1.7c0-.451.119-1.093.235-1.718l-.393-.073c-.114.61-.242 1.294-.242 1.79h.4zm.702-.658c-.18.1-.37.206-.543.293-.178.09-.318.15-.404.17l.09.39c.138-.033.318-.114.494-.203.181-.091.379-.201.557-.3l-.194-.35zm.008-.004l.178.357-.178-.357zm0 0l.178.357-.178-.357zm.393-.215c-.114.059-.255.137-.401.219l.194.35c.148-.083.282-.158.39-.212l-.183-.357zm.342-.173l-.34.173.179.357c.127-.063.24-.122.343-.174l-.182-.356zm-.001 0l.185.355-.185-.355zm1.027-.383a1.329 1.329 0 00-.469.113c-.158.065-.339.158-.557.27l.183.356a7.29 7.29 0 01.526-.256.938.938 0 01.33-.083l-.013-.4zm1.494.616a12.068 12.068 0 00-.869-.463c-.227-.103-.421-.16-.625-.153l.013.4c.116-.004.246.026.448.117.204.092.462.237.837.448l.196-.35zm1.361.745c-.573-.302-1.012-.55-1.361-.745l-.196.349c.35.196.792.445 1.37.75l.187-.354zm-.29.212l.002.01.39-.09-.003-.01-.39.09zm-.365-3.362a.68.68 0 00-.097.316 2.573 2.573 0 00-.003.39c.015.286.063.632.12.978.117.693.282 1.406.345 1.678l.39-.09c-.063-.272-.226-.975-.34-1.655a8.926 8.926 0 01-.116-.934 2.189 2.189 0 01.002-.327.592.592 0 01.017-.098c.006-.024.012-.031.01-.03l-.328-.228zm.875-.884c-.196.187-.388.37-.542.523-.148.146-.278.28-.334.362l.33.226a3.42 3.42 0 01.285-.304c.151-.15.34-.33.537-.518l-.276-.29zm.01-.01l.256.308-.256-.307zm-.006.006l.268.297-.268-.297zm-.002.001l.272.294-.272-.294zm.985-.956a.158.158 0 01.012-.053c0-.003 0 0-.005.007a.828.828 0 01-.055.07 5.05 5.05 0 01-.232.247 36.78 36.78 0 01-.707.688l.276.289c.252-.24.515-.492.716-.696.1-.101.188-.194.252-.269a1.31 1.31 0 00.083-.107.45.45 0 00.033-.058.262.262 0 00.026-.099l-.4-.019zm-.927-.072c.307.025.572.046.76.084.096.02.154.039.182.055.03.016-.017 0-.016-.06l.4.007c.003-.157-.105-.25-.19-.297a1.05 1.05 0 00-.297-.097 7.583 7.583 0 00-.807-.09l-.032.398zm-2.023-.566a.976.976 0 00.387.28c.15.066.323.114.502.15.358.073.771.106 1.134.136l.032-.399a9.6 9.6 0 01-1.086-.129 2.117 2.117 0 01-.422-.124.588.588 0 01-.231-.16l-.316.246zm-1.263-2.62c.013.056.041.135.074.217.035.087.08.194.133.311a32.516 32.516 0 00.78 1.604c.115.222.217.408.273.483l.322-.236c-.033-.046-.12-.2-.241-.432a32.017 32.017 0 01-.769-1.581 8.391 8.391 0 01-.126-.297 1.318 1.318 0 01-.055-.153l-.39.084zm-.948 2.597l1.322-2.547-.356-.184-1.321 2.547.355.184zm-2.002.604c.33-.031.743-.07 1.103-.146a2.68 2.68 0 00.506-.153.882.882 0 00.38-.282l-.329-.23a.502.502 0 01-.211.146c-.115.05-.26.092-.428.127a9.94 9.94 0 01-1.06.14l.039.398zm.005 0l-.05-.397.05.397zm-.431.046c.112-.016.257-.03.426-.046l-.038-.398c-.166.016-.32.03-.443.048l.055.396zm-.22.028l.219-.028-.053-.396-.215.027.05.397zm.008-.001l-.065-.395.065.395zm-.359.007a.13.13 0 01-.041.058.043.043 0 01-.005.002h.003a4.029 4.029 0 01.394-.065l-.05-.398c-.152.02-.286.036-.383.058a.621.621 0 00-.15.052.291.291 0 00-.142.154l.374.14zm.458.398a8.029 8.029 0 01-.392-.394.478.478 0 01-.062-.082c-.006-.012.017.024-.004.078l-.374-.14a.3.3 0 00.022.244.81.81 0 00.116.162c.091.105.234.243.415.42l.279-.288zm.404.396c-.154-.153-.29-.284-.404-.396l-.279.287c.115.112.249.241.402.393l.281-.284zm.626.596c-.159-.146-.363-.333-.625-.595l-.283.282c.269.27.478.461.638.608l.27-.295zm0 0l-.27.295.27-.294zm0 0l-.27.296.27-.296zm-.003-.003l-.263.301.263-.3zm.504 1.22c.045-.265.072-.473-.016-.67a.95.95 0 00-.187-.263c-.077-.082-.177-.173-.298-.284l-.27.295c.124.114.212.195.277.264a.565.565 0 01.113.15c.031.072.034.158-.013.443l.394.066zm-.127.717c.046-.25.092-.495.128-.718l-.395-.063c-.035.217-.08.457-.126.708l.393.073zm-3.984-3.824c0 .124.064.255.13.365.072.12.171.254.287.394.231.281.54.604.859.915.319.31.65.611.925.848.138.118.263.22.367.301.1.078.19.143.254.177l.188-.353a1.779 1.779 0 01-.197-.14 9.592 9.592 0 01-.352-.29c-.269-.23-.593-.525-.906-.83a11.676 11.676 0 01-.83-.882 3.021 3.021 0 01-.252-.346.797.797 0 01-.06-.117c-.013-.032-.013-.044-.013-.042h-.4zM24.631 11c-.535.062-1.159.134-1.65.253-.243.06-.47.134-.64.235-.165.097-.329.25-.329.48h.4c0-.014.008-.062.132-.136.12-.07.3-.134.533-.19.46-.113 1.058-.182 1.6-.245L24.631 11zm.76-.098c-.21.034-.471.064-.76.098l.046.397c.286-.033.557-.065.778-.1l-.063-.394zm.336-.032c-.09.005-.202.012-.334.032l.06.396c.113-.018.209-.024.3-.03l-.026-.398zm-.012 0l.05.398-.05-.397zm.446-.216c-.074.12-.128.158-.17.177a.855.855 0 01-.264.039l.025.399c.123-.008.265-.014.396-.07.143-.062.253-.17.354-.335l-.34-.21zm.69-1.45c-.226.54-.448 1.07-.688 1.448l.337.215c.263-.415.499-.98.72-1.509l-.37-.154zm.005-.012l.358.178-.358-.178zm2.224-1.078c-.195-.39-.4-.657-.633-.765a.539.539 0 00-.382-.032.757.757 0 00-.315.195c-.175.172-.33.435-.473.723-.144.292-.286.632-.427.969l.37.154c.142-.34.278-.667.416-.946.14-.282.27-.492.394-.614a.38.38 0 01.145-.097.14.14 0 01.104.011c.1.047.253.2.444.581l.358-.179zm.937 1.975a42.638 42.638 0 00-.937-1.975l-.357.18c.466.924.742 1.541.929 1.958l.365-.163zm-.001-.002l-.363.167.363-.167zm.004.01l-.371.148.371-.149zm.396.724c-.028-.015-.067-.048-.132-.165a8.218 8.218 0 01-.267-.567l-.365.163c.119.266.206.462.283.6.078.14.162.25.287.319l.194-.35zm.303.052c-.195-.018-.258-.027-.303-.052l-.194.35c.136.075.298.086.461.1l.036-.398zm.517.062a6.77 6.77 0 00-.517-.062l-.036.398c.128.012.284.026.49.059l.063-.395zm.977.122c-.333-.035-.666-.07-.976-.122l-.065.395c.324.053.668.09.998.125l.043-.398zm2.224 1.017a.667.667 0 00-.239-.515 1.427 1.427 0 00-.529-.268c-.401-.122-.934-.178-1.456-.234l-.043.398c.536.057 1.026.11 1.383.219.178.054.303.117.381.185a.268.268 0 01.103.215h.4zm-2.815 2.99c.044-.029.12-.093.207-.17.092-.08.21-.188.344-.312.268-.249.603-.569.93-.894.328-.325.65-.657.891-.929.12-.135.224-.26.298-.362.037-.052.07-.102.094-.148a.387.387 0 00.051-.175h-.4c0-.033.011-.043-.005-.012a.91.91 0 01-.065.1c-.062.087-.155.2-.272.332-.233.263-.548.588-.873.91-.324.322-.656.639-.92.885a18.076 18.076 0 01-.448.4 1.493 1.493 0 01-.051.04l.219.335zm.48 1.938c-.11-.686-.237-1.478-.395-2.15l-.39.09c.155.657.28 1.434.39 2.123l.396-.063zm.013.078l-.012-.078-.395.063.012.078.395-.063zm.065.313a6.972 6.972 0 01-.065-.314l-.395.066c.016.095.042.212.07.334l.39-.086zm0 0l-.39.086.39-.087zm-.457 1.785a.547.547 0 00.48-.244c.095-.143.123-.323.127-.49.008-.338-.084-.75-.15-1.051l-.39.086c.069.316.147.676.14.955a.562.562 0 01-.06.28c-.023.035-.057.064-.147.064v.4zm-2.116-.953c.376.22.776.456 1.139.635.18.09.357.168.518.224.16.056.317.094.459.094v-.4c-.077 0-.186-.022-.328-.072a4.176 4.176 0 01-.472-.204c-.347-.172-.735-.4-1.114-.622l-.202.345zm-.01-.006l.222-.333-.222.333zm0 0l.222-.333-.222.333zm-1.394-.689a.505.505 0 01.172.04c.091.033.203.083.332.149.26.13.57.313.9.506l.202-.345c-.327-.192-.648-.38-.92-.518a3.367 3.367 0 00-.38-.169.855.855 0 00-.335-.062l.029.4zm-2.405 1.252l2.482-1.273-.183-.356-2.482 1.274.183.355zm-1.397-2.073c-.087.411-.17.807-.218 1.148-.047.335-.065.65 0 .886a.62.62 0 00.197.326.57.57 0 00.382.12c.27-.006.615-.15 1.049-.414l-.208-.341c-.428.26-.695.352-.85.355-.069.002-.102-.015-.12-.03-.02-.017-.045-.05-.065-.121-.041-.151-.036-.393.011-.725.046-.325.126-.706.214-1.122l-.392-.082zm.328-1.934c-.052.628-.194 1.303-.328 1.934l.392.082c.132-.625.28-1.325.335-1.983l-.399-.033zm22.873 39.968V27.97h-.4v26.772h.4zm.108.117a.396.396 0 01-.096-.009c-.014-.003-.01-.005-.003.002s.004.01 0-.007a.435.435 0 01-.009-.103h-.4c0 .129.016.28.123.39.108.11.26.127.385.127v-.4zm5.651 0H47.71v.4h5.651v-.4zm-.2-26.89v27.09h.4V27.97h-.4zm-5.759.2h5.96v-.4h-5.96v.4zm-1.14-.719v28.128h.4V27.45h-.4zm1.14-.727c-.223 0-.49.03-.709.125-.224.099-.432.287-.432.602h.4c0-.098.053-.174.193-.235a1.44 1.44 0 01.548-.092v-.4zm6.057 0h-6.057v.4h6.057v-.4zm1.148.727c0-.315-.207-.503-.433-.602-.22-.096-.488-.125-.715-.125v.4c.202 0 .408.027.555.092.141.061.193.137.193.235h.4zm0 28.128V27.45h-.4v28.128h.4zm-.622.622c.17 0 .327-.06.443-.174a.619.619 0 00.18-.448h-.4a.22.22 0 01-.06.163.224.224 0 01-.163.059v.4zm-7.11 0h7.11v-.4h-7.11v.4zm-.614-.622c0 .172.06.33.173.446a.608.608 0 00.44.176v-.4a.21.21 0 01-.155-.057.227.227 0 01-.058-.165h-.4zM24.928 36.944h5.96v-.4h-5.96v.4zm.2 18.103V36.744h-.4v18.303h.4zm5.76-.2h-5.96v.4h5.96v-.4zm-.2-18.103v18.303h.4V36.744h-.4zm-6.9-.624v19.446h.4V36.12h-.4zm.832-.622a1.12 1.12 0 00-.534.114.556.556 0 00-.298.508h.4c0-.083.031-.125.091-.158a.74.74 0 01.341-.064v-.4zm6.795 0h-6.794v.4h6.794v-.4zm.72.727c0-.192-.104-.37-.226-.495-.122-.124-.3-.232-.494-.232v.4c.05 0 .13.033.208.112.078.079.112.163.112.215h.4zm0 19.138V36.225h-.4v19.138h.4zm-.622.825c.241 0 .41-.122.507-.296.089-.16.115-.356.115-.529h-.4c0 .144-.023.26-.064.334-.034.06-.076.091-.159.091v.4zm-7.103 0h7.102v-.4H24.41v.4zm-.622-.622c0 .175.063.333.18.448a.623.623 0 00.442.174v-.4a.224.224 0 01-.162-.059.22.22 0 01-.06-.163h-.4zm18.374-15.981h-5.951v.4h5.951v-.4zm.2 15.469V39.785h-.4v15.269h.4zm-6.151.2h5.951v-.4h-5.951v.4zm-.2-15.469v15.269h.4V39.785h-.4zm-.646 15.585v-15.9h-.4v15.9h.4zm.213.425c-.076 0-.117-.03-.15-.09a.731.731 0 01-.063-.335h-.4c0 .173.025.368.112.527a.55.55 0 00.501.298v-.4zm7.11 0h-7.11v.4h7.11v-.4zm.32-.53a.75.75 0 01-.104.388c-.063.1-.137.142-.215.142v.4c.254 0 .44-.149.553-.327.112-.176.166-.397.166-.603h-.4zm0-15.585v15.585h.4V39.68h-.4zm-.046-.378c.025.106.046.193.046.378h.4c0-.23-.028-.35-.057-.47l-.389.092zm-.058-.333c.015.15.038.248.058.333l.39-.092a1.9 1.9 0 01-.05-.28l-.398.04zm-5.963.06c1.037-.013 2.37-.03 3.548-.021.588.004 1.136.016 1.586.038.456.023.797.055.982.098l.091-.39c-.225-.052-.6-.085-1.053-.107a40.826 40.826 0 00-1.603-.04c-1.182-.009-2.52.01-3.556.023l.005.4zm-.002.001v-.4.4zm0 0v-.4.4zm-1.36.014c.313 0 .794-.006 1.362-.014l-.005-.4c-.57.008-1.047.014-1.358.014v.4zm-.214.425c0-.144.023-.261.063-.335.033-.06.074-.09.15-.09v-.4a.548.548 0 00-.5.298 1.105 1.105 0 00-.113.527h.4zm-15.666 5.863h-5.96v.4h5.96v-.4zm.2 9.717v-9.517h-.4v9.517h.4zm-6.16.2h5.96v-.4h-5.96v.4zm-.2-9.717v9.517h.4v-9.517h-.4zm-.66 8.077a367.653 367.653 0 01-.026-5.297c.004-.886.015-1.705.038-2.356.023-.66.057-1.125.102-1.32l-.39-.09c-.055.24-.09.748-.112 1.396-.023.657-.034 1.48-.038 2.368-.009 1.776.011 3.815.026 5.303l.4-.004zm.014 1.756c0-.364-.006-.988-.014-1.756l-.4.004c.008.77.014 1.39.014 1.752h.4zm.222.425c-.083 0-.125-.032-.158-.091a.717.717 0 01-.064-.334h-.4c0 .173.025.369.114.528a.557.557 0 00.508.297v-.4zm7.103 0h-7.103v.4h7.103v-.4zm.221-.222a.22.22 0 01-.06.163.224.224 0 01-.162.059v.4c.17 0 .327-.06.443-.174a.619.619 0 00.18-.448h-.4zm0-10.66v10.66h.4v-10.66h-.4zm-.221-.223c.073 0 .127.026.161.06a.22.22 0 01.06.162h.4a.619.619 0 00-.179-.447.623.623 0 00-.442-.175v.4zm-1.031-.01c.464.006.83.01 1.03.01v-.4c-.197 0-.56-.004-1.025-.01l-.005.4zm-.001 0h.001l.005-.4h-.002l-.004.4zm.002 0v-.4.4zm0 0v-.4.4zm0 0v-.4.4zm-6.316.102a1.29 1.29 0 01.273-.046c.15-.016.344-.029.574-.04a45.89 45.89 0 011.694-.036c1.285-.008 2.764.009 3.773.02l.004-.4c-1.008-.011-2.49-.028-3.78-.02a46.49 46.49 0 00-1.709.037 9.92 9.92 0 00-.598.041 1.617 1.617 0 00-.378.072l.146.372zm1.918-30.513c.318 0 .748-.019 1.145-.079.199-.03.394-.07.565-.126a1.21 1.21 0 00.445-.238l-.273-.293a.832.832 0 01-.297.15 3.142 3.142 0 01-.5.112c-.37.056-.78.074-1.085.074v.4zm.652.197c-.225-.214-.404-.385-.486-.508l-.333.222c.114.17.335.378.544.577l.275-.29zm-.026-.02l-.222.332.222-.333zm.03.024l-.283.283.283-.283zm.906 1.27a.766.766 0 00-.1-.354 1.898 1.898 0 00-.222-.32c-.171-.205-.392-.414-.588-.6l-.275.29c.2.19.402.383.556.567.076.091.136.175.176.25.04.076.053.13.053.167h.4zm-.106.894a4.41 4.41 0 00.106-.894h-.4c0 .305-.047.55-.099.817l.393.077zm-.007.025l-.38-.127.38.127zm-.098.858c0-.343.05-.607.105-.883l-.393-.077a4.69 4.69 0 00-.112.96h.4zm.49-.563c-.29.175-.539.322-.735.368l.09.39c.272-.063.583-.253.852-.415l-.206-.343zm1.076-.44c-.182-.007-.372.061-.544.143-.175.083-.359.194-.531.297l.206.343c.177-.106.343-.206.497-.279.157-.075.275-.107.358-.105l.014-.4zm.923.388c-.167-.092-.337-.186-.487-.256-.143-.067-.301-.13-.438-.132l-.01.4a.863.863 0 01.278.094c.137.064.293.15.465.244l.192-.35zm.907.42c-.242-.056-.567-.233-.907-.42l-.192.35c.32.176.7.388 1.009.46l.09-.39zm-.379-.553c.068.277.129.527.134.752l.4-.009c-.006-.277-.08-.573-.145-.839l-.389.096zm.045-1.482c-.165.22-.2.48-.184.73.015.247.08.51.14.752l.388-.096a4.022 4.022 0 01-.129-.68c-.012-.2.02-.351.105-.466l-.32-.24zm.53-.53c-.181.155-.386.33-.532.534l.324.233c.114-.158.279-.3.47-.464l-.262-.304zm.612-.741c-.074.27-.31.481-.611.74l.26.304c.276-.238.624-.528.737-.938l-.386-.106zm-1.949-.21c.102.099.266.167.425.217.17.054.37.098.575.134.41.072.857.112 1.142.112v-.4a6.99 6.99 0 01-1.073-.106 4.174 4.174 0 01-.523-.121c-.156-.05-.239-.095-.267-.123l-.279.288zm-.768-1.679c.04.174.184.543.331.877.076.17.154.339.226.476.036.069.071.132.104.184a.81.81 0 00.105.14l.283-.282-.001-.002-.003-.003a2.467 2.467 0 01-.133-.222 7.798 7.798 0 01-.215-.452 6.53 6.53 0 01-.308-.808l-.39.092zm-.017.154h.211v-.4h-.21v.4zm-.667 1.545c.076-.07.16-.199.238-.33.082-.14.172-.31.256-.482.165-.335.326-.708.368-.887l-.39-.092c-.03.129-.17.463-.337.802a7.216 7.216 0 01-.242.456c-.08.137-.138.216-.164.24l.271.293zm-.792-1.11c-.179 0-.771.07-1.335.147-.286.04-.57.082-.803.12a4.596 4.596 0 00-.502.1l.123.38a4.61 4.61 0 01.444-.085c.227-.038.509-.08.793-.118.576-.08 1.135-.143 1.28-.143v-.4zm.328-1.034c-.195.373-.443.843-.523 1.19l.39.09c.066-.285.281-.701.487-1.094l-.354-.186zm.181-.354c-.051.105-.114.225-.181.354l.354.186c.067-.129.132-.253.187-.364l-.36-.176zm.143-.3c-.044.096-.088.194-.14.296l.355.183c.058-.113.106-.22.15-.315l-.365-.165zm0 0l.365.163-.366-.162zm.973-.918c-.298.07-.502.19-.654.363-.145.163-.233.364-.32.554l.365.165c.092-.204.158-.344.255-.454.089-.1.214-.185.445-.24l-.091-.389zm1.168 1.698a12.026 12.026 0 00-.429-.898c-.158-.288-.343-.566-.563-.757l-.262.302c.165.144.323.371.475.648.15.274.285.579.413.867l.366-.162zm-.004-.009l-.358.18.358-.18zm.01.027l-.379.126.38-.126zm.45.839c-.043-.036-.108-.126-.193-.29a10.74 10.74 0 01-.263-.567l-.366.162c.095.213.186.42.274.59.084.161.18.32.293.414l.255-.31zm1.18.23a9.146 9.146 0 01-.748-.085c-.224-.04-.365-.09-.434-.146l-.251.31c.154.126.387.189.616.23.236.041.513.066.782.09l.035-.399zm-.017 0v.4-.4zm1.845.857a.594.594 0 00-.213-.46 1.201 1.201 0 00-.453-.226c-.335-.098-.768-.136-1.162-.17l-.035.398c.407.036.796.071 1.084.156a.817.817 0 01.303.144.195.195 0 01.076.158h.4zm-2.134 2.287a.941.941 0 00.256-.13c.088-.06.188-.137.293-.224a9.137 9.137 0 001.289-1.33c.081-.107.151-.211.202-.306a.659.659 0 00.094-.297h-.4c0-.002-.003.03-.046.107a2.15 2.15 0 01-.17.256 8.762 8.762 0 01-1.224 1.262c-.099.082-.188.15-.26.199a.62.62 0 01-.14.076l.105.386zm.57 2.524c0-.846-.258-2.052-.428-2.764l-.39.093c.171.716.417 1.879.417 2.671h.4zm-2.408-.162c.433.244.981.555 1.424.692.215.066.451.108.646.036a.479.479 0 00.256-.215.7.7 0 00.081-.35h-.4a.31.31 0 01-.028.152.08.08 0 01-.047.038c-.062.023-.188.02-.39-.043-.392-.121-.898-.406-1.345-.659l-.197.349zm-.72-.368c-.008 0 .006 0 .055.018.043.017.099.042.167.077.137.069.306.164.498.273l.197-.349c-.19-.106-.368-.207-.515-.282a2.266 2.266 0 00-.205-.093.576.576 0 00-.197-.044v.4zm-1.067.51c.234-.139.454-.269.647-.365.202-.1.34-.145.42-.145v-.4c-.183 0-.397.087-.598.187-.21.104-.443.243-.673.38l.204.343zm-2.057-.64c-.077.42-.077.744.023.967.054.119.137.21.248.267a.64.64 0 00.338.058c.219-.016.466-.115.704-.233.242-.12.5-.274.744-.419l-.204-.343c-.247.146-.492.291-.718.404-.231.114-.419.182-.555.192a.247.247 0 01-.129-.017c-.02-.01-.043-.029-.063-.074-.047-.104-.07-.323.005-.73l-.393-.072zm.073-.45l-.074.452.395.067.075-.456-.396-.064zm.138-.809c-.052.278-.095.543-.138.808l.396.064c.042-.266.084-.526.135-.798l-.393-.074zm.058-.284c-.017.079-.038.173-.058.286l.394.07c.018-.104.038-.191.055-.27l-.39-.086zm0-.002l.39.09-.39-.09zm.006-.018l.38.126-.38-.126zm-.188-.597c.166.166.208.244.22.3.015.06.004.127-.038.317l.391.086c.036-.162.076-.327.037-.494-.04-.173-.154-.319-.327-.491l-.282.282zm-.466-.44c.17.158.331.305.466.44l.283-.282c-.142-.143-.31-.297-.48-.452l-.27.295zm0 .002l.269-.297-.269.296zm.002 0l.266-.298-.266.299zm-.705-2.222c-.264.087-.462.232-.52.463-.053.216.036.434.15.617.23.37.684.784 1.072 1.14l.27-.294c-.405-.372-.809-.745-1.003-1.058-.099-.159-.114-.255-.1-.307.009-.037.049-.113.255-.18l-.124-.38zm26.086 4.212c.143.085.292.174.435.248.141.073.288.138.428.169l.087-.39c-.089-.02-.2-.066-.331-.134a8.291 8.291 0 01-.414-.237l-.205.344zm-.842-.382c.07-.004.181.026.34.102.154.072.323.173.502.28l.205-.344c-.175-.104-.36-.215-.535-.298-.168-.08-.357-.149-.534-.14l.022.4zm-.739.34c.172-.092.33-.177.467-.24.145-.068.234-.097.276-.1l-.03-.399c-.124.01-.275.07-.415.136-.148.07-.318.16-.486.25l.188.353zm.009-.005l-.206-.343.206.343zm-1.027.463c.292-.068.686-.28 1.018-.458l-.188-.353c-.354.19-.693.368-.921.422l.091.39zm-.126-.892c-.05.239-.102.483-.119.68l.399.035a5.75 5.75 0 01.111-.632l-.39-.083zm.087-1.253c.05.085.07.245.047.49-.022.233-.078.498-.134.763l.392.083c.054-.26.116-.548.14-.81.024-.25.02-.527-.102-.73l-.343.204zm-.513-.51c.211.17.393.319.515.514l.339-.212c-.164-.262-.4-.45-.603-.613l-.251.312zm-.733-.937c.118.45.456.715.733.938l.25-.312c-.293-.236-.517-.424-.596-.727l-.387.101zm1.09-.334a4.868 4.868 0 01-.897.084v.4c.413 0 .662-.04.962-.09l-.064-.394zm.117-.02l-.116.02.064.394.116-.018-.064-.395zm.211-.027a7.424 7.424 0 00-.209.027l.06.396c.065-.01.13-.018.198-.027l-.049-.396zm0 0l.05.396-.05-.396zm.64-.203a.512.512 0 01-.244.134 2.668 2.668 0 01-.396.069l.05.396c.146-.018.308-.037.457-.08a.907.907 0 00.426-.247l-.293-.272zm.331-.63a5.5 5.5 0 01-.169.38c-.056.112-.11.195-.16.248l.29.276c.09-.096.164-.22.227-.345.064-.126.124-.267.181-.403l-.368-.155zm.613-.985a1.371 1.371 0 00-.365.45c-.094.17-.174.361-.248.536l.37.155c.074-.178.147-.35.229-.498a.985.985 0 01.251-.32l-.237-.323zm1.057 1.612a1.346 1.346 0 01-.164-.24 7.269 7.269 0 01-.242-.455c-.167-.34-.307-.673-.338-.802l-.389.092c.042.18.203.552.368.887.085.172.174.341.257.482.077.131.161.26.237.33l.271-.294zm1.883.337c-.306 0-.715-.018-1.086-.074a3.14 3.14 0 01-.499-.111.83.83 0 01-.297-.151l-.273.293c.117.108.278.183.445.238.171.056.366.097.565.126.397.06.827.079 1.145.079v-.4zm.141.402c.01-.03.024-.072.047-.134l-.376-.137-.05.143.38.128zm-.106.167a.233.233 0 00.084-.105.766.766 0 00.022-.062l-.379-.128-.009.027-.002.007s.004-.011.013-.024a.175.175 0 01.047-.047l.224.332zm-.06.028l.018-.006a.229.229 0 00.042-.022l-.224-.332a.175.175 0 01.032-.017l.005-.002.128.38zm-.111.095a.838.838 0 01.104-.09l.008-.005c-.002 0-.004.001 0 0l-.129-.379c-.059.02-.128.057-.262.187l.279.287zm-.145.133a6.87 6.87 0 00.142-.13l-.274-.292a6.483 6.483 0 01-.135.123l.267.298zm-.003.002l-.261-.303.261.303zm-.174.163c.072-.072.12-.115.177-.165l-.267-.299c-.058.052-.112.1-.193.181l.283.283zm-.656 1.368c-.066-.269-.088-.379-.03-.527.065-.17.243-.4.686-.84l-.283-.284c-.435.433-.675.72-.776.98-.11.282-.047.514.015.767l.388-.096zm.163 1.29c0-.631-.095-1.014-.163-1.29l-.388.096c.065.263.15.61.15 1.194h.4zm-4.371-1.839a8.762 8.762 0 01-1.157-.959 4.596 4.596 0 01-.538-.617c-.141-.204-.202-.358-.202-.455h-.4c0 .227.123.467.273.683.156.224.365.457.586.674.44.435.947.83 1.218 1.009l.22-.335zm1 2.626c-.413.205-.726.36-.96.43a.611.611 0 01-.242.037c-.038-.006-.056-.018-.073-.043a.522.522 0 01-.061-.242 2.962 2.962 0 01.022-.548c.053-.469.184-1.132.399-2.047l-.39-.091c-.215.916-.35 1.599-.407 2.094a3.341 3.341 0 00-.023.624c.013.167.05.317.129.434a.488.488 0 00.35.215.991.991 0 00.41-.05c.276-.082.625-.257 1.024-.455l-.179-.358zm.05-.025l-.05.025.178.358.05-.025-.178-.358zm.707-.382c-.171.098-.393.225-.707.382l.178.358c.325-.162.555-.294.728-.393l-.2-.347zm.608-.253a.795.795 0 00-.292.082c-.092.042-.196.102-.316.17l.199.348c.126-.073.213-.122.285-.156a.406.406 0 01.147-.045l-.023-.4zm.831.308c-.189-.1-.337-.179-.46-.23a.82.82 0 00-.371-.078l.023.4a.437.437 0 01.193.047c.103.043.233.111.428.215l.187-.354zm.506.262c-.202-.101-.367-.189-.506-.262l-.187.354c.14.073.307.162.512.265l.18-.357zm.44.253a4.856 4.856 0 00-.442-.253l-.177.358c.15.074.278.154.408.235l.211-.34zm.864.318c-.345 0-.563-.131-.864-.318l-.21.34c.298.185.603.378 1.074.378v-.4zm.008-1.528c.096.44.186.858.186 1.166 0 .155-.024.25-.056.3-.021.035-.052.062-.138.062v.4a.533.533 0 00.477-.25c.091-.146.117-.332.117-.512 0-.361-.103-.829-.196-1.251l-.39.085zm-.105-1.52a.777.777 0 00-.075.321c-.005.112.004.235.02.363.032.254.097.549.16.836l.39-.085a9.68 9.68 0 01-.153-.801 1.782 1.782 0 01-.017-.294.396.396 0 01.03-.156l-.355-.184zm.724-.756c-.156.139-.306.274-.43.396-.12.12-.23.242-.293.358l.353.189a1.32 1.32 0 01.222-.263c.115-.113.257-.241.415-.383l-.267-.297zm1.165-1.379c-.043.188-.193.413-.418.662a10.29 10.29 0 01-.747.716l.267.298c.252-.226.539-.483.777-.746.233-.258.443-.547.51-.84l-.39-.09zm-.831-.228c.246.025.377.04.492.087.107.044.215.124.383.317l.302-.262c-.186-.214-.343-.346-.532-.425-.18-.074-.377-.092-.605-.115l-.04.398zm-.362-.04c.14.018.259.03.362.04l.04-.398c-.103-.01-.218-.022-.35-.039l-.052.397zm-.495-.08c.168.029.335.057.493.08l.056-.396c-.151-.022-.312-.05-.481-.078l-.068.394zm-1.15-.137c.344 0 .748.068 1.15.137l.068-.394c-.394-.068-.833-.143-1.218-.143v.4zm-.654-1.185c.194.37.394.754.46 1.03l.389-.091c-.08-.338-.31-.774-.494-1.125l-.355.186zm-.182-.355c.054.11.117.23.182.355l.355-.186a14.855 14.855 0 01-.178-.345l-.359.176zm-.147-.318c.044.099.091.207.148.32l.358-.18a6.888 6.888 0 01-.14-.301l-.366.161zm-.732-.76c.23.054.363.145.46.26.104.124.176.283.272.5l.366-.161c-.09-.205-.184-.42-.333-.597a1.189 1.189 0 00-.675-.392l-.09.39zm-.736 1.515c.13-.293.271-.61.427-.893.157-.287.319-.522.485-.665l-.261-.303c-.222.19-.412.478-.575.776-.165.3-.312.632-.441.922l.365.163zm-.477.894a1.62 1.62 0 00.237-.373c.075-.15.156-.332.24-.521l-.365-.163a12.85 12.85 0 01-.233.504 1.3 1.3 0 01-.169.278l.29.275zm-1.34.38c.217-.018.475-.039.708-.087.226-.047.47-.127.63-.291l-.286-.279c-.071.073-.213.134-.425.178a5.7 5.7 0 01-.66.08l.034.399zm-.312.03a8.5 8.5 0 01.313-.03l-.033-.399c-.117.01-.231.02-.33.032l.05.397zm-.164.02l.166-.02-.054-.397-.16.02.048.397zm-1.113.309c0-.004 0-.007.005-.014a.168.168 0 01.046-.043.926.926 0 01.27-.116c.244-.07.55-.107.792-.136l-.048-.397c-.234.028-.573.068-.854.15-.14.04-.282.094-.393.173a.47.47 0 00-.218.383h.4z" fill="#fff" mask="url(#a)"/></g><defs><filter id="filter0_d_113_3144" x=".8" y=".8" width="59.808" height="71.4" filterUnits="userSpaceOnUse" color-interpolation-filters="sRGB"><feFlood flood-opacity="0" result="BackgroundImageFix"/><feColorMatrix in="SourceAlpha" values="0 0 0 0 0 0 0 0 0 0 0 0 0 0 0 0 0 0 127 0" result="hardAlpha"/><feOffset dy="10"/><feGaussianBlur stdDeviation="3"/><feComposite in2="hardAlpha" operator="out"/><feColorMatrix values="0 0 0 0 0 0 0 0 0 0 0 0 0 0 0 0 0 0 0.1 0"/><feBlend in2="BackgroundImageFix" result="effect1_dropShadow_113_3144"/><feBlend in="SourceGraphic" in2="effect1_dropShadow_113_3144" result="shape"/></filter></defs></svg>