<svg width="68" height="71" fill="none" xmlns="http://www.w3.org/2000/svg"><g filter="url(#filter0_d_113_3132)" fill-rule="evenodd" clip-rule="evenodd" fill="#fff"><path d="M7.521 21.184h52.036v5.907H7.521v-5.907zm26.151-5.359c-1.386 0-2.679-1.206-2.679-2.28V8.72c0-1.426 2.358-3.299 4.45-1.638.368.29.909 1.042.909 1.638v4.56c0 1.394-1.3 2.545-2.68 2.545zM47.053 4.262c.494.728 1.183 1.136 1.716 1.825l3.377 3.596c.595.643 1.37 1.434 1.37 2.249a2.037 2.037 0 01-2.318 2.06C50.062 13.82 49.2 12.504 48 11.556c-.25-.204-.383-.36-.619-.596-.47-.478-.681-.642-1.198-1.073-.415-.353-.752-.752-1.144-1.136-.29-.29-.368-.313-.658-.548-.282-.228-.353-.36-.65-.557l3.321-3.384zm-29.34 9.017c-1.268 0-1.26-.125-2.248-1.112-2.248-2.257-1.018-2.93 1.215-5.163.932-.94 5.108-5.531 6.134-5.531 1.677 0 3.353 1.669 3.353 3.353 0 .964-3.157 3.753-3.925 4.528l-2.076 2.076c-.517.517-1.614 1.85-2.452 1.85zm24.843-6.541c-1.55-.44-2.295-2.915-.916-4.403 1.441-1.544 4.129-.886 4.505.752l-3.589 3.65zM12.889 9.793c0 2.162.18 1.606 1.073 2.946-.838.564-2.17 2.256-3.008 2.89-1.238.94-.885 1.34-.885 4.082-1.238 0-2.696-.14-3.886.133-.306 1.324-.134 6.346-.134 8.046 0 .909 1.473.674 2.413.674v25.885c0 .587 1.473 1.104 1.473-.674V28.564h47.21v25.21c0 1.78 1.473 1.262 1.473.675V28.564c.94 0 2.413.235 2.413-.674 0-1.7.172-6.722-.133-8.046-1.191-.274-2.648-.133-3.886-.133 0-3 .266-2.538-.572-3.455-.29-.313-.345-.478-.666-.807-.486-.485-.901-1.002-1.45-1.37 1.857-3.51-.705-4.584-2.162-6.417l-3.486-3.753c-.533-.666-.885-.87-1.277-1.676-1.23-2.507-4.748-2.97-6.722-.995-.22.211-.736.963-.877 1.269-.87 1.833-.141 4.262 1.708 5.35.987.588.423-.085 1.653 1.16.556.557 1.003.862 1.543 1.41l2.914 2.711c1.67 1.27 1.583 2.28 4.16 2.28.737 0 .894-.266 1.473-.4.408.267 2.28 2.218 2.28 2.547v2.146H34.213v-2.546c1.833-.04 3.62-1.95 3.62-3.886V8.986c0-3.283-4.255-5.421-6.942-2.922-.595.556-1.379 1.574-1.379 2.656v4.826c0 1.582 1.567 3.235 3.22 3.619v2.546H11.548v-2.413c0-.517 2.899-2.945 3.353-3.62.408.275.415.408.933.674 2.906 1.505 4.841-1.425 7.348-3.925.854-.861 1.622-1.621 2.476-2.483 1.332-1.324 1.982-1.716 1.982-3.65C27.64 2.992 25.532 0 22.814 0c-1.395 0-2.248 1.105-2.985 1.841l-4.967 4.967c-.72.72-1.974 1.669-1.974 2.985z"/><path d="M26.433 50.688c0 1.802-.807 2.444-.407 4.16 1.606.368 1.143-.165 1.739-3.095.11-.556.313-1.316.094-1.684l-3.205-3.236c-.705-.705-1.927-1.7-2.248-2.178l6.244-.861c2.303-.36 1.504-.282 3.322-3.925.384-.752 1.41-2.57 1.567-3.26.548.4 2.875 5.673 3.259 6.401.462.893 2.005.815 3.752 1.066l4.254.58c-.846 1.26-3.917 3.72-5.139 5.053-.478.524-.36.908-.227 1.653.211 1.198.407 2.358.674 3.486 2.272.533.908-1.434.666-4.293.877-.462 3.784-3.565 4.865-4.662.235-.243 2.953-2.107.415-2.491l-7.396-1.058c-.979-.14-.595-.156-1.903-2.78l-2.468-4.92c-.948-1.34-1.645.665-1.826 1.025l-2.46 4.92c-.94 1.873-.454 1.63-1.927 1.826-2.1.282-4.348.61-6.55.956-2.702.423-.994 1.488 1.113 3.596.447.446 3.792 3.47 3.792 3.72z"/></g><defs><filter id="filter0_d_113_3132" x="0" y="0" width="67.078" height="71" filterUnits="userSpaceOnUse" color-interpolation-filters="sRGB"><feFlood flood-opacity="0" result="BackgroundImageFix"/><feColorMatrix in="SourceAlpha" values="0 0 0 0 0 0 0 0 0 0 0 0 0 0 0 0 0 0 127 0" result="hardAlpha"/><feOffset dy="10"/><feGaussianBlur stdDeviation="3"/><feComposite in2="hardAlpha" operator="out"/><feColorMatrix values="0 0 0 0 0 0 0 0 0 0 0 0 0 0 0 0 0 0 0.1 0"/><feBlend in2="BackgroundImageFix" result="effect1_dropShadow_113_3132"/><feBlend in="SourceGraphic" in2="effect1_dropShadow_113_3132" result="shape"/></filter></defs></svg>