<svg width="237" height="254" viewBox="0 0 237 254" fill="none" xmlns="http://www.w3.org/2000/svg">
<path d="M236.468 245.725C237.028 246.051 237.028 246.866 236.468 247.192L224.832 253.968C224.272 254.294 223.572 253.886 223.572 253.234L223.572 239.683C223.572 239.03 224.272 238.623 224.832 238.949L236.468 245.725Z" fill="#3E8BF3"/>
<path d="M0 19.3842C0 12.9418 0.264934 6.56126 0.784501 0.25293H6.05469C5.52296 6.55945 5.2517 12.9401 5.2517 19.3842C5.2517 142.354 104.033 242.252 226.573 244.057V249.309C101.132 247.504 0 145.254 0 19.3842Z" fill="url(#paint0_linear_76_4117)"/>
<defs>
<linearGradient id="paint0_linear_76_4117" x1="230.7" y1="261.337" x2="-51.3916" y2="110.539" gradientUnits="userSpaceOnUse">
<stop stop-color="#3E8BF3"/>
<stop offset="1" stop-color="#3E8BF3" stop-opacity="0"/>
</linearGradient>
</defs>
</svg>
