<svg width="14" height="14" viewBox="0 0 14 14" fill="none" xmlns="http://www.w3.org/2000/svg">
<path d="M4.17855 5.40906H11.8573V6.77271C11.8573 6.83428 11.8749 6.88746 11.9102 6.93251C11.9456 6.97754 11.9875 7 12.0358 7C12.0879 7 12.1307 6.97873 12.1641 6.93609L13.9499 4.66337C13.9833 4.62076 14 4.56628 14 4.50006C14 4.43372 13.9833 4.37921 13.9498 4.3367L12.1697 2.07105C12.1251 2.02363 12.0804 2 12.0357 2C11.9837 2 11.9408 2.02129 11.9074 2.06388C11.874 2.10654 11.8573 2.16092 11.8573 2.22724V3.59089H4.17855C4.13019 3.59089 4.08835 3.61336 4.05301 3.65836C4.01767 3.70336 4 3.75659 4 3.81814V5.18179C4 5.24333 4.01765 5.29659 4.05301 5.34157C4.08837 5.38654 4.13019 5.40906 4.17855 5.40906Z" fill="black"/>
<path d="M9.82147 8.59102H2.14282V7.22725C2.14282 7.16571 2.12513 7.11244 2.08982 7.06747C2.05446 7.02246 2.01259 7 1.96426 7C1.91213 7 1.86938 7.02129 1.8359 7.06388L0.0501931 9.33658C0.0167897 9.37932 0 9.43365 0 9.50007C0 9.56155 0.0167115 9.61371 0.0501931 9.65618L1.83035 11.9291C1.87501 11.9764 1.91965 12 1.96431 12C2.01265 12 2.05452 11.9775 2.08985 11.9327C2.12517 11.8876 2.14286 11.8344 2.14286 11.7728V10.4091H9.82147C9.8699 10.4091 9.91163 10.3867 9.94709 10.3417C9.98241 10.2966 10 10.2435 10 10.1818V8.81814C10 8.75657 9.98235 8.70338 9.94709 8.65843C9.91163 8.61348 9.86988 8.59102 9.82147 8.59102Z" fill="black"/>
</svg>
