<svg width="458" height="183" viewBox="0 0 458 183" fill="none" xmlns="http://www.w3.org/2000/svg">
<path d="M444.218 66.3633C444.014 66.4353 443.888 66.5312 443.882 66.6572C443.84 67.323 444.668 67.365 445.166 68.1268C445.664 68.8826 444.5 69.3085 444.752 70.1602C444.998 71.012 443.51 69.7344 442.976 69.2605C442.442 68.7866 442.688 66.9391 442.85 65.9974C442.862 65.9194 442.856 65.8654 442.85 65.7994C441.909 65.3316 441.249 64.3778 441.003 63.3581C440.973 63.3341 440.943 63.3101 440.913 63.2861C440.025 63.1302 439.113 63.0762 438.364 62.9862C436.234 62.7343 433.991 62.6863 431.933 62.0205C429.702 61.2947 429.378 58.8594 430.284 57.2758C429.36 56.9699 428.352 56.622 427.8 55.9682C426.721 54.6905 422.012 52.4232 419.985 52.2792C418.395 52.1652 418.329 51.3615 417.897 51.1095C417.621 51.2655 417.303 51.3855 416.931 51.4514C412.967 52.1832 408.93 52.7531 405.091 51.1395C404.263 50.7916 403.555 50.2098 403.165 49.466C402.506 49.334 401.996 49.322 401.834 49.538C401.258 50.2938 401.504 51.3855 400.928 51.5714C400.352 51.7574 400.928 52.7051 402.296 54.1267C403.657 55.5483 402.829 56.634 401.594 57.2518C400.352 57.8637 398.367 56.682 397.749 55.5963C397.137 54.5286 395.493 54.9605 395.044 53.6288C392.02 55.1464 388.445 54.8945 385.26 53.7788C383.845 53.2809 382.237 52.7591 380.708 52.0813C378.68 52.2192 376.551 52.5131 376.167 52.8071C375.423 53.3769 375.963 55.5963 375.591 55.7882C375.219 55.9742 374.847 53.2329 374.847 52.7111C374.847 52.1892 373.977 51.8113 372.694 51.8113C371.41 51.8113 370.666 51.7633 371.206 51.1455C371.746 50.5337 370.708 49.9159 371.704 49.1121C371.95 48.9141 371.962 48.6082 371.8 48.2423C369.881 47.1926 368.153 46.7367 365.904 46.4488C362.545 46.0169 359.204 45.4951 355.904 44.7873C354.141 45.1352 351.424 44.9972 350.038 45.0392C348.467 45.0872 349.75 44.3314 349.294 43.4797C349.186 43.2817 348.958 43.0718 348.665 42.8738C348.215 42.7299 347.759 42.5919 347.309 42.4359C347.033 42.34 346.793 42.22 346.577 42.076C346.193 42.0341 345.887 42.088 345.779 42.298C345.407 43.0058 344.706 42.298 344.706 41.7761C344.706 41.2543 342.18 40.2166 341.191 40.4505C340.195 40.6844 339.745 39.4068 340.903 39.4068C342.06 39.4068 344.022 39.6887 343.188 38.1951C342.456 38.2671 341.718 38.2131 340.981 38.0872C340.261 38.4111 339.217 38.8909 338.875 39.0169C336.764 39.8027 335.354 38.1831 335.198 36.4016C334.676 36.4016 334.304 36.4256 334.167 36.4796C333.465 36.7615 334.125 37.8472 332.511 39.6047C330.897 41.3562 329.326 40.1746 329.536 39.3228C329.746 38.471 331.725 38.615 331.725 37.7632C331.725 36.9115 328.996 37.3854 328.582 36.6715C328.45 36.4496 328.474 36.2517 328.576 36.0957C327.173 36.1977 326.183 35.19 325.841 33.9423C324.605 33.7324 323.388 33.5944 322.506 33.6964C320.4 33.9303 319.447 32.7966 318.289 32.7007C317.131 32.6047 317.131 33.4085 317.671 34.1642C318.205 34.92 316.555 35.3939 315.188 35.16C314.888 35.106 314.558 35.124 314.228 35.19C314.264 35.4239 314.312 35.6578 314.378 35.9098C314.486 36.3176 314.57 36.7255 314.624 37.1334C314.702 37.1334 314.78 37.1514 314.852 37.1934C315.086 37.3254 314.936 37.5113 314.69 37.7213C314.732 38.2731 314.708 38.8129 314.6 39.3168C315.026 39.8746 314.942 40.6304 314.972 41.0743C315.002 41.5122 313.988 41.7821 313.244 41.4822C312.932 41.7221 312.561 41.9321 312.123 42.1C311.535 42.328 310.941 42.388 310.347 42.358C310.293 42.5859 309.963 42.7898 309.267 42.8738C308.38 42.9758 308.092 42.4659 307.858 42.0101C307.366 42.6339 306.61 43.0478 305.572 43.0238C304.313 42.9938 303.071 42.8798 301.836 42.7179C300.72 42.9038 299.556 42.9038 298.207 42.4479C297.835 42.322 297.493 42.16 297.157 41.9861C296.863 41.9381 296.569 41.8841 296.275 41.8361C295.171 41.6502 294.092 41.5902 293.036 41.4942C292.808 42.286 292.616 42.9878 292.19 43.0658C291.446 43.2097 291.159 45.0512 290.415 45.5251C289.671 45.999 289.629 44.8173 288.675 44.9073C287.721 45.0032 284.668 41.5962 284.5 40.6005C284.338 39.6047 282.437 37.7153 281.939 37.3374C281.441 36.9595 282.431 36.7675 283.055 37.3853C283.673 37.9972 284.458 37.9972 285.082 37.6193C285.304 37.4813 285.436 37.1634 285.466 36.8095C284.71 36.3176 284.02 35.6938 283.397 34.968C282.761 34.2302 282.239 33.5104 281.735 32.8146C281.471 32.5207 281.225 32.2148 280.979 31.9089C279.894 32.9466 278.142 33.3125 276.733 32.0048C274.501 29.9294 271.262 29.4136 268.155 29.0057C268.179 29.1136 268.203 29.2216 268.251 29.3356C268.749 30.5652 268.293 30.7572 268.209 31.7469C268.125 32.7426 267.633 32.3168 266.553 31.8909C265.48 31.465 265.48 32.9346 263.164 32.2688C263.008 32.2208 262.852 32.1848 262.708 32.1548C262.414 32.2508 262.115 32.2988 261.809 32.2928C260.573 32.2628 259.415 31.9509 258.252 31.561C258.168 31.531 258.09 31.489 258.012 31.453C257.256 31.8489 254.527 31.519 254.275 30.6132C254.221 30.4153 254.221 30.2533 254.239 30.1094C253.279 29.7975 252.199 29.7255 251.234 29.5275C249.776 29.2276 248.372 28.6878 247.149 27.824C247.101 27.788 247.053 27.752 247.005 27.716C244.827 27.968 241.258 28.3759 240.707 28.6698C240.089 28.9997 241.288 30.2773 240.335 30.3733C239.387 30.4693 240.047 28.2919 239.879 27.2482C239.717 26.2045 238.265 26.0665 238.469 26.8703C238.673 27.674 236.196 27.956 235.578 27.3441C234.96 26.7323 233.964 25.9225 232.351 25.4547C230.737 24.9808 228.752 26.9662 229.208 27.5361C229.664 28.1059 230.863 27.68 230.899 28.0519C230.983 28.8317 227.468 28.5258 227.468 29.1856C227.468 29.8454 224.199 30.7452 223.209 30.8892C220.492 31.279 219.904 31.267 218.621 32.4967C217.337 33.7264 218.333 31.411 219.323 30.2713C220.312 29.1376 221.35 29.6115 221.926 28.7118C222.502 27.812 223.413 27.908 224.985 27.6201C226.556 27.3381 226.473 26.2944 227.216 25.9165C227.96 25.5386 229.778 24.7349 230.107 23.8831C230.437 23.0313 234.162 21.6097 234.906 21.6577C235.65 21.7057 235.818 19.9542 236.226 19.9542C236.634 19.9542 238.793 18.8685 239.615 18.4426C240.443 18.0167 240.856 17.117 240.898 16.5052C240.94 15.8933 239.783 15.9833 239.657 15.4135C239.531 14.8436 240.191 15.2275 241.06 14.8436C241.93 14.4657 241.06 13.1401 240.359 13.38C239.999 13.5 240.101 13.314 240.209 12.9901C239.429 12.7322 238.667 12.4083 237.977 11.9644C237.18 11.4486 236.7 10.6688 236.556 9.81702C233.982 9.43912 231.475 8.87528 228.95 8.23346C228.662 8.16148 228.41 8.05351 228.182 7.92754C227.39 7.95153 226.466 7.87955 226.053 7.74759C225.309 7.51365 224.277 8.0775 224.235 8.92926C224.193 9.78102 221.26 9.45112 220.72 9.30716C220.186 9.1632 222.748 6.75187 222.748 6.32599C222.748 5.90011 218.405 6.42196 218.159 5.94809C217.913 5.47422 215.801 5.33026 214.854 5.37825C213.9 5.42624 214.812 5.09633 215.681 5.00036C216.551 4.90438 217.337 4.05262 218.285 3.86667C219.239 3.67473 219.029 3.29683 218.615 2.63701C218.201 1.9772 217.205 2.30711 216.257 1.9772C215.31 1.64729 214.152 1.17342 213.324 1.12543C212.496 1.07745 211.585 1.5993 209.641 2.02518C207.698 2.45107 207.536 4.15459 206.54 4.67645C206.282 4.80841 205.982 5.04834 205.682 5.33026C206.048 6.41596 205.874 7.7116 205.148 8.58736C205.148 8.67133 205.154 8.74931 205.172 8.83329C205.286 9.39113 204.687 9.55309 203.871 9.44512C203.583 9.53509 203.271 9.58308 202.923 9.58308C202.443 9.58308 202.017 9.48711 201.651 9.32515C200.494 9.37914 199.318 9.58908 199.342 10.0629C199.384 10.8667 201.286 11.2446 201.16 11.6705C201.034 12.0964 199.714 11.6225 199.054 11.1966C198.394 10.7707 196.901 11.0047 196.613 11.8085C196.325 12.6122 195.167 12.4203 194.795 12.2343C194.495 12.0844 193.908 12.4143 193.368 12.4263C192.858 12.7802 192.276 12.9661 191.64 12.9961C191.052 13.0201 190.489 12.8162 189.997 12.4923C189.415 13.1701 188.557 13.62 187.675 13.62H186.398C186.398 13.62 186.446 13.6739 186.452 13.7039C186.494 14.0398 181.947 13.9859 181.821 14.5077C181.761 14.7596 181.371 14.8856 180.789 14.9576C177.628 18.2207 172.937 18.6646 168.667 20.0382C168.655 20.0382 168.637 20.0442 168.625 20.0502C169.176 20.1401 169.41 20.728 169.086 21.1779C168.715 21.6997 167.101 20.566 166.687 21.0339C166.273 21.5078 167.473 22.1196 168.217 22.0296C168.96 21.9336 169.374 22.5035 169.458 23.1213C169.542 23.7331 167.719 22.7434 167.353 23.2653C166.981 23.7871 167.641 24.0211 168.427 24.117C169.212 24.213 168.637 24.5429 169.338 25.2507C169.392 25.3047 169.434 25.3587 169.47 25.4067C169.896 25.9945 169.092 26.1985 169.17 26.7623C169.248 27.3801 168.385 27.6141 168.385 27.0442C168.385 26.4744 166.195 26.2884 165.739 26.9003C165.283 27.5181 164.954 27.992 164.414 27.4221C164.366 27.3681 164.3 27.3381 164.234 27.3081C163.874 27.4821 163.454 27.5901 162.974 27.6081C160.635 27.686 158.481 29.0297 156.16 29.3596C154.96 29.5275 153.773 29.2396 153.029 28.3759C152.003 28.8137 151.145 30.4513 152.093 31.537C153.047 32.6287 152.135 33.0965 152.135 33.8103C152.135 34.5241 154.618 35.9877 155.938 36.1257C157.264 36.2697 158.337 38.1111 157.552 39.2508C156.766 40.3845 154.367 38.9209 152.795 37.4993C151.223 36.0777 147.588 35.5139 146.389 35.6098C145.189 35.6998 145.891 34.3802 144.361 34.4222C142.832 34.4702 141.548 36.0357 142.58 36.0357C143.612 36.0357 144.277 35.9398 143.738 36.5096C143.198 37.0794 144.025 36.9355 145.267 37.5473C146.509 38.1651 144.235 39.0169 142.952 38.0212C141.668 37.0255 140.306 37.9732 139.935 38.729C139.563 39.4848 141.422 41.6622 143.654 42.0401C145.885 42.418 145.141 43.2217 146.179 43.6476C147.211 44.0735 146.467 44.5474 145.765 44.5953C145.057 44.6433 143.654 43.3657 142.538 42.7059C141.422 42.0461 138.405 42.9878 137.787 42.232C137.169 41.4762 138.201 40.7204 137.619 40.1506C137.043 39.5807 137.541 38.3031 138.285 36.9775C139.029 35.6518 138.159 33.3845 137.085 33.0006C136.012 32.6227 136.096 33.9003 136.342 34.2782C136.588 34.6561 136.468 36.4556 135.64 37.6373C134.812 38.819 132.293 38.819 132.293 39.6227C132.293 40.4265 130.601 41.0443 131.177 41.6082C131.759 42.178 134.032 45.1112 134.362 46.0109C134.692 46.9107 132.335 49.7479 132.707 51.4035C133.078 53.059 132.377 53.8148 132.833 54.6186C133.288 55.4223 134.32 54.7145 134.986 55.0444C135.646 55.3743 136.719 54.5706 138.249 54.2407C139.779 53.9108 142.592 55.7582 143.624 56.3221C144.655 56.8919 144.121 57.8337 144.655 58.7814C145.195 59.7291 143.414 59.7291 143.372 61.1507C143.33 62.5723 146.473 63.1842 146.599 63.6101C146.725 64.0359 144.367 63.706 143.456 63.3281C142.55 62.9502 142.466 61.5766 142.178 61.2947C141.89 61.0128 142.796 59.8731 142.88 58.9733C142.964 58.0736 141.848 57.5517 141.476 56.9399C141.104 56.3281 140.444 55.4283 139.701 55.6143C138.957 55.8062 136.228 56.0881 135.4 56.9399C134.572 57.7917 135.526 60.203 135.982 61.3847C136.438 62.5663 133.582 64.2219 133.666 65.1696C133.75 66.1174 132.797 66.5432 131.561 67.299C130.319 68.0548 128.958 68.6247 128.994 69.8543C129.036 71.084 127.344 70.4242 126.474 69.8543C125.605 69.2845 124.489 70.1842 123.247 70.1362C122.006 70.0883 122.006 68.9066 121.016 69.3325C120.026 69.7583 119.366 68.8166 119.654 67.9588C119.942 67.1071 121.058 67.7669 121.142 68.3847C121.226 68.9966 121.928 68.7146 122.755 68.1928C123.583 67.6709 123.169 68.8586 124.369 68.9486C125.569 69.0445 124.903 68.2408 125.815 68.3307C126.726 68.4267 126.762 68.0968 126.474 67.5749C126.186 67.0531 127.134 66.6752 127.716 66.3933C128.364 66.0754 128.046 65.0197 128.586 64.6898C129.12 64.3598 128.748 63.694 129.33 63.646C129.911 63.5981 130.157 62.6023 130.697 62.6023C131.237 62.6023 131.525 61.6066 131.195 61.0908C130.865 60.5689 131.405 59.1533 131.939 58.9613C132.473 58.7694 132.521 58.2056 132.023 57.7797C131.525 57.3538 129.707 55.9322 129.833 55.0384C129.959 54.1387 129.503 52.4831 129.749 51.7753C129.995 51.0675 129.791 49.5979 129.707 48.7462C129.623 47.8944 130.163 46.9467 130.415 45.3871C130.661 43.8276 128.97 42.172 128.142 41.7461C127.314 41.3203 127.854 40.4685 129.054 39.3348C130.253 38.2011 130.337 34.6501 130.253 33.8943C130.169 33.1385 127.728 32.4727 126.78 32.5687C126.21 32.6287 124.729 32.5807 123.445 32.4967C123.289 32.5447 123.127 32.5687 122.965 32.5807C123.127 33.2465 123.055 33.9963 122.641 34.7641C120.998 37.8112 120.248 41.2723 116.547 42.412C116.439 42.4479 116.325 42.4719 116.217 42.4899C115.689 43.3537 115.185 44.2294 114.664 45.0932C114.682 45.0992 114.694 45.0992 114.712 45.1112C115.167 45.3931 114.67 47.3846 114.382 47.6665C114.094 47.9484 114.922 48.6622 114.22 49.1781C113.518 49.6999 112.852 50.7856 113.266 51.3555C113.68 51.9253 115.707 52.2072 116.571 52.7771C117.441 53.3469 117.105 54.3846 117.771 55.3803C118.431 56.3761 119.132 55.7582 119.462 56.3761C119.792 56.9879 118.263 59.4532 117.723 59.5432C117.189 59.6392 114.994 57.0359 114.334 56.472C113.674 55.9022 111.107 55.0024 109.829 54.2467C108.569 53.5029 107.544 53.5748 106.176 52.5431C105.672 52.6631 105.162 52.7471 104.634 52.7771C103.129 52.873 101.665 52.6151 100.298 51.9553C99.7397 51.6854 99.1519 51.2115 98.558 50.7676C97.3104 50.5817 96.4226 50.3237 95.8588 50.4137C94.989 50.5577 95.325 49.418 93.7954 48.6622C92.2658 47.9064 91.2701 46.8627 90.4063 47.3846C89.5366 47.9004 89.8725 49.7959 91.1922 50.0298C92.5118 50.2698 91.8519 51.0735 93.2555 50.9776C94.6592 50.8816 95.073 51.4514 95.031 52.4412C94.989 53.4369 95.6908 54.4266 96.3147 55.0924C96.9325 55.7582 96.5606 56.8439 95.4449 56.8439C94.3293 56.8439 93.0516 57.0359 93.5434 57.9296C94.0413 58.8294 93.2136 59.0633 92.0979 58.5954C90.9822 58.1216 91.642 57.2218 92.0979 56.7C92.5538 56.1841 91.1021 55.5183 90.4003 55.2364C89.6985 54.9545 86.8854 57.3178 86.0996 57.6957C85.3138 58.0736 83.3703 57.1259 81.3848 57.6957C79.3994 58.2655 79.5254 60.065 78.7816 59.8731C78.0378 59.6871 75.8484 60.107 75.0206 59.5432C74.1928 58.9793 74.8587 58.6494 75.7224 58.6914C76.5922 58.7394 76.8801 58.4095 76.3822 57.7437C75.8844 57.0779 77.0481 56.0402 77.0001 55.5663C76.9581 55.0924 73.731 56.3221 73.1972 56.8439C72.6573 57.3658 73.2391 58.3135 72.6573 58.6434C72.0755 58.9733 72.0814 58.0736 71.4156 57.7917C70.7558 57.5098 65.9212 58.7874 65.0094 59.9691C64.0977 61.1507 62.3221 61.1987 62.3221 61.8645C62.3221 62.5304 60.1268 62.4764 59.263 62.9502C58.3933 63.4241 58.9751 65.3616 58.6452 66.3093C58.3153 67.257 54.9262 66.9691 53.8885 67.0171C52.8568 67.0651 52.4849 64.7437 51.6571 64.6058C50.8294 64.4618 51.3272 63.1422 51.5732 62.5723C51.8191 62.0025 52.4849 62.4764 53.5166 61.7206C54.5483 60.9588 55.586 62.0985 55.9999 61.5766C56.4138 61.0548 54.4284 59.6811 54.3084 58.4995C54.1824 57.3178 51.993 56.9879 50.7514 57.3658C50.1935 57.5337 49.6177 57.5577 49.0659 57.4918C48.9639 57.9476 48.7779 58.3735 48.502 58.7394C48.7119 59.2433 48.46 59.9151 48.598 60.3949C48.8079 61.1027 48.2681 62.7163 47.5243 63.946C46.7805 65.1756 47.3203 65.1276 48.436 65.0797C49.5517 65.0377 49.4677 66.6932 49.4677 67.9169C49.4677 69.1405 48.598 69.4764 48.598 70.3762C48.598 71.2759 47.6863 69.9503 47.3983 70.3282C47.1104 70.7061 46.7385 70.1362 46.5765 69.3805C46.4086 68.6247 44.717 69.0505 43.7633 68.7626C42.8096 68.4807 42.4377 68.9546 41.9878 69.7583C41.532 70.5621 40.2063 70.892 39.5045 70.988C38.7247 71.096 37.5611 72.6435 36.8173 73.2134C36.0735 73.7832 35.9475 74.8689 36.9792 76.0026C38.0169 77.1363 38.2209 77.8981 38.1369 78.5099C38.0529 79.1277 35.2397 78.9358 34.7898 78.276C34.334 77.6162 32.5165 77.3762 31.8926 77.5202C31.2748 77.6641 29.5773 75.3908 28.7075 75.3428C27.8378 75.2948 27.2979 76.5245 27.01 77.1363C26.7221 77.7541 27.4239 77.9461 27.8377 78.9838C28.2516 80.0275 29.7812 80.0695 30.567 80.0695C31.3528 80.0695 31.0589 81.4431 30.8129 82.0069C30.567 82.5768 29.1154 83.0027 28.7075 82.3848C28.2936 81.773 26.5541 82.3848 26.5181 81.629C26.4761 80.8732 25.2345 79.7396 23.9568 79.9735C22.6732 80.2074 22.4272 79.2657 22.5112 78.126C22.5952 76.9923 21.8094 76.3325 21.8454 75.8107C21.8874 75.2888 21.2696 74.2511 21.9294 73.7292C22.5892 73.2074 22.0973 72.4036 22.1393 71.6958C22.1813 70.988 21.0237 69.8963 19.992 69.8963C18.9602 69.8963 19.1642 68.7146 18.3004 68.4747C17.4307 68.2408 15.6971 66.5792 15.5712 65.8714C15.4452 65.1636 14.1256 65.0616 14.5754 64.8277C15.0313 64.5938 16.0631 64.9237 16.8068 65.7754C17.5506 66.6272 18.7503 67.383 20.6938 67.6709C22.6372 67.9528 23.423 68.9966 25.5704 69.4224C27.7238 69.8483 29.0014 70.1302 32.1026 70.6521C35.2037 71.174 39.3365 67.575 40.2063 66.5792C40.9501 65.7275 40.2423 64.1199 40.0204 63.1962C38.7067 63.0522 37.5311 62.1585 36.5473 61.0308C36.4634 60.9348 36.3854 60.8568 36.3254 60.8028C36.1215 60.7848 35.8755 60.7549 35.8096 60.7489C34.4359 60.6529 33.1823 60.131 32.3125 59.0093C31.9226 58.5115 31.6467 57.9476 31.5207 57.3658C31.0709 57.0359 30.519 56.61 29.8112 56.0702C29.2594 55.9922 28.7075 55.7402 28.1917 55.2784C28.7135 55.7522 26.92 55.3504 26.6021 55.2784C25.9483 55.1344 25.3244 54.8825 24.7246 54.5826C23.8848 54.1687 23.0571 53.7248 22.2293 53.2869C22.1034 53.2689 21.9834 53.2089 21.8634 53.095C21.6775 52.993 21.4915 52.897 21.2996 52.7951C21.0237 52.6511 20.7597 52.4951 20.4958 52.3392C20.1959 52.3932 19.884 52.5431 19.62 52.7651C18.9542 53.3349 18.2944 52.2432 17.0528 52.5731C15.8111 52.903 15.1513 51.9613 15.4812 51.5354C15.8111 51.1095 17.6346 51.4874 17.5506 50.7796C17.4667 50.0718 16.8068 50.7796 15.6911 49.9279C14.5754 49.0761 13.9576 49.6459 13.7057 50.3537C13.4597 51.0615 12.59 50.8696 12.0082 50.2578C11.9542 50.1978 11.8882 50.1498 11.8162 50.1018C11.6243 51.2835 11.0125 51.4034 10.3946 51.2475C9.65083 51.0555 8.90701 52.4772 8.07924 52.4772C7.25147 52.4772 6.34573 53.5149 6.17778 54.3666C6.01583 55.2184 5.10409 54.7445 5.10409 55.3144C5.10409 55.8842 5.10409 56.448 4.69021 57.0179C4.27632 57.5877 4.69021 57.8697 5.10409 58.8174C5.51798 59.7651 6.4237 59.6692 6.83758 59.9511C7.25147 60.233 8.82303 61.7506 8.82303 62.3144C8.82303 62.8783 7.5814 64.2999 7.08954 64.6838C6.59168 65.0557 5.93186 66.0094 6.26177 66.5732C6.59168 67.1431 8.00127 69.5064 8.90701 71.4019C9.81876 73.2974 8.5771 72.4456 8.00126 73.2914C7.42542 74.1431 8.24719 75.1868 8.41515 75.7567C8.5831 76.3265 7.67137 76.2305 7.75535 76.6984C7.83932 77.1723 9.08099 77.3642 9.15897 77.7421C9.24295 78.12 8.3312 78.5939 8.74508 79.3497C9.15897 80.1115 10.1487 80.1055 10.2327 81.0532C10.3166 82.0009 8.41516 82.0909 8.49913 82.8527C8.58311 83.6085 10.9764 84.5562 12.0561 85.9718C13.1298 87.3934 13.0459 87.7713 12.7999 88.5271C12.3021 90.0507 9.32691 91.3643 8.6611 93.0679C8.00128 94.7714 5.51798 95.7131 4.36031 97.0447C3.88644 97.5846 3.41855 98.3104 3.02866 98.9882C3.52052 98.8443 3.91042 98.6763 4.19834 98.5083C4.85816 98.1244 5.31401 99.9719 5.97382 100.59C6.63364 101.208 7.9593 100.638 8.40918 101.208C8.86505 101.777 8.03728 101.819 7.08954 101.633C6.1358 101.448 5.88985 102.107 4.40226 102.671C3.29257 103.097 3.40055 103.547 3.02866 103.907C3.70047 105.023 2.80071 105.16 2.45881 106.006C2.08691 106.93 1.58906 107.074 1.52907 107.638C1.46909 108.208 1.65504 108.634 1.71502 109.485C1.775 110.337 1.90099 110.481 2.33287 111.189C2.76475 111.897 1.96094 111.897 1.58904 112.257C1.21715 112.61 1.46311 113.39 1.96097 113.96C2.45884 114.53 2.45881 115.238 2.27286 115.736C2.08691 116.233 2.70475 117.085 3.14263 117.583C3.57451 118.081 3.51452 119.431 3.88641 119.784C4.25831 120.138 4.69618 120.492 5.37399 120.282C6.0578 120.072 6.48968 120.426 6.80159 121.062C7.11351 121.698 7.6054 121.416 8.28921 121.062C8.96702 120.708 10.5206 121.698 10.8925 121.914C11.2644 122.124 11.0784 123.335 11.1384 124.115C11.1984 124.895 10.7665 125.891 11.4503 126.389C12.1341 126.886 11.9482 128.02 12.752 128.374C13.5617 128.728 13.8677 130.006 14.3655 130.15C14.8634 130.287 15.7931 131.145 15.9131 131.781C16.039 132.417 15.0433 132.987 14.4855 133.269C13.9276 133.551 12.8719 132.417 12.5 132.915C12.1281 133.413 12.626 134.336 12.9319 135.896C13.2438 137.456 13.4897 137.599 14.1136 137.599C14.7374 137.599 14.9833 137.102 15.4152 136.82C15.8471 136.538 16.8428 136.964 17.2747 136.748C17.7066 136.532 19.2602 136.466 19.5721 137.03C19.884 137.599 20.1899 138.949 19.944 139.441C19.698 139.939 20.2559 140.503 20.5678 141.216C20.8737 141.924 22.1813 141.57 22.6132 141.786C23.0451 142.002 24.0408 143.556 23.8549 144.27C23.6689 144.977 24.4727 145.121 24.9106 144.905C25.3424 144.69 25.7803 145.259 26.2722 145.613C26.7641 145.967 27.2019 145.829 27.6998 145.469C28.1977 145.115 29.0014 144.833 29.2474 145.325C29.4933 145.823 30.489 146.747 30.489 147.029C30.489 147.311 32.0426 147.029 32.7804 147.455C33.5242 147.881 34.334 147.665 35.1377 148.163C35.9415 148.66 36.6853 148.732 36.7513 149.296C36.8113 149.866 35.9475 150.358 35.9475 150.646C35.9475 150.934 36.6313 151.144 36.6313 151.57C36.6313 151.995 35.7615 151.995 35.6416 152.349C35.5156 152.703 36.1395 153.201 36.2594 153.555C36.3854 153.909 35.7616 155.115 35.7616 155.469C35.7616 155.822 33.9021 155.397 33.4702 155.397C33.0383 155.397 31.7307 157.028 31.2988 157.1C30.9269 157.16 31.1009 157.946 31.2388 158.618C32.5765 158.324 33.944 158.204 34.094 158.546C34.3399 159.116 31.1968 160.627 30.621 160.861C30.0391 161.095 31.7367 162.091 31.6947 162.661C31.6527 163.23 29.8772 163.368 30.0392 164.502C30.2071 165.636 29.4633 165.876 28.5096 165.876C27.5558 165.876 27.3099 166.535 27.7658 166.631C28.2216 166.727 28.1797 168.149 29.9552 168.665C31.7307 169.187 33.6321 171.076 35.1617 172.972C35.3777 173.236 35.6236 173.446 35.8875 173.625C36.3314 173.32 36.7153 173.104 36.9372 173.068C37.807 172.924 39.4205 173.493 40.2843 174.201C41.154 174.909 44.2552 174.057 44.6271 174.627C44.999 175.197 45.7428 175.905 46.3666 175.905C46.9904 175.905 47.6083 177.326 48.1001 176.901C48.598 176.475 50.4575 176.475 50.9553 176.475C51.4532 176.475 51.4532 176.901 51.945 176.901C52.4369 176.901 52.4429 179.03 52.8148 178.886C53.1867 178.742 54.5483 180.164 55.4181 180.308C56.2879 180.452 57.1516 182.149 57.5235 182.011C57.8954 181.867 58.5192 182.719 58.7651 182.011C59.0051 181.339 60.2287 181.663 60.5706 180.5C58.9991 178.298 57.3136 175.857 57.3616 174.915C57.4455 173.308 58.0213 172.264 56.2878 170.56C54.5543 168.857 56.4558 167.723 57.6975 165.924C58.8072 164.316 61.1645 163.614 62.6581 162.469C62.3581 162.229 62.0463 162.007 61.7463 161.857C60.6306 161.287 60.2587 160.723 61.1285 160.435C61.9982 160.153 61.6263 159.583 60.7566 158.45C59.8868 157.316 59.515 156.176 59.0171 156.176C58.5192 156.176 57.7754 156.038 57.0317 156.32C56.2879 156.602 56.4138 155.612 56.5338 154.617C56.6597 153.621 55.1722 153.765 54.9202 153.339C54.6743 152.913 55.2921 151.498 55.544 151.354C55.79 151.21 56.5338 150.784 56.5338 150.358C56.5338 149.932 55.1722 149.788 55.664 148.798C56.1619 147.803 57.1516 147.803 57.1516 146.813C57.1516 145.823 57.8954 144.965 58.7651 145.679C59.6349 146.387 60.0068 148.235 60.9965 147.809C61.9923 147.383 61.3684 146.387 61.2425 145.823C61.1165 145.253 60.8706 144.402 61.9862 144.12C63.1019 143.838 62.6101 142.56 63.4739 142.56C64.3376 142.56 65.9571 141.282 66.449 141.001C66.9469 140.719 68.0626 140.005 68.5545 140.293C69.0523 140.575 69.6701 141.288 70.042 140.293C70.4139 139.297 71.9015 139.723 72.0274 140.293C72.1534 140.863 74.5108 140.863 75.2545 141.426C75.9983 141.996 77.6119 143.13 77.6119 143.7C77.6119 144.27 78.3557 145.121 78.3557 144.126C78.3557 143.13 78.9735 143.418 79.9692 144.126C80.9649 144.833 82.3266 144.552 82.5726 143.844C82.8185 143.136 84.6779 142.284 85.3018 142.848C85.9196 143.418 86.1715 143.844 86.9153 142.992C87.6591 142.14 89.3986 142.284 89.6445 143.13C89.8905 143.982 90.7603 144.126 91.5041 144.126C92.2479 144.126 92.3738 145.403 92.8656 145.121C93.3635 144.839 93.2376 143.418 93.8614 143.562C94.4792 143.706 94.9771 144.558 95.9668 144.558C96.9565 144.558 97.7003 144.276 97.7003 143.424C97.7003 142.572 97.5804 141.15 96.9565 141.15C96.3327 141.15 95.7148 140.443 94.9711 140.443C94.2273 140.443 93.4835 139.021 94.2273 138.739C94.9711 138.457 96.2127 137.743 95.9608 137.036C95.7149 136.328 95.4689 134.906 96.4586 134.762C97.4544 134.618 99.5598 134.618 99.4339 134.192C99.3079 133.767 97.3284 133.485 96.9505 132.771C96.5786 132.063 96.4527 130.359 96.8246 130.072C97.1965 129.79 98.4381 130.216 99.1819 129.928C99.9257 129.646 101.539 130.353 102.529 129.502C103.519 128.65 105.63 128.506 106.746 128.506C107.861 128.506 108.731 127.654 109.601 127.51C110.471 127.366 112.948 126.94 113.572 126.659C114.196 126.377 117.543 125.807 117.663 125.099C117.789 124.391 120.452 123.821 121.136 124.175C121.82 124.529 122.689 124.817 123.307 124.529C123.925 124.247 125.233 125.027 125.107 125.807C124.981 126.587 125.665 127.438 125.605 128.074C125.539 128.716 124.921 128.926 125.293 129.424C125.665 129.922 127.338 129.568 127.836 128.926C128.334 128.284 128.892 129.208 128.892 129.706C128.892 130.204 129.695 130.557 129.695 129.916C129.695 129.274 130.691 129.706 130.997 130.132C131.309 130.557 132.485 129.634 132.485 130.347C132.485 131.061 130.745 131.625 131.489 132.405C132.233 133.185 132.665 131.481 133.594 131.835C134.524 132.189 135.766 130.629 136.636 130.413C137.505 130.198 138.435 129.28 139.179 128.782C139.923 128.284 141.536 128.428 141.038 128.998C140.54 129.568 139.983 130.629 141.848 131.409C143.708 132.189 145.819 136.31 146.995 138.361C148.176 140.419 149.292 144.114 149.91 144.114C150.528 144.114 150.72 142.266 151.523 142.056C152.327 141.84 152.825 143.616 153.695 143.832C154.564 144.042 155.74 144.612 156.424 144.33C157.108 144.048 158.655 143.052 159.213 143.412C159.771 143.766 160.515 143.766 161.013 145.115C161.505 146.465 162.254 146.747 162.746 146.747C163.238 146.747 163.346 147.383 163.346 147.953C163.346 148.522 164.258 149.278 164.75 149.278C165.242 149.278 166.567 149.086 166.981 148.804C167.395 148.522 167.893 148.241 167.971 148.9C168.055 149.56 168.799 150.604 169.296 150.604C169.794 150.604 170.784 151.078 170.868 150.604C170.952 150.13 172.272 149.848 172.769 149.752C173.267 149.656 175.001 149.278 175.331 148.426C175.661 147.575 177.064 147.575 177.484 147.005C177.898 146.435 179.056 146.153 179.302 145.583C179.548 145.013 181.035 145.109 181.203 144.636C181.365 144.162 182.607 144.066 183.189 144.258C183.764 144.45 186.662 145.109 187.075 145.013C187.489 144.917 187.573 146.717 187.981 146.813C188.395 146.909 189.883 148.235 190.297 147.857C190.71 147.479 191.7 147.095 192.528 147.665C193.356 148.235 194.184 148.99 194.513 148.33C194.843 147.665 196.583 147.383 196.829 147.005C197.075 146.627 197.327 145.493 196.907 145.109C196.493 144.731 196.085 143.22 195.917 142.458C195.749 141.702 196.907 141.51 197.075 140.851C197.237 140.191 198.232 140.095 198.562 139.717C198.892 139.339 198.976 138.487 199.558 138.679C200.134 138.871 201.375 139.339 201.621 139.627C201.867 139.909 202.779 140.101 203.355 140.101C203.931 140.101 204.843 140.671 205.424 141.049C206.006 141.426 207.824 141.426 208.154 141.996C208.484 142.56 208.07 144.174 208.483 144.743C208.897 145.313 209.887 146.537 210.217 146.255C210.547 145.973 212.118 147.203 212.7 147.107C213.276 147.011 214.188 145.973 214.686 145.973C215.184 145.973 216.755 145.499 217.247 145.595C217.739 145.691 219.562 146.447 219.814 146.255C220.06 146.063 221.716 146.351 221.962 146.921C222.208 147.485 224.277 147.485 224.277 148.151C224.277 148.816 225.435 149.188 225.765 149.95C226.095 150.706 228.824 150.238 229.322 150.706C229.82 151.18 232.957 151.084 233.041 150.706C233.119 150.328 236.1 150.136 236.676 149.662C237.257 149.188 238.823 149.38 238.907 148.714C238.991 148.049 240.479 147.581 241.138 147.011C241.798 146.441 244.444 146.537 244.611 147.203C244.773 147.869 246.345 148.055 247.011 147.773C247.671 147.491 249.41 147.869 249.656 148.528C249.902 149.188 251.887 149.572 252.385 149.38C252.883 149.188 254.449 147.869 255.031 147.773C255.612 147.677 256.434 147.017 256.272 146.351C256.11 145.685 257.43 143.796 257.598 143.04C257.76 142.284 258.923 140.203 259.331 140.011C259.745 139.825 260.657 138.967 260.573 138.403C260.489 137.833 260.243 136.13 259.745 136.13C259.247 136.13 258.342 136.226 259.499 134.426C260.657 132.627 262.726 133.101 263.056 133.101C263.386 133.101 266.031 132.345 267.189 132.723C268.347 133.101 269.091 132.537 270.332 133.293C271.574 134.048 273.313 133.767 273.721 134.426C274.135 135.092 275.791 135.656 275.539 136.796C275.293 137.929 276.451 137.27 276.864 139.729C277.278 142.188 278.268 142.38 278.52 143.514C278.766 144.647 280.092 146.735 279.93 147.395C279.762 148.055 279.6 149.098 281.003 149.194C282.413 149.29 283.403 150.52 283.733 150.328C284.063 150.136 285.718 150.802 286.546 151.75C287.374 152.697 288.615 152.223 288.531 153.267C288.447 154.305 289.197 155.157 289.107 156.008C289.023 156.86 290.679 157.43 291.836 157.238C292.994 157.046 293.822 157.712 294.32 156.572C294.818 155.439 296.467 155.912 297.049 155.439C297.625 154.965 299.364 154.395 299.28 156.098C299.196 157.802 300.192 158.18 299.364 158.75C298.536 159.319 298.123 161.779 297.877 162.816C297.625 163.854 296.389 164.142 296.221 165.276C296.053 166.409 294.895 166.505 294.895 167.357C294.895 168.209 293.246 168.023 292.412 167.357C291.59 166.691 290.763 168.587 290.097 168.587C289.431 168.587 289.515 170.194 289.683 170.86C289.851 171.52 289.437 172.372 289.851 173.511C290.073 174.123 289.935 175.281 290.049 176.571C291.057 175.737 291.968 175.119 292.376 175.119C293.408 175.119 294.446 177.152 295.603 177.2C296.761 177.248 302.009 173.23 302.051 172.57C302.093 171.91 305.153 168.545 306.598 166.799C308.044 165.048 309.945 162.493 310.695 160.507C311.151 159.283 313.178 156.908 313.67 155.966C314.168 155.019 314.498 154.923 315.41 152.703C316.315 150.478 316.315 144.66 316.609 144.282C316.897 143.904 316.735 142.908 317.149 142.296C317.563 141.684 317.353 140.833 318.181 140.023C319.009 139.219 318.841 138.511 318.637 137.893C318.433 137.282 318.679 135.908 318.469 135.482C318.265 135.056 318.301 134.87 318.799 134.534C319.297 134.204 318.469 133.353 317.767 132.975C317.065 132.597 316.154 132.267 316.07 131.367C315.986 130.467 314.792 129.382 313.874 129.472C313.568 129.502 313.172 129.448 312.788 129.388C312.447 129.706 312.027 129.94 311.547 130.042C311.529 130.467 311.283 130.755 310.947 130.653C310.491 130.509 310.281 130.935 309.747 131.883C309.213 132.831 307.306 132.921 308.176 132.027C309.046 131.127 307.888 131.079 308.05 130.138C308.104 129.85 308.2 129.562 308.29 129.316C308.104 129.232 307.918 129.142 307.744 129.052C307.024 129.736 306.952 130.959 306.232 131.133C305.447 131.319 305.692 128.578 305.902 127.87C305.908 127.84 305.914 127.816 305.914 127.792C305.836 127.72 305.758 127.642 305.68 127.57C305.183 127.51 303.977 127.876 302.717 127.774C300.978 127.63 301.434 126.257 302.837 125.411C303.611 124.943 303.881 124.493 304.091 124.121C304.235 122.706 305.285 121.47 307.03 121.392C307.066 121.392 307.408 121.32 307.774 121.242C307.468 120.186 307.702 118.987 308.212 118.057C309.255 116.149 311.385 114.278 313.088 112.94C315.158 111.315 316.315 109.125 318.247 107.416C320.508 105.406 323.514 104.873 326.405 105.364C326.441 105.37 326.483 105.382 326.519 105.388C328.504 105.304 330.825 105.82 331.329 106.396C331.347 106.414 331.365 106.426 331.383 106.444C332.439 106.318 333.459 105.754 334.49 105.526C336.14 105.154 337.832 105.304 339.193 106.114C339.655 106.096 340.057 105.856 340.387 105.119C340.969 103.841 343.698 104.081 344.316 104.597C344.94 105.119 345.431 105.826 346.427 105.071C347.417 104.315 347.417 106.066 348.371 106.204C349.324 106.348 348.7 107.29 347.873 107.2C347.045 107.104 346.013 107.674 346.967 108.292C347.921 108.903 349.036 107.722 349.78 107.818C349.876 107.83 349.972 107.842 350.08 107.854C350.854 106.774 352.06 106.624 353.121 107.05C353.841 106.858 354.135 107.776 354.699 107.206C355.359 106.54 356.846 106.354 357.596 106.402C358.34 106.45 357.722 105.406 356.48 105.406C355.239 105.406 355.281 104.651 356.27 102.707C357.26 100.77 359.162 99.726 360.361 98.5443C361.561 97.3627 362.431 97.9325 362.431 97.1707C362.431 96.4089 363.006 94.2855 363.918 94.2435C364.824 94.1955 367.097 94.6694 368.507 93.7697C369.911 92.8699 369.785 94.4355 370.366 94.6694C370.942 94.9033 371.728 93.2958 372.388 93.7697C373.054 94.2435 371.398 95.3772 371.026 96.7508C370.654 98.1244 371.896 97.6026 372.598 97.9805C373.3 98.3584 371.686 98.9282 371.854 99.3061C372.016 99.684 373.426 99.684 375.243 97.6026C377.061 95.5212 378.716 94.9513 379.874 95.0953C381.032 95.2393 380.366 93.9136 380.45 91.9702C380.534 90.0327 384.085 89.4629 385.248 90.0327C386.406 90.6025 386.322 91.1184 385.206 90.7885C384.091 90.4586 383.059 91.5923 383.101 93.1998C383.143 94.8074 382.105 95.3292 382.651 95.9471C383.185 96.5589 381.865 96.7028 381.823 97.3687C381.781 98.0285 381.823 98.5503 380.996 98.8322C380.174 99.1142 377.397 99.4441 377.319 100.674C377.235 101.909 375.747 102.047 375.045 103.559C374.343 105.077 371.656 105.97 369.881 109.005C368.105 112.035 365.292 112.035 365.292 112.598C365.292 113.162 363.348 113.12 362.689 113.216C362.029 113.312 363.306 115.154 361.735 117.097C361.627 117.229 361.531 117.373 361.423 117.517C361.477 117.751 361.507 117.991 361.501 118.255C362.749 118.807 363.672 120.096 363.252 121.818C361.939 127.21 361.345 132.651 361.123 138.193C361.123 138.217 361.117 138.235 361.117 138.259C361.231 139.681 361.189 141.246 361.567 141.702C362.143 142.41 361.939 143.592 362.311 144.018C362.683 144.444 364.212 142.122 365.244 141.132C366.282 140.137 365.946 139.807 366.654 139.285C367.355 138.763 367.067 136.586 367.271 136.022C367.475 135.452 368.759 135.17 369.173 134.558C369.425 134.18 369.929 134.18 370.408 134.174C370.804 133.875 371.146 133.569 371.446 133.233C371.362 132.651 371.11 131.907 370.99 131.385C370.954 131.223 370.99 131.055 371.062 130.875C370.259 129.682 370.235 127.936 371.368 126.874C372.718 125.609 374.289 124.505 376.005 123.815C376.191 122.688 376.863 121.914 377.696 121.494C377.984 121.104 378.278 120.816 378.518 120.738C379.388 120.456 379.844 121.446 380.666 120.594C381.493 119.742 379.922 118.369 379.34 118.465C378.764 118.561 378.554 116.053 379.916 114.872C381.283 113.69 380.744 113.45 379.832 113.168C378.926 112.886 378.758 113.264 378.056 113.312C377.355 113.36 376.653 111.657 377.726 110.001C378.8 108.346 379.832 108.532 380.084 107.164C380.33 105.79 381.817 103.847 382.189 103.139C382.561 102.431 384.049 103.139 384.63 102.995C385.206 102.851 385.002 104.273 385.704 103.559C386.406 102.851 387.564 100.488 388.517 100.488C389.057 100.488 389.093 101.058 389.063 101.735C389.729 101.717 390.389 101.879 390.917 102.245C391.151 102.029 391.403 101.807 391.697 101.579C393.514 100.158 397.485 100.302 398.685 100.962C399.087 101.184 399.38 101.508 399.614 101.837C401.21 100.974 402.625 99.69 404.053 98.6043C407.094 96.295 410.345 94.2435 413.998 93.5657C416.596 92.8879 419.937 90.9265 419.775 90.3146C419.613 89.6968 420.764 89.4149 420.89 90.0327C421.016 90.6445 422.006 90.4106 423.374 90.7405C424.735 91.0704 425.359 91.6882 426.433 90.4586C426.901 89.9247 426.937 89.5408 426.835 89.2049C426.427 89.073 425.995 88.989 425.527 88.911C424.262 88.7011 423.59 87.8013 423.404 86.7576C422.21 85.7319 421.178 84.5502 420.507 83.1286C419.931 81.905 420.123 80.3874 420.92 79.4157C420.788 79.3137 420.602 79.3197 420.315 79.5236C419.529 80.0935 418.209 79.8115 417.957 78.9598C417.705 78.108 419.487 77.4902 420.728 78.06C421.274 78.312 421.508 78.5579 421.652 78.7978C422.06 78.5639 422.54 78.4319 423.092 78.4499C423.464 77.7421 424.094 77.1783 424.915 77.0043C426.397 76.6864 427.866 76.5484 429.324 76.5245C429.372 76.1406 429.36 75.8646 429.906 75.5527C430.734 75.0789 430.11 74.0891 429.408 73.6633C428.706 73.2374 428.868 72.1037 429.612 72.1037C430.356 72.1037 430.152 71.108 430.644 71.06C431.142 71.012 431.22 71.4859 432.131 70.964C433.043 70.4422 432.173 71.7678 431.759 72.6675C431.346 73.5673 432.629 74.3231 432.749 74.8449C432.875 75.3668 434.651 75.5527 435.64 74.9409C436.636 74.3291 439.815 75.6967 440.025 76.5964C440.145 77.1123 440.349 77.6881 440.751 78.234C441.807 78.4979 442.856 78.7678 443.912 79.0318C445.262 79.3677 445.933 80.3394 446.059 81.4131C446.125 81.4071 446.197 81.3951 446.269 81.3771C447.013 81.1912 447.427 82.1329 447.961 81.5631C448.501 80.9932 448.789 81.893 449.49 81.1852C450.192 80.4774 447.961 80.0035 448.249 79.4337C448.537 78.8638 448.993 79.8595 449.61 79.8115C450.228 79.7636 449.443 78.3899 449.898 78.252C450.354 78.108 449.982 75.2708 449.484 75.0849C448.987 74.8989 449.401 73.9032 450.354 74.707C451.302 75.5107 452.796 75.4628 453.497 75.4628C454.199 75.4628 453.539 74.707 452.837 74.563C452.13 74.419 452.963 73.7592 453.455 74.2811C453.953 74.8029 454.901 75.0369 454.985 74.473C455.069 73.9032 455.567 72.6735 456.431 72.7215C456.502 72.7215 456.562 72.7215 456.628 72.7155C452.91 69.7943 448.549 68.0908 444.2 66.3693L444.218 66.3633ZM226.191 133.94C223.833 136.352 219.119 136.922 219.119 138.907C219.119 140.893 213.414 141.888 212.916 141.037C212.484 140.293 217.133 140.041 218.249 137.204C219.364 134.366 223.599 132.903 225.693 129.112C227.18 126.419 228.422 122.298 229.292 122.586C230.161 122.868 228.548 131.529 226.191 133.94Z" fill="#6FD6BD" stroke="white" stroke-width="0.992133" stroke-miterlimit="10"/>
</svg>
