<svg width="310" height="128" viewBox="0 0 310 128" fill="none" xmlns="http://www.w3.org/2000/svg">
<path d="M44 56H266" stroke="white" stroke-width="20"/>
<g filter="url(#filter0_dd_1156_775)">
<path d="M191.75 8H118.25C115.351 8 113 10.3943 113 13.3479V46.3168C113 85.7923 145.939 100.794 153.476 103.71C154.475 104.097 155.525 104.097 156.524 103.71C164.061 100.794 197 85.7923 197 46.3168V13.3479C197 10.3943 194.649 8 191.75 8Z" fill="white"/>
</g>
<path d="M169.583 34.25H140.416C139.266 34.25 138.333 35.1827 138.333 36.3333V49.1768C138.333 64.5549 151.404 70.3991 154.395 71.5351C154.791 71.6856 155.208 71.6856 155.604 71.5351C158.595 70.3991 171.666 64.5549 171.666 49.1768V36.3333C171.666 35.1827 170.734 34.25 169.583 34.25Z" stroke="#3E8BF3" stroke-width="4.16667" stroke-linecap="round" stroke-linejoin="round"/>
<rect x="153" y="35" width="4" height="37" fill="#3E8BF3"/>
<g filter="url(#filter1_dd_1156_775)">
<path d="M42.9933 79.125H42.9928C30.2262 79.125 19.8739 68.7702 19.875 56.0001L42.9933 79.125ZM42.9933 79.125C55.7667 79.1231 66.1202 68.7709 66.1202 56.0008M42.9933 79.125L66.1202 56.0008M66.1202 56.0008C66.1202 43.23 55.7675 32.875 42.996 32.875C30.2255 32.875 19.872 43.2274 19.875 55.9987L66.1202 56.0008Z" fill="#EAB300" stroke="white" stroke-width="6.25"/>
<path d="M42.9933 79.125H42.9928C30.2262 79.125 19.8739 68.7702 19.875 56.0001L42.9933 79.125ZM42.9933 79.125C55.7667 79.1231 66.1202 68.7709 66.1202 56.0008M42.9933 79.125L66.1202 56.0008M66.1202 56.0008C66.1202 43.23 55.7675 32.875 42.996 32.875C30.2255 32.875 19.872 43.2274 19.875 55.9987L66.1202 56.0008Z" fill="#EAB300" stroke="white" stroke-width="6.25"/>
<path fill-rule="evenodd" clip-rule="evenodd" d="M50.8662 51.1018C50.6086 48.4233 48.2965 47.5257 45.3748 47.2697V43.5527H43.1139V47.1705C42.5202 47.1705 41.9122 47.1817 41.309 47.1945V43.5527H39.0481L39.0465 47.2665L39.0223 47.267C38.541 47.2764 38.0675 47.2857 37.6065 47.2857V47.2745L34.4879 47.2729V49.689C34.4879 49.689 36.1584 49.657 36.1296 49.6874C37.0464 49.6874 37.344 50.2186 37.4304 50.6778V54.9116C37.4944 54.9116 37.5761 54.9148 37.6689 54.9276H37.4304L37.4288 60.859C37.3888 61.147 37.2192 61.6063 36.5792 61.6079C36.608 61.6335 34.9359 61.6079 34.9359 61.6079L34.4863 64.3088H37.4304C37.7624 64.3088 38.0914 64.3123 38.4167 64.3158H38.4169L38.4177 64.3158C38.6284 64.3181 38.8375 64.3203 39.0449 64.3216L39.0465 68.0801H41.3058V64.3616C41.925 64.3744 42.525 64.3792 43.1123 64.3792L43.1107 68.0801H45.3716V64.3296C49.1733 64.112 51.8374 63.1535 52.167 59.5822C52.4342 56.7069 51.0822 55.422 48.9237 54.9036C50.2374 54.238 51.0582 53.0619 50.8662 51.1018ZM47.7012 59.1372C47.7012 61.7165 43.6448 61.6581 41.7946 61.6314H41.7945C41.6304 61.6291 41.4836 61.6269 41.3586 61.6269V56.6459C41.5149 56.6463 41.7051 56.642 41.9208 56.6371C43.8226 56.5944 47.7012 56.5074 47.7012 59.1372ZM41.7368 54.3733C43.2849 54.3977 46.6484 54.4509 46.6484 52.1115C46.6498 49.7172 43.4087 49.803 41.8242 49.8449C41.6456 49.8496 41.4881 49.8538 41.3586 49.8538V54.3692C41.4665 54.369 41.5939 54.371 41.7368 54.3733Z" fill="white"/>
<path d="M37.4336 54.812H37.7696V55.06H37.4336V54.812Z" fill="white"/>
<path d="M62.3971 60.8381C59.726 71.5525 48.8741 78.0731 38.1584 75.4012C27.4472 72.7301 20.9267 61.8775 23.599 51.1639C26.2689 40.4484 37.1209 33.9273 47.8332 36.5985C58.5481 39.2696 65.0683 50.1234 62.3968 60.8383L62.397 60.8381H62.3971Z" fill="#50AF95"/>
<path fill-rule="evenodd" clip-rule="evenodd" d="M45.5309 58.2676V58.2676C45.3894 58.2782 44.6588 58.3218 43.0289 58.3218C41.7326 58.3218 40.8122 58.2829 40.4893 58.2676V58.2676C35.4796 58.0472 31.7402 57.1751 31.7402 56.131C31.7402 55.0869 35.4796 54.216 40.4893 53.992V57.399C40.8169 57.4226 41.755 57.478 43.0513 57.478C44.6069 57.478 45.3859 57.4132 45.5261 57.4002V53.9944C50.5253 54.2171 54.2564 55.0892 54.2564 56.131C54.2564 57.1728 50.5265 58.0449 45.5261 58.2664V58.2664L45.5309 58.2676ZM45.5309 53.6419V50.5932H52.5075V45.944H33.5127V50.5932H40.4881V53.6407C34.8184 53.9012 30.5547 55.0243 30.5547 56.3701C30.5547 57.7159 34.8184 58.8378 40.4881 59.0994V68.8691H45.5297V59.0959C51.1864 58.8355 55.4431 57.7136 55.4431 56.3689C55.4431 55.0243 51.1899 53.9023 45.5297 53.6407V53.6407L45.5309 53.6419Z" fill="white"/>
</g>
<g filter="url(#filter2_dd_1156_775)">
<path d="M266.993 79.125H266.993C254.226 79.125 243.874 68.7702 243.875 56.0001L266.993 79.125ZM266.993 79.125C279.767 79.1231 290.12 68.7709 290.12 56.0008M266.993 79.125L290.12 56.0008M290.12 56.0008C290.12 43.23 279.767 32.875 266.996 32.875C254.225 32.875 243.872 43.2274 243.875 55.9987L290.12 56.0008Z" fill="#EAB300" stroke="white" stroke-width="6.25"/>
<path d="M286.402 60.8381C283.731 71.5525 272.879 78.0731 262.163 75.4012C251.452 72.7301 244.932 61.8775 247.604 51.1639C250.274 40.4484 261.126 33.9273 271.838 36.5985C282.553 39.2696 289.073 50.1234 286.402 60.8383L286.402 60.8381H286.402Z" fill="#419300"/>
<g clip-path="url(#clip0_1156_775)">
<path d="M272.835 57.0619C271.792 56.1007 270.194 55.2929 268.094 54.6631C266.583 54.1855 265.536 53.6858 264.979 53.1788C264.47 52.7147 264.223 52.1193 264.223 51.3569C264.223 50.4951 264.464 49.8444 264.96 49.3656C265.454 48.8868 266.238 48.645 267.287 48.645C268.261 48.645 268.997 48.9494 269.537 49.5768C270.095 50.2238 270.365 51.0917 270.365 52.1586C270.365 52.4311 270.583 52.6853 270.853 52.6853H273.801C274.071 52.6853 274.289 52.4299 274.289 52.1586C274.289 50.2508 273.714 48.6806 272.71 47.5229C271.786 46.4597 270.438 45.7673 268.862 45.4948V42.8282C268.862 42.5557 268.774 42.25 268.505 42.25H266.127C265.858 42.25 265.708 42.5557 265.708 42.8282V45.4788C264.132 45.7329 262.833 46.3455 261.89 47.3019C260.847 48.3589 260.301 49.7376 260.301 51.3987C260.301 53.0597 260.868 54.5145 262.002 55.5544C263.086 56.5488 264.689 57.3492 266.777 57.9336C268.172 58.3731 269.171 58.8691 269.752 59.4056C270.288 59.9028 270.548 60.4835 270.548 61.1808C270.548 62.0402 270.252 62.6896 269.645 63.1672C269.008 63.6669 268.088 63.921 266.912 63.921C265.889 63.921 265.051 63.6558 264.35 63.1095C263.698 62.6025 263.367 61.7541 263.367 60.4921C263.367 60.2195 263.148 60.0489 262.879 60.0489H260.019C259.825 60.0489 259.65 60.1152 259.573 60.2944L259.542 60.3386C259.517 60.3975 259.503 60.4479 259.502 60.5129C259.459 62.5865 260.053 64.1874 261.262 65.2813C262.342 66.2597 263.768 66.865 265.344 67.0945V69.3179C265.344 69.5904 265.558 69.7463 265.825 69.7463H268.187C268.457 69.7463 268.738 69.5904 268.738 69.3179V67.081C270.435 66.849 271.783 66.2597 272.804 65.3291C273.938 64.293 274.499 62.8873 274.499 61.1513C274.499 59.4154 273.928 58.0674 272.834 57.0583L272.835 57.0619Z" fill="white"/>
</g>
</g>
<path opacity="0.5" fill-rule="evenodd" clip-rule="evenodd" d="M98.1716 51.4643L101.354 54.6463C101.549 54.8416 101.549 55.1581 101.354 55.3534L98.1716 58.5354C97.9763 58.7306 97.6597 58.7306 97.4645 58.5354L97.5 55.5L79 55.4999V54.4999H97.4645C97.4645 53.8924 97.4645 51.4643 97.4645 51.4643C97.6597 51.2691 97.9763 51.2691 98.1716 51.4643Z" fill="#3E8BF3"/>
<path opacity="0.5" fill-rule="evenodd" clip-rule="evenodd" d="M227.172 51.4643L230.354 54.6463C230.549 54.8416 230.549 55.1581 230.354 55.3534L227.172 58.5354C226.976 58.7306 226.66 58.7306 226.464 58.5354L226.5 55.5L208 55.4999V54.4999H226.464C226.464 53.8924 226.464 51.4643 226.464 51.4643C226.66 51.2691 226.976 51.2691 227.172 51.4643Z" fill="#3E8BF3"/>
<defs>
<filter id="filter0_dd_1156_775" x="97" y="0" width="116" height="128" filterUnits="userSpaceOnUse" color-interpolation-filters="sRGB">
<feFlood flood-opacity="0" result="BackgroundImageFix"/>
<feColorMatrix in="SourceAlpha" type="matrix" values="0 0 0 0 0 0 0 0 0 0 0 0 0 0 0 0 0 0 127 0" result="hardAlpha"/>
<feOffset dy="8"/>
<feGaussianBlur stdDeviation="8"/>
<feColorMatrix type="matrix" values="0 0 0 0 0 0 0 0 0 0 0 0 0 0 0 0 0 0 0.08 0"/>
<feBlend mode="normal" in2="BackgroundImageFix" result="effect1_dropShadow_1156_775"/>
<feColorMatrix in="SourceAlpha" type="matrix" values="0 0 0 0 0 0 0 0 0 0 0 0 0 0 0 0 0 0 127 0" result="hardAlpha"/>
<feOffset/>
<feGaussianBlur stdDeviation="2"/>
<feColorMatrix type="matrix" values="0 0 0 0 0 0 0 0 0 0 0 0 0 0 0 0 0 0 0.04 0"/>
<feBlend mode="normal" in2="effect1_dropShadow_1156_775" result="effect2_dropShadow_1156_775"/>
<feBlend mode="normal" in="SourceGraphic" in2="effect2_dropShadow_1156_775" result="shape"/>
</filter>
<filter id="filter1_dd_1156_775" x="0.75" y="21.75" width="84.4952" height="84.5" filterUnits="userSpaceOnUse" color-interpolation-filters="sRGB">
<feFlood flood-opacity="0" result="BackgroundImageFix"/>
<feColorMatrix in="SourceAlpha" type="matrix" values="0 0 0 0 0 0 0 0 0 0 0 0 0 0 0 0 0 0 127 0" result="hardAlpha"/>
<feOffset dy="8"/>
<feGaussianBlur stdDeviation="8"/>
<feColorMatrix type="matrix" values="0 0 0 0 0 0 0 0 0 0 0 0 0 0 0 0 0 0 0.08 0"/>
<feBlend mode="normal" in2="BackgroundImageFix" result="effect1_dropShadow_1156_775"/>
<feColorMatrix in="SourceAlpha" type="matrix" values="0 0 0 0 0 0 0 0 0 0 0 0 0 0 0 0 0 0 127 0" result="hardAlpha"/>
<feOffset/>
<feGaussianBlur stdDeviation="2"/>
<feColorMatrix type="matrix" values="0 0 0 0 0 0 0 0 0 0 0 0 0 0 0 0 0 0 0.04 0"/>
<feBlend mode="normal" in2="effect1_dropShadow_1156_775" result="effect2_dropShadow_1156_775"/>
<feBlend mode="normal" in="SourceGraphic" in2="effect2_dropShadow_1156_775" result="shape"/>
</filter>
<filter id="filter2_dd_1156_775" x="224.75" y="21.75" width="84.4952" height="84.5" filterUnits="userSpaceOnUse" color-interpolation-filters="sRGB">
<feFlood flood-opacity="0" result="BackgroundImageFix"/>
<feColorMatrix in="SourceAlpha" type="matrix" values="0 0 0 0 0 0 0 0 0 0 0 0 0 0 0 0 0 0 127 0" result="hardAlpha"/>
<feOffset dy="8"/>
<feGaussianBlur stdDeviation="8"/>
<feColorMatrix type="matrix" values="0 0 0 0 0 0 0 0 0 0 0 0 0 0 0 0 0 0 0.08 0"/>
<feBlend mode="normal" in2="BackgroundImageFix" result="effect1_dropShadow_1156_775"/>
<feColorMatrix in="SourceAlpha" type="matrix" values="0 0 0 0 0 0 0 0 0 0 0 0 0 0 0 0 0 0 127 0" result="hardAlpha"/>
<feOffset/>
<feGaussianBlur stdDeviation="2"/>
<feColorMatrix type="matrix" values="0 0 0 0 0 0 0 0 0 0 0 0 0 0 0 0 0 0 0.04 0"/>
<feBlend mode="normal" in2="effect1_dropShadow_1156_775" result="effect2_dropShadow_1156_775"/>
<feBlend mode="normal" in="SourceGraphic" in2="effect2_dropShadow_1156_775" result="shape"/>
</filter>
<clipPath id="clip0_1156_775">
<rect width="15" height="27.5" fill="white" transform="translate(259.5 42.25)"/>
</clipPath>
</defs>
</svg>
