<svg width="69" height="73" viewBox="0 0 69 73" fill="none" xmlns="http://www.w3.org/2000/svg">
<g filter="url(#filter0_d_113_3156)">
<mask id="path-1-outside-1_113_3156" maskUnits="userSpaceOnUse" x="6" y="0" width="57" height="57" fill="black">
<rect fill="white" x="6" width="57" height="57"/>
<path fill-rule="evenodd" clip-rule="evenodd" d="M60.7588 54.7415V52.5548H8.26655V54.7415H60.7588ZM58.2099 49.5141H49.2176V51.3364H58.2099V49.5141ZM40.5902 38.3306H35.1163V51.3364H40.5902V38.3306ZM33.909 38.3306H28.4352V51.3364H33.909V38.3306ZM19.8077 49.5141H10.8165V51.3364H19.8077V49.5141ZM56.0238 21.9093H51.4037V48.1813H56.0238V21.9093ZM17.6227 21.9093H13.0015V48.1813H17.6227V21.9093ZM43.6289 35.165H25.3964V36.9873H43.6289V35.165ZM24.2938 38.1283C23.9108 37.7615 24.064 36.8346 24.064 34.5611C24.064 34.2799 24.3867 33.9468 24.6677 33.9468H44.3576C44.6386 33.9468 44.9613 34.2799 44.9613 34.5611C44.9613 36.8346 45.1146 37.7615 44.7315 38.1283C44.3812 38.4636 43.5824 38.3306 41.8077 38.3306V51.3364H48.0001C48.0001 49.4032 47.8879 48.6411 48.2069 48.3473C48.4704 48.1046 49.0281 48.1813 50.1861 48.1813V21.9093C49.9119 21.9093 49.6997 21.9151 49.52 21.92C49.0178 21.9337 48.7689 21.9404 48.1251 21.7947C47.959 21.0825 47.9731 20.4124 47.9895 19.6381C47.9947 19.3936 48.0001 19.1387 48.0001 18.8687H44.1188C44.1188 20.4515 43.1087 22.8569 42.1929 24.0023L41.1004 25.2311C35.8865 29.7816 28.6538 27.9593 25.9167 22.482C25.5005 21.6386 24.9388 20.035 24.9076 18.8687H21.0253C21.0253 19.1387 21.0306 19.3936 21.0358 19.6381C21.0522 20.4124 21.0663 21.0825 20.9003 21.7947C20.2565 21.9404 20.0081 21.9337 19.5062 21.92C19.3266 21.9151 19.1145 21.9093 18.8402 21.9093V48.1813C19.9981 48.1813 20.5556 48.1046 20.8189 48.3472C21.1378 48.641 21.0253 49.403 21.0253 51.3364H27.2176V38.3306C25.4429 38.3306 24.6441 38.4636 24.2938 38.1283ZM58.2099 18.8687H49.2176V20.7014H58.2099V18.8687ZM19.6827 18.8687H10.8165V20.7014H19.6827V18.8687ZM40.4967 12.4022C38.561 10.4758 36.9067 9.8719 34.1488 9.8719C30.4231 9.8719 27.0297 12.8813 26.3324 16.5258C25.3021 21.8677 29.4131 26.5327 34.3877 26.5327C40.8296 26.5327 44.5765 20.0037 42.1309 14.7764C41.673 13.7976 41.2148 13.1103 40.4967 12.4022ZM9.10907 17.5359H24.9076C24.9804 14.4744 27.051 11.6004 29.2157 10.1634C29.7152 9.83015 30.1319 9.60116 30.7147 9.35125C37.6146 6.34189 44.1188 12.2148 44.1188 17.5359H59.9163C60.4886 17.5359 60.9885 16.4633 60.5514 15.9322C60.2984 15.6195 56.5383 13.6827 54.0014 12.376C52.9906 11.8554 52.174 11.4348 51.8508 11.2568C51.2264 10.9027 50.779 10.6528 50.113 10.3196C48.7591 9.64742 47.3231 8.86743 45.8764 8.08159C44.4096 7.28481 42.9317 6.48203 41.517 5.77953C41.2543 5.64955 40.64 5.31765 39.8779 4.90586C37.8925 3.83317 34.9037 2.21837 34.5127 2.21837C34.157 2.21837 32.1179 3.31949 30.6715 4.10054C30.1287 4.39363 29.6694 4.64165 29.4139 4.7695C29.3445 4.80302 29.2762 4.83543 29.2083 4.86762C28.9811 4.97546 28.7589 5.08087 28.5185 5.21719L23.5335 7.8934C23.3144 8.00677 23.1336 8.09272 22.9435 8.18309C22.8717 8.21722 22.7985 8.25199 22.7215 8.2891L19.4642 10.0177C19.1222 10.2268 18.7956 10.3858 18.4563 10.5509C18.238 10.6572 18.0145 10.766 17.7782 10.8924L11.1803 14.3807C10.8087 14.5956 10.4176 14.7839 10.0469 14.9623C9.08883 15.4235 8.26655 15.8193 8.26655 16.4424C8.26655 16.859 8.7136 17.5359 9.10907 17.5359ZM9.47392 18.8687C7.89206 18.7438 7.04902 17.9003 7.04902 16.3175C7.04902 15.0194 8.1332 14.5163 9.14278 14.0478C9.37233 13.9413 9.59804 13.8365 9.80626 13.7247L29.0388 3.55113C29.5389 3.25628 29.9851 3.03041 30.5159 2.76171C30.6037 2.71727 30.6938 2.67165 30.7869 2.62436C31.0715 2.4782 31.3646 2.30764 31.6647 2.13305C32.6045 1.58626 33.6122 1 34.6377 1C35.4598 1 40.58 3.78025 41.8392 4.48833C42.9714 5.12052 44.0988 5.70848 45.226 6.29636C46.4197 6.91889 47.6131 7.54134 48.8121 8.21614L55.8155 11.9024C56.4919 12.2356 56.9297 12.4751 57.5645 12.8292L61.082 14.6619C62.6534 15.724 62.2478 18.6501 59.5524 18.8687C59.5524 20.6543 59.6757 21.3969 59.3666 21.7029C59.1079 21.959 58.5464 21.9093 57.3562 21.9093V48.1813C58.4971 48.1813 59.0556 48.1198 59.325 48.3698C59.6526 48.674 59.5524 49.439 59.5524 51.3364C59.813 51.3364 60.0687 51.3268 60.3106 51.3176C61.2473 51.2823 61.9763 51.2548 61.9763 51.8258V55.4704C61.9763 55.7619 61.7789 55.9599 61.4875 55.9599H7.53786C7.24646 55.9599 7.04902 55.7619 7.04902 55.4704C7.04902 52.7424 6.85828 51.7752 7.22932 51.4511C7.51829 51.1987 8.148 51.3364 9.47392 51.3364C9.47392 51.106 9.46799 50.8742 9.46211 50.6443C9.43982 49.7732 9.41826 48.9303 9.72292 48.2959C10.3544 48.1513 10.5465 48.1568 11.0109 48.1703C11.1817 48.1752 11.3893 48.1813 11.6691 48.1813V21.9093C10.4791 21.9093 9.91772 21.959 9.65924 21.703C9.35035 21.397 9.47392 20.6545 9.47392 18.8687ZM34.0184 22.5061L39.901 16.2033L38.918 15.2859L33.5103 21.0799L30.6409 18.2105L29.6901 19.1613L33.0516 22.5227C33.1805 22.6516 33.3562 22.7227 33.5385 22.7195C33.7208 22.7164 33.894 22.6393 34.0184 22.5061Z"/>
</mask>
<path fill-rule="evenodd" clip-rule="evenodd" d="M60.7588 54.7415V52.5548H8.26655V54.7415H60.7588ZM58.2099 49.5141H49.2176V51.3364H58.2099V49.5141ZM40.5902 38.3306H35.1163V51.3364H40.5902V38.3306ZM33.909 38.3306H28.4352V51.3364H33.909V38.3306ZM19.8077 49.5141H10.8165V51.3364H19.8077V49.5141ZM56.0238 21.9093H51.4037V48.1813H56.0238V21.9093ZM17.6227 21.9093H13.0015V48.1813H17.6227V21.9093ZM43.6289 35.165H25.3964V36.9873H43.6289V35.165ZM24.2938 38.1283C23.9108 37.7615 24.064 36.8346 24.064 34.5611C24.064 34.2799 24.3867 33.9468 24.6677 33.9468H44.3576C44.6386 33.9468 44.9613 34.2799 44.9613 34.5611C44.9613 36.8346 45.1146 37.7615 44.7315 38.1283C44.3812 38.4636 43.5824 38.3306 41.8077 38.3306V51.3364H48.0001C48.0001 49.4032 47.8879 48.6411 48.2069 48.3473C48.4704 48.1046 49.0281 48.1813 50.1861 48.1813V21.9093C49.9119 21.9093 49.6997 21.9151 49.52 21.92C49.0178 21.9337 48.7689 21.9404 48.1251 21.7947C47.959 21.0825 47.9731 20.4124 47.9895 19.6381C47.9947 19.3936 48.0001 19.1387 48.0001 18.8687H44.1188C44.1188 20.4515 43.1087 22.8569 42.1929 24.0023L41.1004 25.2311C35.8865 29.7816 28.6538 27.9593 25.9167 22.482C25.5005 21.6386 24.9388 20.035 24.9076 18.8687H21.0253C21.0253 19.1387 21.0306 19.3936 21.0358 19.6381C21.0522 20.4124 21.0663 21.0825 20.9003 21.7947C20.2565 21.9404 20.0081 21.9337 19.5062 21.92C19.3266 21.9151 19.1145 21.9093 18.8402 21.9093V48.1813C19.9981 48.1813 20.5556 48.1046 20.8189 48.3472C21.1378 48.641 21.0253 49.403 21.0253 51.3364H27.2176V38.3306C25.4429 38.3306 24.6441 38.4636 24.2938 38.1283ZM58.2099 18.8687H49.2176V20.7014H58.2099V18.8687ZM19.6827 18.8687H10.8165V20.7014H19.6827V18.8687ZM40.4967 12.4022C38.561 10.4758 36.9067 9.8719 34.1488 9.8719C30.4231 9.8719 27.0297 12.8813 26.3324 16.5258C25.3021 21.8677 29.4131 26.5327 34.3877 26.5327C40.8296 26.5327 44.5765 20.0037 42.1309 14.7764C41.673 13.7976 41.2148 13.1103 40.4967 12.4022ZM9.10907 17.5359H24.9076C24.9804 14.4744 27.051 11.6004 29.2157 10.1634C29.7152 9.83015 30.1319 9.60116 30.7147 9.35125C37.6146 6.34189 44.1188 12.2148 44.1188 17.5359H59.9163C60.4886 17.5359 60.9885 16.4633 60.5514 15.9322C60.2984 15.6195 56.5383 13.6827 54.0014 12.376C52.9906 11.8554 52.174 11.4348 51.8508 11.2568C51.2264 10.9027 50.779 10.6528 50.113 10.3196C48.7591 9.64742 47.3231 8.86743 45.8764 8.08159C44.4096 7.28481 42.9317 6.48203 41.517 5.77953C41.2543 5.64955 40.64 5.31765 39.8779 4.90586C37.8925 3.83317 34.9037 2.21837 34.5127 2.21837C34.157 2.21837 32.1179 3.31949 30.6715 4.10054C30.1287 4.39363 29.6694 4.64165 29.4139 4.7695C29.3445 4.80302 29.2762 4.83543 29.2083 4.86762C28.9811 4.97546 28.7589 5.08087 28.5185 5.21719L23.5335 7.8934C23.3144 8.00677 23.1336 8.09272 22.9435 8.18309C22.8717 8.21722 22.7985 8.25199 22.7215 8.2891L19.4642 10.0177C19.1222 10.2268 18.7956 10.3858 18.4563 10.5509C18.238 10.6572 18.0145 10.766 17.7782 10.8924L11.1803 14.3807C10.8087 14.5956 10.4176 14.7839 10.0469 14.9623C9.08883 15.4235 8.26655 15.8193 8.26655 16.4424C8.26655 16.859 8.7136 17.5359 9.10907 17.5359ZM9.47392 18.8687C7.89206 18.7438 7.04902 17.9003 7.04902 16.3175C7.04902 15.0194 8.1332 14.5163 9.14278 14.0478C9.37233 13.9413 9.59804 13.8365 9.80626 13.7247L29.0388 3.55113C29.5389 3.25628 29.9851 3.03041 30.5159 2.76171C30.6037 2.71727 30.6938 2.67165 30.7869 2.62436C31.0715 2.4782 31.3646 2.30764 31.6647 2.13305C32.6045 1.58626 33.6122 1 34.6377 1C35.4598 1 40.58 3.78025 41.8392 4.48833C42.9714 5.12052 44.0988 5.70848 45.226 6.29636C46.4197 6.91889 47.6131 7.54134 48.8121 8.21614L55.8155 11.9024C56.4919 12.2356 56.9297 12.4751 57.5645 12.8292L61.082 14.6619C62.6534 15.724 62.2478 18.6501 59.5524 18.8687C59.5524 20.6543 59.6757 21.3969 59.3666 21.7029C59.1079 21.959 58.5464 21.9093 57.3562 21.9093V48.1813C58.4971 48.1813 59.0556 48.1198 59.325 48.3698C59.6526 48.674 59.5524 49.439 59.5524 51.3364C59.813 51.3364 60.0687 51.3268 60.3106 51.3176C61.2473 51.2823 61.9763 51.2548 61.9763 51.8258V55.4704C61.9763 55.7619 61.7789 55.9599 61.4875 55.9599H7.53786C7.24646 55.9599 7.04902 55.7619 7.04902 55.4704C7.04902 52.7424 6.85828 51.7752 7.22932 51.4511C7.51829 51.1987 8.148 51.3364 9.47392 51.3364C9.47392 51.106 9.46799 50.8742 9.46211 50.6443C9.43982 49.7732 9.41826 48.9303 9.72292 48.2959C10.3544 48.1513 10.5465 48.1568 11.0109 48.1703C11.1817 48.1752 11.3893 48.1813 11.6691 48.1813V21.9093C10.4791 21.9093 9.91772 21.959 9.65924 21.703C9.35035 21.397 9.47392 20.6545 9.47392 18.8687ZM34.0184 22.5061L39.901 16.2033L38.918 15.2859L33.5103 21.0799L30.6409 18.2105L29.6901 19.1613L33.0516 22.5227C33.1805 22.6516 33.3562 22.7227 33.5385 22.7195C33.7208 22.7164 33.894 22.6393 34.0184 22.5061Z" fill="white"/>
<path d="M60.7588 52.5548H60.8588C60.8588 52.4996 60.814 52.4548 60.7588 52.4548V52.5548ZM60.7588 54.7415V54.8415C60.814 54.8415 60.8588 54.7967 60.8588 54.7415H60.7588ZM8.26655 52.5548V52.4548C8.21132 52.4548 8.16655 52.4996 8.16655 52.5548H8.26655ZM8.26655 54.7415H8.16655C8.16655 54.7967 8.21132 54.8415 8.26655 54.8415V54.7415ZM49.2176 49.5141V49.4141C49.1624 49.4141 49.1176 49.4589 49.1176 49.5141H49.2176ZM58.2099 49.5141H58.3099C58.3099 49.4589 58.2651 49.4141 58.2099 49.4141V49.5141ZM49.2176 51.3364H49.1176C49.1176 51.3917 49.1624 51.4364 49.2176 51.4364V51.3364ZM58.2099 51.3364V51.4364C58.2651 51.4364 58.3099 51.3917 58.3099 51.3364H58.2099ZM35.1163 38.3306V38.2306C35.0611 38.2306 35.0163 38.2754 35.0163 38.3306H35.1163ZM40.5902 38.3306H40.6902C40.6902 38.2754 40.6454 38.2306 40.5902 38.2306V38.3306ZM35.1163 51.3364H35.0163C35.0163 51.3917 35.0611 51.4364 35.1163 51.4364V51.3364ZM40.5902 51.3364V51.4364C40.6454 51.4364 40.6902 51.3917 40.6902 51.3364H40.5902ZM28.4352 38.3306V38.2306C28.3799 38.2306 28.3352 38.2754 28.3352 38.3306H28.4352ZM33.909 38.3306H34.009C34.009 38.2754 33.9642 38.2306 33.909 38.2306V38.3306ZM28.4352 51.3364H28.3352C28.3352 51.3917 28.3799 51.4364 28.4352 51.4364V51.3364ZM33.909 51.3364V51.4364C33.9642 51.4364 34.009 51.3917 34.009 51.3364H33.909ZM10.8165 49.5141V49.4141C10.7612 49.4141 10.7165 49.4589 10.7165 49.5141H10.8165ZM19.8077 49.5141H19.9077C19.9077 49.4589 19.863 49.4141 19.8077 49.4141V49.5141ZM10.8165 51.3364H10.7165C10.7165 51.3917 10.7612 51.4364 10.8165 51.4364V51.3364ZM19.8077 51.3364V51.4364C19.863 51.4364 19.9077 51.3917 19.9077 51.3364H19.8077ZM51.4037 21.9093V21.8093C51.3484 21.8093 51.3037 21.854 51.3037 21.9093H51.4037ZM56.0238 21.9093H56.1238C56.1238 21.854 56.079 21.8093 56.0238 21.8093V21.9093ZM51.4037 48.1813H51.3037C51.3037 48.2365 51.3484 48.2812 51.4037 48.2812V48.1813ZM56.0238 48.1813V48.2812C56.079 48.2812 56.1238 48.2365 56.1238 48.1813H56.0238ZM13.0015 21.9093V21.8093C12.9463 21.8093 12.9015 21.854 12.9015 21.9093H13.0015ZM17.6227 21.9093H17.7227C17.7227 21.854 17.6779 21.8093 17.6227 21.8093V21.9093ZM13.0015 48.1813H12.9015C12.9015 48.2365 12.9463 48.2812 13.0015 48.2812V48.1813ZM17.6227 48.1813V48.2812C17.6779 48.2812 17.7227 48.2365 17.7227 48.1813H17.6227ZM25.3964 35.165V35.065C25.3412 35.065 25.2964 35.1098 25.2964 35.165H25.3964ZM43.6289 35.165H43.7289C43.7289 35.1098 43.6842 35.065 43.6289 35.065V35.165ZM25.3964 36.9873H25.2964C25.2964 37.0425 25.3412 37.0873 25.3964 37.0873V36.9873ZM43.6289 36.9873V37.0873C43.6842 37.0873 43.7289 37.0425 43.7289 36.9873H43.6289ZM24.2938 38.1283L24.363 38.056L24.2938 38.1283ZM44.7315 38.1283L44.6623 38.056L44.7315 38.1283ZM41.8077 38.3306V38.2306C41.7525 38.2306 41.7077 38.2754 41.7077 38.3306H41.8077ZM41.8077 51.3364H41.7077C41.7077 51.3917 41.7525 51.4364 41.8077 51.4364V51.3364ZM48.0001 51.3364V51.4364C48.0553 51.4364 48.1001 51.3917 48.1001 51.3364H48.0001ZM48.2069 48.3473L48.2747 48.4208L48.2069 48.3473ZM50.1861 48.1813V48.2812C50.2414 48.2812 50.2861 48.2365 50.2861 48.1813H50.1861ZM50.1861 21.9093H50.2861C50.2861 21.854 50.2414 21.8093 50.1861 21.8093V21.9093ZM49.52 21.92L49.5173 21.82L49.52 21.92ZM48.1251 21.7947L48.0277 21.8174C48.0364 21.8548 48.0656 21.8838 48.103 21.8923L48.1251 21.7947ZM47.9895 19.6381L48.0895 19.6402L47.9895 19.6381ZM48.0001 18.8687H48.1001C48.1001 18.8135 48.0553 18.7687 48.0001 18.7687V18.8687ZM44.1188 18.8687V18.7687C44.0636 18.7687 44.0188 18.8135 44.0188 18.8687H44.1188ZM42.1929 24.0023L42.2677 24.0688L42.271 24.0647L42.1929 24.0023ZM41.1004 25.2311L41.1666 25.307L41.1751 25.2975L41.1004 25.2311ZM25.9167 22.482L25.8271 22.5263L25.8273 22.5267L25.9167 22.482ZM24.9076 18.8687L25.0075 18.8661C25.0061 18.8119 24.9617 18.7687 24.9076 18.7687V18.8687ZM21.0253 18.8687V18.7687C20.97 18.7687 20.9253 18.8135 20.9253 18.8687H21.0253ZM21.0358 19.6381L21.1358 19.636L21.0358 19.6381ZM20.9003 21.7947L20.9223 21.8923C20.9597 21.8838 20.9889 21.8548 20.9976 21.8174L20.9003 21.7947ZM19.5062 21.92L19.5035 22.0199H19.5035L19.5062 21.92ZM18.8402 21.9093V21.8093C18.785 21.8093 18.7402 21.854 18.7402 21.9093H18.8402ZM18.8402 48.1813H18.7402C18.7402 48.2365 18.785 48.2812 18.8402 48.2812V48.1813ZM20.8189 48.3472L20.8867 48.2736L20.8189 48.3472ZM21.0253 51.3364H20.9253C20.9253 51.3917 20.97 51.4364 21.0253 51.4364V51.3364ZM27.2176 51.3364V51.4364C27.2728 51.4364 27.3176 51.3917 27.3176 51.3364H27.2176ZM27.2176 38.3306H27.3176C27.3176 38.2754 27.2728 38.2306 27.2176 38.2306V38.3306ZM49.2176 18.8687V18.7687C49.1624 18.7687 49.1176 18.8135 49.1176 18.8687H49.2176ZM58.2099 18.8687H58.3099C58.3099 18.8135 58.2651 18.7687 58.2099 18.7687V18.8687ZM49.2176 20.7014H49.1176C49.1176 20.7567 49.1624 20.8014 49.2176 20.8014V20.7014ZM58.2099 20.7014V20.8014C58.2651 20.8014 58.3099 20.7567 58.3099 20.7014H58.2099ZM10.8165 18.8687V18.7687C10.7612 18.7687 10.7165 18.8135 10.7165 18.8687H10.8165ZM19.6827 18.8687H19.7827C19.7827 18.8135 19.7379 18.7687 19.6827 18.7687V18.8687ZM10.8165 20.7014H10.7165C10.7165 20.7567 10.7612 20.8014 10.8165 20.8014V20.7014ZM19.6827 20.7014V20.8014C19.7379 20.8014 19.7827 20.7567 19.7827 20.7014H19.6827ZM40.4967 12.4022L40.4261 12.4731L40.4265 12.4734L40.4967 12.4022ZM26.3324 16.5258L26.4306 16.5448L26.4306 16.5446L26.3324 16.5258ZM42.1309 14.7764L42.0403 14.8188L42.0403 14.8188L42.1309 14.7764ZM24.9076 17.5359V17.6359C24.9619 17.6359 25.0062 17.5925 25.0075 17.5382L24.9076 17.5359ZM29.2157 10.1634L29.271 10.2467L29.2712 10.2466L29.2157 10.1634ZM30.7147 9.35125L30.7541 9.44316L30.7547 9.44291L30.7147 9.35125ZM44.1188 17.5359H44.0188C44.0188 17.5911 44.0636 17.6359 44.1188 17.6359V17.5359ZM60.5514 15.9322L60.4737 15.9951L60.4742 15.9958L60.5514 15.9322ZM54.0014 12.376L54.0472 12.2871L54.0014 12.376ZM51.8508 11.2568L51.8015 11.3438L51.8026 11.3444L51.8508 11.2568ZM50.113 10.3196L50.1577 10.2302L50.1574 10.23L50.113 10.3196ZM45.8764 8.08159L45.9242 7.99372L45.8764 8.08159ZM41.517 5.77953L41.5615 5.68997L41.5614 5.6899L41.517 5.77953ZM39.8779 4.90586L39.8303 4.99384V4.99384L39.8779 4.90586ZM30.6715 4.10054L30.624 4.01255V4.01255L30.6715 4.10054ZM29.4139 4.7695L29.4574 4.85956L29.4586 4.85893L29.4139 4.7695ZM29.2083 4.86762L29.1655 4.77728V4.77728L29.2083 4.86762ZM28.5185 5.21719L28.5658 5.30532L28.5678 5.30418L28.5185 5.21719ZM23.5335 7.8934L23.5795 7.98222L23.5808 7.98151L23.5335 7.8934ZM22.9435 8.18309L22.9864 8.2734L22.9435 8.18309ZM22.7215 8.2891L22.678 8.19894L22.6746 8.20077L22.7215 8.2891ZM19.4642 10.0177L19.4173 9.9292L19.412 9.93238L19.4642 10.0177ZM18.4563 10.5509L18.4126 10.461H18.4126L18.4563 10.5509ZM17.7782 10.8924L17.8249 10.9808L17.8253 10.9805L17.7782 10.8924ZM11.1803 14.3807L11.1335 14.2922L11.1302 14.2941L11.1803 14.3807ZM10.0469 14.9623L10.0903 15.0524L10.0469 14.9623ZM9.47392 18.8687H9.57392C9.57392 18.8166 9.53381 18.7732 9.4818 18.7691L9.47392 18.8687ZM9.14278 14.0478L9.18487 14.1385H9.18487L9.14278 14.0478ZM9.80626 13.7247L9.7595 13.6363L9.75892 13.6366L9.80626 13.7247ZM29.0388 3.55113L29.0856 3.63962L29.0896 3.63728L29.0388 3.55113ZM30.5159 2.76171L30.5611 2.85093V2.85093L30.5159 2.76171ZM30.7869 2.62436L30.8322 2.71351L30.8326 2.71332L30.7869 2.62436ZM31.6647 2.13305L31.715 2.21949L31.6647 2.13305ZM41.8392 4.48833L41.7902 4.5755L41.7905 4.57564L41.8392 4.48833ZM45.226 6.29636L45.2723 6.2077L45.226 6.29636ZM48.8121 8.21614L48.763 8.30332L48.7655 8.30463L48.8121 8.21614ZM55.8155 11.9024L55.7689 11.9909L55.7713 11.9921L55.8155 11.9024ZM57.5645 12.8292L57.5158 12.9165L57.5183 12.9178L57.5645 12.8292ZM61.082 14.6619L61.1383 14.5785L61.1282 14.5732L61.082 14.6619ZM59.5524 18.8687L59.5443 18.7691C59.4924 18.7733 59.4524 18.8167 59.4524 18.8687H59.5524ZM59.3666 21.7029L59.2963 21.6318L59.3666 21.7029ZM57.3562 21.9093V21.8093C57.301 21.8093 57.2562 21.854 57.2562 21.9093H57.3562ZM57.3562 48.1813H57.2562C57.2562 48.2365 57.301 48.2812 57.3562 48.2812V48.1813ZM59.325 48.3698L59.2569 48.4431L59.325 48.3698ZM59.5524 51.3364H59.4524C59.4524 51.3917 59.4972 51.4364 59.5524 51.4364V51.3364ZM60.3106 51.3176L60.3144 51.4176L60.3106 51.3176ZM7.22932 51.4511L7.2951 51.5264H7.2951L7.22932 51.4511ZM9.47392 51.3364V51.4364C9.52915 51.4364 9.57392 51.3917 9.57392 51.3364H9.47392ZM9.46211 50.6443L9.36214 50.6469L9.46211 50.6443ZM9.72292 48.2959L9.70059 48.1984C9.67092 48.2052 9.64595 48.2252 9.63277 48.2526L9.72292 48.2959ZM11.0109 48.1703L11.0138 48.0703H11.0138L11.0109 48.1703ZM11.6691 48.1813V48.2812C11.7244 48.2812 11.7691 48.2365 11.7691 48.1813H11.6691ZM11.6691 21.9093H11.7691C11.7691 21.854 11.7244 21.8093 11.6691 21.8093V21.9093ZM9.65924 21.703L9.72961 21.6319L9.65924 21.703ZM39.901 16.2033L39.9741 16.2715C39.9922 16.2522 40.0019 16.2264 40.0009 16.1999C40 16.1734 39.9886 16.1483 39.9692 16.1302L39.901 16.2033ZM34.0184 22.5061L33.9453 22.4378L34.0184 22.5061ZM38.918 15.2859L38.9863 15.2128C38.9459 15.1751 38.8826 15.1773 38.8449 15.2177L38.918 15.2859ZM33.5103 21.0799L33.4396 21.1506C33.4587 21.1698 33.4849 21.1804 33.512 21.1799C33.5391 21.1794 33.5649 21.168 33.5834 21.1481L33.5103 21.0799ZM30.6409 18.2105L30.7116 18.1398C30.6928 18.121 30.6674 18.1105 30.6409 18.1105C30.6144 18.1105 30.5889 18.121 30.5702 18.1398L30.6409 18.2105ZM29.6901 19.1613L29.6194 19.0906C29.5803 19.1296 29.5803 19.1929 29.6194 19.232L29.6901 19.1613ZM33.5385 22.7195L33.5368 22.6195H33.5368L33.5385 22.7195ZM60.6588 52.5548V54.7415H60.8588V52.5548H60.6588ZM8.26655 52.6548H60.7588V52.4548H8.26655V52.6548ZM8.36655 54.7415V52.5548H8.16655V54.7415H8.36655ZM60.7588 54.6415H8.26655V54.8415H60.7588V54.6415ZM49.2176 49.6141H58.2099V49.4141H49.2176V49.6141ZM49.3176 51.3364V49.5141H49.1176V51.3364H49.3176ZM58.2099 51.2364H49.2176V51.4364H58.2099V51.2364ZM58.1099 49.5141V51.3364H58.3099V49.5141H58.1099ZM35.1163 38.4306H40.5902V38.2306H35.1163V38.4306ZM35.2163 51.3364V38.3306H35.0163V51.3364H35.2163ZM40.5902 51.2364H35.1163V51.4364H40.5902V51.2364ZM40.4902 38.3306V51.3364H40.6902V38.3306H40.4902ZM28.4352 38.4306H33.909V38.2306H28.4352V38.4306ZM28.5352 51.3364V38.3306H28.3352V51.3364H28.5352ZM33.909 51.2364H28.4352V51.4364H33.909V51.2364ZM33.809 38.3306V51.3364H34.009V38.3306H33.809ZM10.8165 49.6141H19.8077V49.4141H10.8165V49.6141ZM10.9165 51.3364V49.5141H10.7165V51.3364H10.9165ZM19.8077 51.2364H10.8165V51.4364H19.8077V51.2364ZM19.7077 49.5141V51.3364H19.9077V49.5141H19.7077ZM51.4037 22.0093H56.0238V21.8093H51.4037V22.0093ZM51.5037 48.1813V21.9093H51.3037V48.1813H51.5037ZM56.0238 48.0813H51.4037V48.2812H56.0238V48.0813ZM55.9238 21.9093V48.1813H56.1238V21.9093H55.9238ZM13.0015 22.0093H17.6227V21.8093H13.0015V22.0093ZM13.1015 48.1813V21.9093H12.9015V48.1813H13.1015ZM17.6227 48.0813H13.0015V48.2812H17.6227V48.0813ZM17.5227 21.9093V48.1813H17.7227V21.9093H17.5227ZM25.3964 35.265H43.6289V35.065H25.3964V35.265ZM25.4964 36.9873V35.165H25.2964V36.9873H25.4964ZM43.6289 36.8873H25.3964V37.0873H43.6289V36.8873ZM43.5289 35.165V36.9873H43.7289V35.165H43.5289ZM23.964 34.5611C23.964 35.6881 23.9258 36.5018 23.9353 37.0614C23.9401 37.3439 23.9569 37.5736 23.9988 37.758C24.0409 37.9436 24.11 38.0907 24.2247 38.2005L24.363 38.056C24.2861 37.9824 24.2307 37.8762 24.1938 37.7137C24.1567 37.5501 24.14 37.3372 24.1353 37.058C24.1257 36.4941 24.164 35.7076 24.164 34.5611H23.964ZM24.6677 33.8468C24.4906 33.8468 24.3155 33.9492 24.189 34.0786C24.0623 34.2081 23.964 34.3854 23.964 34.5611H24.164C24.164 34.4556 24.227 34.3258 24.332 34.2184C24.4371 34.1109 24.5639 34.0468 24.6677 34.0468V33.8468ZM44.3576 33.8468H24.6677V34.0468H44.3576V33.8468ZM45.0613 34.5611C45.0613 34.3854 44.963 34.2081 44.8363 34.0786C44.7098 33.9492 44.5348 33.8468 44.3576 33.8468V34.0468C44.4615 34.0468 44.5882 34.1109 44.6933 34.2184C44.7983 34.3258 44.8613 34.4556 44.8613 34.5611H45.0613ZM44.8007 38.2005C44.9153 38.0907 44.9844 37.9436 45.0265 37.758C45.0684 37.5736 45.0852 37.3439 45.09 37.0614C45.0996 36.5018 45.0613 35.6881 45.0613 34.5611H44.8613C44.8613 35.7076 44.8997 36.4941 44.8901 37.058C44.8853 37.3372 44.8686 37.5501 44.8315 37.7137C44.7946 37.8762 44.7392 37.9824 44.6623 38.056L44.8007 38.2005ZM41.8077 38.4306C42.2502 38.4306 42.6319 38.4389 42.9618 38.4461C43.291 38.4533 43.5705 38.4595 43.8056 38.4552C44.2673 38.4466 44.5939 38.3985 44.8007 38.2005L44.6623 38.056C44.5188 38.1934 44.2709 38.2465 43.8019 38.2552C43.5717 38.2595 43.2968 38.2534 42.9662 38.2462C42.6362 38.2389 42.2526 38.2306 41.8077 38.2306V38.4306ZM41.9077 51.3364V38.3306H41.7077V51.3364H41.9077ZM48.0001 51.2364H41.8077V51.4364H48.0001V51.2364ZM48.1392 48.2737C48.04 48.365 47.98 48.4883 47.9428 48.6431C47.9059 48.7966 47.8898 48.9883 47.8839 49.2245C47.872 49.6938 47.9001 50.377 47.9001 51.3364H48.1001C48.1001 50.3625 48.072 49.6981 48.0838 49.2296C48.0897 48.9969 48.1054 48.8222 48.1372 48.6898C48.1687 48.5586 48.2143 48.4764 48.2747 48.4208L48.1392 48.2737ZM50.1861 48.0813C49.6145 48.0813 49.1761 48.0621 48.8576 48.0733C48.541 48.0844 48.3006 48.125 48.1392 48.2737L48.2747 48.4208C48.3768 48.3268 48.547 48.2844 48.8646 48.2732C49.1803 48.2621 49.5997 48.2812 50.1861 48.2812V48.0813ZM50.0861 21.9093V48.1813H50.2861V21.9093H50.0861ZM49.5228 22.0199C49.7024 22.015 49.9133 22.0093 50.1861 22.0093V21.8093C49.9104 21.8093 49.6971 21.8151 49.5173 21.82L49.5228 22.0199ZM48.103 21.8923C48.758 22.0405 49.016 22.0337 49.5228 22.0199L49.5173 21.82C49.0196 21.8336 48.7798 21.8404 48.1471 21.6972L48.103 21.8923ZM47.8895 19.636C47.8732 20.4084 47.8583 21.091 48.0277 21.8174L48.2225 21.772C48.0597 21.074 48.0731 20.4163 48.0895 19.6402L47.8895 19.636ZM47.9001 18.8687C47.9001 19.1375 47.8947 19.3913 47.8895 19.636L48.0895 19.6402C48.0947 19.3958 48.1001 19.1399 48.1001 18.8687H47.9001ZM44.1188 18.9688H48.0001V18.7687H44.1188V18.9688ZM42.271 24.0647C42.7372 23.4817 43.2231 22.5842 43.5925 21.6358C43.9615 20.6881 44.2188 19.6778 44.2188 18.8687H44.0188C44.0188 19.6424 43.771 20.6262 43.4061 21.5632C43.0414 22.4996 42.5644 23.3775 42.1148 23.9398L42.271 24.0647ZM41.1751 25.2975L42.2676 24.0687L42.1182 23.9358L41.0256 25.1646L41.1751 25.2975ZM25.8273 22.5267C28.593 28.0613 35.9019 29.9008 41.1661 25.3064L41.0346 25.1557C35.871 29.6623 28.7146 27.8573 26.0062 22.4373L25.8273 22.5267ZM24.8076 18.8714C24.8394 20.0582 25.4078 21.6767 25.8271 22.5263L26.0064 22.4378C25.5932 21.6005 25.0382 20.0119 25.0075 18.8661L24.8076 18.8714ZM21.0253 18.9688H24.9076V18.7687H21.0253V18.9688ZM21.1358 19.636C21.1306 19.3913 21.1253 19.1374 21.1253 18.8687H20.9253C20.9253 19.1399 20.9307 19.3958 20.9358 19.6402L21.1358 19.636ZM20.9976 21.8174C21.167 21.091 21.1521 20.4084 21.1358 19.636L20.9358 19.6402C20.9522 20.4163 20.9657 21.074 20.8029 21.772L20.9976 21.8174ZM19.5035 22.0199C20.0099 22.0337 20.2674 22.0405 20.9223 21.8923L20.8782 21.6972C20.2456 21.8404 20.0063 21.8336 19.509 21.82L19.5035 22.0199ZM18.8402 22.0093C19.1131 22.0093 19.324 22.015 19.5035 22.0199L19.509 21.82C19.3292 21.8151 19.116 21.8093 18.8402 21.8093V22.0093ZM18.9402 48.1813V21.9093H18.7402V48.1813H18.9402ZM20.8867 48.2736C20.7253 48.125 20.485 48.0844 20.1685 48.0733C19.8501 48.0621 19.4118 48.0813 18.8402 48.0813V48.2812C19.4265 48.2812 19.8459 48.2621 20.1615 48.2732C20.479 48.2844 20.6491 48.3268 20.7511 48.4207L20.8867 48.2736ZM21.1253 51.3364C21.1253 50.377 21.1534 49.6936 21.1416 49.2244C21.1357 48.9882 21.1197 48.7965 21.0829 48.643C21.0458 48.4882 20.9858 48.3649 20.8867 48.2736L20.7511 48.4207C20.8115 48.4763 20.857 48.5585 20.8884 48.6896C20.9202 48.822 20.9359 48.9967 20.9417 49.2294C20.9534 49.698 20.9253 50.3624 20.9253 51.3364H21.1253ZM27.2176 51.2364H21.0253V51.4364H27.2176V51.2364ZM27.1176 38.3306V51.3364H27.3176V38.3306H27.1176ZM24.2247 38.2005C24.4314 38.3985 24.7581 38.4466 25.2197 38.4552C25.4549 38.4595 25.7343 38.4533 26.0635 38.4461C26.3935 38.4389 26.7752 38.4306 27.2176 38.4306V38.2306C26.7727 38.2306 26.3891 38.2389 26.0592 38.2462C25.7285 38.2534 25.4536 38.2595 25.2234 38.2552C24.7544 38.2465 24.5065 38.1934 24.363 38.056L24.2247 38.2005ZM49.2176 18.9688H58.2099V18.7687H49.2176V18.9688ZM49.3176 20.7014V18.8687H49.1176V20.7014H49.3176ZM58.2099 20.6014H49.2176V20.8014H58.2099V20.6014ZM58.1099 18.8687V20.7014H58.3099V18.8687H58.1099ZM10.8165 18.9688H19.6827V18.7687H10.8165V18.9688ZM10.9165 20.7014V18.8687H10.7165V20.7014H10.9165ZM19.6827 20.6014H10.8165V20.8014H19.6827V20.6014ZM19.5827 18.8687V20.7014H19.7827V18.8687H19.5827ZM34.1488 9.9719C35.5207 9.9719 36.6101 10.1222 37.5946 10.5078C38.5786 10.8931 39.4649 11.5164 40.4261 12.4731L40.5672 12.3313C39.5928 11.3615 38.6841 10.7197 37.6675 10.3215C36.6515 9.92357 35.5348 9.7719 34.1488 9.7719V9.9719ZM26.4306 16.5446C27.1196 12.9437 30.4746 9.9719 34.1488 9.9719V9.7719C30.3716 9.7719 26.9398 12.8189 26.2342 16.507L26.4306 16.5446ZM34.3877 26.4327C29.4755 26.4327 25.4123 21.8245 26.4306 16.5448L26.2342 16.5069C25.1919 21.9109 29.3508 26.6327 34.3877 26.6327V26.4327ZM42.0403 14.8188C44.4555 19.981 40.755 26.4327 34.3877 26.4327V26.6327C40.9042 26.6327 44.6975 20.0264 42.2215 14.734L42.0403 14.8188ZM40.4265 12.4734C41.1347 13.1717 41.5865 13.8487 42.0403 14.8188L42.2215 14.734C41.7595 13.7464 41.2948 13.0488 40.5669 12.331L40.4265 12.4734ZM24.9076 17.4359H9.10907V17.6359H24.9076V17.4359ZM29.1604 10.0801C26.9754 11.5305 24.8814 14.4319 24.8076 17.5335L25.0075 17.5382C25.0794 14.517 27.1266 11.6702 29.271 10.2467L29.1604 10.0801ZM30.6753 9.25934C30.0868 9.51172 29.6647 9.74365 29.1602 10.0802L29.2712 10.2466C29.7657 9.91665 30.1771 9.6906 30.7541 9.44316L30.6753 9.25934ZM44.2188 17.5359C44.2188 14.8367 42.5715 12.0101 40.0619 10.238C37.5487 8.46338 34.1609 7.7391 30.6747 9.25959L30.7547 9.44291C34.1684 7.95404 37.4826 8.66154 39.9465 10.4013C42.4139 12.1436 44.0188 14.9139 44.0188 17.5359H44.2188ZM59.9163 17.4359H44.1188V17.6359H59.9163V17.4359ZM60.4742 15.9958C60.6591 16.2204 60.6551 16.5765 60.5203 16.8941C60.4541 17.0502 60.3595 17.1882 60.2514 17.2858C60.143 17.3836 60.0273 17.4359 59.9163 17.4359V17.6359C60.0914 17.6359 60.2528 17.554 60.3855 17.4342C60.5185 17.3141 60.6288 17.1507 60.7045 16.9722C60.8535 16.6208 60.8809 16.1751 60.6287 15.8687L60.4742 15.9958ZM53.9556 12.4649C55.2242 13.1184 56.7978 13.9289 58.0859 14.6151C58.73 14.9583 59.3019 15.2699 59.7282 15.5151C59.9414 15.6377 60.1172 15.7431 60.2471 15.8272C60.312 15.8692 60.3645 15.9053 60.4039 15.935C60.4452 15.9661 60.4662 15.9858 60.4737 15.9951L60.6292 15.8693C60.6051 15.8395 60.567 15.8074 60.5242 15.7752C60.4795 15.7416 60.4228 15.7026 60.3558 15.6593C60.2216 15.5724 60.0423 15.465 59.8279 15.3417C59.3987 15.0949 58.8246 14.7821 58.1799 14.4386C56.8904 13.7516 55.3155 12.9404 54.0472 12.2871L53.9556 12.4649ZM51.8026 11.3444C52.1274 11.5233 52.9458 11.9448 53.9556 12.4649L54.0472 12.2871C53.0355 11.766 52.2207 11.3463 51.8991 11.1692L51.8026 11.3444ZM50.0682 10.409C50.7319 10.7411 51.1776 10.99 51.8015 11.3438L51.9002 11.1698C51.2753 10.8155 50.8261 10.5645 50.1577 10.2302L50.0682 10.409ZM45.8287 8.16946C47.275 8.9551 48.7127 9.73602 50.0685 10.4092L50.1574 10.23C48.8055 9.55882 47.3712 8.77975 45.9242 7.99372L45.8287 8.16946ZM41.4726 5.8691C42.8853 6.57063 44.3615 7.3725 45.8287 8.16946L45.9242 7.99372C44.4577 7.19713 42.9781 6.39343 41.5615 5.68997L41.4726 5.8691ZM39.8303 4.99384C40.5913 5.40498 41.2079 5.73814 41.4727 5.86916L41.5614 5.6899C41.3008 5.56095 40.6888 5.23031 39.9254 4.81788L39.8303 4.99384ZM34.5127 2.31837C34.5232 2.31837 34.5473 2.32167 34.589 2.33317C34.6288 2.34416 34.6789 2.36091 34.7389 2.38345C34.8587 2.4285 35.0128 2.49466 35.195 2.57832C35.5592 2.74552 36.0299 2.98007 36.5516 3.24876C37.5948 3.786 38.8374 4.45737 39.8303 4.99384L39.9254 4.81788C38.9329 4.28165 37.6885 3.60928 36.6432 3.07095C36.1206 2.80185 35.6468 2.56566 35.2785 2.39656C35.0945 2.31208 34.9355 2.2437 34.8092 2.19624C34.7462 2.17253 34.69 2.15355 34.6421 2.14036C34.5961 2.12768 34.551 2.11837 34.5127 2.11837V2.31837ZM30.719 4.18853C31.4425 3.79785 32.3127 3.32796 33.0463 2.95574C33.4133 2.76957 33.7447 2.60853 34.0059 2.49423C34.1366 2.43704 34.2483 2.3922 34.3371 2.36184C34.4299 2.33017 34.4865 2.31837 34.5127 2.31837V2.11837C34.4499 2.11837 34.365 2.14097 34.2725 2.17257C34.1762 2.20548 34.0588 2.25277 33.9257 2.31101C33.6593 2.42758 33.3239 2.59064 32.9558 2.77738C32.2194 3.15099 31.3469 3.62218 30.624 4.01255L30.719 4.18853ZM29.4586 4.85893C29.7159 4.73019 30.1771 4.48117 30.719 4.18853L30.624 4.01255C30.0804 4.30609 29.6229 4.5531 29.3691 4.68007L29.4586 4.85893ZM29.2512 4.95797C29.319 4.9258 29.3876 4.89324 29.4573 4.85955L29.3704 4.67946C29.3013 4.7128 29.2333 4.74506 29.1655 4.77728L29.2512 4.95797ZM28.5678 5.30418C28.8046 5.1699 29.0236 5.06594 29.2512 4.95797L29.1655 4.77728C28.9385 4.88498 28.7132 4.99183 28.4692 5.1302L28.5678 5.30418ZM23.5808 7.98151L28.5658 5.3053L28.4712 5.12908L23.4862 7.8053L23.5808 7.98151ZM22.9864 8.2734C23.1765 8.18305 23.3587 8.09645 23.5795 7.98221L23.4875 7.80459C23.2702 7.9171 23.0907 8.00239 22.9006 8.09277L22.9864 8.2734ZM22.7649 8.37919C22.8416 8.34221 22.9146 8.30755 22.9864 8.2734L22.9006 8.09277C22.8288 8.12689 22.7554 8.16177 22.6781 8.19901L22.7649 8.37919ZM19.5111 10.106L22.7684 8.37743L22.6746 8.20077L19.4173 9.92936L19.5111 10.106ZM18.5001 10.6408C18.839 10.4759 19.1697 10.315 19.5164 10.103L19.412 9.93238C19.0748 10.1386 18.7523 10.2956 18.4126 10.461L18.5001 10.6408ZM17.8253 10.9805C18.0597 10.8552 18.2816 10.7472 18.5001 10.6408L18.4126 10.461C18.1944 10.5672 17.9692 10.6768 17.731 10.8042L17.8253 10.9805ZM11.227 14.4691L17.8249 10.9808L17.7314 10.8039L11.1336 14.2923L11.227 14.4691ZM10.0903 15.0524C10.4605 14.8742 10.8549 14.6844 11.2304 14.4672L11.1302 14.2941C10.7624 14.5069 10.3748 14.6935 10.0036 14.8722L10.0903 15.0524ZM8.36655 16.4424C8.36655 16.1806 8.53799 15.9519 8.85593 15.7227C9.17255 15.4945 9.60856 15.2843 10.0903 15.0524L10.0036 14.8722C9.52722 15.1015 9.07303 15.3197 8.73898 15.5605C8.40625 15.8003 8.16655 16.0811 8.16655 16.4424H8.36655ZM9.10907 17.4359C9.0384 17.4359 8.95649 17.4052 8.86888 17.3423C8.78203 17.28 8.69632 17.1908 8.62034 17.0865C8.46614 16.8748 8.36655 16.6218 8.36655 16.4424H8.16655C8.16655 16.6796 8.29049 16.9733 8.45868 17.2042C8.5439 17.3212 8.6441 17.4272 8.7523 17.5048C8.85974 17.5819 8.982 17.6359 9.10907 17.6359V17.4359ZM6.94902 16.3175C6.94902 17.1265 7.16479 17.761 7.59623 18.2092C8.02705 18.6567 8.65975 18.9047 9.46605 18.9684L9.4818 18.7691C8.70623 18.7078 8.12648 18.4716 7.74032 18.0704C7.35477 17.6699 7.14902 17.0913 7.14902 16.3175H6.94902ZM9.10068 13.9571C8.59892 14.19 8.06153 14.4385 7.65156 14.7962C7.23636 15.1585 6.94902 15.6349 6.94902 16.3175H7.14902C7.14902 15.702 7.40377 15.2779 7.78305 14.9469C8.16757 14.6114 8.67706 14.3742 9.18487 14.1385L9.10068 13.9571ZM9.75892 13.6366C9.55375 13.7468 9.3308 13.8503 9.10068 13.9571L9.18487 14.1385C9.41387 14.0323 9.64232 13.9263 9.85359 13.8127L9.75892 13.6366ZM28.9921 3.46274L9.7595 13.6363L9.85301 13.8131L29.0856 3.63953L28.9921 3.46274ZM30.4708 2.67249C29.9402 2.94104 29.4913 3.16827 28.988 3.46499L29.0896 3.63728C29.5865 3.34428 30.03 3.11977 30.5611 2.85093L30.4708 2.67249ZM30.7416 2.53522C30.6486 2.58246 30.5586 2.62804 30.4708 2.67249L30.5611 2.85093C30.6489 2.80649 30.7391 2.76084 30.8322 2.71351L30.7416 2.53522ZM31.6144 2.04662C31.3139 2.22149 31.023 2.39066 30.7412 2.53541L30.8326 2.71332C31.1199 2.56573 31.4154 2.39379 31.715 2.21949L31.6144 2.04662ZM34.6377 0.9C33.58 0.9 32.5478 1.5036 31.6144 2.04662L31.715 2.21949C32.6613 1.66893 33.6444 1.1 34.6377 1.1V0.9ZM41.8882 4.40117C41.2576 4.04657 39.6615 3.17382 38.1199 2.3895C37.3492 1.99741 36.5908 1.6268 35.9731 1.354C35.6643 1.21765 35.3892 1.10511 35.1645 1.02646C34.9443 0.949381 34.7595 0.9 34.6377 0.9V1.1C34.7213 1.1 34.8764 1.1375 35.0985 1.21523C35.3161 1.2914 35.5857 1.40159 35.8923 1.53696C36.5051 1.80758 37.2597 2.17629 38.0292 2.56776C39.5679 3.35059 41.1616 4.222 41.7902 4.5755L41.8882 4.40117ZM45.2723 6.2077C44.1448 5.61971 43.0187 5.0324 41.888 4.40102L41.7905 4.57564C42.9241 5.20863 44.0527 5.79724 45.1798 6.38503L45.2723 6.2077ZM48.8611 8.12899C47.6606 7.45329 46.4657 6.83012 45.2723 6.2077L45.1798 6.38503C46.3736 7.00767 47.5657 7.6294 48.763 8.30329L48.8611 8.12899ZM55.862 11.8139L48.8587 8.12765L48.7655 8.30463L55.7689 11.9909L55.862 11.8139ZM57.6132 12.7418C56.9778 12.3874 56.5383 12.147 55.8596 11.8127L55.7713 11.9921C56.4455 12.3242 56.8816 12.5628 57.5158 12.9165L57.6132 12.7418ZM61.1282 14.5732L57.6107 12.7405L57.5183 12.9178L61.0358 14.7505L61.1282 14.5732ZM59.5605 18.9684C62.3468 18.7424 62.7904 15.6959 61.138 14.579L61.026 14.7447C62.5164 15.7521 62.1488 18.5578 59.5443 18.7691L59.5605 18.9684ZM59.437 21.7739C59.5321 21.6797 59.589 21.5562 59.6235 21.4042C59.6578 21.2533 59.6715 21.0677 59.6754 20.8424C59.6793 20.6165 59.6735 20.3445 59.6668 20.0198C59.6601 19.6943 59.6524 19.314 59.6524 18.8687H59.4524C59.4524 19.3163 59.4601 19.6984 59.4669 20.0239C59.4736 20.3501 59.4793 20.6177 59.4754 20.8389C59.4715 21.0607 59.4581 21.2297 59.4285 21.3599C59.3992 21.4889 59.3556 21.573 59.2963 21.6318L59.437 21.7739ZM57.3562 22.0093C57.9464 22.0093 58.3913 22.0218 58.7168 22.0019C59.0395 21.9823 59.2791 21.9303 59.437 21.7739L59.2963 21.6318C59.1955 21.7316 59.0249 21.7828 58.7046 21.8023C58.3872 21.8216 57.9562 21.8093 57.3562 21.8093V22.0093ZM57.4562 48.1813V21.9093H57.2562V48.1813H57.4562ZM59.393 48.2965C59.2298 48.145 58.9895 48.0978 58.6724 48.0819C58.3534 48.0659 57.9208 48.0813 57.3562 48.0813V48.2812C57.9325 48.2812 58.3496 48.2659 58.6624 48.2816C58.9772 48.2975 59.1508 48.3446 59.2569 48.4431L59.393 48.2965ZM59.6524 51.3364C59.6524 50.3939 59.6775 49.7204 59.6615 49.2522C59.6535 49.017 59.635 48.8249 59.5956 48.6702C59.5559 48.5141 59.4934 48.3897 59.393 48.2965L59.2569 48.4431C59.3204 48.502 59.3682 48.5872 59.4018 48.7195C59.4358 48.853 59.4537 49.0279 59.4616 49.2591C59.4775 49.7239 59.4524 50.3815 59.4524 51.3364H59.6524ZM60.3069 51.2177C60.0647 51.2269 59.8108 51.2364 59.5524 51.2364V51.4364C59.8152 51.4364 60.0728 51.4267 60.3144 51.4176L60.3069 51.2177ZM62.0763 51.8258C62.0763 51.6593 62.0219 51.5259 61.9159 51.4273C61.8135 51.3321 61.6724 51.278 61.5144 51.2463C61.2007 51.1833 60.7702 51.2002 60.3069 51.2177L60.3144 51.4176C60.7877 51.3997 61.1901 51.3852 61.475 51.4424C61.6164 51.4707 61.716 51.5146 61.7797 51.5738C61.8396 51.6295 61.8763 51.7068 61.8763 51.8258H62.0763ZM62.0763 55.4704V51.8258H61.8763V55.4704H62.0763ZM61.4875 56.0599C61.6564 56.0599 61.8051 56.0021 61.9119 55.8951C62.0187 55.7882 62.0763 55.6392 62.0763 55.4704H61.8763C61.8763 55.593 61.8352 55.6889 61.7704 55.7538C61.7056 55.8187 61.61 55.8599 61.4875 55.8599V56.0599ZM7.53786 56.0599H61.4875V55.8599H7.53786V56.0599ZM6.94902 55.4704C6.94902 55.6392 7.00663 55.7882 7.11339 55.8951C7.22017 56.0021 7.36895 56.0599 7.53786 56.0599V55.8599C7.41537 55.8599 7.31973 55.8187 7.25493 55.7538C7.19013 55.6889 7.14902 55.593 7.14902 55.4704H6.94902ZM7.16354 51.3758C7.04716 51.4774 6.9828 51.6235 6.9464 51.8134C6.91016 52.0024 6.89937 52.2472 6.90003 52.5595C6.90068 52.8727 6.91299 53.2614 6.92504 53.7396C6.93712 54.2186 6.94902 54.7896 6.94902 55.4704H7.14902C7.14902 54.7872 7.13707 54.2143 7.12498 53.7345C7.11287 53.254 7.10068 52.8692 7.10003 52.5591C7.09938 52.248 7.11047 52.0198 7.14283 51.851C7.17502 51.6831 7.22596 51.5868 7.2951 51.5264L7.16354 51.3758ZM9.47392 51.2364C9.14418 51.2364 8.85757 51.2279 8.60805 51.2189C8.35943 51.21 8.14505 51.2006 7.96357 51.1991C7.78238 51.1977 7.62726 51.204 7.49706 51.2284C7.36588 51.253 7.25361 51.2971 7.16354 51.3758L7.2951 51.5264C7.34952 51.4789 7.42432 51.4455 7.53392 51.425C7.6445 51.4042 7.78386 51.3977 7.96196 51.3991C8.13977 51.4005 8.34949 51.4098 8.60088 51.4188C8.85138 51.4278 9.1407 51.4364 9.47392 51.4364V51.2364ZM9.36214 50.6469C9.36803 50.8769 9.37392 51.1075 9.37392 51.3364H9.57392C9.57392 51.1045 9.56795 50.8714 9.56208 50.6417L9.36214 50.6469ZM9.63277 48.2526C9.47284 48.5856 9.40055 48.9689 9.37019 49.3739C9.33984 49.7787 9.35103 50.2124 9.36214 50.6469L9.56208 50.6417C9.55091 50.2051 9.54017 49.7818 9.56963 49.3888C9.59908 48.996 9.66833 48.6406 9.81306 48.3392L9.63277 48.2526ZM11.0138 48.0703C10.5434 48.0567 10.3424 48.0514 9.70059 48.1984L9.74524 48.3934C10.3664 48.2511 10.5497 48.257 11.008 48.2702L11.0138 48.0703ZM11.6691 48.0813C11.3908 48.0813 11.1844 48.0753 11.0138 48.0703L11.008 48.2702C11.1789 48.2752 11.3877 48.2812 11.6691 48.2812V48.0813ZM11.5691 21.9093V48.1813H11.7691V21.9093H11.5691ZM9.58886 21.774C9.74666 21.9303 9.98615 21.9823 10.3088 22.0019C10.6342 22.0218 11.079 22.0093 11.6691 22.0093V21.8093C11.0692 21.8093 10.6383 21.8216 10.3209 21.8023C10.0007 21.7828 9.8303 21.7316 9.72961 21.6319L9.58886 21.774ZM9.37392 18.8687C9.37392 19.314 9.36622 19.6944 9.35946 20.0198C9.35272 20.3446 9.34686 20.6166 9.35076 20.8425C9.35465 21.0678 9.36825 21.2534 9.40244 21.4043C9.4369 21.5563 9.49375 21.6798 9.58886 21.774L9.72961 21.6319C9.67028 21.5731 9.62674 21.4891 9.5975 21.3601C9.56798 21.2298 9.55456 21.0609 9.55073 20.839C9.54691 20.6178 9.55265 20.3502 9.55942 20.024C9.56618 19.6984 9.57392 19.3163 9.57392 18.8687H9.37392ZM39.8279 16.1351L33.9453 22.4378L34.0915 22.5743L39.9741 16.2715L39.8279 16.1351ZM38.8498 15.359L39.8328 16.2764L39.9692 16.1302L38.9863 15.2128L38.8498 15.359ZM33.5834 21.1481L38.9911 15.3541L38.8449 15.2177L33.4372 21.0117L33.5834 21.1481ZM30.5702 18.2812L33.4396 21.1506L33.581 21.0092L30.7116 18.1398L30.5702 18.2812ZM29.7608 19.232L30.7116 18.2812L30.5702 18.1398L29.6194 19.0906L29.7608 19.232ZM33.1223 22.452L29.7608 19.0906L29.6194 19.232L32.9809 22.5934L33.1223 22.452ZM33.5368 22.6195C33.3816 22.6222 33.232 22.5618 33.1223 22.452L32.9809 22.5934C33.129 22.7415 33.3309 22.8231 33.5403 22.8195L33.5368 22.6195ZM33.9453 22.4378C33.8394 22.5513 33.692 22.6169 33.5368 22.6195L33.5403 22.8195C33.7497 22.8159 33.9486 22.7274 34.0915 22.5743L33.9453 22.4378Z" fill="white" mask="url(#path-1-outside-1_113_3156)"/>
</g>
<defs>
<filter id="filter0_d_113_3156" x="0.900391" y="0.900391" width="67.2002" height="71.1592" filterUnits="userSpaceOnUse" color-interpolation-filters="sRGB">
<feFlood flood-opacity="0" result="BackgroundImageFix"/>
<feColorMatrix in="SourceAlpha" type="matrix" values="0 0 0 0 0 0 0 0 0 0 0 0 0 0 0 0 0 0 127 0" result="hardAlpha"/>
<feOffset dy="10"/>
<feGaussianBlur stdDeviation="3"/>
<feComposite in2="hardAlpha" operator="out"/>
<feColorMatrix type="matrix" values="0 0 0 0 0 0 0 0 0 0 0 0 0 0 0 0 0 0 0.1 0"/>
<feBlend mode="normal" in2="BackgroundImageFix" result="effect1_dropShadow_113_3156"/>
<feBlend mode="normal" in="SourceGraphic" in2="effect1_dropShadow_113_3156" result="shape"/>
</filter>
</defs>
</svg>
