<svg width="61" height="73" viewBox="0 0 61 73" fill="none" xmlns="http://www.w3.org/2000/svg">
<g filter="url(#filter0_d_113_3144)">
<mask id="path-1-outside-1_113_3144" maskUnits="userSpaceOnUse" x="6" y="0" width="49" height="57" fill="black">
<rect fill="white" x="6" width="49" height="57"/>
<path fill-rule="evenodd" clip-rule="evenodd" d="M10.2737 1.98212H43.6657C44.9313 1.98212 45.9573 3.0081 45.9573 4.27372V22.6066C45.9573 23.8722 44.9313 24.8982 43.6657 24.8982H37.773H36.7909H36.7908V25.8803H36.7909V31.4258L36.7908 31.4257V31.4455L29.9316 24.8982H28.6066H10.2737C9.0081 24.8982 7.98212 23.8722 7.98212 22.6066V4.27372C7.98212 3.0081 9.0081 1.98212 10.2737 1.98212ZM29.6251 25.8803H10.2737C8.4657 25.8803 7 24.4146 7 22.6066V4.27372C7 2.46569 8.46569 1 10.2737 1H43.6657C45.4737 1 46.9394 2.46569 46.9394 4.27372V22.6066C46.9394 24.4146 45.4737 25.8803 43.6657 25.8803H37.773V32.3729V33.7372L36.7909 32.7902L29.6251 25.8803ZM25.7993 15.7545L25.7992 15.7546C25.6843 16.3722 25.561 17.0348 25.561 17.5083C25.7853 17.4565 26.2011 17.2251 26.5599 17.0255L26.56 17.0255L26.56 17.0255C26.7071 16.9437 26.8446 16.8672 26.9554 16.8106C27.0815 16.7475 27.1946 16.6895 27.2973 16.6369L27.2974 16.6369C27.7394 16.4104 27.9871 16.2835 28.2385 16.2757C28.5589 16.2657 28.8854 16.4491 29.628 16.8663C29.9771 17.0624 30.4181 17.3101 30.9937 17.6137L30.9915 17.6044C30.8659 17.0596 30.3382 14.7721 30.5962 14.401C30.6812 14.2769 31.0528 13.9219 31.4448 13.5473L31.4449 13.5473L31.4449 13.5473L31.445 13.5472C31.9499 13.0647 32.4888 12.5498 32.4934 12.4539C32.4971 12.2628 31.9882 12.2215 31.383 12.1725C30.6524 12.1132 29.7813 12.0426 29.5019 11.6832C29.3235 11.4398 28.3418 9.44403 28.277 9.14385L26.9554 11.6913C26.7156 12.035 25.777 12.1247 25.1117 12.1882L25.1116 12.1882C24.9445 12.2042 24.7946 12.2185 24.6773 12.2348C24.5987 12.2453 24.5265 12.2543 24.4605 12.2625L24.4605 12.2625C24.1457 12.3017 23.9748 12.323 23.947 12.3976C23.9139 12.4863 24.0829 12.6502 24.4527 13.0088C24.5676 13.1203 24.7019 13.2505 24.8555 13.4032C25.1208 13.6686 25.3277 13.8584 25.4871 14.0046L25.4872 14.0047L25.4873 14.0049L25.4873 14.0049C25.9756 14.4528 26.0177 14.4914 25.926 15.0419C25.891 15.2617 25.8458 15.5044 25.7993 15.7545ZM24.9283 14.7904C24.5472 14.5876 22.2124 12.4864 22.2124 11.9671C22.2124 11.4804 23.5768 11.3222 24.654 11.1974C24.9413 11.1641 25.2081 11.1332 25.4232 11.099C25.5454 11.0803 25.6491 11.0739 25.7397 11.0682L25.7397 11.0682C26.0037 11.0517 26.1564 11.0422 26.3314 10.7583C26.5834 10.3618 26.8121 9.81379 27.0348 9.27998L27.0348 9.27995C27.6005 7.92421 28.128 6.66016 28.9017 8.20271C29.3699 9.13063 29.6475 9.75155 29.8342 10.1693L29.8343 10.1694L29.8343 10.1694C30.0758 10.7097 30.1654 10.91 30.3188 10.995C30.4093 11.0451 30.5219 11.0551 30.7008 11.0711C30.8291 11.0825 30.9915 11.097 31.2043 11.1315C31.5215 11.1837 31.8599 11.2198 32.1914 11.2552C33.2496 11.368 34.237 11.4734 34.237 12.0726C34.237 12.389 31.7475 14.7418 31.5123 14.8959C31.6685 15.5601 31.7946 16.3448 31.9052 17.0324L31.9178 17.1107C31.9326 17.2 31.9572 17.3113 31.9844 17.4348L31.9844 17.4348C32.1206 18.0527 32.3243 18.9768 31.723 18.9768C31.2851 18.9768 30.4628 18.4944 29.7079 18.0517L29.7079 18.0517L29.7079 18.0517C29.0508 17.6663 28.4449 17.3109 28.1883 17.3298L25.7067 18.6035C23.9848 19.6502 24.2478 18.4039 24.5971 16.7491C24.7297 16.1207 24.8748 15.4335 24.9283 14.7904ZM47.402 27.9696V54.7424C47.402 54.9858 47.4749 55.0588 47.71 55.0588H53.3613V27.9696H47.402ZM46.4613 55.5781V27.4504C46.4613 27.0366 46.9804 26.923 47.402 26.923H53.4587C53.8884 26.923 54.4073 27.0366 54.4073 27.4504V55.5781C54.4073 55.8296 54.2285 55.9999 53.9852 55.9999H46.8747C46.6314 55.9999 46.4613 55.8296 46.4613 55.5781ZM30.8886 36.7441H24.9285V55.047H30.8886V36.7441ZM23.9879 55.5662V36.1195C23.9879 35.795 24.2962 35.6976 24.6205 35.6976H31.4152C31.6584 35.6976 31.9346 35.9816 31.9346 36.2249V55.3634C31.9346 55.6798 31.8369 55.9881 31.5125 55.9881H24.4099C24.1666 55.9881 23.9879 55.8177 23.9879 55.5662ZM36.2108 39.785H42.1621V55.0537H36.2108V39.785ZM35.1648 39.4687V55.3701C35.1648 55.6865 35.2619 55.9948 35.5781 55.9948H42.6887C43.0211 55.9948 43.2081 55.6135 43.2081 55.2646V39.6796C43.2081 39.4727 43.1836 39.3694 43.1567 39.2558C43.1372 39.1735 43.1164 39.0858 43.1028 38.9494C42.2822 38.7585 39.0112 38.8022 36.9388 38.83H36.9388H36.9386C36.3695 38.8376 35.8908 38.844 35.5781 38.844C35.2619 38.844 35.1648 39.1523 35.1648 39.4687ZM13.7388 45.5321H19.6988V55.0486H13.7388V45.5321ZM12.7981 44.591C12.5984 45.4613 12.6496 50.6353 12.679 53.6109C12.6866 54.3798 12.6928 55.0019 12.6928 55.365C12.6928 55.6814 12.7905 55.9897 13.1148 55.9897H20.2175C20.4607 55.9897 20.6395 55.8193 20.6395 55.5678V44.9074C20.6395 44.6559 20.4607 44.4855 20.2175 44.4855C20.0185 44.4855 19.6541 44.4812 19.1893 44.4758L19.1882 44.4758H19.188H19.1879H19.1879C17.1705 44.4522 13.2659 44.4064 12.7981 44.591ZM16.8086 13.6743C16.4681 13.9907 15.4138 14.0637 14.7895 14.0637C14.8873 14.2105 15.0873 14.4003 15.3047 14.6065L15.3047 14.6065L15.3047 14.6065C15.6998 14.9813 16.1522 15.4105 16.1522 15.735C16.1522 16.0617 16.1012 16.3239 16.0493 16.5907L16.0493 16.5907C15.9955 16.8671 15.9408 17.1484 15.9408 17.5117C16.1753 17.4575 16.4548 17.2893 16.7349 17.1207C17.0843 16.9104 17.4347 16.6995 17.7002 16.7085C17.8811 16.7126 18.1952 16.8856 18.534 17.0721C18.8635 17.2535 19.2162 17.4477 19.4921 17.5117C19.4864 17.2608 19.4192 16.9874 19.3525 16.7158C19.2316 16.2234 19.1122 15.737 19.3631 15.4023C19.4932 15.2213 19.6779 15.0626 19.8638 14.903C20.1527 14.6548 20.4444 14.4043 20.5381 14.0637C19.9949 14.0637 18.7951 13.9095 18.5356 13.658C18.3653 13.4876 17.8951 12.3843 17.8222 12.076H17.6115C17.5386 12.3843 17.0113 13.4877 16.8086 13.6743ZM13.5732 13.2686C13.8489 13.1794 15.8279 12.9117 16.1522 12.9117C16.225 12.596 16.4565 12.1531 16.6568 11.77C16.7242 11.6411 16.788 11.519 16.8411 11.4107C16.8966 11.3029 16.9427 11.2006 16.986 11.1047L16.9861 11.1047C17.1643 10.71 17.2938 10.4233 17.8222 10.2992C18.2071 10.6334 18.5072 11.3099 18.7618 11.884L18.7618 11.884L18.7618 11.884C18.9523 12.3136 19.1174 12.6858 19.2736 12.8142C19.4967 12.9948 20.0199 13.0412 20.5638 13.0894H20.5638C21.3639 13.1604 22.2089 13.2353 22.2089 13.7472C22.2089 14.1529 20.6114 15.735 20.2222 15.8405C20.3925 16.5544 20.6442 17.7389 20.6442 18.5583C20.6442 19.4135 19.4152 18.7188 18.5352 18.2214C18.1546 18.0063 17.8393 17.8281 17.7169 17.8281C17.4539 17.8281 17.0122 18.0907 16.5482 18.3664C15.567 18.9495 14.4867 19.5916 14.7895 17.9336C14.8157 17.7789 14.84 17.6284 14.864 17.4791C14.9068 17.2134 14.949 16.9513 15.0009 16.676C15.0202 16.5677 15.0403 16.4767 15.0577 16.3979L15.0577 16.3978L15.0577 16.3978C15.1354 16.0457 15.1598 15.9351 14.822 15.597C14.6832 15.4582 14.5189 15.3074 14.3487 15.1513L14.3486 15.1512L14.3486 15.1512C13.5544 14.4225 12.6318 13.5759 13.5732 13.2686ZM40.5036 17.5117C40.2748 17.4608 39.9875 17.2895 39.6999 17.1181C39.3454 16.9067 38.9904 16.6951 38.7442 16.7085C38.5786 16.7206 38.2621 16.8898 37.922 17.0715L37.922 17.0715C37.5793 17.2547 37.2127 17.4506 36.9523 17.5117C36.9677 17.3293 37.0164 17.0988 37.0678 16.8557C37.1788 16.3311 37.3022 15.7473 37.1305 15.4591C36.9873 15.2305 36.7782 15.0622 36.5713 14.8957C36.2861 14.6661 36.005 14.4398 35.9063 14.0637C36.3022 14.0637 36.5383 14.0253 36.8359 13.977L36.9523 13.9582C37.0204 13.9478 37.0885 13.9394 37.1557 13.931L37.1557 13.931C37.4565 13.8936 37.7386 13.8585 37.9175 13.6661C38.0597 13.5167 38.1707 13.2535 38.2868 12.9783C38.4354 12.6258 38.5924 12.2537 38.8337 12.076C38.9066 12.3843 39.4339 13.4877 39.6366 13.6743C39.9771 13.9907 41.0306 14.0637 41.6549 14.0637C41.6314 14.1284 41.6167 14.172 41.6067 14.2017C41.5909 14.2486 41.5867 14.261 41.5781 14.2667C41.5751 14.2688 41.5714 14.27 41.5665 14.2717C41.5457 14.2788 41.5017 14.2937 41.3794 14.4126C41.323 14.4657 41.2802 14.5039 41.2405 14.5393L41.2404 14.5394C41.1831 14.5906 41.1321 14.6361 41.0555 14.7127C40.1782 15.5852 40.2183 15.7479 40.3472 16.2702C40.4136 16.5395 40.5036 16.9044 40.5036 17.5117ZM34.2363 13.6418C34.2363 14.2908 35.7041 15.4997 36.223 15.8405C35.3642 19.5025 35.8005 19.2852 37.4215 18.4778L37.4717 18.4528C37.7914 18.2937 38.0176 18.1639 38.1895 18.0653C38.4358 17.9239 38.5707 17.8466 38.7096 17.8385C38.8776 17.8288 39.0515 17.9207 39.4358 18.1238C39.5747 18.1972 39.7411 18.2851 39.9446 18.3879C40.1036 18.4662 40.2404 18.5512 40.37 18.6317C40.67 18.8179 40.9313 18.9802 41.339 18.9802C41.9299 18.9802 41.7308 18.0712 41.5421 17.2095C41.4149 16.6286 41.2924 16.0692 41.4198 15.8242C41.5126 15.6507 41.7865 15.4051 42.0994 15.1243C42.6061 14.6698 43.2154 14.1232 43.3257 13.6418C42.9726 13.2351 42.7948 13.2174 42.3198 13.17C42.2167 13.1597 42.0997 13.148 41.9637 13.1307C41.8096 13.109 41.6455 13.0809 41.4772 13.052C41.0789 12.9838 40.6578 12.9117 40.293 12.9117C40.2207 12.6043 40.0055 12.194 39.8164 11.8337C39.751 11.709 39.6887 11.5902 39.6366 11.4838C39.5828 11.3761 39.5368 11.2722 39.4932 11.1735C39.3066 10.7516 39.1618 10.4242 38.623 10.2992C38.2354 10.6331 37.9189 11.3443 37.6593 11.9275C37.4899 12.3081 37.3448 12.6343 37.2199 12.7656C36.9897 13.0024 36.447 13.0474 36.0091 13.0837C35.8918 13.0934 35.782 13.1025 35.6878 13.1145C35.6404 13.1209 35.5855 13.1275 35.5252 13.1347C35.048 13.1918 34.2363 13.2889 34.2363 13.6418Z"/>
</mask>
<path fill-rule="evenodd" clip-rule="evenodd" d="M10.2737 1.98212H43.6657C44.9313 1.98212 45.9573 3.0081 45.9573 4.27372V22.6066C45.9573 23.8722 44.9313 24.8982 43.6657 24.8982H37.773H36.7909H36.7908V25.8803H36.7909V31.4258L36.7908 31.4257V31.4455L29.9316 24.8982H28.6066H10.2737C9.0081 24.8982 7.98212 23.8722 7.98212 22.6066V4.27372C7.98212 3.0081 9.0081 1.98212 10.2737 1.98212ZM29.6251 25.8803H10.2737C8.4657 25.8803 7 24.4146 7 22.6066V4.27372C7 2.46569 8.46569 1 10.2737 1H43.6657C45.4737 1 46.9394 2.46569 46.9394 4.27372V22.6066C46.9394 24.4146 45.4737 25.8803 43.6657 25.8803H37.773V32.3729V33.7372L36.7909 32.7902L29.6251 25.8803ZM25.7993 15.7545L25.7992 15.7546C25.6843 16.3722 25.561 17.0348 25.561 17.5083C25.7853 17.4565 26.2011 17.2251 26.5599 17.0255L26.56 17.0255L26.56 17.0255C26.7071 16.9437 26.8446 16.8672 26.9554 16.8106C27.0815 16.7475 27.1946 16.6895 27.2973 16.6369L27.2974 16.6369C27.7394 16.4104 27.9871 16.2835 28.2385 16.2757C28.5589 16.2657 28.8854 16.4491 29.628 16.8663C29.9771 17.0624 30.4181 17.3101 30.9937 17.6137L30.9915 17.6044C30.8659 17.0596 30.3382 14.7721 30.5962 14.401C30.6812 14.2769 31.0528 13.9219 31.4448 13.5473L31.4449 13.5473L31.4449 13.5473L31.445 13.5472C31.9499 13.0647 32.4888 12.5498 32.4934 12.4539C32.4971 12.2628 31.9882 12.2215 31.383 12.1725C30.6524 12.1132 29.7813 12.0426 29.5019 11.6832C29.3235 11.4398 28.3418 9.44403 28.277 9.14385L26.9554 11.6913C26.7156 12.035 25.777 12.1247 25.1117 12.1882L25.1116 12.1882C24.9445 12.2042 24.7946 12.2185 24.6773 12.2348C24.5987 12.2453 24.5265 12.2543 24.4605 12.2625L24.4605 12.2625C24.1457 12.3017 23.9748 12.323 23.947 12.3976C23.9139 12.4863 24.0829 12.6502 24.4527 13.0088C24.5676 13.1203 24.7019 13.2505 24.8555 13.4032C25.1208 13.6686 25.3277 13.8584 25.4871 14.0046L25.4872 14.0047L25.4873 14.0049L25.4873 14.0049C25.9756 14.4528 26.0177 14.4914 25.926 15.0419C25.891 15.2617 25.8458 15.5044 25.7993 15.7545ZM24.9283 14.7904C24.5472 14.5876 22.2124 12.4864 22.2124 11.9671C22.2124 11.4804 23.5768 11.3222 24.654 11.1974C24.9413 11.1641 25.2081 11.1332 25.4232 11.099C25.5454 11.0803 25.6491 11.0739 25.7397 11.0682L25.7397 11.0682C26.0037 11.0517 26.1564 11.0422 26.3314 10.7583C26.5834 10.3618 26.8121 9.81379 27.0348 9.27998L27.0348 9.27995C27.6005 7.92421 28.128 6.66016 28.9017 8.20271C29.3699 9.13063 29.6475 9.75155 29.8342 10.1693L29.8343 10.1694L29.8343 10.1694C30.0758 10.7097 30.1654 10.91 30.3188 10.995C30.4093 11.0451 30.5219 11.0551 30.7008 11.0711C30.8291 11.0825 30.9915 11.097 31.2043 11.1315C31.5215 11.1837 31.8599 11.2198 32.1914 11.2552C33.2496 11.368 34.237 11.4734 34.237 12.0726C34.237 12.389 31.7475 14.7418 31.5123 14.8959C31.6685 15.5601 31.7946 16.3448 31.9052 17.0324L31.9178 17.1107C31.9326 17.2 31.9572 17.3113 31.9844 17.4348L31.9844 17.4348C32.1206 18.0527 32.3243 18.9768 31.723 18.9768C31.2851 18.9768 30.4628 18.4944 29.7079 18.0517L29.7079 18.0517L29.7079 18.0517C29.0508 17.6663 28.4449 17.3109 28.1883 17.3298L25.7067 18.6035C23.9848 19.6502 24.2478 18.4039 24.5971 16.7491C24.7297 16.1207 24.8748 15.4335 24.9283 14.7904ZM47.402 27.9696V54.7424C47.402 54.9858 47.4749 55.0588 47.71 55.0588H53.3613V27.9696H47.402ZM46.4613 55.5781V27.4504C46.4613 27.0366 46.9804 26.923 47.402 26.923H53.4587C53.8884 26.923 54.4073 27.0366 54.4073 27.4504V55.5781C54.4073 55.8296 54.2285 55.9999 53.9852 55.9999H46.8747C46.6314 55.9999 46.4613 55.8296 46.4613 55.5781ZM30.8886 36.7441H24.9285V55.047H30.8886V36.7441ZM23.9879 55.5662V36.1195C23.9879 35.795 24.2962 35.6976 24.6205 35.6976H31.4152C31.6584 35.6976 31.9346 35.9816 31.9346 36.2249V55.3634C31.9346 55.6798 31.8369 55.9881 31.5125 55.9881H24.4099C24.1666 55.9881 23.9879 55.8177 23.9879 55.5662ZM36.2108 39.785H42.1621V55.0537H36.2108V39.785ZM35.1648 39.4687V55.3701C35.1648 55.6865 35.2619 55.9948 35.5781 55.9948H42.6887C43.0211 55.9948 43.2081 55.6135 43.2081 55.2646V39.6796C43.2081 39.4727 43.1836 39.3694 43.1567 39.2558C43.1372 39.1735 43.1164 39.0858 43.1028 38.9494C42.2822 38.7585 39.0112 38.8022 36.9388 38.83H36.9388H36.9386C36.3695 38.8376 35.8908 38.844 35.5781 38.844C35.2619 38.844 35.1648 39.1523 35.1648 39.4687ZM13.7388 45.5321H19.6988V55.0486H13.7388V45.5321ZM12.7981 44.591C12.5984 45.4613 12.6496 50.6353 12.679 53.6109C12.6866 54.3798 12.6928 55.0019 12.6928 55.365C12.6928 55.6814 12.7905 55.9897 13.1148 55.9897H20.2175C20.4607 55.9897 20.6395 55.8193 20.6395 55.5678V44.9074C20.6395 44.6559 20.4607 44.4855 20.2175 44.4855C20.0185 44.4855 19.6541 44.4812 19.1893 44.4758L19.1882 44.4758H19.188H19.1879H19.1879C17.1705 44.4522 13.2659 44.4064 12.7981 44.591ZM16.8086 13.6743C16.4681 13.9907 15.4138 14.0637 14.7895 14.0637C14.8873 14.2105 15.0873 14.4003 15.3047 14.6065L15.3047 14.6065L15.3047 14.6065C15.6998 14.9813 16.1522 15.4105 16.1522 15.735C16.1522 16.0617 16.1012 16.3239 16.0493 16.5907L16.0493 16.5907C15.9955 16.8671 15.9408 17.1484 15.9408 17.5117C16.1753 17.4575 16.4548 17.2893 16.7349 17.1207C17.0843 16.9104 17.4347 16.6995 17.7002 16.7085C17.8811 16.7126 18.1952 16.8856 18.534 17.0721C18.8635 17.2535 19.2162 17.4477 19.4921 17.5117C19.4864 17.2608 19.4192 16.9874 19.3525 16.7158C19.2316 16.2234 19.1122 15.737 19.3631 15.4023C19.4932 15.2213 19.6779 15.0626 19.8638 14.903C20.1527 14.6548 20.4444 14.4043 20.5381 14.0637C19.9949 14.0637 18.7951 13.9095 18.5356 13.658C18.3653 13.4876 17.8951 12.3843 17.8222 12.076H17.6115C17.5386 12.3843 17.0113 13.4877 16.8086 13.6743ZM13.5732 13.2686C13.8489 13.1794 15.8279 12.9117 16.1522 12.9117C16.225 12.596 16.4565 12.1531 16.6568 11.77C16.7242 11.6411 16.788 11.519 16.8411 11.4107C16.8966 11.3029 16.9427 11.2006 16.986 11.1047L16.9861 11.1047C17.1643 10.71 17.2938 10.4233 17.8222 10.2992C18.2071 10.6334 18.5072 11.3099 18.7618 11.884L18.7618 11.884L18.7618 11.884C18.9523 12.3136 19.1174 12.6858 19.2736 12.8142C19.4967 12.9948 20.0199 13.0412 20.5638 13.0894H20.5638C21.3639 13.1604 22.2089 13.2353 22.2089 13.7472C22.2089 14.1529 20.6114 15.735 20.2222 15.8405C20.3925 16.5544 20.6442 17.7389 20.6442 18.5583C20.6442 19.4135 19.4152 18.7188 18.5352 18.2214C18.1546 18.0063 17.8393 17.8281 17.7169 17.8281C17.4539 17.8281 17.0122 18.0907 16.5482 18.3664C15.567 18.9495 14.4867 19.5916 14.7895 17.9336C14.8157 17.7789 14.84 17.6284 14.864 17.4791C14.9068 17.2134 14.949 16.9513 15.0009 16.676C15.0202 16.5677 15.0403 16.4767 15.0577 16.3979L15.0577 16.3978L15.0577 16.3978C15.1354 16.0457 15.1598 15.9351 14.822 15.597C14.6832 15.4582 14.5189 15.3074 14.3487 15.1513L14.3486 15.1512L14.3486 15.1512C13.5544 14.4225 12.6318 13.5759 13.5732 13.2686ZM40.5036 17.5117C40.2748 17.4608 39.9875 17.2895 39.6999 17.1181C39.3454 16.9067 38.9904 16.6951 38.7442 16.7085C38.5786 16.7206 38.2621 16.8898 37.922 17.0715L37.922 17.0715C37.5793 17.2547 37.2127 17.4506 36.9523 17.5117C36.9677 17.3293 37.0164 17.0988 37.0678 16.8557C37.1788 16.3311 37.3022 15.7473 37.1305 15.4591C36.9873 15.2305 36.7782 15.0622 36.5713 14.8957C36.2861 14.6661 36.005 14.4398 35.9063 14.0637C36.3022 14.0637 36.5383 14.0253 36.8359 13.977L36.9523 13.9582C37.0204 13.9478 37.0885 13.9394 37.1557 13.931L37.1557 13.931C37.4565 13.8936 37.7386 13.8585 37.9175 13.6661C38.0597 13.5167 38.1707 13.2535 38.2868 12.9783C38.4354 12.6258 38.5924 12.2537 38.8337 12.076C38.9066 12.3843 39.4339 13.4877 39.6366 13.6743C39.9771 13.9907 41.0306 14.0637 41.6549 14.0637C41.6314 14.1284 41.6167 14.172 41.6067 14.2017C41.5909 14.2486 41.5867 14.261 41.5781 14.2667C41.5751 14.2688 41.5714 14.27 41.5665 14.2717C41.5457 14.2788 41.5017 14.2937 41.3794 14.4126C41.323 14.4657 41.2802 14.5039 41.2405 14.5393L41.2404 14.5394C41.1831 14.5906 41.1321 14.6361 41.0555 14.7127C40.1782 15.5852 40.2183 15.7479 40.3472 16.2702C40.4136 16.5395 40.5036 16.9044 40.5036 17.5117ZM34.2363 13.6418C34.2363 14.2908 35.7041 15.4997 36.223 15.8405C35.3642 19.5025 35.8005 19.2852 37.4215 18.4778L37.4717 18.4528C37.7914 18.2937 38.0176 18.1639 38.1895 18.0653C38.4358 17.9239 38.5707 17.8466 38.7096 17.8385C38.8776 17.8288 39.0515 17.9207 39.4358 18.1238C39.5747 18.1972 39.7411 18.2851 39.9446 18.3879C40.1036 18.4662 40.2404 18.5512 40.37 18.6317C40.67 18.8179 40.9313 18.9802 41.339 18.9802C41.9299 18.9802 41.7308 18.0712 41.5421 17.2095C41.4149 16.6286 41.2924 16.0692 41.4198 15.8242C41.5126 15.6507 41.7865 15.4051 42.0994 15.1243C42.6061 14.6698 43.2154 14.1232 43.3257 13.6418C42.9726 13.2351 42.7948 13.2174 42.3198 13.17C42.2167 13.1597 42.0997 13.148 41.9637 13.1307C41.8096 13.109 41.6455 13.0809 41.4772 13.052C41.0789 12.9838 40.6578 12.9117 40.293 12.9117C40.2207 12.6043 40.0055 12.194 39.8164 11.8337C39.751 11.709 39.6887 11.5902 39.6366 11.4838C39.5828 11.3761 39.5368 11.2722 39.4932 11.1735C39.3066 10.7516 39.1618 10.4242 38.623 10.2992C38.2354 10.6331 37.9189 11.3443 37.6593 11.9275C37.4899 12.3081 37.3448 12.6343 37.2199 12.7656C36.9897 13.0024 36.447 13.0474 36.0091 13.0837C35.8918 13.0934 35.782 13.1025 35.6878 13.1145C35.6404 13.1209 35.5855 13.1275 35.5252 13.1347C35.048 13.1918 34.2363 13.2889 34.2363 13.6418Z" fill="white"/>
<path d="M36.7908 24.8982V24.6982C36.6803 24.6982 36.5908 24.7877 36.5908 24.8982H36.7908ZM36.7908 25.8803H36.5908C36.5908 25.9907 36.6803 26.0803 36.7908 26.0803V25.8803ZM36.7909 25.8803H36.9909C36.9909 25.7698 36.9013 25.6803 36.7909 25.6803V25.8803ZM36.7909 31.4258L36.6524 31.5702C36.7102 31.6256 36.7956 31.6412 36.8693 31.6098C36.943 31.5784 36.9909 31.506 36.9909 31.4258H36.7909ZM36.7908 31.4257L36.9292 31.2814C36.8714 31.2259 36.786 31.2103 36.7123 31.2418C36.6386 31.2732 36.5908 31.3456 36.5908 31.4257H36.7908ZM36.7908 31.4455L36.6527 31.5902C36.7106 31.6454 36.7959 31.6609 36.8694 31.6294C36.943 31.5979 36.9908 31.5256 36.9908 31.4455H36.7908ZM29.9316 24.8982L30.0697 24.7535C30.0325 24.718 29.9831 24.6982 29.9316 24.6982V24.8982ZM29.6251 25.8803L29.7639 25.7363C29.7266 25.7004 29.6768 25.6803 29.6251 25.6803V25.8803ZM37.773 25.8803V25.6803C37.6625 25.6803 37.573 25.7698 37.573 25.8803H37.773ZM37.773 33.7372L37.6342 33.8812C37.6919 33.9369 37.7773 33.9527 37.8512 33.9213C37.925 33.8899 37.973 33.8174 37.973 33.7372H37.773ZM36.7909 32.7902L36.652 32.9341L36.7909 32.7902ZM25.7992 15.7546L25.6069 15.6996C25.6052 15.7057 25.6038 15.7118 25.6026 15.718L25.7992 15.7546ZM25.7993 15.7545L25.9916 15.8095C25.9933 15.8034 25.9947 15.7973 25.9959 15.7911L25.7993 15.7545ZM25.561 17.5083H25.361C25.361 17.5692 25.3888 17.6268 25.4365 17.6648C25.4842 17.7027 25.5466 17.7168 25.606 17.7031L25.561 17.5083ZM26.5599 17.0255L26.4704 16.8465L26.4627 16.8507L26.5599 17.0255ZM26.56 17.0255L26.6495 17.2046L26.6572 17.2003L26.56 17.0255ZM26.9554 16.8106L26.8659 16.6317L26.8644 16.6325L26.9554 16.8106ZM27.2973 16.6369L27.3884 16.8149L27.3898 16.8143L27.2973 16.6369ZM27.2974 16.6369L27.2062 16.4589L27.2049 16.4595L27.2974 16.6369ZM28.2385 16.2757L28.2322 16.0758L28.2385 16.2757ZM29.628 16.8663L29.5301 17.0406L29.628 16.8663ZM30.9937 17.6137L30.9004 17.7906C30.9696 17.8271 31.0537 17.8199 31.1157 17.7722C31.1777 17.7245 31.2062 17.645 31.1886 17.5688L30.9937 17.6137ZM30.9915 17.6044L31.1864 17.5594L31.1864 17.5594L30.9915 17.6044ZM30.5962 14.401L30.7604 14.5152L30.7612 14.5141L30.5962 14.401ZM31.4448 13.5473L31.3165 13.3933L31.3067 13.4027L31.4448 13.5473ZM31.4449 13.5473L31.573 13.7011L31.5787 13.696L31.4449 13.5473ZM31.4449 13.5473L31.5787 13.6959L31.5806 13.6942L31.4449 13.5473ZM31.445 13.5472L31.5807 13.6942L31.5832 13.6918L31.445 13.5472ZM32.4934 12.4539L32.6933 12.4634L32.6934 12.4577L32.4934 12.4539ZM31.383 12.1725L31.3668 12.3718L31.383 12.1725ZM29.5019 11.6832L29.3405 11.8015L29.344 11.806L29.5019 11.6832ZM28.277 9.14385L28.4724 9.1016C28.4546 9.01918 28.387 8.95678 28.3034 8.94561C28.2199 8.93444 28.1383 8.97689 28.0994 9.05175L28.277 9.14385ZM26.9554 11.6913L27.1194 11.8058C27.1244 11.7986 27.1289 11.7912 27.1329 11.7834L26.9554 11.6913ZM25.1117 12.1882L25.0927 11.9891L25.0869 11.9898L25.1117 12.1882ZM25.1116 12.1882L25.1307 12.3874L25.1364 12.3867L25.1116 12.1882ZM24.6773 12.2348L24.7037 12.4331L24.7049 12.4329L24.6773 12.2348ZM24.4605 12.2625L24.4358 12.0639L24.4277 12.0652L24.4605 12.2625ZM24.4605 12.2625L24.4852 12.4611L24.4934 12.4598L24.4605 12.2625ZM23.947 12.3976L24.1344 12.4674L24.1344 12.4674L23.947 12.3976ZM24.4527 13.0088L24.5919 12.8653L24.4527 13.0088ZM24.8555 13.4032L24.9969 13.2618L24.9964 13.2613L24.8555 13.4032ZM25.4871 14.0046L25.6226 13.8575L25.6223 13.8573L25.4871 14.0046ZM25.4872 14.0047L25.3517 14.1519L25.3526 14.1527L25.4872 14.0047ZM25.4873 14.0049L25.3527 14.1529L25.3556 14.1554L25.4873 14.0049ZM25.4873 14.0049L25.6226 13.8575L25.619 13.8544L25.4873 14.0049ZM25.926 15.0419L25.7287 15.009L25.7285 15.0104L25.926 15.0419ZM24.9283 14.7904L25.1276 14.807C25.1343 14.7274 25.0929 14.6514 25.0223 14.6139L24.9283 14.7904ZM24.654 11.1974L24.677 11.3961L24.654 11.1974ZM25.4232 11.099L25.393 10.9013L25.3918 10.9015L25.4232 11.099ZM25.7397 11.0682L25.7522 11.2682L25.7645 11.2667L25.7397 11.0682ZM25.7397 11.0682L25.7272 10.8682L25.7149 10.8698L25.7397 11.0682ZM26.3314 10.7583L26.1626 10.651L26.1612 10.6533L26.3314 10.7583ZM27.0348 9.27998L26.8555 9.19033L26.8502 9.20296L27.0348 9.27998ZM27.0348 9.27995L27.2141 9.36961L27.2194 9.35697L27.0348 9.27995ZM28.9017 8.20271L28.7229 8.29239L28.7231 8.29281L28.9017 8.20271ZM29.8342 10.1693L29.6516 10.2509L29.6526 10.2531L29.8342 10.1693ZM29.8343 10.1694L30.0202 10.095L30.0159 10.0856L29.8343 10.1694ZM29.8343 10.1694L29.6484 10.2437L29.6517 10.251L29.8343 10.1694ZM30.3188 10.995L30.2219 11.1699V11.1699L30.3188 10.995ZM30.7008 11.0711L30.7186 10.8719H30.7186L30.7008 11.0711ZM31.2043 11.1315L31.2368 10.9341L31.2363 10.9341L31.2043 11.1315ZM32.1914 11.2552L32.2126 11.0563L32.1914 11.2552ZM31.5123 14.8959L31.4027 14.7286C31.3324 14.7747 31.2984 14.8599 31.3177 14.9417L31.5123 14.8959ZM31.9052 17.0324L31.7077 17.0641L31.7077 17.0641L31.9052 17.0324ZM31.9178 17.1107L31.7203 17.1425L31.7205 17.1436L31.9178 17.1107ZM31.9844 17.4348L31.7891 17.4779L31.7892 17.4782L31.9844 17.4348ZM31.9844 17.4348L32.1797 17.3918L32.1796 17.3915L31.9844 17.4348ZM29.7079 18.0517L29.5968 18.2184L29.6067 18.2242L29.7079 18.0517ZM29.7079 18.0517L29.819 17.885L29.8091 17.8792L29.7079 18.0517ZM28.1883 17.3298L28.1736 17.1303C28.1469 17.1323 28.1208 17.1396 28.0969 17.1519L28.1883 17.3298ZM25.7067 18.6035L25.6154 18.4256C25.6111 18.4277 25.6069 18.4301 25.6028 18.4326L25.7067 18.6035ZM24.5971 16.7491L24.4014 16.7078L24.5971 16.7491ZM47.402 27.9696V27.7696C47.2916 27.7696 47.202 27.8592 47.202 27.9696H47.402ZM53.3613 55.0588V55.2588C53.4717 55.2588 53.5613 55.1693 53.5613 55.0588H53.3613ZM53.3613 27.9696H53.5613C53.5613 27.8592 53.4717 27.7696 53.3613 27.7696V27.9696ZM24.9285 36.7441V36.5441C24.8181 36.5441 24.7285 36.6336 24.7285 36.7441H24.9285ZM30.8886 36.7441H31.0886C31.0886 36.6336 30.999 36.5441 30.8886 36.5441V36.7441ZM24.9285 55.047H24.7285C24.7285 55.1574 24.8181 55.247 24.9285 55.247V55.047ZM30.8886 55.047V55.247C30.999 55.247 31.0886 55.1574 31.0886 55.047H30.8886ZM42.1621 39.785H42.3621C42.3621 39.6745 42.2726 39.585 42.1621 39.585V39.785ZM36.2108 39.785V39.585C36.1003 39.585 36.0107 39.6745 36.0107 39.785H36.2108ZM42.1621 55.0537V55.2537C42.2726 55.2537 42.3621 55.1641 42.3621 55.0537H42.1621ZM36.2108 55.0537H36.0107C36.0107 55.1641 36.1003 55.2537 36.2108 55.2537V55.0537ZM43.1567 39.2558L43.3513 39.2097L43.1567 39.2558ZM43.1028 38.9494L43.3018 38.9296C43.2933 38.8444 43.2315 38.7741 43.1481 38.7547L43.1028 38.9494ZM36.9388 38.83V39.03L36.9415 39.0299L36.9388 38.83ZM36.9386 38.83V38.6299L36.9359 38.63L36.9386 38.83ZM19.6988 45.5321H19.8988C19.8988 45.4217 19.8093 45.3321 19.6988 45.3321V45.5321ZM13.7388 45.5321V45.3321C13.6283 45.3321 13.5388 45.4217 13.5388 45.5321H13.7388ZM19.6988 55.0486V55.2486C19.8093 55.2486 19.8988 55.1591 19.8988 55.0486H19.6988ZM13.7388 55.0486H13.5388C13.5388 55.1591 13.6283 55.2486 13.7388 55.2486V55.0486ZM12.679 53.6109L12.879 53.6089L12.679 53.6109ZM12.7981 44.591L12.7247 44.4049C12.6634 44.4291 12.6179 44.482 12.6032 44.5462L12.7981 44.591ZM19.1893 44.4758L19.1916 44.2758L19.1915 44.2758L19.1893 44.4758ZM19.1882 44.4758L19.1905 44.2758H19.1882V44.4758ZM19.1879 44.4758L19.1855 44.6758H19.1879V44.4758ZM14.7895 14.0637V13.8637C14.7157 13.8637 14.648 13.9043 14.6132 13.9693C14.5784 14.0343 14.5822 14.1132 14.623 14.1746L14.7895 14.0637ZM16.8086 13.6743L16.6732 13.5271L16.6725 13.5277L16.8086 13.6743ZM15.3047 14.6065L15.1671 14.7516C15.1753 14.7594 15.1843 14.7666 15.1938 14.7729L15.3047 14.6065ZM15.3047 14.6065L15.4461 14.4651C15.4368 14.4557 15.4266 14.4474 15.4157 14.4401L15.3047 14.6065ZM15.3047 14.6065L15.1633 14.748L15.1671 14.7516L15.3047 14.6065ZM16.0493 16.5907L16.239 16.6539C16.2418 16.6457 16.244 16.6374 16.2456 16.6289L16.0493 16.5907ZM16.0493 16.5907L15.8596 16.5275C15.8568 16.5357 15.8546 16.544 15.853 16.5525L16.0493 16.5907ZM15.9408 17.5117H15.7408C15.7408 17.5726 15.7686 17.6303 15.8163 17.6682C15.864 17.7061 15.9264 17.7203 15.9858 17.7065L15.9408 17.5117ZM16.7349 17.1207L16.8381 17.2921H16.8381L16.7349 17.1207ZM17.7002 16.7085L17.6934 16.9084L17.6957 16.9084L17.7002 16.7085ZM18.534 17.0721L18.4375 17.2473H18.4375L18.534 17.0721ZM19.4921 17.5117L19.4469 17.7065C19.5071 17.7205 19.5704 17.7058 19.6183 17.6668C19.6663 17.6278 19.6935 17.5689 19.6921 17.5071L19.4921 17.5117ZM19.3525 16.7158L19.1583 16.7635L19.3525 16.7158ZM19.3631 15.4023L19.5231 15.5223L19.5254 15.5191L19.3631 15.4023ZM19.8638 14.903L19.9941 15.0547H19.9941L19.8638 14.903ZM20.5381 14.0637L20.731 14.1167C20.7475 14.0566 20.735 13.9921 20.6972 13.9425C20.6594 13.8928 20.6005 13.8637 20.5381 13.8637V14.0637ZM18.5356 13.658L18.3941 13.7994L18.3964 13.8016L18.5356 13.658ZM17.8222 12.076L18.0168 12.03C17.9954 11.9397 17.9149 11.876 17.8222 11.876V12.076ZM17.6115 12.076V11.876C17.5188 11.876 17.4383 11.9397 17.4169 12.03L17.6115 12.076ZM16.1522 12.9117V13.1117C16.2454 13.1117 16.3262 13.0474 16.3471 12.9566L16.1522 12.9117ZM13.5732 13.2686L13.5117 13.0783L13.5112 13.0785L13.5732 13.2686ZM16.6568 11.77L16.4795 11.6774L16.6568 11.77ZM16.8411 11.4107L16.6632 11.3192L16.6615 11.3227L16.8411 11.4107ZM16.986 11.1047L17.1683 11.187L17.1688 11.186L16.986 11.1047ZM16.9861 11.1047L16.8038 11.0224L16.8033 11.0235L16.9861 11.1047ZM17.8222 10.2992L17.9533 10.1482C17.9048 10.1061 17.839 10.0899 17.7765 10.1045L17.8222 10.2992ZM18.7618 11.884L18.5788 11.9651L18.5829 11.9734L18.7618 11.884ZM18.7618 11.884L18.9515 11.8207C18.9486 11.8118 18.9449 11.803 18.9407 11.7945L18.7618 11.884ZM18.7618 11.884L18.5721 11.9472C18.5741 11.9533 18.5764 11.9593 18.579 11.9651L18.7618 11.884ZM19.2736 12.8142L19.1465 12.9687L19.1478 12.9697L19.2736 12.8142ZM20.5638 13.0894L20.5461 13.2886C20.552 13.2892 20.5579 13.2894 20.5638 13.2894V13.0894ZM20.5638 13.0894L20.5814 12.8902C20.5756 12.8897 20.5697 12.8894 20.5638 12.8894V13.0894ZM20.2222 15.8405L20.1699 15.6474C20.0656 15.6757 20.0026 15.7817 20.0276 15.8869L20.2222 15.8405ZM18.5352 18.2214L18.4368 18.3956L18.5352 18.2214ZM16.5482 18.3664L16.4461 18.1945L16.5482 18.3664ZM14.7895 17.9336L14.9862 17.9695L14.9867 17.967L14.7895 17.9336ZM14.864 17.4791L15.0615 17.5109L14.864 17.4791ZM15.0009 16.676L15.1974 16.7131L15.1978 16.7111L15.0009 16.676ZM15.0577 16.3979L14.8628 16.3529L14.8624 16.3548L15.0577 16.3979ZM15.0577 16.3978L14.8679 16.3346C14.8659 16.3406 14.8642 16.3467 14.8628 16.3529L15.0577 16.3978ZM15.0577 16.3978L15.2474 16.4611C15.2496 16.4545 15.2515 16.4477 15.253 16.4409L15.0577 16.3978ZM14.822 15.597L14.9634 15.4556L14.822 15.597ZM14.3487 15.1513L14.4839 15.0039L14.4829 15.003L14.3487 15.1513ZM14.3486 15.1512L14.4828 15.0029L14.4815 15.0017L14.3486 15.1512ZM14.3486 15.1512L14.2134 15.2986L14.2157 15.3007L14.3486 15.1512ZM39.6999 17.1181L39.8023 16.9463V16.9463L39.6999 17.1181ZM40.5036 17.5117L40.4602 17.7069C40.5194 17.7201 40.5814 17.7057 40.6288 17.6677C40.6761 17.6297 40.7036 17.5723 40.7036 17.5117H40.5036ZM38.7442 16.7085L38.7333 16.5088L38.7296 16.509L38.7442 16.7085ZM37.922 17.0715L37.8276 16.8949L37.8191 16.9L37.922 17.0715ZM37.922 17.0715L38.0164 17.2482L38.0249 17.243L37.922 17.0715ZM36.9523 17.5117L36.753 17.4948C36.7476 17.5587 36.7731 17.6212 36.8216 17.663C36.87 17.7049 36.9356 17.721 36.998 17.7064L36.9523 17.5117ZM37.0678 16.8557L36.8722 16.8143V16.8143L37.0678 16.8557ZM37.1305 15.4591L37.3023 15.3567L37.2999 15.3529L37.1305 15.4591ZM36.5713 14.8957L36.6967 14.7399L36.5713 14.8957ZM35.9063 14.0637V13.8637C35.8443 13.8637 35.7858 13.8924 35.748 13.9415C35.7101 13.9906 35.6971 14.0545 35.7129 14.1144L35.9063 14.0637ZM36.8359 13.977L36.8041 13.7795L36.8039 13.7796L36.8359 13.977ZM36.9523 13.9582L36.9222 13.7605L36.9204 13.7607L36.9523 13.9582ZM37.1557 13.931L37.1804 14.1295L37.1805 14.1294L37.1557 13.931ZM37.1557 13.931L37.131 13.7325L37.1309 13.7325L37.1557 13.931ZM37.9175 13.6661L37.7727 13.5282L37.7711 13.5299L37.9175 13.6661ZM38.2868 12.9783L38.1025 12.9006L38.2868 12.9783ZM38.8337 12.076L39.0283 12.03C39.0128 11.9646 38.9656 11.9114 38.9026 11.8883C38.8396 11.8651 38.7692 11.8752 38.7151 11.915L38.8337 12.076ZM39.6366 13.6743L39.7727 13.5277L39.772 13.5271L39.6366 13.6743ZM41.6549 14.0637L41.8429 14.132C41.8652 14.0707 41.8562 14.0023 41.8187 13.9489C41.7813 13.8955 41.7202 13.8637 41.6549 13.8637V14.0637ZM41.6067 14.2017L41.7962 14.2657L41.7962 14.2656L41.6067 14.2017ZM41.5781 14.2667L41.4663 14.1009V14.1009L41.5781 14.2667ZM41.5665 14.2717L41.6307 14.4611L41.6307 14.4611L41.5665 14.2717ZM41.3794 14.4126L41.5165 14.5582L41.5188 14.556L41.3794 14.4126ZM41.2405 14.5393L41.3714 14.6906L41.3737 14.6885L41.2405 14.5393ZM41.2404 14.5394L41.1095 14.3882L41.1072 14.3903L41.2404 14.5394ZM41.0555 14.7127L41.1966 14.8546L41.197 14.8541L41.0555 14.7127ZM40.3472 16.2702L40.5413 16.2223V16.2223L40.3472 16.2702ZM36.223 15.8405L36.4177 15.8861C36.4369 15.8044 36.403 15.7194 36.3328 15.6733L36.223 15.8405ZM37.4215 18.4778L37.3324 18.2988L37.3324 18.2988L37.4215 18.4778ZM37.4717 18.4528L37.3826 18.2738L37.3826 18.2738L37.4717 18.4528ZM38.1895 18.0653L38.0899 17.8918H38.0899L38.1895 18.0653ZM38.7096 17.8385L38.7211 18.0382L38.7211 18.0382L38.7096 17.8385ZM39.4358 18.1238L39.5292 17.9469L39.4358 18.1238ZM39.9446 18.3879L39.8544 18.5664L39.8562 18.5674L39.9446 18.3879ZM40.37 18.6317L40.4755 18.4617L40.4755 18.4617L40.37 18.6317ZM41.5421 17.2095L41.7375 17.1667L41.5421 17.2095ZM41.4198 15.8242L41.2434 15.7298L41.2423 15.732L41.4198 15.8242ZM42.0994 15.1243L42.233 15.2732L42.0994 15.1243ZM43.3257 13.6418L43.5206 13.6864C43.5349 13.6242 43.5186 13.5589 43.4767 13.5106L43.3257 13.6418ZM42.3198 13.17L42.3 13.369V13.369L42.3198 13.17ZM41.9637 13.1307L41.9359 13.3287L41.9384 13.329L41.9637 13.1307ZM41.4772 13.052L41.4434 13.2492L41.4772 13.052ZM40.293 12.9117L40.0983 12.9575C40.1196 13.0478 40.2002 13.1117 40.293 13.1117V12.9117ZM39.8164 11.8337L39.9936 11.7408L39.8164 11.8337ZM39.6366 11.4838L39.8162 11.3958L39.8155 11.3944L39.6366 11.4838ZM39.4932 11.1735L39.6761 11.0926L39.6761 11.0926L39.4932 11.1735ZM38.623 10.2992L38.6682 10.1044C38.6061 10.09 38.5408 10.1061 38.4925 10.1477L38.623 10.2992ZM37.6593 11.9275L37.4766 11.8462L37.6593 11.9275ZM37.2199 12.7656L37.3633 12.9051L37.3649 12.9034L37.2199 12.7656ZM36.0091 13.0837L36.0256 13.283H36.0256L36.0091 13.0837ZM35.6878 13.1145L35.6625 12.9161L35.6611 12.9163L35.6878 13.1145ZM35.5252 13.1347L35.5014 12.9361L35.5252 13.1347ZM43.6657 1.78212H10.2737V2.18212H43.6657V1.78212ZM46.1573 4.27372C46.1573 2.89765 45.0418 1.78212 43.6657 1.78212V2.18212C44.8208 2.18212 45.7573 3.11856 45.7573 4.27372H46.1573ZM46.1573 22.6066V4.27372H45.7573V22.6066H46.1573ZM43.6657 25.0982C45.0418 25.0982 46.1573 23.9826 46.1573 22.6066H45.7573C45.7573 23.7617 44.8208 24.6982 43.6657 24.6982V25.0982ZM37.773 25.0982H43.6657V24.6982H37.773V25.0982ZM36.7909 25.0982H37.773V24.6982H36.7909V25.0982ZM36.7908 25.0982H36.7909V24.6982H36.7908V25.0982ZM36.9908 25.8803V24.8982H36.5908V25.8803H36.9908ZM36.7909 25.6803H36.7908V26.0803H36.7909V25.6803ZM36.9909 31.4258V25.8803H36.5909V31.4258H36.9909ZM36.6523 31.5701L36.6524 31.5702L36.9293 31.2815L36.9292 31.2814L36.6523 31.5701ZM36.9908 31.4455V31.4257H36.5908V31.4455H36.9908ZM29.7935 25.0428L36.6527 31.5902L36.9289 31.3008L30.0697 24.7535L29.7935 25.0428ZM28.6066 25.0982H29.9316V24.6982H28.6066V25.0982ZM10.2737 25.0982H28.6066V24.6982H10.2737V25.0982ZM7.78212 22.6066C7.78212 23.9826 8.89765 25.0982 10.2737 25.0982V24.6982C9.11856 24.6982 8.18212 23.7617 8.18212 22.6066H7.78212ZM7.78212 4.27372V22.6066H8.18212V4.27372H7.78212ZM10.2737 1.78212C8.89765 1.78212 7.78212 2.89765 7.78212 4.27372H8.18212C8.18212 3.11856 9.11856 2.18212 10.2737 2.18212V1.78212ZM10.2737 26.0803H29.6251V25.6803H10.2737V26.0803ZM6.8 22.6066C6.8 24.525 8.35524 26.0803 10.2737 26.0803V25.6803C8.57615 25.6803 7.2 24.3041 7.2 22.6066H6.8ZM6.8 4.27372V22.6066H7.2V4.27372H6.8ZM10.2737 0.8C8.35524 0.8 6.8 2.35524 6.8 4.27372H7.2C7.2 2.57615 8.57615 1.2 10.2737 1.2V0.8ZM43.6657 0.8H10.2737V1.2H43.6657V0.8ZM47.1394 4.27372C47.1394 2.35524 45.5842 0.8 43.6657 0.8V1.2C45.3632 1.2 46.7394 2.57615 46.7394 4.27372H47.1394ZM47.1394 22.6066V4.27372H46.7394V22.6066H47.1394ZM43.6657 26.0803C45.5842 26.0803 47.1394 24.525 47.1394 22.6066H46.7394C46.7394 24.3041 45.3632 25.6803 43.6657 25.6803V26.0803ZM37.773 26.0803H43.6657V25.6803H37.773V26.0803ZM37.973 32.3729V25.8803H37.573V32.3729H37.973ZM37.973 33.7372V32.3729H37.573V33.7372H37.973ZM36.652 32.9341L37.6342 33.8812L37.9118 33.5932L36.9297 32.6462L36.652 32.9341ZM29.4862 26.0242L36.652 32.9341L36.9297 32.6462L29.7639 25.7363L29.4862 26.0242ZM25.9916 15.8095L25.9916 15.8095L25.6069 15.6996L25.6069 15.6996L25.9916 15.8095ZM25.761 17.5083C25.761 17.0575 25.8796 16.4161 25.9959 15.7912L25.6026 15.718C25.4891 16.3282 25.361 17.012 25.361 17.5083H25.761ZM26.4627 16.8507C26.2825 16.951 26.0925 17.0567 25.9199 17.1438C25.7423 17.2334 25.6019 17.2936 25.516 17.3134L25.606 17.7031C25.7444 17.6712 25.924 17.5898 26.1001 17.5009C26.2812 17.4095 26.4786 17.2997 26.6572 17.2003L26.4627 16.8507ZM26.4705 16.8466L26.4705 16.8466L26.6494 17.2044L26.6494 17.2044L26.4705 16.8466ZM26.4705 16.8466L26.4705 16.8466L26.6494 17.2044L26.6494 17.2044L26.4705 16.8466ZM26.8644 16.6325C26.7498 16.691 26.6088 16.7695 26.4628 16.8507L26.6572 17.2003C26.8054 17.1178 26.9394 17.0433 27.0464 16.9887L26.8644 16.6325ZM27.2061 16.4589C27.1034 16.5115 26.991 16.5691 26.8659 16.6317L27.0449 16.9894C27.1719 16.9259 27.2859 16.8675 27.3884 16.8149L27.2061 16.4589ZM27.2049 16.4595L27.2047 16.4596L27.3898 16.8143L27.3899 16.8142L27.2049 16.4595ZM28.2322 16.0758C28.0736 16.0807 27.924 16.1234 27.7634 16.1893C27.6053 16.2542 27.4245 16.347 27.2062 16.4589L27.3886 16.8149C27.6123 16.7002 27.7763 16.6164 27.9154 16.5593C28.052 16.5032 28.1519 16.4785 28.2447 16.4756L28.2322 16.0758ZM29.726 16.6919C29.3581 16.4852 29.0816 16.3297 28.8572 16.2285C28.6299 16.126 28.4359 16.0694 28.2322 16.0758L28.2447 16.4756C28.3614 16.4719 28.4909 16.5021 28.6927 16.5931C28.8972 16.6853 29.1554 16.8302 29.5301 17.0406L29.726 16.6919ZM31.087 17.4368C30.5139 17.1346 30.0749 16.8879 29.726 16.6919L29.5301 17.0406C29.8793 17.2369 30.3223 17.4857 30.9004 17.7906L31.087 17.4368ZM30.7966 17.6493L30.7988 17.6587L31.1886 17.5688L31.1864 17.5594L30.7966 17.6493ZM30.432 14.2869C30.3692 14.3772 30.3457 14.497 30.335 14.6028C30.3235 14.7163 30.3239 14.8497 30.3318 14.9925C30.3475 15.2786 30.3946 15.6248 30.4528 15.9707C30.5693 16.6637 30.7339 17.3771 30.7967 17.6493L31.1864 17.5594C31.1236 17.2869 30.9615 16.5842 30.8472 15.9044C30.79 15.5639 30.7457 15.2346 30.7312 14.9705C30.7239 14.8381 30.7244 14.7276 30.733 14.643C30.7372 14.6008 30.7431 14.5686 30.7496 14.5453C30.7563 14.5209 30.7616 14.5135 30.7604 14.5152L30.432 14.2869ZM31.3067 13.4027C31.1111 13.5896 30.9187 13.7734 30.7646 13.926C30.6171 14.0722 30.4869 14.2067 30.4312 14.288L30.7612 14.5141C30.7906 14.4712 30.8887 14.3662 31.0461 14.2102C31.1971 14.0607 31.3866 13.8796 31.583 13.6919L31.3067 13.4027ZM31.3168 13.3937L31.3168 13.3937L31.5729 13.701L31.5729 13.701L31.3168 13.3937ZM31.3111 13.3986L31.3111 13.3987L31.5787 13.696L31.5787 13.6959L31.3111 13.3986ZM31.3093 13.4002L31.3093 13.4003L31.5806 13.6942L31.5807 13.6941L31.3093 13.4002ZM32.2936 12.4444C32.2945 12.426 32.2981 12.4124 32.3003 12.4053C32.3026 12.3978 32.3048 12.393 32.3056 12.3913C32.3069 12.3884 32.3064 12.3901 32.3014 12.3976C32.2916 12.4123 32.2739 12.4354 32.2465 12.4676C32.1922 12.5312 32.1128 12.6155 32.0145 12.7151C31.8186 12.9136 31.56 13.1607 31.3068 13.4026L31.5832 13.6918C31.8349 13.4512 32.0983 13.1996 32.2992 12.9961C32.3993 12.8946 32.487 12.802 32.5509 12.7271C32.5825 12.6899 32.6116 12.6533 32.6341 12.6197C32.6453 12.6029 32.6573 12.5833 32.6673 12.562C32.6757 12.5442 32.691 12.5084 32.6932 12.4634L32.2936 12.4444ZM31.3668 12.3718C31.6741 12.3967 31.9391 12.4185 32.1274 12.456C32.2232 12.4751 32.2805 12.4949 32.3093 12.511C32.3388 12.5273 32.2923 12.511 32.2934 12.4501L32.6934 12.4577C32.6964 12.3012 32.5876 12.208 32.5038 12.1614C32.4193 12.1144 32.3123 12.085 32.2056 12.0638C31.9892 12.0206 31.6971 11.9973 31.3991 11.9731L31.3668 12.3718ZM29.344 11.806C29.4419 11.9319 29.5817 12.0208 29.7306 12.0861C29.8808 12.152 30.0538 12.1999 30.2334 12.2364C30.5914 12.3092 31.0044 12.3424 31.3668 12.3718L31.3991 11.9731C31.0309 11.9433 30.6431 11.9115 30.3131 11.8444C30.1486 11.811 30.0058 11.7701 29.8913 11.7198C29.7755 11.669 29.7016 11.6142 29.6598 11.5605L29.344 11.806ZM28.0815 9.18609C28.0936 9.24206 28.1221 9.32051 28.1551 9.40323C28.1899 9.49047 28.2354 9.59669 28.288 9.71448C28.3931 9.9503 28.5285 10.2377 28.667 10.5223C28.8056 10.8071 28.9479 11.0905 29.0671 11.3186C29.1826 11.5395 29.285 11.7256 29.3406 11.8014L29.6632 11.565C29.6296 11.5191 29.5424 11.3645 29.4216 11.1333C29.3046 10.9094 29.164 10.6295 29.0267 10.3473C28.8894 10.0651 28.756 9.78201 28.6533 9.55159C28.6019 9.43626 28.5587 9.33541 28.5267 9.25509C28.4929 9.17026 28.4766 9.12068 28.4724 9.1016L28.0815 9.18609ZM27.1329 11.7834L28.4545 9.23594L28.0994 9.05175L26.7779 11.5992L27.1329 11.7834ZM25.1307 12.3873C25.4609 12.3558 25.8736 12.3166 26.2344 12.2405C26.415 12.2024 26.5903 12.1536 26.7398 12.0883C26.8861 12.0244 27.0288 11.9357 27.1194 11.8058L26.7914 11.5769C26.7621 11.6188 26.6976 11.6702 26.5797 11.7217C26.465 11.7718 26.3191 11.8139 26.1519 11.8491C25.8171 11.9197 25.4278 11.9571 25.0927 11.9891L25.1307 12.3873ZM25.1364 12.3867L25.1365 12.3867L25.0869 11.9898L25.0868 11.9898L25.1364 12.3867ZM24.7049 12.4329C24.8169 12.4174 24.9619 12.4035 25.1307 12.3873L25.0926 11.9891C24.927 12.005 24.7722 12.0197 24.6498 12.0367L24.7049 12.4329ZM24.4853 12.461C24.5511 12.4528 24.6242 12.4437 24.7037 12.4331L24.651 12.0366C24.5733 12.0469 24.5018 12.0558 24.4358 12.064L24.4853 12.461ZM24.4934 12.4598L24.4934 12.4598L24.4277 12.0652L24.4276 12.0652L24.4934 12.4598ZM24.1344 12.4674C24.1263 12.4892 24.1143 12.5048 24.1042 12.5148C24.0994 12.5195 24.0952 12.5227 24.0925 12.5246C24.0898 12.5265 24.0881 12.5274 24.0879 12.5275C24.0878 12.5275 24.0887 12.527 24.091 12.5261C24.0934 12.5251 24.0967 12.5239 24.1014 12.5223C24.1107 12.5192 24.1236 12.5157 24.1407 12.5118C24.214 12.495 24.3232 12.4811 24.4852 12.461L24.4358 12.064C24.283 12.0831 24.1494 12.0995 24.0516 12.1218C24.0026 12.133 23.949 12.1485 23.9014 12.1736C23.8535 12.1989 23.7903 12.2453 23.7596 12.3278L24.1344 12.4674ZM24.5919 12.8653C24.404 12.6829 24.277 12.5595 24.1996 12.4707C24.1605 12.4257 24.144 12.4006 24.1384 12.3895C24.1318 12.3765 24.1548 12.4127 24.1344 12.4674L23.7596 12.3278C23.7227 12.4268 23.7544 12.5168 23.7817 12.5706C23.8101 12.6264 23.8527 12.6813 23.8979 12.7333C23.9892 12.8382 24.1317 12.9761 24.3134 13.1524L24.5919 12.8653ZM24.9964 13.2613C24.8419 13.1077 24.7068 12.9767 24.5919 12.8653L24.3134 13.1524C24.4283 13.2638 24.5618 13.3933 24.7145 13.545L24.9964 13.2613ZM25.6223 13.8573C25.4633 13.7114 25.259 13.524 24.9969 13.2618L24.714 13.5445C24.9825 13.8132 25.1921 14.0054 25.3519 14.152L25.6223 13.8573ZM25.6227 13.8576L25.6226 13.8575L25.3516 14.1518L25.3517 14.1519L25.6227 13.8576ZM25.6218 13.8569L25.6217 13.8568L25.3526 14.1527L25.3528 14.1528L25.6218 13.8569ZM25.619 13.8544L25.619 13.8543L25.3556 14.1554L25.3556 14.1554L25.619 13.8544ZM26.1233 15.0747C26.1676 14.8091 26.1952 14.6012 26.1068 14.4033C26.0635 14.3065 25.998 14.2234 25.92 14.141C25.8429 14.0595 25.7426 13.9676 25.6225 13.8575L25.3521 14.1523C25.4762 14.2661 25.5643 14.347 25.6295 14.416C25.6939 14.484 25.7248 14.529 25.7416 14.5666C25.7733 14.6376 25.7762 14.7243 25.7287 15.009L26.1233 15.0747ZM25.9959 15.7911C26.0423 15.5417 26.088 15.2962 26.1235 15.0734L25.7285 15.0104C25.694 15.2272 25.6493 15.4672 25.6026 15.7179L25.9959 15.7911ZM22.0124 11.9671C22.0124 12.0914 22.076 12.2223 22.142 12.3322C22.2137 12.4517 22.3133 12.5857 22.4287 12.7259C22.6602 13.0071 22.9698 13.3305 23.2878 13.6406C23.6065 13.9514 23.9373 14.2522 24.213 14.4886C24.3508 14.6067 24.4759 14.7097 24.5796 14.7902C24.6795 14.8677 24.7698 14.9326 24.8344 14.967L25.0223 14.6139C24.9915 14.5975 24.9256 14.5524 24.8249 14.4742C24.7279 14.3989 24.608 14.3004 24.4734 14.1849C24.2041 13.9541 23.8797 13.6591 23.5671 13.3542C23.2538 13.0488 22.9558 12.7369 22.7376 12.4717C22.6282 12.3388 22.5423 12.2219 22.4849 12.1262C22.4562 12.0785 22.4368 12.0396 22.425 12.0093C22.4124 11.9773 22.4124 11.9649 22.4124 11.9671H22.0124ZM24.631 10.9987C24.0961 11.0607 23.4722 11.1327 22.9819 11.2522C22.738 11.3117 22.5111 11.3865 22.3409 11.4867C22.1757 11.584 22.0124 11.7377 22.0124 11.9671H22.4124C22.4124 11.9532 22.4196 11.9046 22.5439 11.8314C22.6632 11.7612 22.8447 11.6974 23.0766 11.6408C23.5378 11.5284 24.1347 11.4589 24.677 11.3961L24.631 10.9987ZM25.3918 10.9015C25.1818 10.9348 24.9197 10.9653 24.631 10.9987L24.677 11.3961C24.9629 11.3629 25.2344 11.3315 25.4546 11.2965L25.3918 10.9015ZM25.7272 10.8686C25.6367 10.8743 25.525 10.8812 25.393 10.9013L25.4534 11.2967C25.5659 11.2795 25.6616 11.2735 25.7521 11.2678L25.7272 10.8686ZM25.7149 10.8698L25.7149 10.8698L25.7645 11.2667L25.7645 11.2667L25.7149 10.8698ZM26.1612 10.6533C26.0874 10.7731 26.0334 10.8112 25.9901 10.8298C25.935 10.8534 25.8685 10.8598 25.7273 10.8686L25.7522 11.2678C25.875 11.2602 26.0167 11.2536 26.1478 11.1973C26.2905 11.1361 26.4005 11.0274 26.5017 10.8633L26.1612 10.6533ZM26.8502 9.20296C26.6253 9.74205 26.4034 10.2721 26.1626 10.651L26.5002 10.8656C26.7634 10.4515 26.9989 9.88553 27.2194 9.35699L26.8502 9.20296ZM26.8559 9.19051L26.8559 9.19054L27.2137 9.36942L27.2137 9.3694L26.8559 9.19051ZM29.0805 8.11304C28.8845 7.72228 28.6806 7.45604 28.447 7.34807C28.3214 7.29001 28.1913 7.27969 28.0649 7.31597C27.9438 7.35075 27.8395 7.42435 27.7504 7.51148C27.575 7.68296 27.4196 7.9461 27.2771 8.23404C27.1326 8.526 26.991 8.86558 26.8502 9.20294L27.2194 9.35697C27.3615 9.01646 27.4979 8.68963 27.6356 8.41148C27.7753 8.12931 27.9062 7.91864 28.0301 7.79747C28.0906 7.73826 28.1392 7.71082 28.1753 7.70044C28.2062 7.69157 28.2377 7.69199 28.2792 7.71116C28.3798 7.75766 28.5321 7.91187 28.7229 8.29239L29.0805 8.11304ZM30.0168 10.0877C29.8296 9.66884 29.5505 9.04464 29.0803 8.11262L28.7231 8.29281C29.1893 9.21661 29.4654 9.83426 29.6516 10.2509L30.0168 10.0877ZM30.0159 10.0856L30.0158 10.0855L29.6526 10.2531L29.6527 10.2532L30.0159 10.0856ZM30.02 10.0951L30.02 10.0951L29.6486 10.2437L29.6486 10.2437L30.02 10.0951ZM30.4157 10.82C30.3876 10.8045 30.3494 10.772 30.2841 10.6553C30.2179 10.5368 30.1394 10.3619 30.0169 10.0878L29.6517 10.251C29.7707 10.5171 29.8578 10.7125 29.9351 10.8506C30.0133 10.9904 30.0966 11.1005 30.2219 11.1699L30.4157 10.82ZM30.7186 10.8719C30.5236 10.8545 30.4608 10.845 30.4157 10.82L30.2219 11.1699C30.3577 11.2452 30.5202 11.2558 30.6831 11.2703L30.7186 10.8719ZM31.2363 10.9341C31.016 10.8984 30.8477 10.8834 30.7186 10.8719L30.6831 11.2703C30.8106 11.2817 30.9671 11.2957 31.1723 11.3289L31.2363 10.9341ZM32.2126 11.0563C31.88 11.0208 31.5474 10.9853 31.2368 10.9341L31.1718 11.3288C31.4956 11.3822 31.8399 11.4188 32.1702 11.4541L32.2126 11.0563ZM34.437 12.0726C34.437 11.8586 34.3453 11.687 34.1982 11.5577C34.0582 11.4346 33.8705 11.3514 33.6692 11.2902C33.2679 11.1681 32.7348 11.112 32.2126 11.0563L32.1702 11.4541C32.7062 11.5112 33.1959 11.5643 33.5528 11.6728C33.7307 11.727 33.856 11.7895 33.9341 11.8582C34.0053 11.9207 34.037 11.987 34.037 12.0726H34.437ZM31.622 15.0632C31.6657 15.0345 31.7418 14.9702 31.829 14.8935C31.9214 14.8122 32.0393 14.7051 32.1733 14.5809C32.4414 14.3322 32.7762 14.0122 33.1038 13.687C33.4308 13.3624 33.7528 13.0304 33.994 12.7582C34.1142 12.6226 34.2175 12.4984 34.2917 12.3955C34.3287 12.3444 34.3615 12.2944 34.3859 12.2481C34.4061 12.2098 34.437 12.1448 34.437 12.0726H34.037C34.037 12.04 34.0485 12.0304 34.0321 12.0614C34.0199 12.0845 33.999 12.1176 33.9674 12.1614C33.9046 12.2483 33.8115 12.3611 33.6947 12.4929C33.4617 12.7557 33.1467 13.0808 32.8219 13.4032C32.4977 13.725 32.1661 14.0419 31.9012 14.2876C31.7688 14.4105 31.6536 14.515 31.5648 14.5932C31.5203 14.6323 31.4832 14.6642 31.4542 14.6882C31.4397 14.7002 31.4278 14.7097 31.4184 14.717C31.4138 14.7206 31.4101 14.7234 31.4072 14.7254C31.4058 14.7265 31.4047 14.7273 31.4039 14.7278C31.4035 14.7281 31.4032 14.7283 31.403 14.7284C31.4028 14.7286 31.4027 14.7287 31.4027 14.7286L31.622 15.0632ZM32.1026 17.0006C31.9924 16.3148 31.8652 15.5227 31.707 14.8501L31.3177 14.9417C31.4719 15.5976 31.5969 16.3747 31.7077 17.0641L32.1026 17.0006ZM32.1152 17.079L32.1026 17.0006L31.7077 17.0641L31.7203 17.1425L32.1152 17.079ZM32.1797 17.3917C32.1521 17.2664 32.1289 17.1608 32.115 17.0779L31.7205 17.1436C31.7364 17.2391 31.7622 17.3561 31.7891 17.4779L32.1797 17.3917ZM32.1796 17.3915L32.1796 17.3914L31.7892 17.4782L31.7892 17.4782L32.1796 17.3915ZM31.723 19.1768C31.934 19.1768 32.0999 19.0904 32.2038 18.9326C32.2977 18.7899 32.3263 18.6101 32.3302 18.4422C32.3381 18.1048 32.2462 17.6935 32.1797 17.3918L31.7891 17.4779C31.8588 17.794 31.9369 18.1537 31.9303 18.4328C31.927 18.5731 31.9024 18.663 31.8696 18.7128C31.8467 18.7476 31.8126 18.7768 31.723 18.7768V19.1768ZM29.6067 18.2242C29.9826 18.4447 30.3833 18.6798 30.7455 18.8594C30.9268 18.9494 31.1026 19.0275 31.2641 19.0834C31.4231 19.1385 31.581 19.1768 31.723 19.1768V18.7768C31.646 18.7768 31.537 18.7547 31.395 18.7055C31.2556 18.6572 31.0965 18.587 30.9232 18.5011C30.576 18.3289 30.1881 18.1015 29.8091 17.8792L29.6067 18.2242ZM29.5969 18.2181L29.597 18.2181L29.8188 17.8853L29.8188 17.8853L29.5969 18.2181ZM29.5969 18.2181L29.5969 18.2181L29.8188 17.8853L29.8188 17.8853L29.5969 18.2181ZM28.2029 17.5293C28.224 17.5277 28.2775 17.5344 28.3745 17.5689C28.4662 17.6015 28.578 17.6519 28.7075 17.7175C28.9665 17.8488 29.2764 18.0305 29.6067 18.2242L29.8091 17.8792C29.4822 17.6875 29.1606 17.4988 28.8883 17.3607C28.752 17.2917 28.6232 17.2327 28.5086 17.192C28.3993 17.1531 28.2808 17.1224 28.1736 17.1303L28.2029 17.5293ZM25.798 18.7814L28.2796 17.5077L28.0969 17.1519L25.6154 18.4256L25.798 18.7814ZM24.4014 16.7078C24.3145 17.1194 24.2309 17.5149 24.1829 17.8563C24.1359 18.1908 24.1176 18.5052 24.1823 18.742C24.2158 18.8647 24.2757 18.9826 24.3804 19.068C24.4874 19.1553 24.6195 19.191 24.762 19.188C25.0312 19.1823 25.3771 19.0379 25.8106 18.7744L25.6028 18.4326C25.1753 18.6924 24.9084 18.7848 24.7535 18.7881C24.684 18.7895 24.6512 18.7727 24.6332 18.7581C24.6129 18.7415 24.5876 18.7078 24.5681 18.6367C24.527 18.486 24.5323 18.2439 24.579 17.912C24.6247 17.587 24.705 17.2061 24.7928 16.7904L24.4014 16.7078ZM24.729 14.7738C24.6767 15.4021 24.5346 16.0768 24.4014 16.7078L24.7928 16.7904C24.9249 16.1646 25.0729 15.4648 25.1276 14.807L24.729 14.7738ZM47.602 54.7424V27.9696H47.202V54.7424H47.602ZM47.71 54.8588C47.6597 54.8588 47.6305 54.8547 47.6143 54.8504C47.6004 54.8466 47.6039 54.8449 47.6108 54.852C47.6176 54.8589 47.615 54.8613 47.6109 54.845C47.6062 54.8267 47.602 54.7951 47.602 54.7424H47.202C47.202 54.8705 47.2179 55.0223 47.3249 55.1317C47.4333 55.2426 47.5848 55.2588 47.71 55.2588V54.8588ZM53.3613 54.8588H47.71V55.2588H53.3613V54.8588ZM53.1613 27.9696V55.0588H53.5613V27.9696H53.1613ZM47.402 28.1696H53.3613V27.7696H47.402V28.1696ZM46.2613 27.4504V55.5781H46.6613V27.4504H46.2613ZM47.402 26.723C47.1787 26.723 46.9119 26.7524 46.6932 26.8484C46.4687 26.947 46.2613 27.1354 46.2613 27.4504H46.6613C46.6613 27.3516 46.7136 27.2763 46.854 27.2147C47.0002 27.1505 47.2038 27.123 47.402 27.123V26.723ZM53.4587 26.723H47.402V27.123H53.4587V26.723ZM54.6073 27.4504C54.6073 27.1352 54.3998 26.9468 54.1742 26.8483C53.9545 26.7523 53.6858 26.723 53.4587 26.723V27.123C53.6613 27.123 53.8669 27.1505 54.0141 27.2148C54.1553 27.2765 54.2073 27.3518 54.2073 27.4504H54.6073ZM54.6073 55.5781V27.4504H54.2073V55.5781H54.6073ZM53.9852 56.1999C54.1545 56.1999 54.312 56.14 54.4279 56.0257C54.5442 55.9111 54.6073 55.7528 54.6073 55.5781H54.2073C54.2073 55.6548 54.181 55.7075 54.1471 55.7409C54.1128 55.7747 54.0593 55.7999 53.9852 55.7999V56.1999ZM46.8747 56.1999H53.9852V55.7999H46.8747V56.1999ZM46.2613 55.5781C46.2613 55.7499 46.3202 55.9079 46.4343 56.0237C46.5485 56.1396 46.705 56.1999 46.8747 56.1999V55.7999C46.8011 55.7999 46.7509 55.7751 46.7193 55.743C46.6875 55.7107 46.6613 55.6577 46.6613 55.5781H46.2613ZM24.9285 36.9441H30.8886V36.5441H24.9285V36.9441ZM25.1285 55.047V36.7441H24.7285V55.047H25.1285ZM30.8886 54.847H24.9285V55.247H30.8886V54.847ZM30.6886 36.7441V55.047H31.0886V36.7441H30.6886ZM23.7879 36.1195V55.5662H24.1879V36.1195H23.7879ZM24.6205 35.4976C24.4443 35.4976 24.2466 35.5231 24.0859 35.6117C23.9106 35.7085 23.7879 35.8777 23.7879 36.1195H24.1879C24.1879 36.0367 24.2193 35.995 24.2792 35.9619C24.3538 35.9208 24.4724 35.8976 24.6205 35.8976V35.4976ZM31.4152 35.4976H24.6205V35.8976H31.4152V35.4976ZM32.1346 36.2249C32.1346 36.0334 32.0306 35.8541 31.9089 35.73C31.7874 35.6061 31.6093 35.4976 31.4152 35.4976V35.8976C31.4643 35.8976 31.5459 35.9311 31.6233 36.01C31.7005 36.0888 31.7346 36.1731 31.7346 36.2249H32.1346ZM32.1346 55.3634V36.2249H31.7346V55.3634H32.1346ZM31.5125 56.1881C31.754 56.1881 31.9231 56.0656 32.0199 55.8917C32.1088 55.7321 32.1346 55.5363 32.1346 55.3634H31.7346C31.7346 55.5069 31.7115 55.6235 31.6705 55.6971C31.6374 55.7565 31.5954 55.7881 31.5125 55.7881V56.1881ZM24.4099 56.1881H31.5125V55.7881H24.4099V56.1881ZM23.7879 55.5662C23.7879 55.741 23.8509 55.8992 23.9673 56.0139C24.0832 56.1282 24.2407 56.1881 24.4099 56.1881V55.7881C24.3359 55.7881 24.2824 55.7629 24.2481 55.729C24.2142 55.6957 24.1879 55.6429 24.1879 55.5662H23.7879ZM42.1621 39.585H36.2108V39.985H42.1621V39.585ZM42.3621 55.0537V39.785H41.9621V55.0537H42.3621ZM36.2108 55.2537H42.1621V54.8537H36.2108V55.2537ZM36.0107 39.785V55.0537H36.4108V39.785H36.0107ZM35.3648 55.3701V39.4687H34.9648V55.3701H35.3648ZM35.5781 55.7948C35.5017 55.7948 35.4613 55.7655 35.4283 55.7051C35.3877 55.6309 35.3648 55.5136 35.3648 55.3701H34.9648C34.9648 55.543 34.9904 55.738 35.0774 55.8971C35.1719 56.0699 35.3383 56.1948 35.5781 56.1948V55.7948ZM42.6887 55.7948H35.5781V56.1948H42.6887V55.7948ZM43.0081 55.2646C43.0081 55.4072 42.9691 55.5512 42.9042 55.6532C42.8409 55.7529 42.7672 55.7948 42.6887 55.7948V56.1948C42.9426 56.1948 43.1285 56.046 43.2418 55.8678C43.3536 55.692 43.4081 55.4709 43.4081 55.2646H43.0081ZM43.0081 39.6796V55.2646H43.4081V39.6796H43.0081ZM42.9621 39.302C42.9872 39.4081 43.0081 39.4946 43.0081 39.6796H43.4081C43.4081 39.4508 43.38 39.3306 43.3513 39.2097L42.9621 39.302ZM42.9038 38.9693C42.9188 39.1193 42.942 39.2174 42.9621 39.302L43.3513 39.2097C43.3323 39.1297 43.3141 39.0524 43.3018 38.9296L42.9038 38.9693ZM36.9415 39.0299C37.9781 39.0161 39.3118 38.9983 40.4886 39.0077C41.0771 39.0124 41.6246 39.024 42.0751 39.0461C42.5307 39.0685 42.8721 39.1011 43.0575 39.1442L43.1481 38.7547C42.9232 38.7023 42.548 38.6688 42.0947 38.6466C41.6364 38.6241 41.0827 38.6125 40.4918 38.6077C39.3099 38.5982 37.9719 38.6161 36.9362 38.63L36.9415 39.0299ZM36.9388 39.03H36.9388V38.63H36.9388V39.03ZM36.9386 39.03H36.9388V38.63H36.9386V39.03ZM35.5781 39.044C35.8925 39.044 36.3728 39.0375 36.9413 39.0299L36.9359 38.63C36.3661 38.6376 35.8891 38.644 35.5781 38.644V39.044ZM35.3648 39.4687C35.3648 39.3252 35.3877 39.2079 35.4283 39.1337C35.4613 39.0733 35.5017 39.044 35.5781 39.044V38.644C35.3383 38.644 35.1719 38.7688 35.0774 38.9417C34.9904 39.1008 34.9648 39.2958 34.9648 39.4687H35.3648ZM19.6988 45.3321H13.7388V45.7321H19.6988V45.3321ZM19.8988 55.0486V45.5321H19.4988V55.0486H19.8988ZM13.7388 55.2486H19.6988V54.8486H13.7388V55.2486ZM13.5388 45.5321V55.0486H13.9388V45.5321H13.5388ZM12.879 53.6089C12.8643 52.1208 12.8441 50.0849 12.8526 48.3124C12.8568 47.426 12.8682 46.607 12.891 45.9561C12.914 45.2964 12.9483 44.8308 12.993 44.6357L12.6032 44.5462C12.5481 44.7863 12.5138 45.2939 12.4912 45.9421C12.4683 46.599 12.4569 47.4227 12.4526 48.3105C12.4441 50.0865 12.4643 52.1254 12.479 53.6129L12.879 53.6089ZM12.8928 55.365C12.8928 55.0006 12.8866 54.3772 12.879 53.6089L12.479 53.6129C12.4866 54.3823 12.4928 55.0031 12.4928 55.365H12.8928ZM13.1148 55.7897C13.032 55.7897 12.99 55.7581 12.9569 55.6987C12.9159 55.6251 12.8928 55.5085 12.8928 55.365H12.4928C12.4928 55.538 12.5185 55.7337 12.6075 55.8934C12.7043 56.0672 12.8734 56.1897 13.1148 56.1897V55.7897ZM20.2175 55.7897H13.1148V56.1897H20.2175V55.7897ZM20.4395 55.5678C20.4395 55.6446 20.4132 55.6973 20.3793 55.7307C20.345 55.7645 20.2915 55.7897 20.2175 55.7897V56.1897C20.3867 56.1897 20.5442 56.1298 20.6601 56.0155C20.7765 55.9009 20.8395 55.7426 20.8395 55.5678H20.4395ZM20.4395 44.9074V55.5678H20.8395V44.9074H20.4395ZM20.2175 44.6855C20.2915 44.6855 20.345 44.7108 20.3793 44.7446C20.4132 44.778 20.4395 44.8307 20.4395 44.9074H20.8395C20.8395 44.7326 20.7765 44.5744 20.6601 44.4597C20.5442 44.3455 20.3867 44.2855 20.2175 44.2855V44.6855ZM19.1869 44.6758C19.651 44.6812 20.017 44.6855 20.2175 44.6855V44.2855C20.02 44.2855 19.6571 44.2813 19.1916 44.2758L19.1869 44.6758ZM19.186 44.6758L19.187 44.6758L19.1915 44.2758L19.1905 44.2758L19.186 44.6758ZM19.188 44.6758H19.1882V44.2758H19.188V44.6758ZM19.1879 44.6758H19.188V44.2758H19.1879V44.6758ZM19.1879 44.6758H19.1879V44.2758H19.1879V44.6758ZM12.8715 44.777C12.901 44.7654 12.9868 44.7476 13.1452 44.731C13.295 44.7152 13.4894 44.7022 13.7193 44.6916C14.1788 44.6705 14.7707 44.6596 15.4132 44.6553C16.6979 44.6466 18.1765 44.664 19.1855 44.6758L19.1902 44.2758C18.1819 44.264 16.6995 44.2466 15.4105 44.2553C14.7663 44.2597 14.1682 44.2705 13.701 44.292C13.4675 44.3027 13.2644 44.3162 13.1033 44.3332C12.9507 44.3492 12.8122 44.3704 12.7247 44.4049L12.8715 44.777ZM14.7895 14.2637C15.1077 14.2637 15.538 14.2452 15.9352 14.1854C16.1338 14.1555 16.3288 14.1147 16.4996 14.0586C16.6668 14.0038 16.8285 13.9288 16.9448 13.8208L16.6725 13.5277C16.6184 13.578 16.5207 13.6307 16.3749 13.6786C16.2327 13.7252 16.0614 13.7619 15.8757 13.7898C15.5046 13.8457 15.0956 13.8637 14.7895 13.8637V14.2637ZM15.4424 14.4614C15.2168 14.2474 15.0381 14.0761 14.9559 13.9528L14.623 14.1746C14.7365 14.3449 14.9579 14.5531 15.1671 14.7516L15.4424 14.4614ZM15.4157 14.4401L15.4156 14.4401L15.1938 14.7729L15.1938 14.7729L15.4157 14.4401ZM15.4461 14.4651L15.4461 14.4651L15.1633 14.7479L15.1633 14.7479L15.4461 14.4651ZM16.3522 15.735C16.3522 15.6089 16.3089 15.4882 16.2521 15.3809C16.1946 15.2723 16.1163 15.1646 16.0302 15.0615C15.8588 14.8561 15.6378 14.6468 15.4424 14.4614L15.1671 14.7516C15.3668 14.9411 15.5695 15.1337 15.7231 15.3178C15.7995 15.4093 15.859 15.4932 15.8986 15.5681C15.939 15.6442 15.9522 15.6988 15.9522 15.735H16.3522ZM16.2456 16.6289C16.2975 16.3625 16.3522 16.0832 16.3522 15.735H15.9522C15.9522 16.0403 15.905 16.2853 15.853 16.5525L16.2456 16.6289ZM16.239 16.6539L16.239 16.6539L15.8596 16.5274L15.8596 16.5275L16.239 16.6539ZM16.1408 17.5117C16.1408 17.1695 16.1919 16.905 16.2456 16.6289L15.853 16.5525C15.7992 16.8292 15.7408 17.1273 15.7408 17.5117H16.1408ZM16.6318 16.9493C16.3409 17.1245 16.0923 17.2714 15.8958 17.3168L15.9858 17.7065C16.2584 17.6436 16.5687 17.4542 16.8381 17.2921L16.6318 16.9493ZM17.707 16.5086C17.5248 16.5024 17.3348 16.5704 17.1634 16.6516C16.9882 16.7346 16.8043 16.8455 16.6318 16.9493L16.8381 17.2921C17.0149 17.1856 17.1809 17.0859 17.3346 17.0131C17.4921 16.9385 17.6102 16.9056 17.6934 16.9084L17.707 16.5086ZM18.6304 16.8968C18.4628 16.8045 18.2933 16.7111 18.1426 16.6407C17.9997 16.5739 17.8416 16.5117 17.7048 16.5086L17.6957 16.9084C17.7397 16.9094 17.8291 16.9357 17.9732 17.0031C18.1095 17.0668 18.2664 17.1531 18.4375 17.2473L18.6304 16.8968ZM19.5373 17.3169C19.2948 17.2606 18.9699 17.0837 18.6304 16.8968L18.4375 17.2473C18.7571 17.4232 19.1377 17.6348 19.4469 17.7065L19.5373 17.3169ZM19.1583 16.7635C19.2263 17.0405 19.287 17.2915 19.2922 17.5163L19.6921 17.5071C19.6857 17.2301 19.6121 16.9343 19.5468 16.6681L19.1583 16.7635ZM19.203 15.2824C19.0379 15.5027 19.0037 15.7627 19.0187 16.012C19.0337 16.2585 19.0989 16.5218 19.1583 16.7635L19.5468 16.6681C19.4852 16.4174 19.4303 16.1913 19.418 15.9878C19.4059 15.7872 19.4374 15.6366 19.5231 15.5223L19.203 15.2824ZM19.7335 14.7513C19.552 14.9072 19.3474 15.0815 19.2007 15.2856L19.5254 15.5191C19.639 15.3611 19.8039 15.2181 19.9941 15.0547L19.7335 14.7513ZM20.3453 14.0106C20.2708 14.2813 20.0349 14.4924 19.7335 14.7513L19.9941 15.0547C20.2705 14.8173 20.6179 14.5274 20.731 14.1167L20.3453 14.0106ZM18.3964 13.8016C18.4977 13.8999 18.6618 13.9678 18.8212 14.0182C18.9902 14.0717 19.191 14.1163 19.396 14.1522C19.8053 14.2237 20.2528 14.2637 20.5381 14.2637V13.8637C20.2802 13.8637 19.8561 13.8265 19.4649 13.7581C19.2696 13.724 19.0878 13.683 18.9419 13.6368C18.7864 13.5876 18.7032 13.5419 18.6748 13.5144L18.3964 13.8016ZM17.6275 12.1221C17.6688 12.2963 17.8119 12.6647 17.9594 12.9994C18.0345 13.1697 18.1134 13.3376 18.1853 13.475C18.2212 13.5436 18.2564 13.6066 18.2892 13.6594C18.3201 13.709 18.3559 13.7611 18.3941 13.7994L18.6771 13.5166C18.6771 13.5167 18.6767 13.5163 18.676 13.5154C18.6752 13.5146 18.6741 13.5133 18.6727 13.5117C18.6699 13.5083 18.6662 13.5036 18.6617 13.4975C18.6527 13.4851 18.6417 13.4687 18.6289 13.4481C18.6031 13.4067 18.573 13.3532 18.5398 13.2896C18.4733 13.1626 18.3983 13.0034 18.3254 12.8381C18.177 12.5014 18.0485 12.164 18.0168 12.03L17.6275 12.1221ZM17.6115 12.276H17.8222V11.876H17.6115V12.276ZM16.9441 13.8214C17.0198 13.7517 17.1044 13.6221 17.1818 13.4905C17.2641 13.3505 17.3536 13.1808 17.4382 13.0091C17.6034 12.6735 17.7637 12.3014 17.8062 12.1221L17.4169 12.03C17.3864 12.159 17.2466 12.4926 17.0793 12.8324C16.9976 12.9984 16.9128 13.1588 16.8369 13.2878C16.7561 13.4252 16.6988 13.5035 16.6732 13.5271L16.9441 13.8214ZM16.1522 12.7117C15.973 12.7117 15.3807 12.7813 14.8173 12.8585C14.5313 12.8977 14.2461 12.9398 14.0145 12.9778C13.7906 13.0146 13.5981 13.0503 13.5117 13.0783L13.6348 13.4589C13.6862 13.4423 13.8445 13.4111 14.0793 13.3726C14.3064 13.3353 14.5879 13.2937 14.8716 13.2548C15.4478 13.1759 16.0071 13.1117 16.1522 13.1117V12.7117ZM16.4795 11.6774C16.2846 12.0503 16.0373 12.52 15.9573 12.8667L16.3471 12.9566C16.4127 12.672 16.6285 12.256 16.834 11.8627L16.4795 11.6774ZM16.6615 11.3227C16.6098 11.4281 16.5473 11.5478 16.4795 11.6774L16.834 11.8627C16.9011 11.7344 16.9662 11.6098 17.0207 11.4988L16.6615 11.3227ZM16.8038 11.0224C16.7603 11.1187 16.7161 11.2166 16.6632 11.3192L17.0189 11.5022C17.0771 11.3892 17.1252 11.2825 17.1683 11.187L16.8038 11.0224ZM16.8033 11.0235L16.8033 11.0235L17.1688 11.186L17.1688 11.1859L16.8033 11.0235ZM17.7765 10.1045C17.4787 10.1744 17.2753 10.2957 17.123 10.468C16.9785 10.6314 16.89 10.8315 16.8038 11.0224L17.1683 11.187C17.2604 10.9832 17.3257 10.8427 17.4226 10.7329C17.5117 10.6322 17.6373 10.5481 17.8679 10.4939L17.7765 10.1045ZM18.9446 11.8029C18.818 11.5173 18.6759 11.1968 18.5162 10.9055C18.3578 10.6165 18.1729 10.3388 17.9533 10.1482L17.6911 10.4503C17.8564 10.5938 18.014 10.8214 18.1655 11.0978C18.3157 11.3718 18.451 11.6766 18.579 11.9651L18.9446 11.8029ZM18.9407 11.7945L18.9407 11.7945L18.5829 11.9734L18.5829 11.9734L18.9407 11.7945ZM18.9515 11.8208L18.9515 11.8207L18.5721 11.9472L18.5721 11.9472L18.9515 11.8208ZM19.4006 12.6598C19.3576 12.6244 19.2932 12.5336 19.208 12.3698C19.1269 12.2136 19.0407 12.0195 18.9446 11.8029L18.579 11.9651C18.6735 12.1781 18.7651 12.3848 18.8531 12.5543C18.9372 12.716 19.0334 12.8756 19.1465 12.9687L19.4006 12.6598ZM20.5814 12.8902C20.307 12.8659 20.0497 12.8429 19.8333 12.8045C19.6085 12.7647 19.4677 12.7141 19.3994 12.6588L19.1478 12.9697C19.3025 13.095 19.5349 13.1579 19.7635 13.1984C20.0005 13.2404 20.2766 13.2647 20.5461 13.2886L20.5814 12.8902ZM20.5638 12.8894H20.5638V13.2894H20.5638V12.8894ZM22.4089 13.7472C22.4089 13.555 22.326 13.4015 22.1959 13.2878C22.0729 13.1803 21.9106 13.1105 21.7428 13.0611C21.4084 12.9627 20.9748 12.9251 20.5814 12.8902L20.5461 13.2886C20.9529 13.3247 21.3418 13.36 21.6299 13.4448C21.7734 13.487 21.8724 13.5363 21.9328 13.5891C21.9861 13.6357 22.0089 13.6835 22.0089 13.7472H22.4089ZM20.2745 16.0335C20.3567 16.0112 20.4472 15.9589 20.5305 15.9031C20.619 15.8439 20.7191 15.7672 20.8244 15.6799C21.0354 15.5051 21.2768 15.2797 21.5047 15.0461C21.7322 14.8127 21.9503 14.567 22.113 14.3509C22.1941 14.2432 22.2644 14.1388 22.3154 14.0444C22.3623 13.9576 22.4089 13.851 22.4089 13.7472H22.0089C22.0089 13.7449 22.0055 13.7765 21.9635 13.8543C21.9256 13.9244 21.8681 14.011 21.7934 14.1103C21.6444 14.3083 21.4387 14.5407 21.2183 14.7668C20.9982 14.9925 20.7672 15.2078 20.5692 15.372C20.47 15.4541 20.3814 15.5216 20.3081 15.5706C20.2296 15.6232 20.185 15.6433 20.1699 15.6474L20.2745 16.0335ZM20.8442 18.5583C20.8442 17.7121 20.5865 16.5059 20.4167 15.7941L20.0276 15.8869C20.1984 16.6029 20.4442 17.7656 20.4442 18.5583H20.8442ZM18.4368 18.3956C18.8699 18.6404 19.4182 18.9514 19.8607 19.0882C20.0755 19.1545 20.3123 19.1958 20.5074 19.1241C20.6132 19.0853 20.7032 19.0144 20.7634 18.9089C20.8213 18.8075 20.8442 18.6874 20.8442 18.5583H20.4442C20.4442 18.643 20.4288 18.6882 20.416 18.7106C20.4056 18.7289 20.3926 18.7401 20.3695 18.7486C20.3066 18.7717 20.1812 18.7685 19.9788 18.706C19.5867 18.5849 19.0805 18.2999 18.6336 18.0473L18.4368 18.3956ZM17.7169 18.0281C17.7088 18.0281 17.7226 18.0275 17.7717 18.0462C17.8151 18.0628 17.8709 18.0883 17.9392 18.1227C18.0757 18.1915 18.245 18.2872 18.4368 18.3956L18.6336 18.0473C18.4448 17.9406 18.2661 17.8396 18.1192 17.7655C18.0457 17.7285 17.976 17.696 17.914 17.6724C17.8576 17.6509 17.7861 17.6281 17.7169 17.6281V18.0281ZM16.6504 18.5383C16.8842 18.3993 17.1037 18.269 17.297 18.1729C17.4986 18.0727 17.637 18.0281 17.7169 18.0281V17.6281C17.5338 17.6281 17.3199 17.7148 17.1189 17.8148C16.9095 17.9189 16.6762 18.0577 16.4461 18.1945L16.6504 18.5383ZM14.5927 17.8976C14.5158 18.3188 14.5156 18.6421 14.6163 18.865C14.67 18.9839 14.7532 19.0756 14.8643 19.1316C14.972 19.1857 15.0897 19.1982 15.2021 19.1899C15.4207 19.1738 15.6677 19.0751 15.9058 18.9571C16.1484 18.8368 16.4067 18.6831 16.6504 18.5383L16.4461 18.1945C16.1992 18.3412 15.9545 18.4865 15.7281 18.5987C15.497 18.7133 15.309 18.7809 15.1727 18.791C15.1076 18.7958 15.0679 18.7862 15.0441 18.7742C15.0237 18.764 15.0012 18.7453 14.9808 18.7003C14.9335 18.5956 14.9117 18.3774 14.9862 17.9695L14.5927 17.8976ZM14.6665 17.4473C14.6425 17.5967 14.6184 17.7464 14.5923 17.9001L14.9867 17.967C15.0131 17.8114 15.0374 17.6601 15.0615 17.5109L14.6665 17.4473ZM14.8044 16.639C14.7519 16.9173 14.7093 17.1819 14.6665 17.4473L15.0615 17.5109C15.1043 17.2448 15.1461 16.9854 15.1974 16.7131L14.8044 16.639ZM14.8624 16.3548C14.845 16.4336 14.8241 16.5282 14.804 16.641L15.1978 16.7111C15.2163 16.6072 15.2356 16.5198 15.253 16.441L14.8624 16.3548ZM14.8628 16.3529L14.8628 16.3529L15.2525 16.4428L15.2526 16.4428L14.8628 16.3529ZM14.8679 16.3346L14.8679 16.3346L15.2474 16.4611L15.2474 16.4611L14.8679 16.3346ZM14.6805 15.7384C14.8461 15.9041 14.888 15.9821 14.9008 16.0373C14.9149 16.098 14.9043 16.1646 14.8624 16.3547L15.253 16.4409C15.2887 16.2789 15.3292 16.1141 15.2905 15.947C15.2505 15.7743 15.1357 15.628 14.9634 15.4556L14.6805 15.7384ZM14.2135 15.2986C14.3845 15.4556 14.5454 15.6032 14.6805 15.7384L14.9634 15.4556C14.821 15.3131 14.6532 15.1593 14.4839 15.0039L14.2135 15.2986ZM14.2145 15.2995L14.2145 15.2996L14.4829 15.003L14.4828 15.0029L14.2145 15.2995ZM14.2157 15.3007L14.2158 15.3007L14.4815 15.0017L14.4815 15.0017L14.2157 15.3007ZM13.5112 13.0785C13.247 13.1647 13.0493 13.3104 12.9915 13.5414C12.9376 13.7571 13.0267 13.9751 13.1402 14.1575C13.3703 14.5274 13.8248 14.942 14.2134 15.2986L14.4838 15.0038C14.0782 14.6317 13.6742 14.2586 13.4798 13.9462C13.3811 13.7875 13.3665 13.6907 13.3795 13.6385C13.3888 13.6016 13.4288 13.5262 13.6353 13.4587L13.5112 13.0785ZM39.5975 17.2898C39.7401 17.3749 39.8892 17.4638 40.0319 17.5377C40.1731 17.6108 40.3204 17.6758 40.4602 17.7069L40.547 17.3164C40.4581 17.2967 40.3473 17.2506 40.2158 17.1825C40.0857 17.1151 39.9473 17.0327 39.8023 16.9463L39.5975 17.2898ZM38.7551 16.9082C38.8251 16.9044 38.9365 16.9342 39.0958 17.0097C39.2493 17.0825 39.4181 17.1829 39.5975 17.2898L39.8023 16.9463C39.6272 16.8419 39.4412 16.7308 39.2671 16.6482C39.0987 16.5684 38.9096 16.4992 38.7333 16.5088L38.7551 16.9082ZM38.0163 17.2479C38.1878 17.1563 38.3468 17.0714 38.4832 17.0076C38.628 16.9399 38.7174 16.911 38.7588 16.908L38.7296 16.509C38.6054 16.5181 38.4538 16.5798 38.3139 16.6452C38.1657 16.7145 37.9964 16.805 37.8277 16.8951L38.0163 17.2479ZM38.0249 17.243L38.0249 17.243L37.8191 16.9L37.8191 16.9L38.0249 17.243ZM36.998 17.7064C37.2902 17.6379 37.6844 17.4253 38.0163 17.2479L37.8277 16.8952C37.4743 17.0841 37.1352 17.2633 36.9066 17.317L36.998 17.7064ZM36.8722 16.8143C36.8217 17.053 36.7697 17.2973 36.753 17.4948L37.1516 17.5285C37.1657 17.3612 37.2112 17.1446 37.2635 16.8971L36.8722 16.8143ZM36.9586 15.5614C37.009 15.646 37.029 15.8061 37.006 16.0501C36.9841 16.284 36.9282 16.5492 36.8722 16.8143L37.2635 16.8971C37.3184 16.6376 37.3797 16.3487 37.4043 16.0875C37.4279 15.8363 37.4237 15.5604 37.3023 15.3567L36.9586 15.5614ZM36.4459 15.0515C36.6573 15.2217 36.8386 15.3699 36.961 15.5653L37.2999 15.3529C37.1359 15.0911 36.8991 14.9028 36.6967 14.7399L36.4459 15.0515ZM35.7129 14.1144C35.8308 14.564 36.169 14.8286 36.4459 15.0515L36.6967 14.7399C36.4032 14.5036 36.1792 14.3157 36.0998 14.0129L35.7129 14.1144ZM36.8039 13.7796C36.5088 13.8275 36.2855 13.8637 35.9063 13.8637V14.2637C36.3188 14.2637 36.5679 14.2231 36.868 14.1744L36.8039 13.7796ZM36.9204 13.7607L36.8041 13.7795L36.8678 14.1744L36.9842 14.1556L36.9204 13.7607ZM37.131 13.7325C37.0642 13.7408 36.9934 13.7496 36.9222 13.7605L36.9824 14.1559C37.0474 14.146 37.1128 14.1379 37.1804 14.1295L37.131 13.7325ZM37.1309 13.7325L37.1309 13.7325L37.1805 14.1294L37.1805 14.1294L37.1309 13.7325ZM37.7711 13.5299C37.7147 13.5905 37.6366 13.6329 37.5271 13.6644C37.4144 13.6968 37.285 13.7134 37.131 13.7325L37.1804 14.1295C37.3271 14.1112 37.4892 14.0915 37.6375 14.0489C37.7889 14.0054 37.9414 13.9341 38.064 13.8024L37.7711 13.5299ZM38.1025 12.9006C38.0438 13.0397 37.9898 13.1676 37.9334 13.2792C37.8765 13.3921 37.8236 13.4747 37.7727 13.5283L38.0624 13.804C38.1536 13.7082 38.2274 13.5845 38.2905 13.4595C38.3542 13.3334 38.4137 13.1921 38.4711 13.056L38.1025 12.9006ZM38.7151 11.915C38.5601 12.0291 38.4436 12.1961 38.3504 12.3649C38.2564 12.5352 38.1759 12.7265 38.1025 12.9006L38.4711 13.056C38.5463 12.8776 38.6186 12.7067 38.7006 12.5583C38.7833 12.4085 38.8659 12.3006 38.9523 12.2371L38.7151 11.915ZM39.772 13.5271C39.7464 13.5035 39.6891 13.4252 39.6083 13.2878C39.5325 13.1588 39.4476 12.9984 39.3659 12.8324C39.1986 12.4926 39.0588 12.159 39.0283 12.03L38.6391 12.1221C38.6815 12.3014 38.8418 12.6735 39.007 13.0091C39.0916 13.1808 39.1811 13.3505 39.2635 13.4905C39.3408 13.6221 39.4254 13.7517 39.5011 13.8214L39.772 13.5271ZM41.6549 13.8637C41.3488 13.8637 40.94 13.8457 40.5691 13.7898C40.3836 13.7619 40.2123 13.7252 40.0702 13.6786C39.9245 13.6308 39.8268 13.578 39.7727 13.5277L39.5005 13.8208C39.6166 13.9287 39.7783 14.0037 39.9454 14.0586C40.1162 14.1146 40.3111 14.1555 40.5096 14.1854C40.9066 14.2452 41.3367 14.2637 41.6549 14.2637V13.8637ZM41.7962 14.2656C41.806 14.2364 41.8202 14.1945 41.8429 14.132L41.467 13.9954C41.4427 14.0622 41.4274 14.1076 41.4172 14.1378L41.7962 14.2656ZM41.6899 14.4326C41.744 14.3961 41.7659 14.3464 41.7739 14.3276C41.7817 14.3092 41.7896 14.2851 41.7962 14.2657L41.4172 14.1378C41.4131 14.15 41.4103 14.1582 41.408 14.1647C41.4056 14.1715 41.405 14.1729 41.4055 14.1717C41.4057 14.1712 41.4099 14.161 41.4188 14.148C41.4236 14.1409 41.4301 14.1326 41.4385 14.124C41.4472 14.1153 41.4565 14.1075 41.4663 14.1009L41.6899 14.4326ZM41.6307 14.4611C41.6316 14.4608 41.6398 14.4581 41.6483 14.4547C41.658 14.4507 41.6732 14.4439 41.6899 14.4326L41.4663 14.1009C41.48 14.0917 41.4918 14.0865 41.4977 14.0841C41.5007 14.0829 41.5028 14.0822 41.5033 14.082C41.5037 14.0818 41.5038 14.0818 41.5023 14.0823L41.6307 14.4611ZM41.5188 14.556C41.5752 14.5012 41.6073 14.4765 41.6228 14.466C41.63 14.4612 41.6325 14.4601 41.6313 14.4607C41.6295 14.4616 41.6272 14.4623 41.6307 14.4611L41.5023 14.0823C41.443 14.1024 41.3742 14.1387 41.24 14.2692L41.5188 14.556ZM41.3737 14.6885C41.4136 14.6529 41.458 14.6132 41.5165 14.5582L41.2423 14.267C41.1879 14.3181 41.1469 14.3548 41.1073 14.3901L41.3737 14.6885ZM41.3712 14.6907L41.3714 14.6906L41.1096 14.3881L41.1095 14.3882L41.3712 14.6907ZM41.197 14.8541C41.2694 14.7816 41.317 14.7392 41.3736 14.6886L41.1072 14.3903C41.0492 14.442 40.9948 14.4906 40.9141 14.5714L41.197 14.8541ZM40.5413 16.2223C40.4749 15.9532 40.453 15.843 40.5104 15.6952C40.5764 15.5254 40.7543 15.2944 41.1966 14.8546L40.9145 14.5709C40.4794 15.0036 40.2387 15.2901 40.1376 15.5504C40.0279 15.8326 40.0905 16.0648 40.153 16.3181L40.5413 16.2223ZM40.7036 17.5117C40.7036 16.881 40.6094 16.498 40.5413 16.2223L40.153 16.3181C40.2178 16.5809 40.3036 16.9279 40.3036 17.5117H40.7036ZM36.3328 15.6733C36.0851 15.5106 35.5986 15.1317 35.1755 14.7143C34.9642 14.5058 34.774 14.293 34.6381 14.0972C34.4967 13.8935 34.4363 13.7394 34.4363 13.6418H34.0363C34.0363 13.8686 34.1594 14.1091 34.3095 14.3253C34.465 14.5493 34.6742 14.7817 34.8946 14.9991C35.3352 15.4337 35.842 15.8295 36.1133 16.0076L36.3328 15.6733ZM37.3324 18.2988C36.9202 18.5041 36.6072 18.6592 36.3721 18.7297C36.2552 18.7648 36.1786 18.7721 36.1305 18.7655C36.0929 18.7604 36.0749 18.7481 36.0581 18.7232C36.0347 18.6886 36.0077 18.6176 35.9968 18.4812C35.9861 18.3473 35.9922 18.1683 36.0188 17.9335C36.0719 17.464 36.2033 16.8007 36.4177 15.8861L36.0283 15.7948C35.8134 16.7113 35.6773 17.394 35.6213 17.8885C35.5933 18.1357 35.5845 18.3431 35.5981 18.513C35.6114 18.6803 35.6478 18.8304 35.7266 18.9471C35.812 19.0734 35.9349 19.1426 36.0765 19.1619C36.2076 19.1797 36.3486 19.1545 36.4871 19.1129C36.7629 19.0301 37.1123 18.8552 37.5107 18.6568L37.3324 18.2988ZM37.3826 18.2738L37.3324 18.2988L37.5107 18.6568L37.5609 18.6318L37.3826 18.2738ZM38.0899 17.8918C37.9188 17.9901 37.6968 18.1174 37.3826 18.2738L37.5608 18.6319C37.886 18.47 38.1164 18.3378 38.289 18.2388L38.0899 17.8918ZM38.698 17.6389C38.5938 17.6449 38.4995 17.6769 38.4056 17.7205C38.3141 17.763 38.2103 17.8228 38.0899 17.8918L38.289 18.2388C38.415 18.1665 38.5018 18.1169 38.5741 18.0833C38.6439 18.0509 38.6865 18.0402 38.7211 18.0382L38.698 17.6389ZM39.5292 17.9469C39.3405 17.8472 39.1916 17.7683 39.0689 17.7169C38.9434 17.6643 38.8254 17.6315 38.698 17.6389L38.7211 18.0382C38.7618 18.0359 38.8148 18.0441 38.9143 18.0858C39.0166 18.1287 39.1468 18.1973 39.3424 18.3006L39.5292 17.9469ZM40.0348 18.2094C39.8331 18.1075 39.6681 18.0203 39.5292 17.9469L39.3424 18.3006C39.4813 18.374 39.6491 18.4627 39.8544 18.5664L40.0348 18.2094ZM40.4755 18.4617C40.3466 18.3817 40.2019 18.2918 40.033 18.2085L39.8562 18.5674C40.0052 18.6407 40.1342 18.7207 40.2645 18.8016L40.4755 18.4617ZM41.339 18.7802C40.9941 18.7802 40.7765 18.6487 40.4755 18.4617L40.2645 18.8016C40.5635 18.9872 40.8685 19.1802 41.339 19.1802V18.7802ZM41.3468 17.2522C41.4429 17.6912 41.5334 18.1095 41.5329 18.4177C41.5327 18.5729 41.5086 18.6679 41.4768 18.7189C41.4558 18.7527 41.4254 18.7802 41.339 18.7802V19.1802C41.548 19.1802 41.7144 19.094 41.8163 18.9304C41.9075 18.7841 41.9326 18.598 41.9329 18.4183C41.9335 18.0565 41.8301 17.5894 41.7375 17.1667L41.3468 17.2522ZM41.2423 15.732C41.1915 15.8298 41.1726 15.9436 41.1675 16.0531C41.1623 16.1649 41.171 16.2885 41.1871 16.4159C41.219 16.6698 41.2837 16.9645 41.3468 17.2522L41.7375 17.1667C41.6733 16.8736 41.6132 16.5982 41.5839 16.3659C41.5694 16.2502 41.5634 16.1517 41.5671 16.0716C41.5709 15.9892 41.5844 15.9411 41.5972 15.9164L41.2423 15.732ZM41.9659 14.9755C41.8105 15.1148 41.6597 15.25 41.5362 15.3725C41.4165 15.4912 41.3053 15.6142 41.2434 15.7298L41.5961 15.9186C41.6271 15.8607 41.6993 15.7741 41.8179 15.6565C41.9328 15.5426 42.0754 15.4146 42.233 15.2732L41.9659 14.9755ZM43.1307 13.5971C43.0877 13.7848 42.9385 14.0096 42.7129 14.259C42.4917 14.5035 42.2209 14.7467 41.9659 14.9755L42.233 15.2732C42.4847 15.0474 42.7718 14.7901 43.0095 14.5273C43.2428 14.2694 43.4534 13.9802 43.5206 13.6864L43.1307 13.5971ZM42.3 13.369C42.5462 13.3936 42.6769 13.4084 42.792 13.456C42.8989 13.5002 43.0073 13.5802 43.1747 13.7729L43.4767 13.5106C43.291 13.2968 43.134 13.1645 42.9449 13.0864C42.7641 13.0116 42.5684 12.9938 42.3397 12.971L42.3 13.369ZM41.9384 13.329C42.0774 13.3468 42.1969 13.3587 42.3 13.369L42.3397 12.971C42.2366 12.9607 42.122 12.9492 41.9891 12.9323L41.9384 13.329ZM41.4434 13.2492C41.611 13.2779 41.7783 13.3065 41.9359 13.3287L41.9916 12.9326C41.841 12.9114 41.6799 12.8838 41.511 12.8549L41.4434 13.2492ZM40.293 13.1117C40.6374 13.1117 41.0406 13.1802 41.4434 13.2492L41.511 12.8549C41.1173 12.7875 40.6782 12.7117 40.293 12.7117V13.1117ZM39.6393 11.9266C39.8333 12.2963 40.0332 12.6806 40.0983 12.9575L40.4877 12.8659C40.4082 12.528 40.1777 12.0917 39.9936 11.7408L39.6393 11.9266ZM39.457 11.5718C39.5106 11.6812 39.5742 11.8025 39.6393 11.9266L39.9936 11.7408C39.9278 11.6154 39.8669 11.4992 39.8162 11.3958L39.457 11.5718ZM39.3102 11.2543C39.3537 11.3526 39.4014 11.4607 39.4577 11.5732L39.8155 11.3944C39.7641 11.2915 39.7199 11.1918 39.6761 11.0926L39.3102 11.2543ZM38.5779 10.4941C38.8086 10.5476 38.9406 10.6394 39.0374 10.754C39.1423 10.8782 39.2142 11.0372 39.3102 11.2543L39.6761 11.0926C39.5856 10.8879 39.4918 10.6722 39.343 10.4959C39.1861 10.3102 38.9762 10.1758 38.6682 10.1044L38.5779 10.4941ZM37.842 12.0089C37.9725 11.7158 38.1132 11.3999 38.2686 11.1159C38.4257 10.8288 38.5878 10.5936 38.7536 10.4508L38.4925 10.1477C38.2707 10.3388 38.0807 10.626 37.9177 10.9238C37.7531 11.2247 37.6058 11.556 37.4766 11.8462L37.842 12.0089ZM37.3649 12.9034C37.4499 12.814 37.5287 12.6751 37.6017 12.5298C37.6773 12.3792 37.7579 12.1978 37.842 12.0089L37.4766 11.8462C37.3913 12.0378 37.3147 12.2098 37.2442 12.3503C37.171 12.4961 37.1148 12.5859 37.075 12.6278L37.3649 12.9034ZM36.0256 13.283C36.242 13.2651 36.4997 13.244 36.7329 13.1957C36.9589 13.1489 37.2039 13.069 37.3633 12.905L37.0766 12.6262C37.0058 12.6989 36.8643 12.76 36.6518 12.804C36.4467 12.8464 36.2141 12.866 35.9926 12.8844L36.0256 13.283ZM35.713 13.3129C35.802 13.3016 35.907 13.2928 36.0256 13.283L35.9926 12.8844C35.8765 12.894 35.762 12.9034 35.6625 12.9161L35.713 13.3129ZM35.5489 13.3333C35.6088 13.3261 35.6654 13.3193 35.7145 13.3127L35.6611 12.9163C35.6155 12.9224 35.5622 12.9288 35.5014 12.9361L35.5489 13.3333ZM34.4363 13.6418C34.4363 13.6384 34.4367 13.635 34.4412 13.628C34.4468 13.619 34.4597 13.6038 34.4868 13.5845C34.5431 13.5443 34.6341 13.5049 34.7571 13.4695C35.0013 13.3993 35.3066 13.3622 35.5489 13.3333L35.5014 12.9361C35.2665 12.9642 34.9275 13.0043 34.6465 13.0851C34.5069 13.1252 34.3652 13.1798 34.2544 13.2589C34.1418 13.3393 34.0363 13.4646 34.0363 13.6418H34.4363Z" fill="white" mask="url(#path-1-outside-1_113_3144)"/>
</g>
<defs>
<filter id="filter0_d_113_3144" x="0.799805" y="0.799805" width="59.8076" height="71.4004" filterUnits="userSpaceOnUse" color-interpolation-filters="sRGB">
<feFlood flood-opacity="0" result="BackgroundImageFix"/>
<feColorMatrix in="SourceAlpha" type="matrix" values="0 0 0 0 0 0 0 0 0 0 0 0 0 0 0 0 0 0 127 0" result="hardAlpha"/>
<feOffset dy="10"/>
<feGaussianBlur stdDeviation="3"/>
<feComposite in2="hardAlpha" operator="out"/>
<feColorMatrix type="matrix" values="0 0 0 0 0 0 0 0 0 0 0 0 0 0 0 0 0 0 0.1 0"/>
<feBlend mode="normal" in2="BackgroundImageFix" result="effect1_dropShadow_113_3144"/>
<feBlend mode="normal" in="SourceGraphic" in2="effect1_dropShadow_113_3144" result="shape"/>
</filter>
</defs>
</svg>
