<svg width="69" height="73" viewBox="0 0 69 73" fill="none" xmlns="http://www.w3.org/2000/svg">
<g filter="url(#filter0_d_113_3128)">
<path d="M8.23325 49.5123V7.48769C8.23325 4.74016 10.7402 2.23322 13.4877 2.23322H55.5123C58.2713 2.23322 60.7668 4.73996 60.7668 7.48769V49.5123C60.7668 52.2598 58.2598 54.7668 55.5123 54.7668H13.4877C10.7402 54.7668 8.23325 52.2598 8.23325 49.5123ZM6.85 8.09339V48.9066C6.85 53.1245 9.88749 56.15 14.0934 56.15H54.9066C59.1244 56.15 62.15 53.1243 62.15 48.9066V8.09339C62.15 3.87564 59.1243 0.85 54.9066 0.85H14.0934C9.87568 0.85 6.85 3.87564 6.85 8.09339Z" fill="white" stroke="white" stroke-width="0.3"/>
<path d="M39.8213 26.3766L39.8217 26.3762L47.509 18.7005L47.5091 18.7005M39.8213 26.3766L29.0721 30.0233C30.0162 29.0791 30.5319 28.7156 30.5518 28.3267C30.5704 27.9624 30.1539 27.5758 29.2468 26.6687L19.8821 17.304C19.8323 17.2542 19.7822 17.2051 19.7323 17.1562C19.2452 16.6789 18.7756 16.2187 18.7756 15.289C18.7756 13.5302 19.7773 12.5285 21.5361 12.5285C22.5706 12.5285 23.4892 13.503 24.4114 14.4815C24.621 14.7038 24.8307 14.9263 25.042 15.1376L32.7294 22.825C33.6438 23.7393 34.0212 24.2762 34.4367 24.3074C35.0003 24.3497 35.6339 23.4614 37.7728 21.3225L45.4603 13.6351C45.5022 13.5932 45.5425 13.5527 45.5814 13.5137C46.3317 12.7602 46.5623 12.5285 47.8247 12.5285C49.1875 12.5285 50.2241 13.6583 50.2241 15.289C50.2241 16.3345 49.247 17.2559 48.2672 18.1798C48.0462 18.3881 47.8251 18.5966 47.6151 18.8066L47.5091 18.7005M39.8213 26.3766C39.5928 26.6063 39.3883 26.8019 39.2084 26.974C39.1787 27.0025 39.1496 27.0303 39.1212 27.0575C38.9225 27.2479 38.7541 27.4118 38.6245 27.5598C38.4955 27.7072 38.3954 27.8494 38.3431 27.9988C38.2886 28.1543 38.2887 28.3089 38.3443 28.4716C38.3979 28.6286 38.5017 28.7891 38.6459 28.9654C38.7908 29.1427 38.9841 29.3449 39.2258 29.5846C39.4191 29.7764 39.64 29.9891 39.8933 30.2331C40.2862 30.6114 40.7571 31.0648 41.3241 31.6318L49.0115 39.3192C49.0517 39.3594 49.0904 39.3979 49.1275 39.435C49.4918 39.798 49.7148 40.0203 49.8573 40.2882C50.0099 40.5752 50.0741 40.9262 50.0741 41.5893C50.0741 42.8527 49.0407 43.8387 47.4637 43.8387C46.6196 43.8387 46.2042 43.4193 45.7315 42.9419C45.6962 42.9063 45.6606 42.8704 45.6246 42.8343L36.3764 33.5861C36.1439 33.3537 35.9466 33.146 35.7733 32.9636C35.747 32.9359 35.7212 32.9088 35.696 32.8823C35.5059 32.6826 35.3425 32.5132 35.195 32.383C35.0482 32.2533 34.9065 32.1525 34.7574 32.0996C34.6022 32.0446 34.4478 32.0445 34.2853 32.1002C34.1286 32.1539 33.9684 32.2579 33.7922 32.4024C33.6151 32.5477 33.4128 32.7416 33.1728 32.9839C32.985 33.1736 32.7761 33.3907 32.537 33.6394C32.1547 34.0367 31.6952 34.5143 31.1209 35.0887C31.1209 35.0887 31.1209 35.0887 31.1208 35.0887L23.4335 42.7644L23.4327 42.7652C23.3943 42.8041 23.3574 42.8416 23.3219 42.8777C22.956 43.2497 22.733 43.4765 22.4652 43.6208C22.1799 43.7745 21.8322 43.8387 21.175 43.8387C19.912 43.8387 18.9256 42.7941 18.9256 41.2282C18.9256 40.3549 19.3537 39.9384 19.8501 39.4554C19.8761 39.43 19.9024 39.4045 19.9288 39.3787L19.9299 39.3775L29.1781 30.1293C29.4054 29.9021 29.6078 29.7086 29.785 29.5396L29.8182 29.5079C29.9809 29.3529 30.1232 29.2173 30.2417 29.0963C30.4872 28.8458 30.665 28.6267 30.6971 28.3831C30.7307 28.1282 30.6013 27.895 30.3834 27.6313C30.1932 27.4011 29.9098 27.1184 29.5366 26.7462C29.4776 26.6873 29.4164 26.6262 29.3529 26.5627L19.9882 17.198C19.9379 17.1476 19.8878 17.0985 19.8384 17.0499C19.3512 16.5714 18.9256 16.1535 18.9256 15.289C18.9256 14.4377 19.1675 13.7901 19.6024 13.3553C20.0372 12.9205 20.6848 12.6785 21.5361 12.6785C22.1131 12.6785 22.6684 13.0129 23.2376 13.5173C23.5958 13.8346 23.9422 14.2023 24.2944 14.5761C24.5049 14.7996 24.7175 15.0252 24.936 15.2436L32.6234 22.931C32.8558 23.1635 33.0532 23.3713 33.2265 23.5536C33.2528 23.5813 33.2785 23.6084 33.3038 23.6349C33.4938 23.8346 33.6573 24.004 33.8047 24.1342C33.9516 24.2639 34.0933 24.3647 34.2423 24.4176C34.3975 24.4726 34.5519 24.4727 34.7145 24.417C34.8711 24.3634 35.0314 24.2593 35.2075 24.1148C35.3847 23.9695 35.5869 23.7757 35.8269 23.5333C36.0147 23.3436 36.2237 23.1264 36.4629 22.8778C36.8451 22.4805 37.3046 22.0028 37.8789 21.4285L45.5663 13.7411C45.6069 13.7005 45.6458 13.6615 45.6832 13.624C46.0456 13.2604 46.2676 13.0376 46.5341 12.8952C46.8196 12.7427 47.1676 12.6785 47.8247 12.6785C49.0877 12.6785 50.0741 13.7231 50.0741 15.289C50.0741 15.8722 49.7394 16.4305 49.2353 17.0009C48.9168 17.3612 48.5477 17.7091 48.1725 18.0627C47.9504 18.2721 47.7262 18.4834 47.5091 18.7005M39.8213 26.3766L47.5091 18.7005M19.8925 18.9709L19.893 18.9714C20.0598 19.1366 20.3498 19.4226 20.7271 19.7946C21.7214 20.7752 23.3218 22.3533 24.8693 23.8923C25.9364 24.9536 26.9776 25.9955 27.7767 26.8091C28.1762 27.216 28.5148 27.5652 28.7655 27.831C28.9469 28.0233 29.0766 28.166 29.1513 28.2546C29.0517 28.3791 28.878 28.5721 28.6387 28.8249C28.3379 29.1425 27.942 29.5456 27.48 30.0082C26.556 30.9335 25.3705 32.0939 24.1582 33.2792C24.077 33.3586 23.9957 33.4382 23.9143 33.5177C21.5704 35.8093 19.1785 38.148 18.4521 38.999C18.2205 39.2673 17.9792 39.6535 17.8333 40.0061L17.8333 40.0061L17.8322 40.0089C17.032 42.0578 18.1115 44.0711 19.7023 44.8119L19.7028 44.8121C21.0976 45.4554 22.162 45.2934 23.0401 44.7931C23.7214 44.405 24.2909 43.8104 24.8098 43.2685C24.9449 43.1274 25.0767 42.9898 25.206 42.8604C25.5113 42.5581 26.2212 41.8416 27.1217 40.9326C28.01 40.036 29.0838 38.952 30.1378 37.8937C31.1999 36.8273 32.2422 35.7864 33.056 34.9875C33.463 34.588 33.8122 34.2495 34.078 33.9988C34.2696 33.8182 34.4119 33.6888 34.5006 33.614C34.6056 33.7009 34.7756 33.8555 35.004 34.0721C35.3053 34.3578 35.6977 34.7412 36.154 35.1931C37.0664 36.0968 38.2318 37.2723 39.4293 38.4844C39.8355 38.8955 40.2454 39.3109 40.6506 39.7214C42.6321 41.7292 44.4969 43.6189 45.2293 44.3076C46.3788 45.3898 47.9424 45.4229 49.2054 44.8215C50.4666 44.221 51.4574 42.9746 51.4574 41.4611C51.4574 39.7977 50.4241 38.8113 49.5354 37.9629C49.387 37.8212 49.2427 37.6834 49.1079 37.547L49.1067 37.5458C48.9579 37.3984 48.7108 37.1546 48.3912 36.8391C47.4089 35.8694 45.7409 34.2229 44.1306 32.6192C43.0634 31.5565 42.0222 30.513 41.2232 29.6984C40.8236 29.2909 40.485 28.9412 40.2343 28.6752C40.0537 28.4834 39.9242 28.3409 39.8494 28.2521C39.9364 28.1472 40.0911 27.9772 40.3079 27.7487C40.594 27.4474 40.9778 27.055 41.4302 26.5987C42.335 25.6863 43.512 24.521 44.7255 23.3234C45.1297 22.9247 45.5379 22.5222 45.9416 22.1243C47.9602 20.1345 49.8634 18.2584 50.5547 17.5233L50.5548 17.5232C51.2173 16.8177 51.4738 15.8775 51.4148 14.962C51.356 14.0475 50.9821 13.1453 50.3672 12.5061L50.3671 12.506C49.7156 11.8304 48.6535 11.2953 47.7083 11.2953C46.0224 11.2953 45.0243 12.3557 44.1725 13.2607C44.0434 13.3978 43.9176 13.5314 43.7934 13.6571C43.488 13.9596 42.7783 14.676 41.8781 15.5846C40.9898 16.4813 39.916 17.5652 38.8619 18.6236C37.7999 19.69 36.7575 20.7309 35.9437 21.5297C35.5368 21.9292 35.1875 22.2677 34.9217 22.5184C34.729 22.7002 34.5861 22.8301 34.4975 22.9047C34.3735 22.8063 34.1809 22.6338 33.9282 22.3948C33.611 22.0949 33.2083 21.6996 32.7461 21.2378C31.8218 20.3145 30.6624 19.1286 29.4779 17.9156C29.4037 17.8396 29.3293 17.7635 29.255 17.6873C26.9599 15.337 24.6121 12.9329 23.7533 12.2047C23.4978 11.9859 23.0993 11.7318 22.7432 11.5965C21.2289 11.0033 19.7703 11.4046 18.753 12.3856C18.0774 13.037 17.5424 14.0991 17.5424 15.0444C17.5424 16.7579 18.5384 17.692 19.4379 18.5355C19.5942 18.6822 19.7477 18.8261 19.8925 18.9709Z" fill="white" stroke="white" stroke-width="0.3"/>
</g>
<defs>
<filter id="filter0_d_113_3128" x="0.700195" y="0.700195" width="67.5996" height="71.5996" filterUnits="userSpaceOnUse" color-interpolation-filters="sRGB">
<feFlood flood-opacity="0" result="BackgroundImageFix"/>
<feColorMatrix in="SourceAlpha" type="matrix" values="0 0 0 0 0 0 0 0 0 0 0 0 0 0 0 0 0 0 127 0" result="hardAlpha"/>
<feOffset dy="10"/>
<feGaussianBlur stdDeviation="3"/>
<feComposite in2="hardAlpha" operator="out"/>
<feColorMatrix type="matrix" values="0 0 0 0 0 0 0 0 0 0 0 0 0 0 0 0 0 0 0.1 0"/>
<feBlend mode="normal" in2="BackgroundImageFix" result="effect1_dropShadow_113_3128"/>
<feBlend mode="normal" in="SourceGraphic" in2="effect1_dropShadow_113_3128" result="shape"/>
</filter>
</defs>
</svg>
