<svg width="69" height="62" viewBox="0 0 69 62" fill="none" xmlns="http://www.w3.org/2000/svg">
<g filter="url(#filter0_d_113_3123)">
<path d="M54.7855 30.9302C54.705 30.8736 54.6107 30.8184 54.5065 30.7643C54.3567 30.6866 54.2007 30.618 54.0508 30.5521C53.9799 30.5209 53.9104 30.4903 53.8435 30.4596L53.8418 30.4588L35.4751 21.7529L35.4722 21.7516L35.4723 21.7516C34.2013 21.1157 32.9081 20.5217 31.6119 19.9263L31.5382 19.8925C30.2185 19.2863 28.896 18.6778 27.596 18.0233C27.5956 18.0231 27.5952 18.0229 27.5948 18.0227L24.9856 16.7671L24.9855 16.767C24.5205 16.5427 24.1902 16.3856 23.6694 16.1622C22.965 15.862 22.6664 15.6736 22.4547 15.3692C22.361 15.2345 22.2861 15.0794 22.198 14.8968C22.1911 14.8826 22.1841 14.8682 22.1771 14.8536C22.0782 14.6491 21.9545 14.3976 21.7601 14.0701C21.7601 14.0701 21.7601 14.0701 21.7601 14.07L21.7363 14.03C21.0421 12.8642 20.1747 11.4074 19.4783 9.92382C18.7756 8.42685 18.2372 6.88282 18.2372 5.57061C18.2372 4.06077 19.1172 2.61136 20.3898 1.72804C21.6655 0.842568 23.3527 0.514413 24.9729 1.27326L24.9731 1.27337C26.5443 2.01243 27.43 3.2043 27.744 4.5705C28.0568 5.93131 27.8 7.45197 27.115 8.85673C27.0417 9.01054 26.9774 9.16118 26.9111 9.31664C26.9001 9.34252 26.889 9.36853 26.8778 9.39472C26.7997 9.57713 26.7172 9.76595 26.6151 9.96601M54.7855 30.9302L41.7493 36.3587C42.5329 36.1093 43.3044 35.868 44.0713 35.6282C45.6049 35.1486 47.1204 34.6746 48.6791 34.1529C48.6794 34.1528 48.6797 34.1527 48.68 34.1526L53.8103 32.5136L53.8127 32.5128C53.9682 32.4602 54.1159 32.4094 54.2591 32.36C54.71 32.2047 55.1176 32.0642 55.5932 31.9327C56.3974 31.7113 56.8064 31.4503 57.1018 31.0586C57.2452 30.8683 57.3582 30.652 57.4776 30.4102C57.5001 30.3645 57.523 30.3178 57.5464 30.2699C57.648 30.062 57.7602 29.8327 57.9053 29.5723L57.9054 29.5722C58.1125 29.2001 58.3435 28.7974 58.5879 28.3716C59.227 27.2579 59.9569 25.9858 60.5867 24.6885C61.4563 22.8972 62.15 21.0295 62.15 19.4284C62.15 17.7946 61.3663 16.4936 60.3588 15.4855C57.7389 12.8557 53.9993 13.4003 52.1161 15.8071C50.659 17.6604 50.4651 19.4142 50.8749 21.1637C51.2102 22.5949 51.952 24.0288 52.7168 25.5072C52.8776 25.818 53.0394 26.1307 53.1986 26.4458L53.1986 26.4458L53.2008 26.45L54.4884 28.8108C54.5702 28.9771 54.6604 29.126 54.7432 29.2624C54.7767 29.3178 54.8091 29.3711 54.8391 29.4227C54.8853 29.5023 54.9279 29.5804 54.9652 29.661C54.7521 29.5557 54.5369 29.457 54.3216 29.3595C54.2769 29.3393 54.2323 29.3191 54.1877 29.299C53.9026 29.1701 53.6179 29.0415 53.333 28.899L53.333 28.899L53.3301 28.8976L41.51 23.2962L41.5101 23.2961L41.5042 23.2936C40.6442 22.9295 39.6188 22.4239 38.5855 21.9086C38.4754 21.8537 38.3652 21.7987 38.2551 21.7437C37.3347 21.2841 36.4222 20.8285 35.6356 20.4741C35.6351 20.4739 35.6347 20.4737 35.6343 20.4735L23.9454 14.947C23.9668 14.8932 23.9962 14.8254 24.0341 14.7437C24.1053 14.5903 24.201 14.3987 24.3143 14.1799C24.5408 13.7426 24.8353 13.2017 25.1399 12.65C25.3272 12.3108 25.5186 11.967 25.7001 11.6409C26.1068 10.91 26.4642 10.268 26.6151 9.96601M54.7855 30.9302C54.705 30.9462 54.6202 30.9659 54.5333 30.9883C54.3103 31.0456 54.0625 31.1225 53.8184 31.2036C53.5739 31.2848 53.3312 31.3708 53.1182 31.4466L53.0718 31.4631C52.8777 31.5323 52.713 31.5909 52.596 31.6287L52.5942 31.6293C50.1215 32.4609 47.6339 33.2345 45.1444 34.0086L45.1435 34.0089C42.6552 34.7826 40.1651 35.5569 37.6892 36.3896C37.6888 36.3898 37.6884 36.3899 37.6881 36.39L30.2062 38.7856C29.3626 39.0238 28.5406 39.3015 27.7233 39.58C27.6785 39.5953 27.6337 39.6105 27.5889 39.6258C26.815 39.8896 26.0445 40.1523 25.2578 40.3833L25.2577 40.3833L25.2545 40.3843L15.5834 43.4681C15.9183 42.8485 16.3312 42.1184 16.7842 41.3175C16.9009 41.1111 17.0203 40.8999 17.1418 40.6847C17.8188 39.4849 18.5571 38.1622 19.2406 36.8404C19.9238 35.519 20.5537 34.1958 21.013 32.995C21.471 31.7978 21.7653 30.7076 21.7653 29.8572C21.7653 27.4544 21.1642 25.5903 19.4916 23.9167L19.4913 23.9164C16.8212 21.2618 13.654 21.1824 11.1604 22.4311C8.67785 23.6742 6.85 26.2407 6.85 28.8917C6.85 30.8491 7.30595 32.4779 8.121 34.151L8.12116 34.1513C8.3422 34.6022 8.54674 35.0434 8.74908 35.4799C9.12753 36.2962 9.49828 37.0959 9.95488 37.9118L54.7855 30.9302ZM26.6151 9.96601C26.615 9.96625 26.6149 9.96648 26.6148 9.96672L26.4811 9.89854L26.6153 9.96559C26.6153 9.96573 26.6152 9.96587 26.6151 9.96601ZM53.143 16.4494L53.1435 16.4488C54.4617 14.7381 57.3622 14.3296 59.2944 16.1259L59.2951 16.1266C59.3605 16.1866 59.3745 16.1979 59.4025 16.2207C59.4177 16.2331 59.437 16.2488 59.4708 16.2774L59.631 16.4303C60.3668 17.1936 60.747 17.9923 60.8855 18.8067C61.0244 19.6243 60.9212 20.4671 60.6752 21.3177C60.3135 22.5681 59.6534 23.8088 59.0234 24.9927C58.791 25.4295 58.5628 25.8586 58.3551 26.2776C58.2224 26.5389 57.7785 27.3876 57.3306 28.198C57.1063 28.6036 56.8819 28.9981 56.6954 29.3039C56.602 29.4571 56.5191 29.5862 56.4513 29.6829C56.4356 29.7052 56.4209 29.7255 56.4073 29.7436C56.4053 29.741 56.4032 29.7383 56.4011 29.7355C56.3545 29.6742 56.3001 29.5944 56.24 29.5001C56.12 29.3116 55.9818 29.0727 55.8441 28.825C55.6508 28.4774 55.462 28.1193 55.3267 27.8627C55.2686 27.7524 55.2203 27.6609 55.1858 27.597L55.1853 27.5961C55.1016 27.4435 55.0091 27.2764 54.91 27.0972C54.4017 26.1788 53.7169 24.9414 53.1212 23.6929C52.7653 22.9471 52.4428 22.2004 52.2095 21.5183C51.9753 20.8336 51.8351 20.2254 51.8351 19.7531C51.8351 19.0958 52.0452 18.3087 52.2313 17.855C52.4559 17.326 52.7041 17.0094 53.0341 16.5885C53.0695 16.5434 53.1057 16.4972 53.143 16.4494ZM25.6642 3.22537L25.6645 3.22561C26.7033 4.34536 26.8608 5.50239 26.6142 6.68224C26.3966 7.72336 25.8669 8.77361 25.3347 9.82879C25.2564 9.98412 25.178 10.1396 25.1005 10.2951L23.4984 13.2109C23.4297 13.3242 23.3672 13.4542 23.3095 13.5743C23.2786 13.6386 23.2491 13.7001 23.2207 13.7547C23.1658 13.8601 23.1103 13.9514 23.0467 14.0263L21.067 10.2639C21.0668 10.2635 21.0666 10.2631 21.0664 10.2627C21.0127 10.1563 20.9539 10.0409 20.8912 9.91815C20.6309 9.40814 20.3058 8.77103 20.0245 8.11841C19.6731 7.30318 19.4023 6.48982 19.4023 5.88689C19.4023 4.26534 20.3844 2.96556 21.6612 2.38847C22.9341 1.81314 24.4937 1.9582 25.6642 3.22537ZM34.8636 38.5803L41.7488 36.3588L29.6473 40.2536L33.0569 39.1469L33.0581 39.1465C33.3433 39.0513 33.6268 38.9657 33.9144 38.8787L33.9503 38.8679C34.2492 38.7775 34.5526 38.6854 34.8627 38.5806C34.863 38.5805 34.8633 38.5804 34.8636 38.5803ZM9.95512 37.9122L13.4487 44.2039L13.4486 44.2039L13.4504 44.207C13.5022 44.2952 13.5405 44.3783 13.5766 44.4593C13.5804 44.468 13.5843 44.4767 13.5882 44.4856C13.6195 44.556 13.652 44.6293 13.6902 44.6952C13.7347 44.7722 13.7905 44.8459 13.8708 44.9077C13.9483 44.9674 14.0417 45.0107 14.1563 45.0397C14.2817 45.0905 14.4316 45.0891 14.5735 45.0699C14.7246 45.0495 14.8897 45.0055 15.0505 44.9545C15.2119 44.9034 15.3744 44.8434 15.52 44.7894L15.5321 44.7849C15.6748 44.732 15.7978 44.6864 15.8934 44.6577L15.8934 44.6577L15.8962 44.6568L27.9332 40.7866L27.9342 40.7863C28.2357 40.6871 28.5105 40.6044 28.7871 40.5211L28.7881 40.5208C29.064 40.4377 29.3417 40.3541 29.6468 40.2538L9.95512 37.9122ZM8.01512 29.5326C8.01512 25.8747 10.8061 23.0195 14.2362 22.8324C15.7641 22.7521 17.3571 23.4893 18.5722 24.7111C19.7862 25.9318 20.6083 27.6223 20.6083 29.4244C20.6083 30.498 20.1355 31.9213 19.5482 33.2992C19.083 34.3907 18.5535 35.4373 18.148 36.2387C18.0439 36.4444 17.948 36.6339 17.8635 36.804L14.7055 42.5667C14.6723 42.622 14.639 42.674 14.6061 42.7254C14.4936 42.901 14.3858 43.0693 14.3037 43.3345C14.2838 43.2845 14.2592 43.229 14.2314 43.1695C14.1727 43.0441 14.0942 42.8899 13.9994 42.7112C13.8097 42.3536 13.5515 41.8917 13.2492 41.3551C13.1735 41.2206 13.0949 41.0814 13.0139 40.9378C12.4478 39.9344 11.7626 38.7197 11.0826 37.4418C10.3052 35.9807 9.53663 34.4403 8.9627 33.0425C8.38642 31.639 8.01512 30.3994 8.01512 29.5326Z" fill="white" stroke="white" stroke-width="0.3"/>
<path d="M16.4774 27.6646L16.4776 27.6648C17.3509 28.6098 17.4285 29.8438 17.0116 30.8482C16.593 31.8566 15.6889 32.6066 14.6244 32.6066H13.9834C13.2909 32.6066 12.6303 32.2516 12.1392 31.7082C11.648 31.1648 11.339 30.4463 11.339 29.7437C11.339 28.9438 11.6657 28.1988 12.1636 27.6538C12.6623 27.1079 13.3229 26.7725 13.9834 26.7725C14.4838 26.7725 14.923 26.7978 15.3294 26.9211C15.7317 27.0432 16.1083 27.2635 16.4774 27.6646ZM17.1682 26.6503L17.1676 26.6498C15.598 25.311 13.8487 25.2786 12.4931 25.947C11.1464 26.611 10.182 27.9714 10.182 29.419C10.182 30.057 10.2258 30.6336 10.406 31.1776C10.5872 31.7246 10.9033 32.2301 11.4353 32.7324C12.8549 34.0751 14.6069 34.1126 15.9954 33.4809C17.3741 32.8536 18.4257 31.5503 18.4257 30.1764C18.4257 28.8526 18.2439 27.5779 17.1682 26.6503Z" fill="white" stroke="white" stroke-width="0.3"/>
<path d="M56.2992 17.8492C57.0281 17.8492 57.5667 18.1098 57.9246 18.4911C58.2845 18.8745 58.4697 19.3885 58.4731 19.9058C58.4765 20.423 58.2982 20.9361 57.9407 21.3187C57.5853 21.6992 57.0435 21.9604 56.2992 21.9604C55.6485 21.9604 55.1709 21.7039 54.8538 21.3249C54.5339 20.9425 54.3708 20.4269 54.3718 19.9051C54.3727 19.3833 54.5378 18.8674 54.8584 18.4848C55.1763 18.1054 55.6529 17.8492 56.2992 17.8492ZM53.1469 19.8549C53.1469 21.2886 53.9058 22.3555 55.0541 22.8953C56.3301 23.4986 57.7188 23.1897 58.6911 22.2432C60.7668 20.2443 59.3631 16.642 56.4073 16.642C54.6828 16.642 53.1469 18.0439 53.1469 19.8549Z" fill="white" stroke="white" stroke-width="0.3"/>
<path d="M23.1269 4.42809C23.6629 4.42809 24.0441 4.63172 24.2915 4.92819C24.5418 5.22822 24.6639 5.63431 24.6552 6.04773C24.6376 6.87956 24.1021 7.6737 23.1269 7.6737C22.1993 7.6737 21.5106 6.91194 21.48 6.07884C21.4498 5.22598 22.2109 4.42809 23.1269 4.42809ZM20.2816 5.88448C20.2816 6.89031 20.6243 7.63138 21.1525 8.11984C21.6783 8.60604 22.375 8.83002 23.0646 8.82894C24.4336 8.82678 25.8471 7.92541 25.8471 6.31729V5.78461C25.8471 4.429 24.6487 3.2709 22.9109 3.2709C22.2424 3.2709 21.5864 3.60378 21.1006 4.0876C20.6149 4.57131 20.2816 5.22346 20.2816 5.88448Z" fill="white" stroke="white" stroke-width="0.3"/>
</g>
<defs>
<filter id="filter0_d_113_3123" x="0.700195" y="0.700195" width="67.5996" height="60.5322" filterUnits="userSpaceOnUse" color-interpolation-filters="sRGB">
<feFlood flood-opacity="0" result="BackgroundImageFix"/>
<feColorMatrix in="SourceAlpha" type="matrix" values="0 0 0 0 0 0 0 0 0 0 0 0 0 0 0 0 0 0 127 0" result="hardAlpha"/>
<feOffset dy="10"/>
<feGaussianBlur stdDeviation="3"/>
<feComposite in2="hardAlpha" operator="out"/>
<feColorMatrix type="matrix" values="0 0 0 0 0 0 0 0 0 0 0 0 0 0 0 0 0 0 0.1 0"/>
<feBlend mode="normal" in2="BackgroundImageFix" result="effect1_dropShadow_113_3123"/>
<feBlend mode="normal" in="SourceGraphic" in2="effect1_dropShadow_113_3123" result="shape"/>
</filter>
</defs>
</svg>
