<svg width="68" height="71" viewBox="0 0 68 71" fill="none" xmlns="http://www.w3.org/2000/svg">
<g filter="url(#filter0_d_113_3132)">
<path fill-rule="evenodd" clip-rule="evenodd" d="M7.5213 21.1841H59.557V27.0912H7.5213V21.1841ZM33.6723 15.8254C32.2857 15.8254 30.993 14.6189 30.993 13.5456V8.71962C30.993 7.29377 33.3511 5.42137 35.4429 7.08225C35.8111 7.37212 36.3517 8.12421 36.3517 8.71962V13.2792C36.3517 14.6737 35.0512 15.8254 33.6723 15.8254ZM47.0534 4.26188C47.547 4.99048 48.2364 5.39785 48.7691 6.08727L52.1457 9.68326C52.7411 10.3257 53.5167 11.1169 53.5167 11.9317C53.5167 13.3027 52.3337 14.1645 51.1977 13.9921C50.0618 13.8198 49.2 12.5036 48.0013 11.5556C47.7506 11.352 47.6175 11.1953 47.3824 10.9602C46.9124 10.4823 46.7008 10.3178 46.1837 9.88693C45.7685 9.53439 45.4317 9.13485 45.04 8.75097C44.7501 8.4611 44.6717 8.43758 44.3819 8.20255C44.0998 7.97536 44.0293 7.84218 43.7316 7.64632L47.0534 4.26188ZM17.7138 13.2792C16.4446 13.2792 16.4525 13.1539 15.4653 12.1667C13.2169 9.91044 14.4469 9.23669 16.6796 7.0039C17.6119 6.06378 21.7877 1.47286 22.8139 1.47286C24.4905 1.47286 26.167 3.14157 26.167 4.82596C26.167 5.78958 23.0098 8.5786 22.242 9.3542C21.5134 10.0828 20.8867 10.7095 20.1659 11.4303C19.6489 11.9474 18.5521 13.2792 17.7138 13.2792ZM42.5565 6.73754C41.0053 6.29881 40.261 3.82317 41.6398 2.33464C43.0814 0.791277 45.7685 1.44935 46.1446 3.08673L42.5565 6.73754ZM12.8878 9.79292C12.8878 11.9552 13.068 11.399 13.9612 12.7386C13.1229 13.3027 11.791 14.9949 10.9527 15.6295C9.71492 16.5696 10.0675 16.9692 10.0675 19.7112C8.82964 19.7112 7.37243 19.5702 6.18161 19.8444C5.87608 21.1684 6.04844 26.1902 6.04844 27.8902C6.04844 28.799 7.52131 28.564 8.46143 28.564V54.4487C8.46143 55.0362 9.93429 55.5533 9.93429 53.7749V28.564H57.144V53.7749C57.144 55.5533 58.6169 55.0362 58.6169 54.4487V28.564C59.557 28.564 61.0298 28.799 61.0298 27.8902C61.0298 26.1902 61.2022 21.1684 60.8967 19.8444C59.7058 19.5702 58.2486 19.7112 57.0108 19.7112C57.0108 16.7106 57.2772 17.1729 56.4389 16.2563C56.149 15.9429 56.0942 15.7784 55.773 15.4493C55.2873 14.9636 54.872 14.4465 54.3236 14.0783C56.1804 10.5685 53.6185 9.49522 52.1614 7.66198L48.6751 3.90933C48.1424 3.24341 47.7898 3.03973 47.3981 2.23279C46.1681 -0.274197 42.6505 -0.736414 40.6762 1.23784C40.4569 1.44937 39.9398 2.20146 39.7988 2.507C38.9292 4.34023 39.6578 6.76887 41.5067 7.85784C42.4938 8.44542 41.9297 7.77167 43.1597 9.01733C43.7159 9.57357 44.1625 9.8791 44.7031 10.4275L47.6174 13.1382C49.2862 14.4073 49.2 15.418 51.7775 15.418C52.5139 15.418 52.6706 15.1516 53.2503 15.0184C53.6577 15.2848 55.5302 17.2356 55.5302 17.5646V19.7112H34.2129V17.165C36.0461 17.1259 37.8324 15.2143 37.8324 13.2792V8.98599C37.8324 5.7034 33.5783 3.56462 30.8911 6.06377C30.2957 6.62001 29.5123 7.63848 29.5123 8.71962V13.5456C29.5123 15.1281 31.0792 16.7812 32.7322 17.165V19.7112H11.5482V17.2982C11.5482 16.7812 14.4468 14.3525 14.9012 13.6787C15.3086 13.953 15.3165 14.0861 15.8335 14.3525C18.7401 15.8567 20.6752 12.9267 23.1821 10.4275C24.0361 9.56573 24.8039 8.80581 25.6578 7.94403C26.9897 6.62003 27.6399 6.22831 27.6399 4.29323C27.6399 2.99273 25.5325 0 22.8139 0C21.4194 0 20.5655 1.10465 19.8291 1.84107L14.8621 6.80804C14.1413 7.5288 12.8878 8.47675 12.8878 9.79292Z" fill="white"/>
<path fill-rule="evenodd" clip-rule="evenodd" d="M26.4329 50.6879C26.4329 52.4898 25.626 53.1322 26.0255 54.8479C27.6316 55.2161 27.1694 54.6834 27.7648 51.7533C27.8744 51.1971 28.0781 50.4372 27.8588 50.069L24.6545 46.8334C23.9494 46.1283 22.7273 45.1333 22.4061 44.6554L28.65 43.7937C30.9533 43.4333 30.1542 43.5116 31.9718 39.8687C32.3557 39.1166 33.382 37.299 33.5387 36.6096C34.0871 37.0091 36.4138 42.2816 36.7977 43.0102C37.26 43.9033 38.8033 43.825 40.5504 44.0757L44.8044 44.6554C43.9583 45.9168 40.8873 48.3768 39.6651 49.7086C39.1872 50.2335 39.3047 50.6174 39.4379 51.3616C39.6494 52.5603 39.8453 53.7198 40.1116 54.8479C42.3836 55.3806 41.0204 53.4142 40.7776 50.5547C41.655 50.0925 44.5616 46.9901 45.6427 45.8933C45.8778 45.6504 48.5962 43.7858 46.0579 43.4019L38.6623 42.3443C37.683 42.2033 38.0669 42.1876 36.7586 39.5631L34.2907 34.6432C33.3428 33.3035 32.6456 35.3091 32.4654 35.6694L30.0054 40.5894C29.0652 42.4618 29.551 42.219 28.0781 42.4148C25.9785 42.6969 23.7301 43.0259 21.5286 43.3706C18.8258 43.7937 20.5336 44.8591 22.6411 46.9666C23.0876 47.4131 26.4329 50.4372 26.4329 50.6879Z" fill="white"/>
</g>
<defs>
<filter id="filter0_d_113_3132" x="0" y="0" width="67.0781" height="71" filterUnits="userSpaceOnUse" color-interpolation-filters="sRGB">
<feFlood flood-opacity="0" result="BackgroundImageFix"/>
<feColorMatrix in="SourceAlpha" type="matrix" values="0 0 0 0 0 0 0 0 0 0 0 0 0 0 0 0 0 0 127 0" result="hardAlpha"/>
<feOffset dy="10"/>
<feGaussianBlur stdDeviation="3"/>
<feComposite in2="hardAlpha" operator="out"/>
<feColorMatrix type="matrix" values="0 0 0 0 0 0 0 0 0 0 0 0 0 0 0 0 0 0 0.1 0"/>
<feBlend mode="normal" in2="BackgroundImageFix" result="effect1_dropShadow_113_3132"/>
<feBlend mode="normal" in="SourceGraphic" in2="effect1_dropShadow_113_3132" result="shape"/>
</filter>
</defs>
</svg>
