<svg width="11" height="12" viewBox="0 0 11 12" fill="none" xmlns="http://www.w3.org/2000/svg">
<path d="M1.67337 2.53947V10.0368C2.70815 9.48481 3.7958 8.86752 4.89218 8.24528L4.91422 8.23277C6.02283 7.60359 7.13996 6.96982 8.21663 6.39594C8.15672 6.35656 8.08322 6.31001 7.99908 6.25793C7.77852 6.1214 7.48975 5.9499 7.19267 5.77602C6.82177 5.55893 6.43095 5.33413 6.15199 5.17367C5.98942 5.08016 5.86484 5.0085 5.80432 4.97294L1.67337 2.53947ZM1.67337 2.53947C2.44682 2.96116 3.55883 3.62905 4.53711 4.21662C5.00806 4.49948 5.44802 4.76373 5.80429 4.97293L1.67337 2.53947ZM5.07865 9.49702L5.07866 9.49703L5.07998 9.49629L6.75799 8.55631C6.97683 8.43969 7.11115 8.36488 7.32321 8.24639L7.32324 8.24637C7.38274 8.2131 7.44234 8.18053 7.50194 8.14796C7.63063 8.07764 7.7593 8.00733 7.88693 7.92996L7.88707 7.92988C7.99811 7.86241 8.10647 7.80272 8.21564 7.74259C8.29 7.70162 8.36473 7.66046 8.44093 7.61649L9.00078 7.30743C9.02963 7.29255 9.06102 7.27667 9.09421 7.25988C9.19954 7.20658 9.32295 7.14414 9.44075 7.07567C9.59569 6.98561 9.7563 6.87673 9.86786 6.74843C9.98131 6.61796 10.0594 6.44758 9.99838 6.25242C9.94142 6.07017 9.77338 5.90516 9.5037 5.74767L9.50353 5.74757L5.31559 3.31011C5.18626 3.2319 4.19813 2.63814 3.21463 2.06274C2.72171 1.77435 2.22915 1.4901 1.84623 1.27759C1.65496 1.17144 1.48978 1.08248 1.3651 1.01971C1.30297 0.988423 1.24912 0.962739 1.20628 0.944521C1.18497 0.93546 1.16446 0.927418 1.14591 0.921379C1.13122 0.916594 1.10419 0.908346 1.07522 0.907951L1.0752 0.907951C0.745296 0.903497 0.47239 1.17906 0.47239 1.53859V11.0365C0.47239 11.1959 0.522285 11.3477 0.629145 11.4607C0.737187 11.5749 0.891156 11.6365 1.07288 11.6365C1.11658 11.6365 1.16571 11.6206 1.20245 11.6074C1.24555 11.592 1.29751 11.5702 1.3559 11.5439C1.47302 11.491 1.62398 11.416 1.7968 11.3265C2.14285 11.1471 2.58312 10.9057 3.02892 10.6567C3.53864 10.372 4.05362 10.0786 4.44742 9.85419C4.74557 9.68431 4.97427 9.554 5.07865 9.49702Z" fill="#E9AF8F" stroke="#E9AF8F" stroke-width="0.276"/>
</svg>
