<svg width="28" height="22" viewBox="0 0 28 22" fill="none" xmlns="http://www.w3.org/2000/svg">
<path d="M8.50812 19.8669L8.50815 19.8669C8.8007 19.907 9.16087 19.9049 9.53541 19.9027C9.58544 19.9024 9.63573 19.9021 9.68615 19.9019C9.68618 19.9019 9.6862 19.9019 9.68622 19.9019L8.50812 19.8669ZM8.50812 19.8669C8.30481 19.8391 8.09552 19.8443 7.89991 19.8492L7.88478 19.8496C7.68032 19.8547 7.49079 19.8586 7.31238 19.8315L7.31233 19.8315M8.50812 19.8669L7.31233 19.8315M7.31233 19.8315C7.10452 19.8002 6.96697 19.8008 6.77162 19.8017C6.75152 19.8018 6.73081 19.8019 6.70934 19.8019L4.97445 19.6425L4.97428 19.6425M7.31233 19.8315L4.97428 19.6425M4.97428 19.6425C4.00123 19.5543 3.39257 19.1632 2.99182 18.5951C2.58526 18.0187 2.38374 17.2477 2.25801 16.3852C1.97786 14.4626 1.95621 10.2463 2.00996 8.44438L2.25175 5.61445C2.39194 4.67301 2.61042 3.83551 3.05845 3.22732C3.49988 2.62806 4.17529 2.23691 5.26998 2.21094C5.4401 2.2069 5.66562 2.18868 5.90923 2.169C5.9652 2.16448 6.02212 2.15988 6.07955 2.15536C6.39037 2.13089 6.72034 2.10823 7.01447 2.1089H7.01449M4.97428 19.6425L7.01449 2.1089M7.01449 2.1089C7.16451 2.10922 7.25426 2.0983 7.33625 2.0856C7.34865 2.08368 7.36063 2.08177 7.37244 2.07988C7.43588 2.06974 7.49435 2.06039 7.58558 2.05547L7.01449 2.1089ZM11.745 1.95509L11.7433 1.95511C11.3328 1.95571 10.9208 1.9551 10.5102 1.95299L8.20278 2.05607C8.20258 2.05608 8.20238 2.05609 8.20219 2.0561C8.09707 2.06167 7.9882 2.05874 7.88587 2.05599L7.88308 2.05591L11.745 1.95509ZM11.745 1.95509L15.4932 1.90201M11.745 1.95509L15.4932 1.90201M27.4516 9.41248H27.4516V13.2881V13.298L27.4512 13.298L27.3188 15.1441L27.3181 15.1542L27.3177 15.1541C27.2887 15.3525 27.2717 15.5608 27.2561 15.7687C27.2543 15.7925 27.2525 15.8164 27.2508 15.8402C27.2372 16.0225 27.2238 16.204 27.203 16.3711C27.0718 17.4292 26.762 18.5616 26.1005 19.3744C25.0255 20.6954 23.7374 20.8098 22.1802 20.896C21.8029 20.9169 21.3561 20.9461 20.8774 20.9773C19.6244 21.0591 18.153 21.1551 17.1375 21.1545C16.6801 21.1542 16.2681 21.167 15.8547 21.1799L15.8453 21.1802C15.4354 21.193 15.0237 21.2058 14.568 21.2058C14.079 21.2058 13.6328 21.1929 13.192 21.1801L13.1836 21.1799C12.7453 21.1671 12.3122 21.1545 11.844 21.1545C11.0737 21.1545 9.50311 21.135 7.94243 21.07C6.38797 21.0054 4.8245 20.8952 4.08033 20.7098L4.08031 20.7098C2.65173 20.3539 1.72244 19.1654 1.36913 17.7758L1.36913 17.7758C0.987552 16.2743 0.885549 14.2971 0.862011 12.4352L0.861989 12.4334L0.862 9.42674V9.31101C0.862 8.1679 0.99017 6.6004 1.11537 5.49176L1.11537 5.49176C1.32104 3.67158 2.09601 2.0097 3.88778 1.33381C4.06647 1.2664 4.33654 1.21228 4.64414 1.16709C4.95476 1.12145 5.31425 1.08349 5.67766 1.05126C6.1215 1.0119 6.58153 0.980346 6.96496 0.954048C7.20373 0.937671 7.4128 0.923332 7.56976 0.910413L27.4516 9.41248ZM27.4516 9.41248L27.4515 9.40925M27.4516 9.41248L27.4515 9.40925M27.4515 9.40925C27.426 8.3185 27.379 7.27286 27.3047 6.56729C27.2822 6.35335 27.2656 6.15104 27.2492 5.95062L27.2489 5.94742C27.2324 5.7464 27.216 5.54705 27.194 5.34263C26.9989 3.53007 26.2147 1.84844 24.3711 1.22809C23.6938 1.00014 22.7615 0.969971 21.9166 0.960614C21.7841 0.959138 21.7102 0.947299 21.6313 0.934672L21.6305 0.934546C21.5464 0.921076 21.4572 0.90687 21.3051 0.905263C21.3047 0.905259 21.3042 0.905254 21.3038 0.90525L14.0579 0.701898L14.0579 0.701844H14.054C13.5998 0.701844 13.1858 0.714675 12.7732 0.727465L12.745 0.72834C12.3226 0.741425 11.9005 0.754167 11.4332 0.753111V0.752951L11.4265 0.753256L8.2327 0.899776L8.23269 0.899476M27.4515 9.40925L8.23269 0.899476M8.23269 0.899476L8.22363 0.900492M8.23269 0.899476L8.22363 0.900492M8.22363 0.900492C8.12545 0.911512 8.02441 0.909966 7.91378 0.907219M8.22363 0.900492L7.91378 0.907219M15.4932 1.90201C15.4935 1.90201 15.4938 1.90201 15.4941 1.90201M15.4932 1.90201L15.4941 1.90201M15.4941 1.90201C15.7403 1.9019 15.9374 1.91489 16.1355 1.92799L16.1372 1.9281C16.3343 1.94114 16.5328 1.95427 16.7759 1.95344L20.0106 2.05306C20.1245 2.06222 20.2431 2.05966 20.3543 2.05667L20.3783 2.05603C20.4843 2.05314 20.5832 2.05044 20.6765 2.05546L15.4941 1.90201ZM7.91378 0.907219C7.90675 0.907045 7.89967 0.906865 7.89255 0.906684M7.91378 0.907219L7.89255 0.906684M7.89255 0.906684C7.79066 0.904095 7.68018 0.901289 7.5698 0.910409L7.89255 0.906684ZM10.9206 19.9544H10.9191L21.8116 2.13901C21.8423 2.14265 21.8745 2.14646 21.9093 2.15036L21.9093 2.15036C22.0942 2.17107 22.2802 2.17614 22.466 2.17875C22.5038 2.17928 22.5416 2.17971 22.5794 2.18014C22.7288 2.18185 22.8785 2.18356 23.0331 2.19155C23.4172 2.21141 23.8227 2.26988 24.2727 2.46158L24.2728 2.46159C24.8991 2.72825 25.2944 3.21954 25.5594 3.82293C25.8253 4.42822 25.9558 5.13709 26.0549 5.82579L26.2523 8.29006C26.2568 8.44784 26.252 8.62196 26.247 8.80326C26.2456 8.85182 26.2443 8.90088 26.2431 8.95029C26.2375 9.18166 26.2355 9.41953 26.2587 9.62687L26.2587 9.62689C26.3671 10.5908 26.2853 12.9532 26.2022 13.9744C26.1861 14.1712 26.1773 14.3772 26.1681 14.59C26.165 14.663 26.1618 14.7368 26.1583 14.8113C26.1445 15.1051 26.1253 15.415 26.0827 15.7476C26.0694 15.8516 26.0579 15.9513 26.0467 16.0489C26.0171 16.307 25.9892 16.55 25.9326 16.8169L26.0676 16.8456L25.9326 16.8169C25.651 18.145 25.1856 19.2404 23.8625 19.6321C23.5737 19.7176 23.0468 19.7638 22.4847 19.7925C22.2067 19.8067 21.9246 19.8165 21.6654 19.8252L21.6128 19.827C21.3755 19.8349 21.1584 19.8422 20.9858 19.8515L17.9062 19.9542C17.6677 19.9534 17.4773 19.9667 17.2893 19.9798L17.2887 19.9798C17.0999 19.993 16.9131 20.006 16.6753 20.0058C16.3752 20.0054 16.0751 20.0055 15.7752 20.0056C15.6471 20.0056 15.519 20.0056 15.391 20.0056C15.3908 20.0056 15.3905 20.0056 15.3903 20.0056L10.9206 19.9544ZM20.9506 2.08654C21.0421 2.09908 21.1429 2.10957 21.3008 2.10814L20.8998 2.07938C20.9163 2.08174 20.9331 2.08415 20.9506 2.08654Z" fill="#E9AF8F" stroke="#E9AF8F" stroke-width="0.276"/>
</svg>
