<svg width="120" height="211" viewBox="0 0 120 211" fill="none" xmlns="http://www.w3.org/2000/svg">
<path d="M10.8575 55.7993C10.6496 56.3367 11.0964 56.8692 11.6617 56.7577L23.4075 54.4426C23.9728 54.3312 24.2327 53.6595 23.8753 53.2335L16.4491 44.3833C16.0916 43.9573 15.3849 44.0966 15.177 44.634L10.8575 55.7993Z" fill="#6FD6BD"/>
<path d="M15.3362 49.3471L13.7172 50.6237L17.3556 54.9598L18.8788 53.7605C46.3639 32.12 85.5555 34.6269 110.075 58.975L111.371 60.2618L115.721 56.6122L114.173 55.0688C87.6327 28.6039 45.1235 25.8594 15.3362 49.3471Z" fill="url(#paint0_linear_1156_788)"/>
<path fill-rule="evenodd" clip-rule="evenodd" d="M107.059 153.338C107.624 153.226 108.071 153.759 107.863 154.296L103.544 165.461C103.336 165.999 102.629 166.138 102.272 165.712L100.138 163.17C70.5746 184.009 30.138 180.544 4.54768 155.027L2.99994 153.483L7.34942 149.834L8.64527 151.12C32.1837 174.494 69.2427 177.74 96.4867 158.818L94.8455 156.862C94.4881 156.436 94.748 155.764 95.3133 155.653L107.059 153.338Z" fill="url(#paint1_linear_1156_788)"/>
<g filter="url(#filter0_dd_1156_788)">
<rect x="15.9995" y="59.9405" width="88" height="88" rx="44" fill="white"/>
</g>
<path d="M59.9995 118.94C68.2838 118.94 74.9995 112.225 74.9995 103.94C74.9995 95.6562 68.2838 88.9405 59.9995 88.9405C51.7152 88.9405 44.9995 95.6562 44.9995 103.94C44.9995 112.225 51.7152 118.94 59.9995 118.94Z" stroke="#6FD6BD" stroke-width="3.33333" stroke-miterlimit="10" stroke-linecap="round" stroke-linejoin="round"/>
<path d="M64.9995 100.607L58.3328 107.274L54.9995 103.941" stroke="#6FD6BD" stroke-width="3.33333" stroke-linecap="round" stroke-linejoin="round"/>
<defs>
<filter id="filter0_dd_1156_788" x="-0.000488281" y="51.9405" width="120" height="120" filterUnits="userSpaceOnUse" color-interpolation-filters="sRGB">
<feFlood flood-opacity="0" result="BackgroundImageFix"/>
<feColorMatrix in="SourceAlpha" type="matrix" values="0 0 0 0 0 0 0 0 0 0 0 0 0 0 0 0 0 0 127 0" result="hardAlpha"/>
<feOffset dy="8"/>
<feGaussianBlur stdDeviation="8"/>
<feColorMatrix type="matrix" values="0 0 0 0 0 0 0 0 0 0 0 0 0 0 0 0 0 0 0.08 0"/>
<feBlend mode="normal" in2="BackgroundImageFix" result="effect1_dropShadow_1156_788"/>
<feColorMatrix in="SourceAlpha" type="matrix" values="0 0 0 0 0 0 0 0 0 0 0 0 0 0 0 0 0 0 127 0" result="hardAlpha"/>
<feOffset/>
<feGaussianBlur stdDeviation="2"/>
<feColorMatrix type="matrix" values="0 0 0 0 0 0 0 0 0 0 0 0 0 0 0 0 0 0 0.04 0"/>
<feBlend mode="normal" in2="effect1_dropShadow_1156_788" result="effect2_dropShadow_1156_788"/>
<feBlend mode="normal" in="SourceGraphic" in2="effect2_dropShadow_1156_788" result="shape"/>
</filter>
<linearGradient id="paint0_linear_1156_788" x1="16.4836" y1="48.2549" x2="102.789" y2="64.3897" gradientUnits="userSpaceOnUse">
<stop stop-color="#6FD6BD"/>
<stop offset="1" stop-color="#6FD6BD" stop-opacity="0"/>
</linearGradient>
<linearGradient id="paint1_linear_1156_788" x1="110.5" y1="152.94" x2="12.8815" y2="143.562" gradientUnits="userSpaceOnUse">
<stop stop-color="#3E8BF3"/>
<stop offset="1" stop-color="#3E8BF3" stop-opacity="0"/>
</linearGradient>
</defs>
</svg>
